<?xml version="1.0" encoding="utf-8"?>
<!-- Generator: Adobe Illustrator 26.3.1, SVG Export Plug-In . SVG Version: 6.00 Build 0)  -->
<svg version="1.1" id="Livello_1" xmlns="http://www.w3.org/2000/svg" xmlns:xlink="http://www.w3.org/1999/xlink" x="0px" y="0px"
	 viewBox="0 0 131 122" style="enable-background:new 0 0 131 122;" xml:space="preserve">
<g id="show-on-hover_00000096032049813562712310000008918699622142267812_">
	<g id="show-on-hover">
		<g id="Handbook_Over">
			<g>
				<path style="fill:none;stroke:#1D1D1B;stroke-width:2.818;stroke-linecap:round;stroke-miterlimit:10;" d="M107.2,120.8H32.3
					c-2.9,0-5.4-2.3-5.4-5.4V6.5c0-2.9,2.3-5.4,5.4-5.4h75c2.9,0,5.4,2.3,5.4,5.4v109C112.5,118.5,110.2,120.8,107.2,120.8z"/>
				
					<line style="fill:none;stroke:#1D1D1B;stroke-width:2.818;stroke-linecap:round;stroke-miterlimit:10;" x1="18.4" y1="18.4" x2="35.5" y2="18.4"/>
				
					<line style="fill:none;stroke:#1D1D1B;stroke-width:2.818;stroke-linecap:round;stroke-miterlimit:10;" x1="18.4" y1="35.4" x2="35.5" y2="35.4"/>
				
					<line style="fill:none;stroke:#1D1D1B;stroke-width:2.818;stroke-linecap:round;stroke-miterlimit:10;" x1="18.4" y1="52.5" x2="35.5" y2="52.5"/>
				
					<line style="fill:none;stroke:#1D1D1B;stroke-width:2.818;stroke-linecap:round;stroke-miterlimit:10;" x1="18.4" y1="86.6" x2="35.5" y2="86.6"/>
				
					<line style="fill:none;stroke:#1D1D1B;stroke-width:2.818;stroke-linecap:round;stroke-miterlimit:10;" x1="18.4" y1="69.5" x2="35.5" y2="69.5"/>
				
					<line style="fill:none;stroke:#1D1D1B;stroke-width:2.818;stroke-linecap:round;stroke-miterlimit:10;" x1="18.4" y1="103.5" x2="35.5" y2="103.5"/>
				
					<path style="fill:#FCBB16;stroke:#000000;stroke-width:2.818;stroke-linecap:round;stroke-linejoin:round;stroke-miterlimit:10;" d="
					M66.3,52.5h32.1c2.9,0,5.4-2.3,5.4-5.4V15c0-2.9-2.3-5.4-5.4-5.4H66.3c-2.9,0-5.4,2.3-5.4,5.4v32.1
					C60.9,50.1,63.4,52.5,66.3,52.5z"/>
				
					<line style="fill:none;stroke:#1D1D1B;stroke-width:2.818;stroke-linecap:round;stroke-miterlimit:10;" x1="103.8" y1="78.2" x2="69.6" y2="78.2"/>
				
					<line style="fill:none;stroke:#1D1D1B;stroke-width:2.818;stroke-linecap:round;stroke-miterlimit:10;" x1="103.8" y1="69.5" x2="86.7" y2="69.5"/>
				
					<line style="fill:none;stroke:#1D1D1B;stroke-width:2.818;stroke-linecap:round;stroke-miterlimit:10;" x1="69.7" y1="69.5" x2="78.1" y2="69.5"/>
				<path style="stroke:#1D1D1B;stroke-width:2.818;stroke-linecap:round;stroke-miterlimit:10;" d="M82.7,112.9h16.4
					c2.5,0,4.6-2.1,4.6-4.6l0,0c0-2.5-2.1-4.6-4.6-4.6H82.7c-2.5,0-4.6,2.1-4.6,4.6l0,0C78.1,110.9,80.2,112.9,82.7,112.9z"/>
				
					<path style="fill:#FCBB16;stroke:#000000;stroke-width:2.818;stroke-linecap:round;stroke-linejoin:round;stroke-miterlimit:10;" d="
					M56.3,112.9h8.8c2.5,0,4.6-2.1,4.6-4.6l0,0c0-2.5-2.1-4.6-4.6-4.6h-8.8c-2.5,0-4.6,2.1-4.6,4.6l0,0
					C51.7,110.9,53.8,112.9,56.3,112.9z"/>
			</g>
		</g>
	</g>
</g>
<g id="Livello_3">
	<g id="HANDBOOK">
		<g id="Handbook_Base">
			<g>
				<path style="fill:none;stroke:#1D1D1B;stroke-width:2.818;stroke-linecap:round;stroke-miterlimit:10;" d="M107.2,120H32.3
					c-2.9,0-5.4-2.3-5.4-5.4V5.7c0-2.9,2.3-5.4,5.4-5.4h75c2.9,0,5.4,2.3,5.4,5.4v109C112.5,117.6,110.2,120,107.2,120z"/>
				
					<line style="fill:none;stroke:#1D1D1B;stroke-width:2.818;stroke-linecap:round;stroke-miterlimit:10;" x1="18.4" y1="17.5" x2="35.5" y2="17.5"/>
				
					<line style="fill:none;stroke:#1D1D1B;stroke-width:2.818;stroke-linecap:round;stroke-miterlimit:10;" x1="18.4" y1="34.6" x2="35.5" y2="34.6"/>
				
					<line style="fill:none;stroke:#1D1D1B;stroke-width:2.818;stroke-linecap:round;stroke-miterlimit:10;" x1="18.4" y1="51.6" x2="35.5" y2="51.6"/>
				
					<line style="fill:none;stroke:#1D1D1B;stroke-width:2.818;stroke-linecap:round;stroke-miterlimit:10;" x1="18.4" y1="85.8" x2="35.5" y2="85.8"/>
				
					<line style="fill:none;stroke:#1D1D1B;stroke-width:2.818;stroke-linecap:round;stroke-miterlimit:10;" x1="18.4" y1="68.6" x2="35.5" y2="68.6"/>
				
					<line style="fill:none;stroke:#1D1D1B;stroke-width:2.818;stroke-linecap:round;stroke-miterlimit:10;" x1="18.4" y1="102.6" x2="35.5" y2="102.6"/>
				<path style="fill:none;stroke:#1D1D1B;stroke-width:2.818;stroke-linecap:round;stroke-miterlimit:10;" d="M66.3,51.6h32.1
					c2.9,0,5.4-2.3,5.4-5.4V14.1c0-2.9-2.3-5.4-5.4-5.4H66.3c-2.9,0-5.4,2.3-5.4,5.4v32.1C60.9,49.2,63.4,51.6,66.3,51.6z"/>
				
					<line style="fill:none;stroke:#1D1D1B;stroke-width:2.818;stroke-linecap:round;stroke-miterlimit:10;" x1="103.8" y1="77.3" x2="69.6" y2="77.3"/>
				
					<line style="fill:none;stroke:#1D1D1B;stroke-width:2.818;stroke-linecap:round;stroke-miterlimit:10;" x1="103.8" y1="68.7" x2="86.7" y2="68.7"/>
				
					<line style="fill:none;stroke:#1D1D1B;stroke-width:2.818;stroke-linecap:round;stroke-miterlimit:10;" x1="69.7" y1="68.7" x2="78.1" y2="68.7"/>
				<path style="stroke:#1D1D1B;stroke-width:2.818;stroke-linecap:round;stroke-miterlimit:10;" d="M82.7,112.1h16.4
					c2.5,0,4.6-2.1,4.6-4.6l0,0c0-2.5-2.1-4.6-4.6-4.6H82.7c-2.5,0-4.6,2.1-4.6,4.6l0,0C78.1,110,80.2,112.1,82.7,112.1z"/>
				<path style="fill:none;stroke:#1D1D1B;stroke-width:2.818;stroke-linecap:round;stroke-miterlimit:10;" d="M56.3,112.1h8.8
					c2.5,0,4.6-2.1,4.6-4.6l0,0c0-2.5-2.1-4.6-4.6-4.6h-8.8c-2.5,0-4.6,2.1-4.6,4.6l0,0C51.7,110,53.8,112.1,56.3,112.1z"/>
			</g>
		</g>
	</g>
</g>
</svg>
