<svg width="335" height="200" viewBox="0 0 335 200" fill="none" xmlns="http://www.w3.org/2000/svg">
<mask id="mask0_1761_4663" style="mask-type:alpha" maskUnits="userSpaceOnUse" x="0" y="0" width="335" height="200">
<rect width="335" height="200" fill="#F9F9F9"/>
</mask>
<g mask="url(#mask0_1761_4663)">
<path d="M304.488 171.881C301.041 170.194 297.064 169.944 293.432 171.185C288.757 172.777 283.798 168.25 285.718 163.301L294.06 141.865C294.07 141.839 294.075 141.812 294.074 141.784C294.074 141.757 294.068 141.729 294.057 141.704C294.045 141.679 294.029 141.656 294.009 141.637C293.99 141.618 293.966 141.603 293.94 141.593L228.724 116.26C227.941 115.955 227.105 115.808 226.265 115.826C225.425 115.844 224.596 116.027 223.827 116.365C223.057 116.703 222.362 117.19 221.781 117.796C221.2 118.403 220.744 119.118 220.44 119.901L197.432 179.025C196.82 180.606 196.859 182.365 197.543 183.917C198.227 185.468 199.498 186.686 201.079 187.302C268.261 213.394 266.265 212.654 266.376 212.654C266.419 212.655 266.46 212.642 266.495 212.618C266.53 212.594 266.557 212.56 266.572 212.52L274.351 192.529C274.794 191.467 275.527 190.551 276.466 189.887C277.406 189.222 278.514 188.835 279.664 188.771C280.813 188.706 281.957 188.967 282.966 189.523C283.974 190.078 284.804 190.907 285.363 191.912C286.462 193.913 288.018 195.627 289.904 196.915C291.79 198.203 293.954 199.028 296.219 199.324C298.484 199.62 300.787 199.378 302.941 198.618C305.095 197.858 307.04 196.601 308.617 194.95C310.194 193.299 311.359 191.299 312.018 189.114C312.676 186.928 312.81 184.618 312.408 182.371C312.005 180.125 311.079 178.004 309.703 176.182C308.327 174.36 306.54 172.888 304.488 171.885V171.881ZM311.598 189.102C310.778 191.749 309.196 194.096 307.05 195.85C304.903 197.604 302.287 198.688 299.528 198.966C296.769 199.243 293.989 198.703 291.536 197.412C289.082 196.121 287.063 194.136 285.732 191.706C285.14 190.623 284.253 189.73 283.173 189.131C282.094 188.532 280.866 188.251 279.633 188.321C278.4 188.392 277.213 188.81 276.208 189.528C275.204 190.245 274.424 191.233 273.959 192.376L266.257 212.164L201.23 186.91C199.754 186.334 198.566 185.197 197.928 183.748C197.29 182.299 197.252 180.656 197.824 179.179L220.831 120.054C221.115 119.323 221.541 118.654 222.084 118.088C222.627 117.521 223.276 117.066 223.995 116.75C224.713 116.434 225.487 116.263 226.272 116.246C227.057 116.229 227.838 116.366 228.57 116.651L293.596 141.915L285.332 163.155C284.901 164.312 284.808 165.568 285.064 166.776C285.32 167.983 285.914 169.094 286.777 169.977C287.64 170.861 288.736 171.482 289.939 171.767C291.141 172.052 292.4 171.99 293.568 171.588C296.032 170.75 298.68 170.61 301.219 171.182C303.758 171.754 306.09 173.016 307.956 174.829C309.821 176.642 311.149 178.935 311.792 181.455C312.435 183.975 312.367 186.624 311.598 189.108V189.102Z" fill="#4EAAF0"/>
<path d="M395.531 91.3349L381.581 85.9301C380.521 85.4877 379.606 84.755 378.942 83.8161C378.278 82.8772 377.891 81.77 377.827 80.6214C377.763 79.4728 378.023 78.3293 378.578 77.322C379.133 76.3147 379.961 75.4843 380.965 74.926C383.388 73.5974 385.381 71.6041 386.711 69.1804C388.04 66.7568 388.651 64.0035 388.471 61.2442C388.292 58.485 387.329 55.8344 385.696 53.6041C384.063 51.3738 381.828 49.6565 379.254 48.6541C376.68 47.6516 373.873 47.4056 371.164 47.9451C368.455 48.4846 365.956 49.787 363.961 51.6994C361.966 53.6117 360.558 56.0545 359.902 58.7405C359.246 61.4266 359.37 64.2442 360.258 66.8623C360.711 68.2358 360.679 69.7231 360.169 71.0762C360.141 71.0989 360.12 71.1286 360.107 71.1623C359.531 72.6381 358.395 73.8252 356.946 74.4631C355.498 75.1011 353.855 75.1378 352.38 74.5652L331.054 66.2657C331.032 66.2412 331.005 66.2221 330.974 66.21C330.944 66.1979 330.911 66.1931 330.879 66.1961C330.846 66.199 330.815 66.2096 330.787 66.2269C330.759 66.2442 330.736 66.2679 330.719 66.2959C330.63 66.4076 330.593 66.7048 325.124 80.6928C325.108 80.7439 325.111 80.7995 325.134 80.8482C325.157 80.8969 325.198 80.9349 325.248 80.9544C325.298 80.9739 325.353 80.9734 325.403 80.953C325.453 80.9326 325.493 80.8938 325.515 80.8447L331.009 66.6992L352.227 74.9573C353.806 75.5696 355.564 75.53 357.114 74.8471C358.664 74.1641 359.88 72.8936 360.496 71.3142C360.509 71.2803 360.513 71.2438 360.507 71.2081C360.535 71.1858 360.557 71.1565 360.57 71.1232C361.113 69.7129 361.143 68.156 360.654 66.726C359.789 64.1827 359.668 61.4452 360.305 58.8355C360.941 56.2257 362.309 53.8521 364.247 51.9939C366.185 50.1357 368.613 48.87 371.245 48.3458C373.877 47.8215 376.604 48.0605 379.105 49.0345C381.606 50.0086 383.777 51.6773 385.363 53.8443C386.949 56.0114 387.884 58.5867 388.058 61.2675C388.232 63.9483 387.638 66.6231 386.345 68.9774C385.052 71.3316 383.115 73.2675 380.761 74.5573C379.686 75.1543 378.801 76.0427 378.208 77.1204C377.615 78.1982 377.337 79.4216 377.407 80.6502C377.477 81.8787 377.891 83.0627 378.603 84.066C379.315 85.0693 380.295 85.8513 381.431 86.3222L395.38 91.7259C396.111 92.0099 396.779 92.4354 397.346 92.978C397.912 93.5205 398.366 94.1696 398.682 94.888C398.998 95.6064 399.169 96.3801 399.186 97.1648C399.203 97.9495 399.065 98.7298 398.781 99.4612L375.813 158.604C375.529 159.335 375.104 160.004 374.562 160.571C374.02 161.138 373.371 161.592 372.654 161.908C371.936 162.224 371.163 162.395 370.379 162.412C369.596 162.429 368.816 162.291 368.086 162.006L303.724 136.958L311.975 115.711C312.337 114.761 312.47 113.738 312.363 112.726C312.256 111.714 311.912 110.742 311.359 109.888C310.807 109.034 310.061 108.323 309.182 107.811C308.304 107.3 307.317 107.003 306.303 106.945C306.275 106.943 306.247 106.946 306.221 106.954C306.194 106.963 306.17 106.977 306.149 106.995C306.127 107.013 306.11 107.035 306.098 107.06C306.085 107.084 306.078 107.112 306.076 107.139C306.074 107.167 306.077 107.195 306.086 107.221C306.095 107.248 306.109 107.272 306.127 107.293C306.145 107.314 306.168 107.331 306.193 107.343C306.218 107.355 306.245 107.362 306.272 107.364C307.222 107.417 308.145 107.694 308.967 108.172C309.79 108.649 310.488 109.314 311.005 110.113C311.523 110.911 311.845 111.82 311.945 112.767C312.046 113.713 311.922 114.67 311.583 115.56L303.256 137.001C303.236 137.053 303.238 137.111 303.26 137.162C303.283 137.213 303.325 137.253 303.376 137.274L367.933 162.394C368.715 162.7 369.549 162.847 370.388 162.829C371.227 162.811 372.054 162.627 372.822 162.289C373.591 161.95 374.284 161.464 374.864 160.856C375.444 160.249 375.899 159.534 376.202 158.75L399.17 99.6098C399.474 98.8273 399.621 97.9924 399.603 97.153C399.584 96.3136 399.401 95.486 399.063 94.7175C398.725 93.9491 398.239 93.2548 397.633 92.6744C397.027 92.094 396.313 91.6388 395.531 91.3349Z" fill="#4EAAF0"/>
<path d="M282.148 80.6774C284.165 78.6493 286.735 77.2522 289.54 76.6583C292.346 76.0644 295.265 76.2996 297.938 77.3348C297.989 77.3563 298.03 77.3967 298.051 77.4475C298.073 77.4983 298.074 77.5554 298.053 77.6067C298.033 77.658 297.994 77.6994 297.943 77.7222C297.893 77.745 297.835 77.7473 297.783 77.7286C295.188 76.7239 292.353 76.4959 289.629 77.0728C286.905 77.6497 284.41 79.0063 282.451 80.9755C282.431 80.9953 282.408 81.0111 282.382 81.0219C282.356 81.0327 282.328 81.0383 282.3 81.0385C282.244 81.0388 282.189 81.0168 282.149 80.9772C282.109 80.9377 282.086 80.8839 282.086 80.8277C282.086 80.7714 282.108 80.7174 282.148 80.6774Z" fill="#4EAAF0"/>
<path d="M324.357 63.6084C324.302 63.4859 327.23 64.7223 259.202 38.229C258.421 37.9252 257.588 37.7782 256.75 37.7964C255.912 37.8146 255.086 37.9977 254.319 38.3351C253.552 38.6726 252.859 39.1578 252.279 39.763C251.7 40.3683 251.246 41.0817 250.942 41.8625L245.513 55.6744C245.077 56.7382 244.348 57.6568 243.41 58.3238C242.473 58.9908 241.366 59.3789 240.218 59.4432C239.069 59.5076 237.925 59.2455 236.919 58.6873C235.914 58.1291 235.086 57.2977 234.534 56.2892C233.208 53.8715 231.219 51.8823 228.801 50.5552C226.383 49.2282 223.636 48.6185 220.883 48.7979C218.13 48.9773 215.486 49.9383 213.261 51.5679C211.036 53.1976 209.322 55.4281 208.322 57.9974C207.322 60.5667 207.076 63.3679 207.614 66.0718C208.152 68.7757 209.452 71.2699 211.359 73.2613C213.267 75.2526 215.704 76.6584 218.384 77.3132C221.064 77.9681 223.875 77.8449 226.487 76.9581C227.577 76.5863 228.749 76.5305 229.869 76.7972C230.989 77.0638 232.011 77.6419 232.815 78.4646C233.62 79.2873 234.175 80.3209 234.416 81.4458C234.658 82.5707 234.575 83.7409 234.178 84.8209L228.001 100.832C227.697 101.612 227.551 102.445 227.569 103.282C227.588 104.12 227.772 104.945 228.11 105.712C228.448 106.478 228.934 107.17 229.54 107.749C230.147 108.327 230.861 108.781 231.642 109.083L277.99 127.092C278.042 127.112 278.1 127.111 278.151 127.088C278.202 127.066 278.241 127.024 278.262 126.972C278.282 126.92 278.28 126.863 278.258 126.812C278.235 126.761 278.194 126.721 278.142 126.701L231.789 108.693C231.059 108.41 230.392 107.986 229.826 107.445C229.26 106.904 228.807 106.257 228.491 105.541C228.176 104.825 228.005 104.054 227.987 103.272C227.97 102.49 228.107 101.712 228.391 100.983L234.566 84.9746C236.609 79.7205 231.355 74.8607 226.352 76.5638C223.815 77.4262 221.084 77.5467 218.481 76.9112C215.877 76.2757 213.509 74.9105 211.656 72.9763C209.802 71.0421 208.539 68.6192 208.016 65.9925C207.494 63.3658 207.732 60.6444 208.704 58.1485C209.675 55.6526 211.34 53.4857 213.502 51.9028C215.664 50.3199 218.233 49.3867 220.907 49.213C223.582 49.0392 226.25 49.6321 228.599 50.922C230.948 52.2118 232.879 54.145 234.166 56.4942C234.962 57.9167 236.255 58.9954 237.798 59.5233C239.341 60.0512 241.025 59.9911 242.526 59.3546C243.294 59.0192 243.988 58.5348 244.568 57.9294C245.148 57.3241 245.602 56.6099 245.903 55.8281L251.33 42.0162C251.614 41.2868 252.038 40.6203 252.579 40.0549C253.121 39.4896 253.768 39.0363 254.485 38.7211C255.201 38.4059 255.973 38.2349 256.756 38.218C257.539 38.201 258.317 38.3384 259.047 38.6222L323.891 63.8145L317.068 81.2844C317.048 81.3362 317.049 81.3939 317.072 81.4448C317.094 81.4956 317.136 81.5355 317.188 81.5556C317.24 81.5757 317.298 81.5743 317.349 81.5519C317.399 81.5294 317.439 81.4877 317.459 81.4358C324.867 62.4879 324.411 63.7332 324.357 63.6084Z" fill="#4EAAF0"/>
<path d="M363.141 136.611L325.116 142.265C325.116 142.265 322.156 129.277 321.665 127.032C318.982 114.819 308.364 110.647 305.417 109.715C305.387 109.838 305.362 109.963 305.337 110.082C300.643 114.921 290.837 118.803 286.29 116.096C264.854 144.049 251.624 162.32 223.286 189.099C218.936 193.132 231.621 206.989 235.992 203.02C268.989 173.265 279.36 163.413 300.502 137.598L311.425 156.323C312.636 158.399 314.458 160.052 316.642 161.059C318.826 162.067 321.267 162.38 323.635 161.955L366.37 154.279C370.223 153.615 367.013 135.906 363.141 136.611Z" fill="#4EAAF0"/>
<path d="M307.456 81.2603C299.052 83.3531 291.15 83.5843 283.953 81.2603C287.983 81.4611 290.241 80.7396 291.536 80.0135C292.116 79.2782 292.493 78.4026 292.629 77.4749C292.765 76.5471 292.655 75.5998 292.31 74.7281C287 75.5675 287.26 67.8179 288.979 62.96L289.729 61.2263C292.117 56.7062 295.873 58.0629 296.714 63.052C296.792 63.6131 297.115 63.5761 297.173 63.5379C297.51 63.4422 297.825 63.2822 298.1 63.0666C300.079 61.692 301.439 65.1673 298.491 66.157C298.115 68.3118 297.896 70.4912 297.837 72.6779C297.767 77.6155 299.161 79.017 300.566 79.7824C302.749 80.706 305.087 81.2075 307.456 81.2603V81.2603Z" fill="#E6E7E8"/>
<path d="M330.785 21.3318C331.649 20.0531 332.035 18.5224 331.879 16.9978C331.723 15.4731 331.034 14.0477 329.928 12.9618C328.821 11.8759 327.366 11.1958 325.807 11.0362C324.248 10.8767 322.68 11.2473 321.368 12.0858C320.055 12.9242 319.079 14.1791 318.603 15.6391C318.127 17.099 318.181 18.6747 318.755 20.1006C319.329 21.5265 320.388 22.7154 321.754 23.4669C323.12 24.2184 324.71 24.4867 326.255 24.2264L327.093 28.224C326.892 28.3038 326.727 28.4516 326.627 28.6403C326.528 28.8291 326.501 29.0464 326.552 29.2528L328.388 38.0107C328.444 38.248 328.593 38.4544 328.803 38.5858C329.012 38.7173 329.266 38.7634 329.51 38.7144C329.754 38.6653 329.969 38.5249 330.108 38.3232C330.248 38.1215 330.301 37.8745 330.257 37.6349L328.421 28.877C328.385 28.6683 328.274 28.4792 328.107 28.3438C327.941 28.2084 327.73 28.1357 327.514 28.1386L326.675 24.1421C328.363 23.7546 329.834 22.7486 330.785 21.3318ZM318.838 18.9162C318.627 17.9104 318.673 16.8693 318.973 15.8851C319.272 14.901 319.815 14.0041 320.553 13.274C321.292 12.5439 322.203 12.0031 323.207 11.6994C324.21 11.3957 325.275 11.3385 326.306 11.533C327.338 11.7274 328.304 12.1674 329.12 12.8141C329.936 13.4607 330.576 14.2941 330.984 15.2403C331.391 16.1865 331.554 17.2163 331.457 18.2386C331.361 19.261 331.007 20.2442 330.429 21.1012C329.731 22.1284 328.737 22.9307 327.574 23.4074C326.41 23.8841 325.128 24.0139 323.889 23.7803C322.65 23.5468 321.51 22.9604 320.611 22.0949C319.712 21.2294 319.095 20.1234 318.838 18.9162Z" fill="#4EAAF0"/>
<path d="M268.379 43.9691L261.967 14.4537C261.961 14.4268 261.95 14.4014 261.934 14.3789C261.919 14.3563 261.899 14.337 261.875 14.3222C261.852 14.3074 261.826 14.2972 261.799 14.2924C261.771 14.2875 261.743 14.288 261.716 14.2939L251.828 16.4021C251.278 16.5288 250.775 16.8075 250.378 17.2057C249.981 17.604 249.707 18.1055 249.586 18.652C249.465 19.1986 249.504 19.7678 249.697 20.2937C249.89 20.8195 250.229 21.2804 250.676 21.6228C251.591 22.326 252.285 23.2733 252.675 24.3534C253.065 25.4334 253.135 26.6013 252.878 27.7197C252.621 28.8381 252.047 29.8605 251.223 30.6668C250.399 31.473 249.359 32.0296 248.227 32.2711C247.095 32.5125 245.916 32.4288 244.83 32.0298C243.744 31.6308 242.796 30.933 242.096 30.0186C241.397 29.1041 240.976 28.011 240.882 26.8677C240.789 25.7244 241.027 24.5785 241.569 23.5646C241.833 23.0705 241.951 22.5124 241.908 21.955C241.865 21.3975 241.663 20.8635 241.326 20.4149C240.989 19.9663 240.531 19.6214 240.004 19.4202C239.477 19.2191 238.903 19.1698 238.349 19.2782L229.127 21.2433C229.072 21.255 229.025 21.2877 228.995 21.334C228.964 21.3804 228.954 21.4368 228.966 21.4908L235.378 51.0062C235.519 51.6546 235.881 52.2355 236.402 52.6527C236.923 53.0698 237.572 53.2981 238.242 53.2998C238.701 53.2998 236.814 53.6715 266.131 47.4189C266.508 47.339 266.865 47.1863 267.182 46.9695C267.499 46.7528 267.769 46.4763 267.978 46.1558C268.187 45.8354 268.33 45.4773 268.399 45.102C268.468 44.7268 268.461 44.3418 268.379 43.9691Z" fill="#4EAAF0"/>
<path d="M259.043 57.815C258.271 55.1642 257.495 51.9195 257.197 50.5198C256.811 48.7105 256.153 42.7402 255.107 44.1053C254.341 45.1098 254.09 48.2351 253.921 49.9394L246.352 51.5467C246.958 54.7267 247.896 57.8364 249.149 60.8264C252.281 59.3522 255.614 58.3377 259.043 57.815V57.815Z" fill="#E6E7E8"/>
<path d="M349.177 202.142L339.007 198.198L342.951 188.03C342.961 188.004 342.966 187.976 342.965 187.949C342.964 187.921 342.958 187.894 342.947 187.868C342.936 187.843 342.92 187.82 342.9 187.801C342.88 187.782 342.856 187.766 342.83 187.756C342.804 187.746 342.777 187.742 342.749 187.742C342.721 187.743 342.694 187.749 342.668 187.76C342.643 187.771 342.62 187.788 342.601 187.808C342.582 187.828 342.567 187.851 342.557 187.877L338.613 198.044L328.445 194.101C328.393 194.081 328.334 194.082 328.283 194.105C328.231 194.127 328.191 194.169 328.171 194.222C328.15 194.274 328.152 194.332 328.174 194.383C328.197 194.435 328.239 194.475 328.291 194.496L338.46 198.44L334.516 208.607C334.506 208.633 334.501 208.661 334.501 208.688C334.502 208.716 334.508 208.743 334.519 208.769C334.531 208.794 334.547 208.817 334.567 208.836C334.587 208.856 334.611 208.871 334.636 208.881C334.662 208.891 334.69 208.895 334.718 208.895C334.745 208.894 334.773 208.888 334.798 208.877C334.824 208.866 334.847 208.85 334.866 208.829C334.885 208.809 334.9 208.786 334.91 208.76L338.855 198.593C349.126 202.575 348.988 202.55 349.1 202.55C349.149 202.549 349.196 202.532 349.234 202.5C349.271 202.469 349.296 202.425 349.305 202.377C349.314 202.329 349.306 202.279 349.283 202.236C349.26 202.193 349.222 202.16 349.177 202.142V202.142Z" fill="#4EAAF0"/>
<path d="M207.156 104.37C208.252 101.226 212.565 100.662 213.656 97.4836C213.826 97.043 213.904 96.5713 213.884 96.0987C213.863 95.6261 213.745 95.1629 213.537 94.739C213.329 94.315 213.036 93.9396 212.676 93.6367C212.316 93.3338 211.897 93.1101 211.446 92.9799C210.995 92.8497 210.523 92.816 210.058 92.8808C209.594 92.9456 209.148 93.1076 208.749 93.3563C208.35 93.605 208.007 93.9351 207.742 94.3252C207.477 94.7154 207.296 95.1571 207.21 95.6222C207.199 95.6779 207.167 95.7273 207.121 95.7594C207.075 95.7915 207.018 95.8037 206.962 95.7933C206.907 95.7829 206.858 95.7507 206.826 95.7039C206.794 95.6571 206.782 95.5995 206.793 95.5437C206.89 95.0206 207.094 94.5238 207.392 94.0848C207.69 93.6458 208.075 93.2745 208.524 92.9944C208.972 92.7144 209.474 92.5318 209.996 92.4584C210.518 92.385 211.05 92.4224 211.557 92.5682C212.065 92.7139 212.536 92.9649 212.942 93.3049C213.347 93.645 213.678 94.0667 213.913 94.5431C214.148 95.0196 214.282 95.5402 214.306 96.0718C214.33 96.6033 214.244 97.1341 214.053 97.6302C213.655 98.798 213.08 99.6213 210.898 101.119C208.644 102.669 207.953 103.367 207.554 104.512C207.534 104.562 207.494 104.603 207.445 104.625C207.395 104.647 207.339 104.649 207.288 104.631C207.237 104.613 207.195 104.576 207.17 104.527C207.146 104.479 207.14 104.422 207.156 104.37V104.37Z" fill="#4EAAF0"/>
<path d="M205.612 107.727C205.446 107.914 205.359 108.158 205.368 108.408C205.377 108.658 205.482 108.894 205.661 109.069C205.84 109.243 206.08 109.341 206.33 109.343C206.58 109.345 206.82 109.25 207.002 109.079C207.168 108.892 207.256 108.648 207.247 108.398C207.238 108.148 207.133 107.912 206.953 107.737C206.774 107.563 206.535 107.465 206.285 107.463C206.035 107.461 205.794 107.556 205.612 107.727V107.727Z" fill="#4EAAF0"/>
<path d="M376.716 139.428C375.421 138.468 373.951 137.772 372.389 137.381C370.355 136.913 368.122 137.731 365.719 138.36C364.916 137.008 364.047 136.374 363.181 136.527L325.377 142.169L321.972 127.084C321.071 122.988 319.095 119.206 316.25 116.129C313.405 113.052 309.792 110.791 305.785 109.579C306.018 108.483 307.447 101.587 307.939 99.5267C324.291 100.096 340.644 98.4654 356.563 94.6784C357.025 94.6571 357.847 94.35 358.517 92.9394C366.686 92.114 369.216 91.4562 375.694 90.4912C376.873 90.3159 381.524 89.639 381.391 88.4641C381.326 87.8889 380.165 87.6119 377.954 87.6432C376.643 87.6589 375.332 87.5629 374.037 87.3562C374.893 87.1205 376.424 86.6615 379.201 85.7993C381.207 85.1783 382.313 84.4356 382.173 83.8123C381.996 83.0194 380.096 83.1188 378.532 83.3399C377.245 83.5316 375.947 83.6435 374.646 83.675C376.034 83.0707 378.691 81.8802 380.819 80.7331C382.482 79.8396 383.295 78.9875 383.048 78.4034C382.792 77.7902 381.496 77.7969 379.492 78.4201C379.15 78.5318 375.406 79.5671 372.916 80.2573C373.975 79.2491 375.132 78.351 376.371 77.5769C377.888 76.6108 378.643 75.6592 378.34 75.0963C378.023 74.51 376.779 74.6563 374.912 75.4984C374.608 75.638 369.077 78.0203 369.077 78.0203C368.1 78.4369 366.456 78.7831 366.187 78.4089C365.002 76.756 365.822 71.6675 363.782 71.347C363.682 71.3306 363.58 71.3351 363.482 71.3603C363.384 71.3855 363.292 71.4308 363.212 71.4933C362.32 72.1634 362.169 74.9556 361.823 77.1178C361.622 78.3654 359.722 79.4889 358.298 79.5872C358.26 79.5872 358.135 79.5995 357.636 79.6565C357.089 78.7306 356.111 77.6238 355.085 77.7835C346.625 78.8836 308.015 83.666 300.498 79.5102C299.12 78.7585 297.853 77.4194 297.89 72.781C298.853 72.4862 303.895 70.7841 304.959 67.1967C305.539 65.2511 304.825 63.109 302.842 60.8305C303.672 61.2568 304.592 61.476 305.525 61.4694C311.391 61.4694 314.937 54.0489 310.89 50.1622C309.6 49.0572 307.926 48.5091 306.234 48.6381C304.542 48.767 302.97 49.5624 301.862 50.8502C300.872 51.826 300.21 53.0858 299.966 54.4553C299.722 55.8249 299.909 57.2365 300.5 58.4952C295.944 54.6543 292.283 55.894 289.657 60.6932C287.873 63.95 286.816 69.4706 288.151 72.6526C288.419 73.4348 288.962 74.0926 289.679 74.5035C290.395 74.9144 291.236 75.0505 292.045 74.8863C292.218 75.3095 292.335 75.7538 292.392 76.2076C292.424 76.785 291.821 79.4465 291.305 79.7335C285.766 82.8396 273.894 79.4309 267.862 77.4239L261.918 58.4081C261.655 57.5537 259.878 57.7067 258.991 57.8083C258.322 55.4629 257.372 51.7202 256.91 48.9303C256.425 46.0119 256.056 44.0876 255.369 43.9178C253.97 43.5682 253.528 50.1086 253.454 51.5572C252.603 52.2944 252.076 53.3375 251.986 54.461C251.733 56.6948 252.822 58.5733 253.155 58.5733C253.195 58.5734 253.234 58.5621 253.267 58.5408C253.301 58.5194 253.328 58.4889 253.345 58.4528C253.362 58.4167 253.368 58.3765 253.363 58.337C253.358 58.2974 253.342 58.2601 253.316 58.2294C252.565 57.1444 252.239 55.8196 252.403 54.5091C252.442 53.9921 252.584 53.4883 252.822 53.0278C253.06 52.5673 253.387 52.1594 253.786 51.8286C253.81 51.81 253.83 51.7864 253.844 51.7594C253.858 51.7324 253.866 51.7027 253.867 51.6722C253.867 51.6141 254.157 45.7327 255.125 44.4494C255.199 44.3511 255.257 44.3221 255.269 44.3255C255.739 44.4371 256.251 47.5197 256.495 48.9996C256.95 51.7314 257.863 55.3657 258.568 57.8619C255.323 58.3879 252.168 59.3653 249.193 60.7658C248.005 57.8513 247.114 54.8241 246.532 51.7303L246.122 51.8129C246.712 54.9437 247.616 58.0068 248.819 60.9556C248.054 61.3644 246.597 62.1987 246.858 63.0285C256.666 94.3131 256.503 93.1248 256.61 93.2365L256.648 93.2633C263.826 96.9444 271.702 99.0568 279.755 99.4608C280.372 103.546 282.472 109.006 286.174 116.139C260.834 149.28 253.282 160.817 223.327 189.217C222.349 190.11 222.108 191.525 222.622 193.32C219.75 195.58 214.535 199.62 211.031 201.964C203.028 207.318 202.095 208.755 202.176 209.411C202.663 213.41 215.978 207.289 222.749 207.847C224.351 208.017 225.97 207.872 227.515 207.42C229.306 206.854 230.723 205.287 232.155 203.816C233.604 204.375 235.156 204.539 236.301 203.496C262.927 179.405 278.591 165.599 300.585 138.081L311.353 156.613C312.589 158.728 314.442 160.414 316.662 161.442C318.883 162.47 321.364 162.791 323.772 162.363L366.472 154.664C367.559 154.479 368.003 153.106 368.178 152.207C371.411 151.753 379.057 150.722 383.846 150.445C393.451 149.893 394.983 149.127 395.245 148.52C396.843 144.819 382.259 143.339 376.716 139.428ZM321.562 127.174C322.788 132.814 322.054 129.242 325.011 142.451C325.021 142.498 325.047 142.539 325.084 142.569C325.121 142.599 325.167 142.615 325.215 142.615L355.518 138.095C357.232 137.806 358.79 144.772 359.114 146.682L323.174 151.365C322.259 151.482 321.332 151.278 320.55 150.787C319.769 150.296 319.181 149.549 318.887 148.673C317.009 143.044 313.774 132.856 313.193 127.865C312.244 119.712 303.051 114.77 301.071 113.792C302.726 112.819 304.25 111.636 305.603 110.272C305.664 110.211 305.665 110.138 305.697 109.986C309.628 111.179 313.17 113.4 315.958 116.421C318.747 119.442 320.682 123.154 321.562 127.174ZM378.591 83.7554C381.075 83.4013 381.731 83.7554 381.764 83.9028C381.808 84.096 381.19 84.7405 379.077 85.3972C377.694 85.8261 373.534 87.116 373.033 87.1708C372.365 87.0312 371.866 86.8927 371.628 86.8212C371.747 85.8522 371.758 84.873 371.66 83.9017C373.966 84.188 376.3 84.1387 378.591 83.7554ZM379.618 78.8155C381.649 78.1822 382.565 78.3218 382.664 78.5597C382.755 78.7831 382.282 79.461 380.621 80.3568C377.817 81.8668 374.085 83.4561 373.599 83.6627C372.931 83.6553 372.264 83.5884 371.608 83.4628C371.492 82.6958 371.306 81.9412 371.051 81.2089C371.555 81.0693 379.159 78.9573 379.618 78.8155ZM358.314 79.996C359.936 79.8843 362.004 78.6278 362.238 77.1737C362.489 75.6101 362.774 71.6106 363.718 71.7513C365.261 71.9936 364.662 76.9872 365.848 78.6424C366.47 79.509 369.215 78.4078 369.244 78.3955C369.244 78.3955 374.78 76.011 375.086 75.8692C376.962 75.0226 377.85 75.0606 377.972 75.2839C378.071 75.4705 377.757 76.1864 376.147 77.2117C374.668 78.1128 373.316 79.2089 372.127 80.4707L370.901 80.8057C370.72 80.3232 370.503 79.824 370.25 79.3035C370.226 79.2535 370.183 79.2152 370.13 79.1971C370.078 79.179 370.02 79.1825 369.97 79.2069C369.92 79.2314 369.882 79.2747 369.864 79.3274C369.846 79.38 369.849 79.4378 369.874 79.4878C371.247 82.1075 371.655 85.1283 371.026 88.0196C371.02 88.073 371.034 88.1268 371.066 88.17C371.098 88.2132 371.145 88.2423 371.198 88.2515C371.251 88.2607 371.306 88.2491 371.35 88.2193C371.395 88.1894 371.427 88.1435 371.438 88.0911C371.489 87.804 371.532 87.5215 371.57 87.2411C373.649 87.8153 375.799 88.0909 377.955 88.0598C380.407 88.0263 380.964 88.4027 380.97 88.5065C380.975 88.6104 380.535 89.1108 378.269 89.5921C377.342 89.7865 376.453 89.9484 375.628 90.0713C367.733 91.2473 365.841 91.9163 354.547 92.84C352.672 89.9652 352.027 84.0715 353.197 80.5142C359.962 79.8307 357.937 80.0128 358.314 79.996ZM291.511 80.0965C292.257 79.6788 292.781 76.9436 292.812 76.2724C294.111 74.7947 294.556 74.3078 294.722 74.109C294.933 73.8577 294.828 73.6276 294.557 73.7002C294.362 73.7527 294.021 73.9169 293.385 74.1291C291.783 74.6596 290.203 74.7713 289.13 73.4757C287.413 71.4051 287.813 66.5377 289.057 63.0241L289.796 61.313C292.069 57.0131 295.55 58.2796 296.357 63.0609C296.44 63.6629 296.832 63.8249 297.091 63.7154C297.824 63.5479 298.198 62.9236 298.863 62.9414C300.043 62.9749 300.453 65.1897 298.268 65.9235L298.242 65.9335C298.212 65.9486 298.187 65.9706 298.167 65.9976C298.148 66.0246 298.135 66.0559 298.13 66.0888C297.755 68.2438 297.536 70.4233 297.476 72.6102C297.406 77.6093 298.865 79.088 300.3 79.8698C302.094 80.67 304.018 81.1366 305.978 81.2469C298.288 83.0071 291.529 83.0573 285.419 81.3999C287.526 81.4741 289.618 81.0264 291.511 80.0965ZM280.143 99.2262C279.731 96.4461 280.091 93.6059 281.183 91.0173C281.194 90.9844 281.197 90.9492 281.191 90.9149C281.186 90.8806 281.171 90.8483 281.15 90.8209C281.129 90.7935 281.101 90.7719 281.069 90.758C281.037 90.7441 281.002 90.7384 280.968 90.7414C280.754 90.7805 281.043 90.2578 277.501 98.8767C270.325 98.2318 263.339 96.2133 256.922 92.9305L247.258 62.9012C247.211 62.7482 247.311 62.5662 247.489 62.3763C249.108 60.6563 255.764 58.6471 258.82 58.2495C258.931 58.2595 261.322 57.8988 261.518 58.5331C267.682 78.4916 267.443 77.6539 267.586 77.7634C267.932 77.9644 277.076 81.0291 283.822 81.3619C291.521 83.8392 299.493 83.2997 307.277 81.3619C319.436 82.3303 341.773 79.8966 353.953 78.3386C350.924 81.2715 352.058 92.6345 355.597 94.4617C341.683 97.6706 327.45 99.2848 313.172 99.2732C309.446 93.8284 309.559 93.9524 309.465 93.8742L309.453 93.8642C309.42 93.8425 309.382 93.8304 309.342 93.8292C309.303 93.828 309.264 93.8378 309.23 93.8575L309.216 93.8664C308.324 94.5656 305.53 108.748 305.256 110.023C300.909 114.49 291.275 118.735 286.576 116.003C282.827 108.786 280.723 103.295 280.144 99.2262H280.143ZM236.022 203.183C231.835 206.996 219.466 193.305 223.609 189.525C225.078 188.131 226.507 186.76 227.896 185.413C227.315 189.489 236.29 199.654 240.209 199.389C238.848 200.626 237.453 201.891 236.022 203.183ZM243.581 196.335C242.743 197.095 241.909 197.879 241.03 198.648C239.89 199.653 237.395 198.268 234.945 196.045C256.328 175.96 276.676 154.795 295.909 132.633L298.224 140.352C278.778 164.002 268.131 174.087 243.581 196.335ZM358.689 155.639L323.693 161.948C321.37 162.361 318.976 162.051 316.833 161.059C314.691 160.067 312.903 158.442 311.711 156.401L294.671 127.074C294.645 127.03 294.604 126.997 294.555 126.982C294.507 126.966 294.454 126.969 294.407 126.989C294.36 127.009 294.323 127.046 294.301 127.093C294.279 127.139 294.275 127.192 294.29 127.241L295.764 132.155C276.483 154.388 256.08 175.618 234.635 195.762C233.917 195.087 233.233 194.376 232.586 193.633C229.597 190.201 227.276 185.991 228.697 184.64C238.581 175.285 247.91 165.358 256.636 154.91C265.185 144.754 273.115 133.913 286.477 116.432C290.296 118.536 296.773 116.273 300.631 114.054C301.774 114.591 311.797 119.526 312.773 127.914C313.358 132.94 316.604 143.163 318.486 148.807C318.811 149.776 319.46 150.602 320.324 151.144C321.188 151.687 322.213 151.913 323.224 151.783L359.182 147.097C359.517 148.962 359.673 150.854 359.648 152.749C359.59 154.484 359.247 155.538 358.689 155.639ZM366.399 154.249L359.502 155.493C361.174 152.764 358.871 140.022 356.344 137.972L363.24 136.943C366.81 136.287 369.946 153.656 366.402 154.249H366.399Z" fill="#000001"/>
<path d="M293.691 88.5562C293.923 88.5402 294.143 88.4695 294.324 88.3531C294.506 88.2368 294.64 88.08 294.71 87.9027C294.78 87.7254 294.782 87.5354 294.717 87.3568C294.652 87.1783 294.523 87.0192 294.345 86.8996C294.167 86.7801 293.948 86.7055 293.717 86.6853C293.486 86.665 293.253 86.7001 293.046 86.786C292.84 86.8719 292.67 87.0048 292.559 87.1679C292.447 87.331 292.398 87.5169 292.419 87.7022C292.432 87.8251 292.475 87.9448 292.546 88.0543C292.618 88.1638 292.715 88.2611 292.833 88.3404C292.951 88.4197 293.088 88.4796 293.235 88.5167C293.382 88.5537 293.537 88.5672 293.691 88.5562V88.5562Z" fill="#000001"/>
<path d="M291.825 96.5488C292.056 96.5285 292.277 96.44 292.458 96.2945C292.639 96.149 292.773 95.953 292.843 95.7314C292.913 95.5098 292.915 95.2724 292.85 95.0493C292.785 94.8262 292.655 94.6275 292.477 94.4781C292.299 94.3287 292.081 94.2355 291.85 94.2101C291.619 94.1848 291.386 94.2285 291.18 94.3358C290.974 94.443 290.804 94.609 290.692 94.8127C290.58 95.0164 290.531 95.2486 290.551 95.4801C290.565 95.634 290.608 95.7837 290.679 95.9208C290.75 96.0578 290.848 96.1795 290.966 96.2787C291.085 96.378 291.221 96.453 291.369 96.4993C291.516 96.5457 291.671 96.5625 291.825 96.5488Z" fill="#000001"/>
<path d="M291.824 105.006C292.055 104.986 292.276 104.897 292.457 104.752C292.639 104.607 292.773 104.411 292.843 104.189C292.913 103.967 292.915 103.73 292.85 103.507C292.785 103.283 292.656 103.085 292.477 102.935C292.299 102.786 292.081 102.692 291.85 102.667C291.619 102.642 291.385 102.686 291.179 102.793C290.973 102.9 290.803 103.067 290.692 103.27C290.58 103.474 290.531 103.707 290.551 103.938C290.565 104.092 290.608 104.242 290.679 104.378C290.75 104.515 290.848 104.637 290.966 104.736C291.084 104.835 291.221 104.91 291.368 104.956C291.515 105.003 291.67 105.02 291.824 105.006V105.006Z" fill="#000001"/>
</g>
</svg>
