<svg width="350" height="230" viewBox="0 0 350 230" fill="none" xmlns="http://www.w3.org/2000/svg">
<mask id="mask0_1761_4690" style="mask-type:alpha" maskUnits="userSpaceOnUse" x="0" y="15" width="335" height="200">
<rect y="15" width="335" height="200" fill="#F9F9F9"/>
</mask>
<g mask="url(#mask0_1761_4690)">
<path d="M308.542 186.212L307.158 185.91C307.08 185.893 307.016 185.859 306.982 185.814C306.947 185.77 306.944 185.719 306.973 185.673C307.002 185.627 307.061 185.59 307.136 185.57C307.212 185.549 307.299 185.547 307.377 185.564L308.761 185.866C308.839 185.883 308.902 185.918 308.937 185.962C308.972 186.007 308.975 186.058 308.946 186.103C308.917 186.149 308.858 186.187 308.782 186.207C308.707 186.227 308.62 186.229 308.542 186.212V186.212Z" fill="#0063D2"/>
<path d="M305.151 184.864L302.472 184.069C302.391 184.041 302.327 183.989 302.293 183.924C302.259 183.859 302.257 183.786 302.287 183.72C302.318 183.654 302.379 183.6 302.458 183.568C302.537 183.537 302.628 183.53 302.712 183.551L305.393 184.344C305.48 184.369 305.55 184.421 305.588 184.488C305.627 184.555 305.63 184.631 305.598 184.7C305.566 184.769 305.501 184.825 305.417 184.856C305.333 184.887 305.238 184.889 305.151 184.864V184.864Z" fill="#0063D2"/>
<path d="M332.696 132.704C332.039 130.847 324.201 114.212 321.623 109.525C317.947 102.831 314.926 102.57 311.988 99.8126C311.97 99.7878 311.954 99.7618 311.94 99.7348C309.393 99.4952 306.928 98.7071 304.715 97.4247C304.412 97.5989 304.09 97.7359 303.754 97.8328C304.542 99.1244 302.415 100.828 300.68 101.089C302.114 100.954 301.5 103.452 299.348 103.827C298.877 103.841 295.166 103.954 293.456 103.985C291.396 109.044 288.171 104.782 288.171 96.8697C288.129 94.6024 288.459 92.3435 289.15 90.1834C289.669 88.731 290.361 87.7783 291.128 87.5898L268.134 89.4745C265.847 89.6624 263.688 90.6056 261.997 92.1553C260.306 93.705 259.18 95.7731 258.795 98.0336C258.41 100.294 258.789 102.618 259.872 104.64C260.955 106.661 262.68 108.265 264.776 109.198L280.038 116.021L278.162 125.162L306.746 138.663L314.976 120.864V131.479L318.609 138.007L309.353 163.406C313.933 166.72 319.398 168.594 325.049 168.79L332.847 144.957C334.148 140.967 334.095 136.661 332.696 132.704Z" fill="#F45A5D"/>
<path d="M332.691 132.454C332.029 130.581 324.192 113.981 321.648 109.353C317.912 102.561 314.884 102.348 312 99.6052C311.602 98.9094 311.378 98.1278 311.348 97.327C311.318 96.5263 311.483 95.7302 311.827 95.0066C312.308 93.9098 312.924 92.8769 313.661 91.9317C317.471 87.8507 325.145 94.3995 325.203 94.4614C326.136 95.4471 327.383 96.0792 328.73 96.25C328.933 96.2676 329.138 96.2403 329.329 96.1702C329.521 96.1001 329.694 95.9888 329.838 95.8442C329.981 95.6996 330.091 95.5253 330.16 95.3336C330.228 95.1419 330.254 94.9375 330.234 94.7349C330.006 93.2949 329.253 91.9897 328.12 91.0701C330.229 91.414 331.114 88.8482 328.041 86.0088C330.496 86.6967 331.502 84.0965 328.41 81.1075C328.089 80.8001 327.743 80.52 327.376 80.27C316.153 70.875 309.328 78.2063 308.895 78.6982C306.721 80.7072 305.007 83.1602 303.868 85.8902C302.261 86.2671 300.741 86.9459 299.389 87.8903C297.524 88.7161 295.547 89.2637 293.523 89.5154C293.271 88.9427 292.454 87.3107 291.319 87.3485C291.147 87.3485 291.691 87.3176 268.061 89.2506C265.911 89.4376 263.868 90.2705 262.202 91.6393C260.535 93.0082 259.323 94.8489 258.725 96.919C256.327 96.7294 253.93 97.2909 251.866 98.5252C218.671 118.232 220.174 117.241 220.101 117.498C220.097 117.71 220.132 117.921 220.205 118.12C216.881 118.695 211.921 119.179 209.32 119.652C198.485 121.635 196.705 122.772 196.399 123.623C194.614 128.518 211.275 128.48 217.532 132.595C219.33 133.861 221.323 134.824 223.433 135.445C225.43 135.504 227.396 134.944 229.06 133.84C229.68 134.494 229.725 134.585 229.909 134.585C230.094 134.585 228.994 135.12 253.054 122.211L264.326 147.377L253.627 150.84C250.782 151.766 248.163 153.276 245.937 155.274C243.712 157.271 241.93 159.711 240.706 162.437C224.219 199.177 225.201 196.802 225.407 197.079C225.509 197.182 226.269 197.767 226.374 197.853C223.045 204.017 218.966 210.989 216.898 215.644C212.002 226.64 211.995 228.914 212.536 229.665C215.839 234.247 225.983 219.281 233.567 216.179C235.404 215.477 237.06 214.373 238.413 212.947C240.215 210.727 241.643 208.23 242.643 205.553C243.118 205.669 243.6 205.758 244.086 205.819C244.365 205.749 243.225 207.94 259.962 172.329C266.631 170.793 277.769 168.413 289.224 166.296C304.779 163.418 306.749 140.037 306.85 138.633L312.11 127.271L318.011 137.87C310.647 158.049 309.097 162.153 308.869 163.04C308.794 163.338 308.869 163.272 308.918 163.331C309.028 163.427 309.596 163.811 309.717 163.891C308.554 166.256 306.848 168.312 304.738 169.893C301.787 172.041 300.524 173.522 300.982 174.289C301.715 175.522 306.239 173.429 307.546 172.824C306.18 175.898 304.467 178.807 302.442 181.495C301.659 182.595 301.494 183.521 301.999 183.966C303.181 185.017 305.858 182.018 306.921 180.829C306.218 182.283 305.438 183.698 304.583 185.069C303.861 186.128 303.746 187.015 304.275 187.442C305.065 188.08 306.389 187.098 307.116 186.331C308.061 185.299 308.944 184.213 309.76 183.077C309.266 184.307 308.816 185.313 308.564 185.82C307.309 188.36 309.243 189.521 311.237 186.774C311.948 185.764 312.604 184.716 313.201 183.634C313.094 184.019 312.989 184.357 312.877 184.666C312.294 186.286 312.716 186.778 313.02 186.926C313.826 187.321 314.868 185.983 315.356 185.222C318.537 179.931 321.321 174.413 323.686 168.712C323.81 168.721 324.719 168.794 324.835 168.772C325.162 168.683 324.65 169.912 332.851 144.849C334.16 140.811 334.103 136.457 332.691 132.454ZM309.329 79.1866C309.502 79.0885 313.247 75.2827 315.721 77.0816C318.085 78.8013 316.324 83.3948 316.496 82.8926C316.141 83.9245 316.841 84.1945 317.919 84.0844C318.519 84.0242 319.105 83.9503 319.439 84.4834C319.992 85.3656 319.16 87.0097 317.039 86.6847C316.982 86.6756 316.923 86.6816 316.868 86.7021C316.814 86.7226 316.766 86.7569 316.729 86.8016C315.868 87.8971 313.24 91.3814 313.073 91.617C311.364 93.9868 309.91 96.7006 311.125 99.3559C309.029 99.0935 306.996 98.4593 305.124 97.4831C305.657 97.144 306.106 96.688 306.437 96.1499C306.767 95.6117 306.971 95.0055 307.031 94.3772C308.849 93.8011 312.415 91.6634 313.111 89.8645C313.176 89.7265 313.212 89.5765 313.216 89.4241C313.219 89.2716 313.191 89.12 313.133 88.9789C312.534 87.7406 308.685 89.653 306.979 90.1087C306.118 90.3392 305.295 90.5232 304.495 90.6608C304.078 89.9491 303.883 89.1293 303.935 88.3064C304.507 87.5927 305.314 86.4353 304.535 85.9813C305.638 83.406 307.272 81.091 309.329 79.1866ZM303.3 89.0373C303.33 89.6448 303.497 90.2376 303.791 90.7709C302.979 90.8859 302.162 90.9582 301.342 90.9875C302.178 90.2205 302.817 89.5722 303.308 89.0373H303.3ZM299.716 88.4475C302.917 86.5454 304.042 86.4371 304.195 86.5402C304.195 86.5402 304.414 87.3468 300.364 91.0116C299.599 91.0116 298.782 90.9807 297.931 90.917C297.846 90.9106 297.761 90.9385 297.696 90.9944C297.631 91.0504 297.59 91.1299 297.584 91.2154C297.578 91.3009 297.606 91.3855 297.662 91.4505C297.718 91.5155 297.797 91.5556 297.883 91.5619C300.992 91.8484 304.128 91.5693 307.138 90.7382C308.153 90.4682 312.146 88.8155 312.541 89.2661C312.572 89.3904 312.557 89.5219 312.498 89.6358C311.172 91.558 309.244 92.9863 307.017 93.6961C305.552 94.0785 304.065 94.3697 302.564 94.5681C302.481 94.5852 302.409 94.6338 302.362 94.7035C302.314 94.7732 302.296 94.8585 302.311 94.9413C302.326 95.0242 302.373 95.098 302.441 95.1471C302.509 95.1962 302.594 95.2167 302.678 95.2044C303.539 95.053 305.115 94.8449 306.364 94.556C306.251 95.1188 306.012 95.6487 305.665 96.1062C305.318 96.5636 304.871 96.9367 304.359 97.1976C303.498 97.6894 303.337 97.6069 300.297 97.9629C300.214 97.9714 300.137 98.0115 300.083 98.075C300.029 98.1384 300.001 98.2203 300.006 98.3034C300.011 98.3866 300.048 98.4647 300.109 98.5214C300.17 98.5781 300.251 98.609 300.335 98.6078L302.969 98.3017H303C303.028 98.3009 303.055 98.2974 303.082 98.2913L303.115 98.281L303.384 98.2501C303.799 99.2733 301.883 100.486 300.676 100.757C300.503 100.797 298.586 101.053 298.436 101.053C298.354 101.055 298.275 101.088 298.216 101.146C298.157 101.203 298.122 101.281 298.119 101.364C298.116 101.446 298.144 101.526 298.198 101.588C298.252 101.651 298.328 101.69 298.41 101.698C298.646 101.708 300.305 101.457 300.757 101.42C301.299 101.831 300.584 103.265 299.158 103.519C298.738 103.531 290.856 103.691 289.415 103.721C288.067 99.4575 288.007 94.8923 289.243 90.5954C290.649 90.5656 292.052 90.431 293.438 90.193C295.6 89.8816 297.712 89.295 299.725 88.4475H299.716ZM278.453 124.884L282.083 107.224L291.465 106.481C292.249 106.364 292.964 105.621 293.533 104.317C294.951 104.288 297.418 104.218 298.612 104.18C294.067 112.166 290.757 120.792 288.792 129.765L278.453 124.884ZM272.899 113.179L279.581 116.165L277.964 124.043L272.899 113.179ZM268.125 89.8955L289.824 88.119C287.014 91.3642 287.034 103.091 290.036 105.944L266.883 107.774C266.802 107.782 266.728 107.82 266.674 107.88C266.62 107.939 266.59 108.017 266.59 108.097C266.59 108.178 266.62 108.255 266.674 108.315C266.728 108.375 266.802 108.412 266.883 108.421L281.01 109.172L279.704 115.515C262.758 107.948 268.206 110.378 264.876 108.895C262.854 107.997 261.19 106.452 260.146 104.505C259.101 102.558 258.736 100.319 259.107 98.1412C259.478 95.9637 260.564 93.9714 262.195 92.4784C263.825 90.9855 265.907 90.0767 268.113 89.8955H268.125ZM289.095 165.661C288.185 165.833 259.878 171.321 259.462 171.868C259.357 172.04 259.979 170.734 243.824 205.14C237.299 203.853 231.193 200.979 226.047 196.773L241.294 162.701C242.482 160.059 244.211 157.693 246.37 155.756C248.528 153.82 251.068 152.355 253.827 151.456L281.22 142.592C281.295 142.569 281.359 142.518 281.4 142.451C281.441 142.383 281.455 142.303 281.441 142.226C281.427 142.148 281.385 142.079 281.323 142.03C281.261 141.981 281.183 141.957 281.104 141.961L262.991 142.802L253.622 121.904L255.664 120.808C255.739 120.767 255.795 120.698 255.82 120.616C255.845 120.534 255.835 120.445 255.795 120.37C255.754 120.294 255.684 120.238 255.602 120.213C255.52 120.189 255.431 120.198 255.355 120.239L229.969 133.859C225.484 129.425 222.305 123.845 220.782 117.73L252.209 99.0824C254.125 97.9362 256.347 97.4033 258.575 97.5553C258.06 99.9349 258.379 102.419 259.481 104.591C260.583 106.764 262.399 108.491 264.626 109.485L271.996 112.777C277.993 125.632 277.714 125.159 277.891 125.331C278.064 125.438 276.715 124.784 306.184 138.687C306.028 140.668 303.951 162.916 289.097 165.661H289.095ZM318.636 137.686L315.065 131.266V120.793C315.064 120.719 315.039 120.648 314.993 120.591C314.946 120.534 314.882 120.495 314.811 120.479C314.739 120.463 314.664 120.472 314.598 120.505C314.532 120.537 314.479 120.591 314.448 120.657L306.39 138.069L289.402 130.054C291.376 120.952 294.746 112.208 299.394 104.133C301.117 103.764 301.978 102.111 301.441 101.21C302.635 100.778 304.142 99.7239 304.099 98.4805V98.4375C304.092 98.3149 304.068 98.1938 304.027 98.0781C304.194 98.0143 304.357 97.9413 304.516 97.8597C306.687 99.0652 309.079 99.8209 311.55 100.082C314.546 102.892 317.461 103.077 321.086 109.668C323.651 114.335 331.447 130.867 332.088 132.673C333.45 136.544 333.501 140.755 332.231 144.658L324.544 168.127C319.151 167.885 313.941 166.102 309.534 162.989C319.215 136.43 318.75 137.887 318.638 137.686H318.636ZM314.805 184.879C313.988 186.157 313.395 186.396 313.302 186.351C313.256 186.329 313.097 185.964 313.485 184.89C313.843 183.885 314.426 181.479 314.446 181.306C314.937 180.341 315.339 179.5 315.582 178.956C315.616 178.878 315.618 178.79 315.587 178.71C315.556 178.631 315.495 178.567 315.418 178.532C315.34 178.497 315.251 178.494 315.171 178.524C315.091 178.554 315.026 178.614 314.991 178.692C314.35 180.128 310.291 188.494 308.93 187.676C308.757 187.576 308.671 187.06 309.142 186.107C309.915 184.464 310.597 182.78 311.187 181.063C312.062 179.804 312.797 178.688 313.166 178.097C313.208 178.024 313.219 177.939 313.199 177.858C313.179 177.777 313.128 177.707 313.057 177.663C312.987 177.618 312.901 177.603 312.82 177.62C312.738 177.636 312.666 177.684 312.618 177.753C310.826 180.607 308.824 183.326 306.63 185.885C305.656 186.9 304.879 187.113 304.664 186.94C304.518 186.821 304.506 186.307 305.102 185.431C306.406 183.294 307.576 181.078 308.602 178.795C309.25 177.968 309.727 177.297 309.963 176.96C309.988 176.925 310.005 176.885 310.014 176.844C310.023 176.802 310.023 176.759 310.016 176.717C310.008 176.676 309.992 176.636 309.969 176.6C309.946 176.564 309.916 176.533 309.881 176.509C309.846 176.485 309.806 176.468 309.764 176.459C309.723 176.45 309.68 176.45 309.638 176.457C309.596 176.465 309.556 176.481 309.52 176.504C309.484 176.527 309.454 176.557 309.429 176.592C307.93 178.752 306.21 180.75 304.297 182.554C303.201 183.547 302.552 183.607 302.411 183.483C301.518 182.69 306.263 178.917 309.159 170.392C309.173 170.352 309.178 170.309 309.175 170.267C309.173 170.225 309.162 170.183 309.143 170.145C309.124 170.107 309.098 170.073 309.066 170.045C309.034 170.017 308.997 169.996 308.956 169.982C308.916 169.968 308.874 169.963 308.831 169.965C308.789 169.968 308.747 169.979 308.709 169.998C308.671 170.017 308.637 170.043 308.609 170.075C308.581 170.107 308.559 170.144 308.546 170.184C308.337 170.798 308.117 171.388 307.889 171.957C307.857 171.961 307.827 171.971 307.798 171.985C302.974 174.275 301.622 174.124 301.522 173.959C301.439 173.821 301.806 172.815 305.102 170.416C307.276 168.791 309.037 166.678 310.244 164.249C314.082 166.709 318.453 168.22 322.993 168.655C320.662 174.255 317.926 179.677 314.805 184.879Z" fill="#000001"/>
<path d="M285.484 161.395C285.494 161.755 285.605 162.097 285.792 162.347C285.98 162.597 286.23 162.737 286.491 162.737C286.751 162.737 287.001 162.597 287.189 162.347C287.377 162.097 287.487 161.755 287.497 161.395C287.487 161.034 287.377 160.693 287.189 160.443C287.001 160.193 286.751 160.053 286.491 160.053C286.23 160.053 285.98 160.193 285.792 160.443C285.605 160.693 285.494 161.034 285.484 161.395V161.395Z" fill="#000001"/>
<path d="M296.234 139.932C296.248 140.293 296.395 140.634 296.645 140.884C296.895 141.134 297.229 141.274 297.576 141.274C297.923 141.274 298.257 141.134 298.507 140.884C298.757 140.634 298.905 140.293 298.918 139.932C298.905 139.571 298.757 139.23 298.507 138.98C298.257 138.73 297.923 138.59 297.576 138.59C297.229 138.59 296.895 138.73 296.645 138.98C296.395 139.23 296.248 139.571 296.234 139.932V139.932Z" fill="#000001"/>
<path d="M267.367 136.241C267.377 136.511 267.487 136.767 267.675 136.955C267.863 137.143 268.113 137.248 268.373 137.248C268.634 137.248 268.884 137.143 269.072 136.955C269.259 136.767 269.37 136.511 269.38 136.241C269.37 135.971 269.259 135.715 269.072 135.527C268.884 135.339 268.634 135.234 268.373 135.234C268.113 135.234 267.863 135.339 267.675 135.527C267.487 135.715 267.377 135.971 267.367 136.241V136.241Z" fill="#000001"/>
<path d="M269.375 116.112C269.385 116.383 269.495 116.638 269.683 116.826C269.871 117.014 270.121 117.119 270.381 117.119C270.642 117.119 270.892 117.014 271.08 116.826C271.267 116.638 271.378 116.383 271.388 116.112C271.378 115.842 271.267 115.586 271.08 115.398C270.892 115.21 270.642 115.105 270.381 115.105C270.121 115.105 269.871 115.21 269.683 115.398C269.495 115.586 269.385 115.842 269.375 116.112V116.112Z" fill="#000001"/>
<path d="M251.273 105.374C251.283 105.644 251.394 105.9 251.581 106.088C251.769 106.276 252.019 106.38 252.28 106.38C252.54 106.38 252.79 106.276 252.978 106.088C253.166 105.9 253.276 105.644 253.286 105.374C253.276 105.103 253.166 104.847 252.978 104.66C252.79 104.472 252.54 104.367 252.28 104.367C252.019 104.367 251.769 104.472 251.581 104.66C251.394 104.847 251.283 105.103 251.273 105.374V105.374Z" fill="#000001"/>
<path d="M225.117 118.457C225.117 118.813 225.223 119.155 225.412 119.406C225.601 119.658 225.857 119.8 226.123 119.8C226.39 119.8 226.646 119.658 226.835 119.406C227.024 119.155 227.13 118.813 227.13 118.457C227.13 118.101 227.024 117.76 226.835 117.508C226.646 117.257 226.39 117.115 226.123 117.115C225.857 117.115 225.601 117.257 225.412 117.508C225.223 117.76 225.117 118.101 225.117 118.457V118.457Z" fill="#000001"/>
<path d="M243.219 120.807C243.229 121.078 243.339 121.334 243.527 121.521C243.714 121.709 243.965 121.814 244.225 121.814C244.485 121.814 244.736 121.709 244.923 121.521C245.111 121.334 245.221 121.078 245.231 120.807C245.221 120.537 245.111 120.281 244.923 120.093C244.736 119.906 244.485 119.801 244.225 119.801C243.965 119.801 243.714 119.906 243.527 120.093C243.339 120.281 243.229 120.537 243.219 120.807V120.807Z" fill="#000001"/>
<path d="M252.617 172.468C252.63 172.738 252.778 172.994 253.028 173.182C253.278 173.369 253.612 173.474 253.959 173.474C254.306 173.474 254.64 173.369 254.89 173.182C255.14 172.994 255.287 172.738 255.301 172.468C255.287 172.197 255.14 171.941 254.89 171.753C254.64 171.566 254.306 171.461 253.959 171.461C253.612 171.461 253.278 171.566 253.028 171.753C252.778 171.941 252.63 172.197 252.617 172.468Z" fill="#000001"/>
<path d="M265.367 151.328C265.367 151.684 265.509 152.026 265.76 152.278C266.012 152.529 266.353 152.671 266.709 152.671C267.065 152.671 267.406 152.529 267.658 152.278C267.909 152.026 268.051 151.684 268.051 151.328C268.051 150.973 267.909 150.631 267.658 150.379C267.406 150.128 267.065 149.986 266.709 149.986C266.353 149.986 266.012 150.128 265.76 150.379C265.509 150.631 265.367 150.973 265.367 151.328Z" fill="#000001"/>
<path d="M231.82 188.239C231.83 188.599 231.941 188.94 232.128 189.191C232.316 189.441 232.566 189.581 232.827 189.581C233.087 189.581 233.337 189.441 233.525 189.191C233.713 188.94 233.823 188.599 233.833 188.239C233.823 187.878 233.713 187.537 233.525 187.287C233.337 187.036 233.087 186.896 232.827 186.896C232.566 186.896 232.316 187.036 232.128 187.287C231.941 187.537 231.83 187.878 231.82 188.239V188.239Z" fill="#000001"/>
<path d="M415.319 143.559C415.317 143.473 415.281 143.392 415.218 143.333C415.156 143.273 415.073 143.241 414.987 143.243L352.687 144.59C346.887 139.349 340.137 135.266 332.802 132.562C332.723 132.539 332.638 132.547 332.565 132.584C332.491 132.621 332.435 132.684 332.406 132.762C332.378 132.839 332.38 132.924 332.412 133C332.444 133.076 332.503 133.137 332.579 133.17C342.918 136.976 352.034 143.51 358.957 152.079C365.88 160.647 370.352 170.931 371.898 181.836C373.443 192.742 372.005 203.862 367.736 214.016C363.467 224.17 356.526 232.979 347.651 239.506C338.776 246.033 328.298 250.036 317.33 251.088C306.363 252.14 295.314 250.203 285.359 245.482C275.405 240.761 266.915 233.433 260.792 224.276C254.669 215.119 251.141 204.474 250.584 193.474C250.582 193.432 250.572 193.39 250.553 193.352C250.535 193.313 250.51 193.279 250.478 193.251C250.447 193.222 250.41 193.2 250.37 193.186C250.33 193.172 250.287 193.165 250.245 193.167C250.202 193.17 250.161 193.18 250.122 193.198C250.084 193.216 250.05 193.242 250.021 193.274C249.993 193.305 249.971 193.342 249.956 193.382C249.942 193.422 249.936 193.464 249.938 193.507C250.38 202.232 252.673 210.764 256.665 218.536C260.658 226.308 266.258 233.142 273.095 238.585C279.932 244.028 287.848 247.955 296.319 250.105C304.79 252.255 313.622 252.58 322.228 251.057C330.834 249.535 339.018 246.199 346.236 241.273C353.454 236.347 359.542 229.942 364.094 222.485C368.647 215.027 371.56 206.686 372.642 198.016C373.723 189.347 372.948 180.546 370.366 172.199C397.505 187.224 396.459 186.694 396.632 186.694C396.907 186.694 396.288 187.664 404.215 173.35C404.256 173.275 404.266 173.187 404.242 173.105C404.219 173.022 404.164 172.953 404.089 172.911L380.235 159.705C417.638 158.897 415.391 159.018 415.556 158.846C415.721 158.674 415.647 159.5 415.319 143.559ZM365.084 160.035L372.366 159.879L368.457 166.932C367.476 164.566 366.349 162.263 365.084 160.035ZM368.77 167.704L373.113 159.861L374.368 159.836L369.278 169.024C369.113 168.58 368.952 168.142 368.77 167.704ZM375.116 159.818C375.429 159.818 374.822 159.53 379.958 162.374L374.733 171.804L369.945 169.154L375.116 159.818ZM403.491 173.325L396.503 185.934L370.078 171.304C369.896 170.751 369.705 170.2 369.507 169.651L374.703 172.527C374.779 172.569 374.867 172.578 374.95 172.555C375.032 172.531 375.102 172.475 375.144 172.4L380.68 162.405C380.701 162.367 380.714 162.327 380.719 162.284C380.724 162.242 380.72 162.199 380.709 162.159C380.697 162.118 380.678 162.08 380.651 162.046C380.625 162.013 380.592 161.985 380.555 161.965L376.62 159.786L378.948 159.736L403.491 173.325ZM364.716 159.397C361.648 154.143 357.826 149.368 353.371 145.223L414.676 143.898L414.987 158.311L364.716 159.397Z" fill="#000001"/>
<path d="M307.998 167.432C307.827 167.432 307.795 167.386 296.444 163.332C296.364 163.304 296.299 163.246 296.264 163.172C296.228 163.097 296.225 163.012 296.254 162.936C296.284 162.859 296.344 162.797 296.422 162.762C296.499 162.728 296.587 162.725 296.667 162.754L308.11 166.838C308.179 166.865 308.235 166.913 308.27 166.975C308.306 167.038 308.318 167.109 308.305 167.179C308.292 167.249 308.254 167.312 308.198 167.358C308.142 167.404 308.071 167.43 307.998 167.432V167.432Z" fill="#F45A5D"/>
<path d="M260.455 148.888C203.026 127.708 206.893 129.041 206.705 129.137C206.517 129.233 206.748 128.747 204.174 135.643C203.968 135.239 203.65 134.901 203.257 134.671L185.458 124.124C184.931 123.812 184.304 123.714 183.706 123.849L158.345 127.163C158.375 127.082 158.372 126.992 158.337 126.912C158.302 126.833 158.239 126.769 158.159 126.734L157.037 126.318L199.487 89.3475C200.045 89.8569 200.777 90.1345 201.534 90.1231C202.291 90.1118 203.015 89.8124 203.557 89.2866C204.099 88.7607 204.418 88.0483 204.448 87.2958C204.478 86.5433 204.218 85.8078 203.72 85.2405C203.222 84.6732 202.524 84.3173 201.771 84.2457C201.017 84.1742 200.265 84.3926 199.668 84.856C199.071 85.3194 198.676 85.9926 198.563 86.7373C198.449 87.4819 198.627 88.2414 199.059 88.8597L156.341 126.057C154 125.199 153.091 124.841 152.704 124.714C152.433 124.627 152.305 124.598 152.186 124.886C152.014 125.269 151.585 126.471 150.115 130.398C150.085 130.478 150.089 130.567 150.124 130.645C150.16 130.722 150.226 130.783 150.306 130.813L150.714 130.963L105.9 169.981C105.327 169.488 104.586 169.232 103.829 169.266C103.073 169.3 102.358 169.62 101.832 170.163C101.305 170.705 101.008 171.427 101 172.18C100.993 172.934 101.275 173.662 101.79 174.214C102.306 174.767 103.014 175.102 103.77 175.151C104.526 175.2 105.272 174.959 105.854 174.478C106.437 173.996 106.813 173.311 106.903 172.563C106.994 171.815 106.793 171.06 106.342 170.455L151.397 131.22C155.231 132.635 155.799 132.888 155.974 132.888C156.04 132.888 156.104 132.868 156.159 132.83C156.214 132.793 156.255 132.74 156.279 132.678L156.293 132.637L173.283 151.779C173.653 152.272 174.2 152.605 174.811 152.71L195.201 156.267C195.645 156.345 196.103 156.297 196.522 156.129L194.008 162.862C193.993 162.901 193.986 162.944 193.987 162.986C193.989 163.029 193.998 163.07 194.016 163.109C194.034 163.148 194.059 163.182 194.09 163.211C194.121 163.24 194.158 163.263 194.198 163.277C235.62 178.592 234.42 178.182 234.593 178.182C234.669 178.182 234.742 178.155 234.8 178.107C234.859 178.058 234.898 177.991 234.912 177.917C234.925 177.842 234.912 177.765 234.875 177.7C234.837 177.634 234.778 177.583 234.706 177.557L194.726 162.786C194.726 162.786 197.506 155.726 200.986 146.396C242.501 161.735 241.938 161.57 242.11 161.57C242.186 161.569 242.259 161.542 242.317 161.493C242.374 161.445 242.413 161.377 242.427 161.303C242.44 161.229 242.427 161.153 242.39 161.087C242.353 161.022 242.295 160.971 242.224 160.943L201.21 145.79C204.535 136.871 207.024 129.838 207.024 129.838L260.222 149.496C260.303 149.527 260.393 149.524 260.472 149.489C260.552 149.454 260.613 149.389 260.644 149.308C260.675 149.227 260.673 149.138 260.637 149.059C260.602 148.98 260.536 148.919 260.455 148.888ZM156.471 130.313L154.28 129.439C154.212 129.413 154.137 129.41 154.068 129.431C153.998 129.452 153.938 129.496 153.896 129.555C153.854 129.614 153.833 129.686 153.837 129.758C153.84 129.831 153.868 129.9 153.916 129.954L155.815 132.086L155.791 132.151L150.836 130.32L152.671 125.394L157.626 127.225L157.614 127.258C155.929 127.478 155.276 127.546 155 127.601C154.925 127.604 154.854 127.633 154.798 127.683C154.742 127.732 154.705 127.8 154.693 127.873C154.681 127.947 154.695 128.022 154.733 128.087C154.771 128.151 154.83 128.201 154.9 128.227L156.971 128.955L156.471 130.313ZM186.254 140.524C186.205 140.709 186.118 140.881 185.999 141.031C185.879 141.18 185.729 141.304 185.559 141.392C185.389 141.481 185.202 141.533 185.011 141.546C184.819 141.559 184.627 141.532 184.446 141.467L157.075 130.547L157.593 129.159L185.317 138.861C185.65 138.977 185.929 139.21 186.102 139.516C186.275 139.822 186.329 140.181 186.254 140.524Z" fill="#F45A5D"/>
<path d="M355.236 187.908C355.154 187.728 355.742 187.992 344.507 183.844C345.581 180.969 345.578 181.1 345.498 180.92C345.419 180.74 346.976 181.287 322.025 172.151C321.944 172.121 321.855 172.125 321.777 172.16C321.698 172.196 321.638 172.261 321.608 172.341C321.578 172.422 321.581 172.51 321.617 172.588C321.653 172.666 321.718 172.727 321.799 172.756L344.786 181.246L338.854 197.121L310.949 186.814C310.868 186.784 310.779 186.788 310.7 186.823C310.622 186.859 310.561 186.924 310.531 187.004C310.501 187.085 310.505 187.173 310.541 187.251C310.577 187.329 310.642 187.39 310.723 187.419L338.626 197.726L332.499 214.137L253.734 185.054C253.654 185.025 253.564 185.028 253.486 185.064C253.408 185.099 253.347 185.165 253.317 185.245C253.287 185.325 253.291 185.414 253.326 185.492C253.362 185.57 253.428 185.63 253.509 185.66C334.213 215.415 332.511 214.881 332.684 214.881C332.75 214.881 332.815 214.861 332.87 214.824C332.924 214.786 332.966 214.732 332.989 214.67L334.046 211.837C343.593 215.361 344.533 215.751 344.707 215.751C344.773 215.751 344.838 215.731 344.892 215.694C344.947 215.656 344.989 215.603 345.012 215.542C355.935 186.402 355.316 188.093 355.236 187.908Z" fill="#F45A5D"/>
<path d="M302.612 184.212C302.439 184.212 303.56 184.607 266.915 170.761C266.834 170.731 266.769 170.669 266.733 170.589C266.697 170.51 266.693 170.419 266.723 170.337C266.753 170.254 266.814 170.188 266.893 170.151C266.971 170.115 267.061 170.111 267.141 170.142L302.719 183.574C302.79 183.6 302.849 183.652 302.887 183.718C302.924 183.785 302.938 183.862 302.925 183.938C302.913 184.014 302.874 184.082 302.817 184.132C302.76 184.183 302.687 184.211 302.612 184.212Z" fill="#F45A5D"/>
<path d="M218.895 185.842L213.782 183.382L216.105 177.969C216.139 177.889 216.142 177.798 216.113 177.716C216.084 177.634 216.025 177.567 215.949 177.531C215.874 177.495 215.788 177.492 215.71 177.523C215.633 177.554 215.57 177.617 215.536 177.696L213.212 183.108L208.099 180.649C208.024 180.615 207.94 180.614 207.864 180.645C207.788 180.676 207.726 180.737 207.692 180.816C207.658 180.894 207.655 180.984 207.683 181.065C207.71 181.146 207.767 181.212 207.84 181.25L212.954 183.709L210.63 189.121C210.598 189.2 210.596 189.29 210.626 189.37C210.655 189.451 210.713 189.516 210.787 189.552C210.861 189.587 210.946 189.591 211.023 189.562C211.099 189.533 211.162 189.473 211.198 189.395L213.521 183.981C218.512 186.381 218.598 186.47 218.764 186.47C218.834 186.468 218.901 186.441 218.955 186.394C219.009 186.347 219.046 186.282 219.061 186.21C219.076 186.138 219.068 186.062 219.038 185.996C219.008 185.929 218.958 185.875 218.895 185.842V185.842Z" fill="#F45A5D"/>
<path d="M82.7576 29.8962C74.1586 28.7637 70.8222 18.0372 59.6129 21.4084C54.0343 18.5393 48.2528 16.077 42.3146 14.041C33.9038 11.2031 25.3155 8.91514 16.6054 7.19193C3.79852 4.80417 3.14137 6.75472 2.92435 7.39249C2.70733 8.03026 2.04546 9.99178 13.7042 15.7727C21.6923 19.6343 29.9265 22.9722 38.3536 25.7648C44.3343 27.6928 50.4418 29.2071 56.6318 30.2965C62.987 38.5855 74.9993 37.5035 83.0528 30.8734C83.1396 30.8056 83.2038 30.7134 83.2371 30.6089C83.2703 30.5044 83.2711 30.3922 83.2394 30.287C83.2076 30.1818 83.1447 30.0883 83.0588 30.0186C82.9729 29.949 82.868 29.9063 82.7576 29.8962V29.8962ZM14.2038 14.7872C5.65981 10.5503 3.77736 8.31985 3.97776 7.72934C4.17815 7.13883 7.02966 6.49077 16.4142 8.25434C25.6495 10.0894 34.7466 12.559 43.6396 15.6453L40.3865 25.271C31.4203 22.3801 22.6658 18.8761 14.1864 14.7843L14.2038 14.7872ZM41.4422 25.5935L44.6792 16.0122C49.5302 17.8349 54.2768 19.9212 58.8972 22.2615L56.5677 29.16C51.4627 28.2448 46.4117 27.051 41.4378 25.584L41.4422 25.5935Z" fill="#F45A5D"/>
<path d="M227.255 26.9942C222.712 23.2209 216.946 21.2384 211.04 21.4195C205.133 21.6006 199.494 23.9328 195.183 27.9776C191.665 31.2301 189.475 35.6684 189.036 40.4365C188.596 45.2047 189.937 49.9649 192.8 53.7992L189.58 63.1429C189.559 63.2036 189.556 63.2692 189.572 63.3315C189.588 63.3938 189.621 63.4501 189.669 63.4935C189.716 63.537 189.775 63.5656 189.839 63.5759C189.902 63.5862 189.967 63.5778 190.026 63.5516L199.122 59.5124C214.475 68.7369 234.843 58.1842 234.348 41.4637C234.25 38.6877 233.568 35.964 232.346 33.4707C231.124 30.9774 229.389 28.7705 227.255 26.9942V26.9942ZM233.688 41.482C234.171 57.867 214.074 67.8748 199.319 58.859C199.049 58.7277 199.658 58.5501 190.451 62.6404C193.683 53.2561 193.594 53.8147 193.431 53.5459C190.61 49.8413 189.274 45.2169 189.683 40.5762C190.091 35.9355 192.216 31.6119 195.64 28.4504C199.833 24.5204 205.315 22.2543 211.056 22.0777C216.797 21.901 222.403 23.826 226.821 27.4911C228.886 29.208 230.565 31.3415 231.748 33.7524C232.932 36.1632 233.593 38.7971 233.688 41.482V41.482Z" fill="#F45A5D"/>
<path d="M209.624 45.1878C210.328 41.6701 214.934 40.3697 215.597 36.9672C215.707 36.5047 215.715 36.0262 215.622 35.5622C215.529 35.0983 215.337 34.6591 215.057 34.2728C214.778 33.8864 214.417 33.5614 213.999 33.3185C213.58 33.0756 213.113 32.9202 212.627 32.8621C212.141 32.8041 211.646 32.8447 211.176 32.9813C210.705 33.118 210.267 33.3477 209.892 33.6558C209.516 33.9639 209.211 34.3436 208.995 34.7706C208.779 35.1977 208.657 35.6626 208.637 36.1358C208.635 36.1876 208.622 36.2386 208.6 36.2859C208.578 36.3331 208.546 36.3758 208.507 36.4114C208.467 36.4471 208.421 36.4749 208.371 36.4935C208.321 36.512 208.267 36.5208 208.214 36.5194C208.16 36.518 208.108 36.5065 208.059 36.4854C208.01 36.4643 207.966 36.4341 207.93 36.3966C207.893 36.359 207.865 36.3148 207.846 36.2664C207.827 36.2181 207.819 36.1665 207.821 36.1148C207.845 35.5325 207.994 34.9603 208.26 34.4347C208.525 33.909 208.9 33.4414 209.362 33.0617C209.823 32.6821 210.361 32.3986 210.94 32.2295C211.519 32.0604 212.127 32.0093 212.726 32.0796C213.324 32.1498 213.899 32.3397 214.415 32.6373C214.931 32.9349 215.375 33.3336 215.721 33.808C216.066 34.2824 216.305 34.822 216.421 35.3925C216.537 35.9629 216.529 36.5517 216.396 37.1212C215.678 40.8315 211.06 42.1812 210.427 45.3413C210.416 45.3923 210.395 45.4408 210.364 45.4841C210.334 45.5273 210.295 45.5645 210.25 45.5934C210.205 45.6223 210.155 45.6425 210.102 45.6527C210.049 45.6629 209.995 45.6629 209.942 45.6528C209.889 45.6428 209.839 45.6227 209.795 45.5939C209.75 45.5651 209.712 45.528 209.682 45.4848C209.653 45.4416 209.633 45.3932 209.622 45.3422C209.612 45.2912 209.613 45.2387 209.624 45.1878Z" fill="#F45A5D"/>
<path d="M209.626 48.1166C209.445 48.0855 209.256 48.0845 209.07 48.1137C208.884 48.1428 208.705 48.2015 208.544 48.2862C208.382 48.371 208.241 48.4802 208.129 48.6074C208.016 48.7347 207.935 48.8774 207.89 49.0274C207.844 49.1773 207.835 49.3315 207.863 49.4809C207.892 49.6302 207.956 49.7719 208.054 49.8974C208.152 50.023 208.28 50.1301 208.432 50.2124C208.584 50.2947 208.756 50.3506 208.939 50.3768C209.12 50.4078 209.309 50.4088 209.495 50.3797C209.681 50.3506 209.86 50.2919 210.021 50.2071C210.183 50.1224 210.324 50.0132 210.436 49.8859C210.549 49.7587 210.63 49.6159 210.676 49.466C210.721 49.316 210.73 49.1619 210.702 49.0125C210.674 48.8631 210.609 48.7215 210.511 48.5959C210.413 48.4703 210.285 48.3633 210.133 48.281C209.981 48.1987 209.809 48.1428 209.626 48.1166Z" fill="#F45A5D"/>
<path d="M143.727 5.84146L138.916 3.54201C137.81 3.01244 136.959 2.06695 136.547 0.912687C136.136 -0.241578 136.199 -1.51051 136.722 -2.61614L139.009 -7.43046C139.05 -7.52347 139.053 -7.62882 139.017 -7.72413C138.982 -7.81944 138.91 -7.8972 138.818 -7.94092C138.726 -7.98464 138.621 -7.99088 138.525 -7.9583C138.428 -7.92572 138.349 -7.8569 138.303 -7.76643L136.014 -2.96371C135.486 -1.8603 134.543 -1.01175 133.389 -0.603769C132.235 -0.195786 130.966 -0.26158 129.858 -0.786758L125.047 -3.08621C124.954 -3.12593 124.85 -3.12832 124.755 -3.09289C124.661 -3.05745 124.584 -2.98693 124.541 -2.89606C124.497 -2.80519 124.491 -2.701 124.522 -2.60525C124.554 -2.50949 124.622 -2.42957 124.711 -2.3822L129.522 -0.0827573C130.07 0.178624 130.562 0.545265 130.969 0.996211C131.376 1.44716 131.69 1.97358 131.894 2.54543C132.097 3.11727 132.187 3.72334 132.156 4.32901C132.125 4.93469 131.976 5.52812 131.716 6.0754L129.427 10.8781C129.405 10.9245 129.392 10.9747 129.389 11.026C129.387 11.0774 129.394 11.1288 129.411 11.1773C129.428 11.2258 129.455 11.2704 129.489 11.3087C129.524 11.347 129.565 11.3782 129.612 11.4004C129.658 11.4227 129.708 11.4356 129.76 11.4384C129.811 11.4412 129.863 11.4339 129.911 11.4169C129.96 11.3998 130.004 11.3734 130.042 11.3391C130.081 11.3048 130.112 11.2633 130.134 11.217L132.422 6.41427C132.95 5.31025 133.894 4.4611 135.048 4.05277C136.202 3.64444 137.472 3.71019 138.58 4.23563L143.39 6.53677C143.479 6.56559 143.576 6.56117 143.663 6.52431C143.749 6.48745 143.819 6.42062 143.86 6.3361C143.901 6.25159 143.911 6.15504 143.886 6.06418C143.862 5.97332 143.805 5.89424 143.727 5.84146V5.84146ZM132.935 4.43059C132.978 3.70416 132.874 2.97615 132.63 2.28976C132.387 1.60337 132.007 0.972585 131.515 0.434804C132.242 0.479561 132.97 0.377801 133.656 0.135575C134.342 -0.106651 134.972 -0.4844 135.508 -0.975195C135.465 -0.24902 135.567 0.478897 135.81 1.16542C136.053 1.85195 136.431 2.48313 136.922 3.02156C136.196 2.97758 135.469 3.07963 134.785 3.32167C134.1 3.5637 133.471 3.94078 132.935 4.43059V4.43059Z" fill="#000001"/>
</g>
</svg>
