<?xml version="1.0" encoding="utf-8"?>
<!-- Generator: Adobe Illustrator 26.0.2, SVG Export Plug-In . SVG Version: 6.00 Build 0)  -->
<svg version="1.1" xmlns="http://www.w3.org/2000/svg" xmlns:xlink="http://www.w3.org/1999/xlink" x="0px" y="0px"
	 viewBox="0 0 500.2 475" style="enable-background:new 0 0 500.2 475;" xml:space="preserve">
<g id="show-on-hover">
	<g id="Scopri_di_pi첫_sul_co-design_Over_00000129200585268762312980000013667790318401791668_">
		<g id="Scopri_di_pi첫_sul_co-design_Over">
			<g>
				<g>
					<g>
						<g>
							<g>
								<defs>
									<rect id="SVGID_1_" x="159.1" y="0.5" width="341" height="474"/>
								</defs>
								<clipPath id="SVGID_00000174560215603827880410000008113486263924822959_">
									<use xlink:href="#SVGID_1_"  style="overflow:visible;"/>
								</clipPath>
								<g style="clip-path:url(#SVGID_00000174560215603827880410000008113486263924822959_);">
									<path style="fill:#FCBB16;" d="M420.2-5.1l-30.1,85.4c-0.6,1.9-1.6,3.6-3,5c-1.3,1.5-2.9,2.7-4.6,3.5
										c-1.8,0.9-3.7,1.3-5.6,1.4c-2,0.1-3.9-0.2-5.7-0.8l-84.7-30.1c-1.8-0.6-3.5-1.7-5-3s-2.6-2.9-3.5-4.7
										c-0.8-1.8-1.3-3.7-1.4-5.7s0.2-3.9,0.9-5.8l30-85.4c1.3-3.7,4.1-6.8,7.6-8.5c3.6-1.7,7.6-1.9,11.4-0.6l84.7,30.1
										c1.8,0.6,3.5,1.7,5,3s2.6,2.9,3.5,4.7c0.8,1.8,1.3,3.7,1.4,5.7S420.9-7,420.2-5.1L420.2-5.1z"/>
									<path d="M478.5,61.1L464.9,49c-0.3-0.3-0.5-0.6-0.7-0.9c-0.2-0.4-0.3-0.7-0.3-1.1c0-0.4,0-0.8,0.2-1.2
										c0.1-0.4,0.3-0.7,0.6-1l12.1-13.6c0.3-0.3,0.6-0.5,0.9-0.7c0.4-0.2,0.7-0.3,1.1-0.3s0.8,0,1.2,0.2c0.4,0.1,0.7,0.3,1,0.6
										l13.6,12c0.6,0.5,1,1.3,1,2.1c0.1,0.8-0.2,1.6-0.7,2.2l-12.1,13.6c-0.5,0.6-1.3,1-2.1,1C479.8,61.9,479.1,61.6,478.5,61.1
										L478.5,61.1z"/>
									<path d="M352.9,429.1L341.4,451c-0.3,0.5-0.6,0.9-1,1.2c-0.4,0.3-0.9,0.6-1.4,0.8c-0.5,0.2-1.1,0.2-1.6,0.2
										c-0.5-0.1-1.1-0.2-1.6-0.5l-22.5-11.5c-0.5-0.2-0.9-0.6-1.3-1s-0.6-0.9-0.8-1.4c-0.2-0.5-0.2-1.1-0.2-1.6s0.2-1.1,0.5-1.5
										l11.5-21.9c0.3-0.5,0.6-0.9,1-1.2c0.4-0.3,0.9-0.6,1.4-0.8c0.5-0.2,1.1-0.2,1.6-0.2c0.5,0.1,1.1,0.2,1.6,0.5l22.6,11.5
										c1,0.5,1.7,1.4,2,2.4C353.5,427.1,353.4,428.2,352.9,429.1L352.9,429.1z"/>
									<path style="fill:#FCBB16;" d="M559.1,384.4l-87.9,23.4c-1.9,0.5-3.9,0.6-5.9,0.4c-2-0.3-3.9-0.9-5.6-1.9s-3.2-2.3-4.4-3.9
										c-1.2-1.6-2.1-3.4-2.6-5.3l-23.4-87.9c-0.5-1.9-0.7-3.9-0.4-5.9c0.3-2,0.9-3.8,1.9-5.6c1-1.7,2.3-3.2,3.9-4.4
										c1.6-1.2,3.4-2.1,5.3-2.6l87.9-23.5c3.9-1,8-0.5,11.4,1.5c3.5,2,6,5.3,7,9.1l23.4,87.9c1,3.9,0.5,8-1.5,11.4
										S562.9,383.4,559.1,384.4z"/>
									<path d="M523.6,191.3c26.7,1.9,50-18.4,51.9-45.4s-18.1-50.4-44.8-52.4c-26.7-1.9-50,18.4-51.9,45.4
										C476.8,165.9,496.9,189.4,523.6,191.3z"/>
									<path style="fill:#FCBB16;" d="M382,207c7.4,0.5,13.9-5.1,14.4-12.5s-5.1-13.9-12.5-14.4s-13.9,5.1-14.4,12.5
										S374.6,206.4,382,207z"/>
									<path style="fill:#FCBB16;" d="M410.5,515.6c15.4,1.1,28.8-10.5,29.9-25.9s-10.5-28.8-25.9-29.9s-28.8,10.5-29.9,25.9
										C383.5,501.1,395.1,514.5,410.5,515.6z"/>
								</g>
							</g>
						</g>
					</g>
				</g>
			</g>
		</g>
	</g>
</g>
<g id="CARD2">
	<g id="Scopri_di_pi첫_sul_co-design_base_00000164515121535188413410000003538717438623721870_">
		<g id="Scopri_di_pi첫_sul_co-design_base">
			<g>
				<g>
					<g>
						<g>
							<defs>
								<rect id="SVGID_00000125602833057117125220000005032924534939368846_" x="159.1" y="0.5" width="341" height="474"/>
							</defs>
							<clipPath id="SVGID_00000162332963572616920210000009637554492683677830_">
								<use xlink:href="#SVGID_00000125602833057117125220000005032924534939368846_"  style="overflow:visible;"/>
							</clipPath>
							<g style="clip-path:url(#SVGID_00000162332963572616920210000009637554492683677830_);">
								<path style="fill:#FCBB16;" d="M397.8,17.6l-16.6,80.9c-0.4,1.8-1,3.4-2,4.9s-2.3,2.8-3.8,3.8s-3.2,1.7-4.9,2
									c-1.8,0.3-3.6,0.3-5.3-0.1l-80.3-16.7c-1.7-0.4-3.4-1.1-4.9-2.1s-2.7-2.3-3.7-3.8s-1.7-3.2-2-4.9c-0.3-1.8-0.3-3.6,0.1-5.3
									L291-4.6c0.7-3.5,2.8-6.7,5.8-8.6c3-2,6.7-2.7,10.2-2l80.3,16.7c1.7,0.4,3.4,1.1,4.9,2.1s2.7,2.3,3.7,3.8s1.7,3.2,2,4.9
									C398.2,14.1,398.2,15.9,397.8,17.6L397.8,17.6z"/>
								<path d="M457.6,76.1l-14.1-8.4c-0.3-0.2-0.6-0.4-0.8-0.7c-0.2-0.3-0.4-0.6-0.5-1c-0.1-0.3-0.1-0.7-0.1-1.1s0.2-0.7,0.4-1
									l8.4-14.1c0.2-0.3,0.4-0.6,0.7-0.8c0.3-0.2,0.6-0.4,1-0.5c0.3-0.1,0.7-0.1,1.1-0.1s0.7,0.2,1,0.4l14.1,8.4
									c0.6,0.4,1.1,1,1.2,1.7c0.2,0.7,0.1,1.4-0.3,2.1l-8.4,14.2c-0.4,0.6-1,1.1-1.7,1.2C459,76.6,458.2,76.5,457.6,76.1
									L457.6,76.1z"/>
								<path d="M365.9,414l-6.6,21.8c-0.1,0.5-0.4,0.9-0.7,1.3c-0.3,0.4-0.7,0.7-1.1,0.9c-0.4,0.2-0.9,0.4-1.4,0.4s-1,0-1.5-0.2
									l-21.8-6.6c-0.5-0.1-0.9-0.4-1.3-0.7c-0.4-0.3-0.7-0.7-0.9-1.1c-0.2-0.4-0.4-0.9-0.4-1.4s0-1,0.2-1.5l6.6-21.8
									c0.1-0.5,0.4-0.9,0.7-1.3c0.3-0.4,0.7-0.7,1.1-0.9c0.4-0.2,0.9-0.4,1.4-0.4s1,0,1.5,0.2l21.8,6.6c0.9,0.3,1.7,1,2.2,1.8
									C366.1,412,366.2,413,365.9,414L365.9,414z"/>
								<path style="fill:#FCBB16;" d="M550.4,359.3l-77.3,30.2c-1.7,0.7-3.5,1-5.3,1s-3.6-0.4-5.2-1.1c-1.7-0.7-3.1-1.8-4.4-3.1
									c-1.2-1.3-2.2-2.8-2.9-4.5L425,304.5c-0.7-1.7-1-3.5-1-5.3s0.4-3.6,1.1-5.2c0.7-1.7,1.8-3.1,3.1-4.4
									c1.3-1.2,2.8-2.2,4.5-2.9l77.3-30.3c3.4-1.3,7.2-1.2,10.5,0.2c3.3,1.5,6,4.2,7.3,7.6l30.3,77.3c1.3,3.4,1.3,7.2-0.2,10.5
									C556.5,355.3,553.8,357.9,550.4,359.3z"/>
								<path d="M508.6,188.5c24.6,0,44.5-19.9,44.5-44.5s-19.9-44.5-44.5-44.5c-24.6,0-44.5,19.9-44.5,44.5S484,188.5,508.6,188.5z
									"/>
								<path style="fill:#FCBB16;" d="M378.6,212.5c6.9,0,12.5-5.4,12.5-12s-5.6-12-12.5-12s-12.5,5.4-12.5,12
									S371.7,212.5,378.6,212.5z"/>
								<path d="M219.1,32.5c11.6,0,21-9.4,21-21s-9.4-21-21-21s-21,9.4-21,21S207.5,32.5,219.1,32.5z"/>
								<path style="fill:#FCBB16;" d="M421.6,489.5c14.1,0,25.5-11.4,25.5-25.5s-11.4-25.5-25.5-25.5s-25.5,11.4-25.5,25.5
									S407.5,489.5,421.6,489.5z"/>
							</g>
						</g>
					</g>
				</g>
			</g>
		</g>
	</g>
</g>
</svg>
