<?xml version="1.0" encoding="utf-8"?>
<!-- Generator: Adobe Illustrator 26.0.2, SVG Export Plug-In . SVG Version: 6.00 Build 0)  -->
<svg version="1.1" xmlns="http://www.w3.org/2000/svg" xmlns:xlink="http://www.w3.org/1999/xlink" x="0px" y="0px"
	 viewBox="0 0 500 676" style="enable-background:new 0 0 500 676;" xml:space="preserve">
<g id="show-on-hover">
	<g id="Quali_tool_ti_proponiamo_Over">
		<g>
			<g>
				<g>
					<defs>
						<rect id="SVGID_1_" y="0.1" width="500" height="674"/>
					</defs>
					<clipPath id="SVGID_00000115478739337138388470000013408873850626915976_">
						<use xlink:href="#SVGID_1_"  style="overflow:visible;"/>
					</clipPath>
					<g style="clip-path:url(#SVGID_00000115478739337138388470000013408873850626915976_);">
						<path d="M39.2,112.2C58.3,122.4,82,115.5,92,96.6c10.1-18.8,2.8-42.4-16.3-52.6S33,40.8,22.9,59.6S20.1,102,39.2,112.2z"/>
						<path d="M406.9,133.2c31.6,16.9,71.2,4.6,88.4-27.6s5.6-72-26-88.9s-71.2-4.6-88.4,27.6C363.6,76.5,375.3,116.3,406.9,133.2z"
							/>
						<path style="fill:#FFFFFF;" d="M229.5,732.4c41.7,22.3,93.6,6.6,115.9-35c22.3-41.7,6.6-93.6-35-115.9
							c-41.7-22.3-93.6-6.6-115.9,35.1C172.1,658.2,187.8,710.1,229.5,732.4z"/>
						<path d="M30.2,483.1l-7.7,69.4c-0.2,1.5-0.6,3-1.4,4.3c-0.7,1.3-1.7,2.5-2.9,3.4c-1.2,0.9-2.6,1.6-4,2.1
							c-1.5,0.4-3,0.5-4.5,0.4l-69.9-8.1c-1.5-0.2-3-0.6-4.3-1.4c-1.3-0.7-2.5-1.7-3.5-2.9s-1.7-2.6-2.1-4c-0.4-1.5-0.6-3-0.4-4.5
							l7.7-69.4c0.3-3,1.9-5.8,4.3-7.7c2.4-1.9,5.5-2.8,8.5-2.4l70,8.1c3.1,0.4,5.9,1.9,7.8,4.3S30.5,480,30.2,483.1z"/>
						<path style="fill:#FFFFFF;" d="M226.5,84.7l-65.6-55.2c-1.4-1.2-2.6-2.7-3.5-4.3c-0.9-1.7-1.4-3.5-1.6-5.3
							c-0.2-1.9,0-3.7,0.6-5.5c0.6-1.8,1.4-3.4,2.6-4.8l54.6-65.7c1.2-1.4,2.6-2.6,4.3-3.5c1.6-0.9,3.4-1.4,5.3-1.6
							c1.8-0.2,3.7,0,5.5,0.6s3.4,1.5,4.8,2.7l65.6,55.2c2.9,2.4,4.7,5.9,5,9.6s-0.8,7.5-3.2,10.3L246.3,83
							c-1.2,1.4-2.6,2.6-4.3,3.5c-1.6,0.9-3.4,1.4-5.3,1.5c-1.8,0.2-3.7,0-5.5-0.6C229.5,86.8,227.9,85.9,226.5,84.7z"/>
						<path d="M387,620.3l16.4-34.1c0.4-0.7,0.9-1.4,1.5-2s1.3-1,2.1-1.3c0.8-0.3,1.6-0.4,2.4-0.4s1.6,0.2,2.4,0.6l34.6,16
							c0.8,0.3,1.4,0.8,2,1.4c0.6,0.6,1,1.3,1.3,2.1s0.4,1.6,0.4,2.4s-0.3,1.6-0.6,2.4l-16.4,34.2c-0.7,1.5-2,2.6-3.6,3.2
							c-1.6,0.6-3.3,0.5-4.8-0.2l-34.7-16c-0.8-0.3-1.4-0.8-2-1.4c-0.6-0.6-1-1.3-1.3-2.1s-0.4-1.6-0.4-2.4
							C386.5,621.9,386.7,621.1,387,620.3z"/>
						<path style="fill:#FFFFFF;" d="M130.9,614.2l-23,42.6c-0.5,0.9-1.2,1.7-2,2.4s-1.8,1.2-2.8,1.5s-2.1,0.4-3.1,0.3
							c-1-0.1-2.1-0.4-3-0.9l-42.5-23c-0.9-0.5-1.7-1.2-2.4-2s-1.2-1.8-1.5-2.8s-0.4-2.1-0.3-3.1c0.1-1,0.4-2.1,0.9-3l23-42.6
							c1-1.9,2.7-3.2,4.8-3.9c2-0.6,4.2-0.4,6.1,0.6l42.6,23c1.9,1,3.2,2.7,3.8,4.7S131.9,612.4,130.9,614.2z"/>
					</g>
				</g>
			</g>
		</g>
	</g>
</g>
<g id="CARD3">
	<g id="Quali_tool_ti_proponiamo_base">
		<g>
			<g>
				<g>
					<defs>
						<rect id="SVGID_00000063600280774197293670000017322289117307359410_" x="-20" y="-31" width="538" height="725"/>
					</defs>
					<clipPath id="SVGID_00000129893086949570989520000004062184892106380679_">
						<use xlink:href="#SVGID_00000063600280774197293670000017322289117307359410_"  style="overflow:visible;"/>
					</clipPath>
					<g style="clip-path:url(#SVGID_00000129893086949570989520000004062184892106380679_);">
						<g>
							<g>
								<g>
									<defs>
										<rect id="SVGID_00000030454379432911368450000017731654217136067749_" y="0" width="500" height="676"/>
									</defs>
									<clipPath id="SVGID_00000125563592822871195010000006988373479862934403_">
										<use xlink:href="#SVGID_00000030454379432911368450000017731654217136067749_"  style="overflow:visible;"/>
									</clipPath>
									<g style="clip-path:url(#SVGID_00000125563592822871195010000006988373479862934403_);">
										<path d="M251.9,83.7c28.9-4.8,48.4-32.2,43.6-61.4s-32.1-48.9-61-44.2c-28.9,4.8-48.4,32.2-43.6,61.4
											C195.7,68.6,223,88.4,251.9,83.7z"/>
										<path style="fill:#FFFFFF;" d="M464.7,634.4c36.8-6.1,61.7-40.8,55.6-77.6c-6.1-36.8-40.8-61.7-77.6-55.6
											S381,542,387.1,578.8S427.9,640.5,464.7,634.4z"/>
										<path d="M196,648.7l-53.6,27.1c-1.2,0.6-2.4,0.9-3.7,1s-2.6-0.1-3.8-0.5s-2.4-1.1-3.4-1.9s-1.8-1.9-2.4-3.1L102,617.2
											c-0.6-1.2-0.9-2.5-1-3.8s0.1-2.6,0.5-3.9c0.4-1.2,1.1-2.4,1.9-3.4c0.9-1,1.9-1.8,3.1-2.4l53.5-27.2
											c2.4-1.2,5.1-1.4,7.6-0.5c2.5,0.8,4.6,2.6,5.8,5l27.1,54.2c1.2,2.4,1.4,5.1,0.6,7.6C200.1,645.4,198.4,647.5,196,648.7z"
											/>
										<path style="fill:#FFFFFF;" d="M109.8,116.6l-53.9,48.1c-1.2,1-2.5,1.9-4,2.4s-3.1,0.8-4.6,0.7c-1.6-0.1-3.1-0.5-4.5-1.1
											c-1.4-0.7-2.7-1.6-3.7-2.8l-48.3-53.4c-1.1-1.2-1.9-2.5-2.4-4s-0.8-3-0.7-4.6s0.5-3.1,1.2-4.5s1.6-2.7,2.8-3.7l53.9-48.1
											c2.4-2.1,5.5-3.2,8.6-3c3.2,0.2,6.1,1.6,8.3,3.9l48.4,53.4c1.1,1.2,1.9,2.5,2.4,4s0.7,3,0.7,4.6c-0.1,1.6-0.5,3.1-1.2,4.5
											C112,114.3,111,115.5,109.8,116.6z"/>
										<path d="M52.6,587.7c7.9-1.3,13.3-8.8,12-16.7c-1.3-7.9-8.8-13.3-16.7-12s-13.3,8.8-12,16.7
											C37.3,583.7,44.7,589,52.6,587.7z"/>
										<path style="fill:#FFFFFF;" d="M412.5,86.6c7.6-1.3,12.8-8.7,11.5-16.6s-8.5-13.3-16.2-12c-7.6,1.3-12.8,8.7-11.5,16.6
											C397.7,82.5,404.9,87.9,412.5,86.6z"/>
										<path style="fill:#FFFFFF;" d="M494.1,169.5c17.4-2.9,29.2-19.6,26.3-37.3c-2.9-17.7-19.4-29.7-36.9-26.9
											c-17.4,2.9-29.2,19.6-26.3,37.3S476.6,172.4,494.1,169.5z"/>
										<path style="fill:#FFFFFF;" d="M285.4,611.9l38.3,11.1c0.8,0.2,1.6,0.6,2.3,1.2c0.7,0.5,1.2,1.2,1.7,2
											c0.4,0.8,0.7,1.6,0.8,2.5c0.1,0.9,0,1.8-0.2,2.6L317.5,670c-0.2,0.8-0.6,1.6-1.2,2.3c-0.5,0.7-1.2,1.3-1.9,1.7
											c-0.8,0.4-1.6,0.7-2.4,0.8c-0.9,0.1-1.7,0-2.6-0.2l-38.3-11.1c-1.7-0.5-3.1-1.6-3.9-3.2c-0.9-1.5-1.1-3.4-0.6-5.1
											l10.8-38.8c0.5-1.7,1.6-3.1,3.1-4C281.9,611.6,283.7,611.4,285.4,611.9z"/>
										<path d="M357.3,43.6l18.2-7.5c0.4-0.2,0.8-0.2,1.2-0.2c0.4,0,0.8,0.1,1.2,0.3c0.4,0.2,0.8,0.4,1.1,0.7
											c0.3,0.3,0.5,0.7,0.7,1.1l7.5,18.8c0.2,0.4,0.3,0.8,0.3,1.3c0,0.4-0.1,0.9-0.2,1.3c-0.2,0.4-0.4,0.8-0.7,1.1
											c-0.3,0.3-0.7,0.5-1.1,0.7l-18.2,7.6c-0.4,0.2-0.8,0.2-1.2,0.2c-0.4,0-0.8-0.1-1.2-0.3c-0.4-0.2-0.8-0.4-1.1-0.7
											c-0.3-0.3-0.5-0.7-0.7-1.1l-7.5-18.8c-0.3-0.8-0.3-1.7,0-2.6C355.9,44.6,356.5,43.9,357.3,43.6z"/>
									</g>
								</g>
							</g>
						</g>
					</g>
				</g>
			</g>
		</g>
	</g>
</g>
</svg>
