<?xml version="1.0" encoding="utf-8"?>
<!-- Generator: Adobe Illustrator 26.0.2, SVG Export Plug-In . SVG Version: 6.00 Build 0)  -->
<svg version="1.1" xmlns="http://www.w3.org/2000/svg" xmlns:xlink="http://www.w3.org/1999/xlink" x="0px" y="0px"
	 viewBox="0 0 597 596" style="enable-background:new 0 0 597 596;" xml:space="preserve">
<g id="show-on-hover">
	<g id="Scopri_il_nostro_framework_Over_00000025401454984294760800000014303388715530467973_">
		<g id="Scopri_il_nostro_framework_Over">
			<path style="fill:#4EAAF0;" d="M316.6,472c-9.9-4.9-21.4-5.6-31.9-2c-13.5,4.6-27.8-8.5-22.2-22.7l24-61.8c0-0.1,0-0.2,0-0.2
				c0-0.1,0-0.2-0.1-0.2c0-0.1-0.1-0.1-0.1-0.2c-0.1-0.1-0.1-0.1-0.2-0.1l-188-73c-2.3-0.9-4.7-1.3-7.1-1.3c-2.4,0.1-4.8,0.6-7,1.6
				s-4.2,2.4-5.9,4.1s-3,3.8-3.9,6.1L7.9,492.6c-1.8,4.6-1.7,9.6,0.3,14.1s5.6,8,10.2,9.8c193.7,75.2,187.9,73.1,188.3,73.1
				c0.1,0,0.2,0,0.3-0.1s0.2-0.2,0.2-0.3l22.4-57.6c1.3-3.1,3.4-5.7,6.1-7.6c2.7-1.9,5.9-3,9.2-3.2s6.6,0.6,9.5,2.2s5.3,4,6.9,6.9
				c3.2,5.8,7.7,10.7,13.1,14.4s11.7,6.1,18.2,6.9c6.5,0.9,13.2,0.2,19.4-2c6.2-2.2,11.8-5.8,16.4-10.6c4.5-4.8,7.9-10.5,9.8-16.8
				s2.3-13,1.1-19.4c-1.2-6.5-3.8-12.6-7.8-17.8C327.6,479.1,322.5,474.9,316.6,472L316.6,472z M337.1,521.6
				c-2.4,7.6-6.9,14.4-13.1,19.5s-13.7,8.2-21.7,9s-16-0.8-23-4.5c-7.1-3.7-12.9-9.4-16.7-16.5c-1.7-3.1-4.3-5.7-7.4-7.4
				s-6.7-2.5-10.2-2.3c-3.6,0.2-7,1.4-9.9,3.5s-5.1,4.9-6.5,8.2l-22.2,57L18.9,515.3c-4.3-1.7-7.7-4.9-9.5-9.1s-1.9-8.9-0.3-13.2
				l66.3-170.5c0.8-2.1,2-4,3.6-5.7c1.6-1.6,3.4-2.9,5.5-3.9c2.1-0.9,4.3-1.4,6.6-1.5c2.3,0,4.5,0.3,6.6,1.2l187.5,72.8l-23.8,61.2
				c-1.2,3.3-1.5,7-0.8,10.4c0.7,3.5,2.5,6.7,4.9,9.2c2.5,2.5,5.6,4.3,9.1,5.2s7.1,0.6,10.5-0.5c7.1-2.4,14.7-2.8,22.1-1.2
				c7.3,1.6,14,5.3,19.4,10.5s9.2,11.8,11.1,19.1C339.5,506.8,339.3,514.5,337.1,521.6L337.1,521.6z"/>
			<path style="fill:#4EAAF0;" d="M579,239.8l-40.2-15.6c-3.1-1.3-5.7-3.4-7.6-6.1c-1.9-2.7-3-5.9-3.2-9.2s0.6-6.6,2.2-9.5
				c1.6-2.9,4-5.3,6.9-6.9c7-3.8,12.7-9.6,16.6-16.6c3.8-7,5.6-14.9,5.1-22.9s-3.3-15.6-8-22c-4.7-6.4-11.2-11.4-18.6-14.3
				c-7.4-2.9-15.5-3.6-23.3-2s-15,5.3-20.8,10.8s-9.8,12.6-11.7,20.3c-1.9,7.7-1.5,15.9,1,23.4c1.3,4,1.2,8.2-0.3,12.1
				c-0.1,0.1-0.1,0.2-0.2,0.2c-1.7,4.3-4.9,7.7-9.1,9.5s-8.9,1.9-13.2,0.3l-61.5-23.9c-0.1-0.1-0.1-0.1-0.2-0.2c-0.1,0-0.2,0-0.3,0
				c-0.1,0-0.2,0-0.3,0.1s-0.1,0.1-0.2,0.2c-0.3,0.3-0.4,1.2-16.1,41.5c0,0.1,0,0.3,0,0.4c0.1,0.1,0.2,0.2,0.3,0.3
				c0.1,0.1,0.3,0.1,0.4,0s0.3-0.2,0.3-0.3l15.8-40.8l61.2,23.8c4.6,1.8,9.6,1.7,14.1-0.3s8-5.6,9.8-10.2c0-0.1,0-0.2,0-0.3
				c0.1-0.1,0.1-0.1,0.2-0.2c1.6-4.1,1.7-8.6,0.2-12.7c-2.5-7.3-2.8-15.2-1-22.7s5.8-14.4,11.4-19.7c5.6-5.4,12.6-9,20.2-10.5
				s15.5-0.8,22.7,2c7.2,2.8,13.5,7.6,18,13.9c4.6,6.2,7.3,13.7,7.8,21.4s-1.2,15.4-4.9,22.2s-9.3,12.4-16.1,16.1
				c-3.1,1.7-5.7,4.3-7.4,7.4c-1.7,3.1-2.5,6.6-2.3,10.2c0.2,3.5,1.4,7,3.5,9.8c2,2.9,4.9,5.1,8.2,6.5l40.2,15.6
				c2.1,0.8,4,2,5.7,3.6c1.6,1.6,2.9,3.4,3.9,5.5c0.9,2.1,1.4,4.3,1.4,6.6c0.1,2.3-0.3,4.5-1.2,6.6l-66.2,170.5
				c-0.8,2.1-2.1,4-3.6,5.7c-1.6,1.6-3.4,2.9-5.5,3.9c-2.1,1-4.3,1.4-6.6,1.5s-4.5-0.4-6.6-1.2l-185.6-72.2l23.8-61.3
				c1-2.7,1.4-5.7,1.1-8.6s-1.3-5.7-2.9-8.2s-3.7-4.5-6.3-6c-2.5-1.5-5.4-2.3-8.3-2.5c-0.1,0-0.2,0-0.2,0c-0.1,0-0.1,0.1-0.2,0.1
				c-0.1,0.1-0.1,0.1-0.1,0.2s-0.1,0.1-0.1,0.2s0,0.2,0,0.2c0,0.1,0.1,0.1,0.1,0.2c0.1,0.1,0.1,0.1,0.2,0.1s0.1,0.1,0.2,0.1
				c2.7,0.2,5.4,1,7.8,2.3c2.4,1.4,4.4,3.3,5.9,5.6c1.5,2.3,2.4,4.9,2.7,7.7c0.3,2.7-0.1,5.5-1,8.1l-24,61.8c-0.1,0.2-0.1,0.3,0,0.5
				c0.1,0.1,0.2,0.3,0.3,0.3l186.1,72.4c2.2,0.9,4.7,1.3,7.1,1.3c2.4-0.1,4.8-0.6,7-1.6c2.2-1,4.2-2.4,5.9-4.1
				c1.7-1.8,3-3.8,3.9-6.1l66.2-170.5c0.9-2.3,1.3-4.7,1.2-7.1c0-2.4-0.6-4.8-1.5-7c-1-2.2-2.4-4.2-4.1-5.9
				C583.3,242,581.3,240.6,579,239.8z"/>
			<path style="fill:#4EAAF0;" d="M252.1,209c5.8-5.8,13.2-9.9,21.3-11.6c8.1-1.7,16.5-1,24.2,2c0.1,0.1,0.3,0.2,0.3,0.3
				c0.1,0.1,0.1,0.3,0,0.5c-0.1,0.1-0.2,0.3-0.3,0.3c-0.1,0.1-0.3,0.1-0.5,0c-7.5-2.9-15.7-3.6-23.5-1.9c-7.9,1.7-15,5.6-20.7,11.3
				c-0.1,0.1-0.1,0.1-0.2,0.1c-0.1,0-0.2,0-0.2,0c-0.2,0-0.3-0.1-0.4-0.2c-0.1-0.1-0.2-0.3-0.2-0.4C252,209.3,252,209.2,252.1,209z"
				/>
			<path style="fill:#4EAAF0;" d="M373.9,159.8c-0.2-0.4,8.3,3.2-187.8-73.2c-2.3-0.9-4.7-1.3-7.1-1.2c-2.4,0.1-4.8,0.6-7,1.6
				s-4.2,2.4-5.9,4.1s-3,3.8-3.9,6.1L146.5,137c-1.3,3.1-3.4,5.7-6.1,7.6c-2.7,1.9-5.9,3-9.2,3.2s-6.6-0.6-9.5-2.2
				c-2.9-1.6-5.3-4-6.9-6.9c-3.8-7-9.6-12.7-16.5-16.5c-7-3.8-14.9-5.6-22.8-5.1s-15.6,3.3-22,8c-6.4,4.7-11.4,11.1-14.2,18.5
				c-2.9,7.4-3.6,15.5-2,23.3s5.3,15,10.8,20.7s12.5,9.8,20.3,11.7c7.7,1.9,15.8,1.5,23.4-1c3.1-1.1,6.5-1.2,9.8-0.5
				c3.2,0.8,6.2,2.4,8.5,4.8c2.3,2.4,3.9,5.4,4.6,8.6c0.7,3.2,0.5,6.6-0.7,9.7l-17.9,46.2c-0.9,2.3-1.3,4.7-1.2,7.1
				c0.1,2.4,0.6,4.8,1.6,7s2.4,4.2,4.1,5.9c1.7,1.7,3.8,3,6.1,3.8l133.6,51.9c0.1,0.1,0.3,0.1,0.5,0c0.1-0.1,0.3-0.2,0.3-0.3
				c0.1-0.1,0.1-0.3,0-0.5c-0.1-0.1-0.2-0.3-0.3-0.3L107,289.8c-2.1-0.8-4-2-5.7-3.6c-1.6-1.6-2.9-3.4-3.8-5.5s-1.4-4.3-1.5-6.5
				c0-2.3,0.3-4.5,1.2-6.6l17.8-46.2c5.9-15.1-9.3-29.2-23.7-24.2c-7.3,2.5-15.2,2.8-22.7,1s-14.3-5.8-19.7-11.3
				c-5.3-5.6-9-12.6-10.5-20.1s-0.8-15.4,2-22.6c2.8-7.2,7.6-13.4,13.8-18s13.6-7.3,21.3-7.8s15.4,1.2,22.2,4.9
				c6.8,3.7,12.3,9.3,16,16.1c2.3,4.1,6,7.2,10.5,8.7s9.3,1.3,13.6-0.5c2.2-1,4.2-2.4,5.9-4.1s3-3.8,3.8-6.1l15.6-39.8
				c0.8-2.1,2-4,3.6-5.7c1.6-1.6,3.4-2.9,5.5-3.8s4.3-1.4,6.5-1.5c2.3,0,4.5,0.3,6.6,1.2l186.9,72.6l-19.7,50.4
				c-0.1,0.2-0.1,0.3,0,0.5c0.1,0.1,0.2,0.3,0.3,0.3c0.1,0.1,0.3,0.1,0.5,0c0.1-0.1,0.3-0.2,0.3-0.3
				C375.3,156.6,374,160.2,373.9,159.8z"/>
			<path style="fill:#4EAAF0;" d="M485.6,370.3L376,386.6c0,0-8.5-37.4-9.9-43.9c-7.7-35.2-38.3-47.2-46.8-49.9
				c-0.1,0.4-0.2,0.7-0.2,1.1c-13.5,14-41.8,25.1-54.9,17.3c-61.8,80.6-99.9,133.3-181.6,210.5c-12.5,11.6,24,51.6,36.6,40.1
				c95.1-85.8,125-114.2,186-188.6l31.5,54c3.5,6,8.7,10.8,15,13.7c6.3,2.9,13.3,3.8,20.2,2.6l123.2-22.1
				C506,419.3,496.8,368.3,485.6,370.3z"/>
			<path style="fill:#E6E7E8;" d="M533.7,203c-1.9,0.6-20,5.4-21.2,5.9c3.4-3.6,7.3-6.7,11.6-9.3c8.6-5.4,7.2-9.7-3.6-4.8
				c-1.2,0.5-13.3,5.6-16.9,7.2c-2.2,0.9-7.9,2.5-9.1,0.9c-3.4-4.7-1.4-19-6.6-19.8c-3.4-0.5-3.9,9.2-5,15.9
				c-0.6,3.8-6.3,7.2-10.8,7.5c-0.1,0,1.6-0.1-15.2,1.5c-3.5,10-1.9,27.6,4,36.1l11.4-0.9c24-2.4,31-4.2,50-7
				c20.7-3,19.5-7.1,6.6-6.9c-4.8,0.1-9.6-0.4-14.3-1.3c0.9,0,8.6-2.3,17.7-5.1c10.9-3.3,11.5-7.6-1.7-5.8c-4.7,0.7-9.5,1-14.2,0.9
				c0.7-0.3,12-5,20.5-9.4C546.6,203.5,545,199.6,533.7,203z"/>
			<path style="fill:#E6E7E8;" d="M325.1,210.7c-24.2,6-47,6.7-67.8,0c11.6,0.6,18.1-1.5,21.9-3.6c1.7-2.1,2.8-4.6,3.2-7.3
				c0.4-2.7,0.1-5.4-0.9-7.9c-15.3,2.4-14.6-19.9-9.6-33.9l2.2-5c6.9-13,17.7-9.1,20.1,5.3c0.2,1.6,1.2,1.5,1.3,1.4
				c1-0.3,1.9-0.7,2.7-1.4c5.7-4,9.6,6.1,1.1,8.9c-1.1,6.2-1.7,12.5-1.9,18.8c-0.2,14.2,3.8,18.3,7.9,20.5
				C311.6,209.1,318.3,210.6,325.1,210.7z"/>
			<path style="fill:#4EAAF0;" d="M392.4,38c2.5-3.7,3.6-8.1,3.2-12.5c-0.5-4.4-2.4-8.5-5.6-11.6s-7.4-5.1-11.9-5.6s-9,0.6-12.8,3
				s-6.6,6-8,10.2s-1.2,8.8,0.4,12.9c1.7,4.1,4.7,7.5,8.6,9.7s8.5,2.9,13,2.2l2.4,11.5c-0.6,0.2-1.1,0.7-1.3,1.2
				c-0.3,0.5-0.4,1.2-0.2,1.8l5.3,25.2c0.2,0.7,0.6,1.3,1.2,1.7c0.6,0.4,1.3,0.5,2,0.4s1.3-0.5,1.7-1.1c0.4-0.6,0.6-1.3,0.4-2
				l-5.3-25.2c-0.1-0.6-0.4-1.1-0.9-1.5s-1.1-0.6-1.7-0.6l-2.4-11.6C385.4,44.9,389.6,42,392.4,38z M357.9,31
				c-0.6-2.9-0.5-5.9,0.4-8.7s2.4-5.4,4.6-7.5c2.1-2.1,4.8-3.7,7.6-4.5c2.9-0.9,6-1,8.9-0.5c3,0.6,5.8,1.8,8.1,3.7
				c2.4,1.9,4.2,4.3,5.4,7c1.2,2.7,1.6,5.7,1.4,8.6c-0.3,2.9-1.3,5.8-3,8.3c-2,3-4.9,5.3-8.2,6.6c-3.4,1.4-7.1,1.7-10.6,1.1
				c-3.6-0.7-6.9-2.4-9.5-4.9C360.4,37.7,358.7,34.5,357.9,31z"/>
			<path style="fill:#4EAAF0;" d="M212.5,103.2L194,18.1c0-0.1,0-0.2-0.1-0.2c0-0.1-0.1-0.1-0.2-0.2c-0.1,0-0.1-0.1-0.2-0.1
				c-0.1,0-0.2,0-0.2,0l-28.5,6.1c-1.6,0.4-3,1.2-4.2,2.3c-1.1,1.1-1.9,2.6-2.3,4.2c-0.3,1.6-0.2,3.2,0.3,4.7
				c0.6,1.5,1.5,2.8,2.8,3.8c2.6,2,4.6,4.8,5.8,7.9c1.1,3.1,1.3,6.5,0.6,9.7s-2.4,6.2-4.8,8.5c-2.4,2.3-5.4,3.9-8.6,4.6
				c-3.3,0.7-6.7,0.5-9.8-0.7s-5.9-3.2-7.9-5.8s-3.2-5.8-3.5-9.1c-0.3-3.3,0.4-6.6,2-9.5c0.8-1.4,1.1-3,1-4.6s-0.7-3.1-1.7-4.4
				s-2.3-2.3-3.8-2.9c-1.5-0.6-3.2-0.7-4.8-0.4l-26.6,5.7c-0.2,0-0.3,0.1-0.4,0.3c-0.1,0.1-0.1,0.3-0.1,0.5l18.5,85.1
				c0.4,1.9,1.5,3.5,3,4.7c1.5,1.2,3.4,1.9,5.3,1.9c1.3,0-4.1,1.1,80.4-17c1.1-0.2,2.1-0.7,3-1.3c0.9-0.6,1.7-1.4,2.3-2.3s1-2,1.2-3
				C212.7,105.4,212.7,104.3,212.5,103.2z"/>
			<path style="fill:#E6E7E8;" d="M185.6,143.1c-2.2-7.6-4.5-17-5.3-21c-1.1-5.2-3-22.4-6-18.5c-2.2,2.9-2.9,11.9-3.4,16.8
				l-21.9,4.7c1.7,9.2,4.5,18.1,8.1,26.8C166.1,147.6,175.7,144.6,185.6,143.1z"/>
			<path style="fill:#4EAAF0;" d="M35.9,277.4c3.2-9.1,15.6-10.7,18.7-19.9c0.5-1.3,0.7-2.6,0.7-4c-0.1-1.4-0.4-2.7-1-3.9
				s-1.4-2.3-2.5-3.2c-1-0.9-2.2-1.5-3.5-1.9s-2.7-0.5-4-0.3s-2.6,0.7-3.8,1.4c-1.1,0.7-2.1,1.7-2.9,2.8c-0.8,1.1-1.3,2.4-1.5,3.7
				c0,0.2-0.1,0.3-0.3,0.4c-0.1,0.1-0.3,0.1-0.5,0.1s-0.3-0.1-0.4-0.3c-0.1-0.1-0.1-0.3-0.1-0.5c0.3-1.5,0.9-2.9,1.7-4.2
				c0.9-1.3,2-2.3,3.3-3.1s2.7-1.3,4.2-1.5s3-0.1,4.5,0.3c1.5,0.4,2.8,1.1,4,2.1s2.1,2.2,2.8,3.6c0.7,1.4,1.1,2.9,1.1,4.4
				c0.1,1.5-0.2,3.1-0.7,4.5c-1.1,3.4-2.8,5.7-9.1,10.1c-6.5,4.5-8.5,6.5-9.6,9.8c-0.1,0.1-0.2,0.3-0.3,0.3c-0.1,0.1-0.3,0.1-0.5,0
				c-0.1-0.1-0.3-0.2-0.3-0.3C35.9,277.7,35.9,277.5,35.9,277.4z"/>
			<path style="fill:#4EAAF0;" d="M31.5,287c-0.5,0.5-0.7,1.2-0.7,2c0,0.7,0.3,1.4,0.8,1.9s1.2,0.8,1.9,0.8s1.4-0.3,1.9-0.8
				s0.7-1.2,0.7-2c0-0.7-0.3-1.4-0.8-1.9s-1.2-0.8-1.9-0.8C32.7,286.3,32,286.5,31.5,287z"/>
			<path style="fill:#000001;" d="M524.8,378.4c-3.7-2.8-8-4.8-12.5-5.9c-5.9-1.3-12.3,1-19.2,2.8c-2.3-3.9-4.8-5.7-7.3-5.3
				l-109,16.3l-9.8-43.5c-2.6-11.8-8.3-22.7-16.5-31.6s-18.6-15.4-30.2-18.9c0.7-3.2,4.8-23,6.2-29c47.1,1.6,94.3-3.1,140.2-14
				c1.3-0.1,3.7-0.9,5.6-5c23.6-2.4,30.8-4.3,49.5-7.1c3.4-0.5,16.8-2.5,16.4-5.8c-0.2-1.7-3.5-2.5-9.9-2.4c-3.8,0-7.6-0.2-11.3-0.8
				c2.5-0.7,6.9-2,14.9-4.5c5.8-1.8,9-3.9,8.6-5.7c-0.5-2.3-6-2-10.5-1.4c-3.7,0.6-7.5,0.9-11.2,1c4-1.7,11.7-5.2,17.8-8.5
				c4.8-2.6,7.1-5,6.4-6.7c-0.7-1.8-4.5-1.7-10.3,0c-1,0.3-11.8,3.3-18.9,5.3c3-2.9,6.4-5.5,10-7.7c4.4-2.8,6.6-5.5,5.7-7.2
				c-0.9-1.7-4.5-1.3-9.9,1.2c-0.9,0.4-16.8,7.3-16.8,7.3c-2.8,1.2-7.6,2.2-8.3,1.1c-3.4-4.8-1-19.4-6.9-20.4c-0.3,0-0.6,0-0.9,0
				c-0.3,0.1-0.6,0.2-0.8,0.4c-2.6,1.9-3,10-4,16.2c-0.6,3.6-6.1,6.8-10.2,7.1c-0.1,0-0.5,0-1.9,0.2c-1.6-2.7-4.4-5.9-7.4-5.4
				c-24.4,3.2-135.7,17-157.4,5c-4-2.2-7.6-6-7.5-19.4c2.8-0.8,17.3-5.8,20.4-16.1c1.7-5.6-0.4-11.8-6.1-18.4c2.4,1.2,5,1.9,7.7,1.8
				c16.9,0,27.1-21.4,15.5-32.6c-3.7-3.2-8.5-4.8-13.4-4.4s-9.4,2.7-12.6,6.4c-2.9,2.8-4.8,6.4-5.5,10.4c-0.7,3.9-0.2,8,1.5,11.6
				c-13.1-11.1-23.7-7.5-31.3,6.3c-5.1,9.4-8.2,25.3-4.3,34.5c0.8,2.3,2.3,4.2,4.4,5.3c2.1,1.2,4.5,1.6,6.8,1.1
				c0.5,1.2,0.8,2.5,1,3.8c0.1,1.7-1.6,9.3-3.1,10.2c-16,9-50.2-0.9-67.6-6.7l-17.1-54.8c-0.8-2.5-5.9-2-8.4-1.7
				c-1.9-6.8-4.7-17.6-6-25.6c-1.4-8.4-2.5-14-4.4-14.5c-4-1-5.3,17.8-5.5,22c-2.5,2.1-4,5.1-4.2,8.4c-0.7,6.4,2.4,11.9,3.4,11.9
				c0.1,0,0.2,0,0.3-0.1s0.2-0.1,0.2-0.3c0-0.1,0.1-0.2,0.1-0.3s-0.1-0.2-0.1-0.3c-2.2-3.1-3.1-6.9-2.6-10.7
				c0.1-1.5,0.5-2.9,1.2-4.3c0.7-1.3,1.6-2.5,2.8-3.5c0.1-0.1,0.1-0.1,0.2-0.2c0-0.1,0.1-0.2,0.1-0.3c0-0.2,0.8-17.1,3.6-20.8
				c0.2-0.3,0.4-0.4,0.4-0.4c1.4,0.3,2.8,9.2,3.5,13.5c1.3,7.9,3.9,18.4,6,25.6c-9.4,1.5-18.5,4.3-27,8.4c-3.4-8.4-6-17.1-7.7-26
				l-1.2,0.2c1.7,9,4.3,17.9,7.8,26.4c-2.2,1.2-6.4,3.6-5.7,6c28.3,90.2,27.8,86.8,28.1,87.1l0.1,0.1c20.7,10.6,43.4,16.7,66.6,17.9
				c1.8,11.8,7.8,27.5,18.5,48.1c-73.2,95.7-95,129-181.3,210.9c-2.8,2.6-3.5,6.7-2,11.8c-8.3,6.5-23.3,18.2-33.4,24.9
				c-23.1,15.4-25.8,19.6-25.5,21.5c1.4,11.5,39.8-6.1,59.3-4.5c4.6,0.5,9.3,0.1,13.7-1.2c5.2-1.6,9.2-6.1,13.4-10.4
				c4.2,1.6,8.7,2.1,12-0.9c76.8-69.5,121.9-109.3,185.3-188.6l31,53.4c3.6,6.1,8.9,11,15.3,13.9c6.4,3,13.6,3.9,20.5,2.7
				l123.1-22.2c3.1-0.5,4.4-4.5,4.9-7.1c9.3-1.3,31.4-4.3,45.2-5.1c27.7-1.6,32.1-3.8,32.9-5.5C582.8,394,540.8,389.7,524.8,378.4z
				 M365.8,343.1c3.5,16.3,1.4,6,9.9,44c0,0.1,0.1,0.3,0.2,0.3c0.1,0.1,0.2,0.1,0.4,0.1l87.4-13c4.9-0.8,9.4,19.2,10.4,24.8
				l-103.6,13.5c-2.6,0.3-5.3-0.3-7.6-1.7c-2.3-1.4-3.9-3.6-4.8-6.1c-5.4-16.2-14.7-45.6-16.4-60c-2.7-23.5-29.2-37.8-35-40.6
				c4.8-2.8,9.2-6.2,13.1-10.1c0.2-0.2,0.2-0.4,0.3-0.8c11.3,3.4,21.5,9.8,29.6,18.6C357.7,320.8,363.2,331.5,365.8,343.1z
				 M530.2,217.9c7.2-1,9,0,9.2,0.4c0.1,0.6-1.7,2.4-7.8,4.3c-4,1.2-16,5-17.4,5.1c-1.9-0.4-3.4-0.8-4.1-1c0.4-2.8,0.4-5.6,0.1-8.4
				C516.9,219.2,523.6,219,530.2,217.9z M533.2,203.7c5.8-1.8,8.5-1.4,8.8-0.7c0.3,0.6-1.1,2.6-5.9,5.2c-8.1,4.4-18.8,8.9-20.2,9.5
				c-1.9,0-3.8-0.2-5.8-0.6c-0.3-2.2-0.9-4.4-1.6-6.5C509.9,210.2,531.8,204.1,533.2,203.7z M471.7,207.1c4.7-0.3,10.6-3.9,11.3-8.1
				c0.7-4.5,1.5-16,4.3-15.6c4.5,0.7,2.7,15.1,6.1,19.9c1.8,2.5,9.7-0.7,9.8-0.7c0,0,16-6.9,16.8-7.3c5.4-2.4,8-2.3,8.3-1.7
				c0.3,0.5-0.6,2.6-5.3,5.6c-4.3,2.6-8.2,5.8-11.6,9.4l-3.5,1c-0.5-1.4-1.1-2.8-1.9-4.3c-0.1-0.1-0.2-0.3-0.3-0.3
				c-0.2-0.1-0.3,0-0.5,0c-0.1,0.1-0.2,0.2-0.3,0.3c-0.1,0.2,0,0.3,0,0.5c4,7.6,5.1,16.3,3.3,24.6c0,0.2,0,0.3,0.1,0.4
				c0.1,0.1,0.2,0.2,0.4,0.2c0.2,0,0.3,0,0.4-0.1s0.2-0.2,0.3-0.4c0.1-0.8,0.3-1.6,0.4-2.5c6,1.7,12.2,2.4,18.4,2.4
				c7.1-0.1,8.7,1,8.7,1.3s-1.3,1.7-7.8,3.1c-2.7,0.6-5.2,1-7.6,1.4c-22.8,3.4-28.2,5.3-60.8,8c-5.4-8.3-7.3-25.3-3.9-35.5
				C476.5,206.6,470.7,207.1,471.7,207.1z M279.1,207.4c2.2-1.2,3.7-9.1,3.8-11c3.7-4.3,5-5.7,5.5-6.2c0.6-0.7,0.3-1.4-0.5-1.2
				c-0.6,0.2-1.5,0.6-3.4,1.2c-4.6,1.5-9.2,1.9-12.3-1.9c-4.9-6-3.8-20-0.2-30.1l2.1-4.9c6.6-12.4,16.6-8.7,18.9,5
				c0.2,1.7,1.4,2.2,2.1,1.9c2.1-0.5,3.2-2.3,5.1-2.2c3.4,0.1,4.6,6.5-1.7,8.6h-0.1c-0.1,0-0.2,0.1-0.2,0.2
				c-0.1,0.1-0.1,0.2-0.1,0.3c-1.1,6.2-1.7,12.5-1.9,18.8c-0.2,14.4,4,18.7,8.1,20.9c5.2,2.3,10.7,3.7,16.4,4
				c-22.2,5.1-41.7,5.2-59.3,0.4C267.7,211.3,273.7,210.1,279.1,207.4z M246.4,262.5c-1.2-8-0.2-16.2,3-23.7c0-0.1,0-0.2,0-0.3
				s-0.1-0.2-0.1-0.3c-0.1-0.1-0.1-0.1-0.2-0.2c-0.1,0-0.2-0.1-0.3,0c-0.6,0.1,0.2-1.4-10,23.5c-20.7-1.9-40.8-7.7-59.3-17.1
				l-27.9-86.6c-0.1-0.4,0.2-1,0.7-1.5c4.7-5,23.9-10.8,32.7-11.9c0.3,0,7.2-1,7.8,0.8c17.8,57.5,17.1,55.1,17.5,55.4
				c1,0.6,27.4,9.4,46.8,10.4c22.2,7.1,45.2,5.6,67.6,0c35.1,2.8,99.5-4.2,134.6-8.7c-8.7,8.5-5.5,41.2,4.7,46.5
				c-40.1,9.3-81.1,13.9-122.3,13.9C331,247,331.3,247.4,331,247.1l0,0c-0.1-0.1-0.2-0.1-0.3-0.1c-0.1,0-0.2,0-0.3,0.1l0,0
				c-2.6,2-10.6,42.9-11.4,46.6c-12.5,12.9-40.3,25.1-53.9,17.2C254.1,290.1,248,274.3,246.4,262.5L246.4,262.5z M119.2,562.2
				c-12.1,11-47.7-28.5-35.8-39.4c4.2-4,8.4-8,12.4-11.9c-1.7,11.8,24.2,41.1,35.5,40.3C127.3,554.9,123.3,558.5,119.2,562.2z
				 M141,542.5c-2.4,2.2-4.8,4.5-7.4,6.7c-3.3,2.9-10.5-1.1-17.5-7.5c61.6-57.9,120.3-118.9,175.8-182.8l6.7,22.3
				C242.4,449.3,211.7,478.3,141,542.5z M472.8,425.2l-100.9,18.2c-6.7,1.2-13.6,0.3-19.8-2.6c-6.2-2.9-11.3-7.5-14.8-13.4
				l-49.1-84.5c-0.1-0.1-0.2-0.2-0.3-0.3c-0.1,0-0.3,0-0.4,0c-0.1,0.1-0.2,0.2-0.3,0.3c-0.1,0.1-0.1,0.3,0,0.4l4.2,14.2
				c-55.6,64-114.4,125.3-176.2,183.3c-2.1-1.9-4-4-5.9-6.1c-8.6-9.9-15.3-22-11.2-25.9c28.5-27,55.4-55.6,80.5-85.7
				c24.6-29.3,47.5-60.5,86-110.9c11,6.1,29.7-0.5,40.8-6.9c3.3,1.5,32.2,15.8,35,40c1.7,14.5,11,44,16.5,60.2
				c0.9,2.8,2.8,5.2,5.3,6.7c2.5,1.6,5.4,2.2,8.4,1.8l103.7-13.5c1,5.4,1.4,10.8,1.3,16.3C475.4,421.8,474.4,424.9,472.8,425.2z
				 M495,421.1l-19.9,3.6c4.8-7.9-1.8-44.6-9.1-50.5l19.9-3C496.2,369.4,505.3,419.4,495,421.1L495,421.1z"/>
			<path style="fill:#000001;" d="M285.5,231.8c0.7,0,1.3-0.2,1.8-0.6c0.5-0.3,0.9-0.8,1.1-1.3s0.2-1.1,0-1.6s-0.6-1-1.1-1.3
				s-1.1-0.6-1.8-0.6c-0.7-0.1-1.3,0-1.9,0.3c-0.6,0.2-1.1,0.6-1.4,1.1s-0.5,1-0.4,1.5c0,0.4,0.2,0.7,0.4,1c0.2,0.3,0.5,0.6,0.8,0.8
				s0.7,0.4,1.2,0.5C284.6,231.8,285,231.8,285.5,231.8z"/>
			<path style="fill:#000001;" d="M280,254.8c0.7-0.1,1.3-0.3,1.8-0.7s0.9-1,1.1-1.6s0.2-1.3,0-2c-0.2-0.6-0.6-1.2-1.1-1.6
				c-0.5-0.4-1.1-0.7-1.8-0.8s-1.3,0.1-1.9,0.4c-0.6,0.3-1.1,0.8-1.4,1.4c-0.3,0.6-0.5,1.3-0.4,1.9c0,0.4,0.2,0.9,0.4,1.3
				c0.2,0.4,0.5,0.7,0.8,1s0.7,0.5,1.2,0.6C279.2,254.8,279.6,254.8,280,254.8z"/>
			<path style="fill:#000001;" d="M280,279.2c0.7-0.1,1.3-0.3,1.8-0.7c0.5-0.4,0.9-1,1.1-1.6s0.2-1.3,0-2c-0.2-0.6-0.6-1.2-1.1-1.6
				s-1.1-0.7-1.8-0.8c-0.7-0.1-1.3,0.1-1.9,0.4s-1.1,0.8-1.4,1.4s-0.5,1.3-0.4,1.9c0,0.4,0.2,0.9,0.4,1.3c0.2,0.4,0.5,0.7,0.8,1
				s0.7,0.5,1.2,0.6C279.1,279.2,279.6,279.2,280,279.2z"/>
		</g>
	</g>
</g>
<g id="CARD1">
	<g id="Scopri_il_nostro_framework_base_00000018203684581468368890000004490753248750952586_">
		<g id="Scopri_il_nostro_framework_base">
			<path style="fill:#4EAAF0;" d="M294.3,447.9c-9.3-3.9-19.8-3.9-29.1-0.1c-12,4.9-25.7-6.2-21.5-19.5l18.6-57.5c0-0.1,0-0.1,0-0.2
				s0-0.1-0.1-0.2c0-0.1-0.1-0.1-0.1-0.2c-0.1,0-0.1-0.1-0.2-0.1l-175-56.4c-2.1-0.7-4.3-0.9-6.5-0.8c-2.2,0.2-4.3,0.8-6.3,1.8
				s-3.7,2.4-5.1,4.1s-2.5,3.6-3.2,5.7L14.5,483.2c-1.4,4.2-1,8.9,1,12.8c2,4,5.6,7,9.8,8.3c180.3,58.1,174.9,56.5,175.2,56.4
				c0.1,0,0.2,0,0.3-0.1s0.2-0.2,0.2-0.3l17.3-53.7c1-2.9,2.8-5.4,5.1-7.3c2.4-1.9,5.2-3.1,8.2-3.4s6,0.2,8.8,1.5
				c2.7,1.3,5,3.3,6.7,5.9c3.2,5.1,7.5,9.3,12.7,12.4c5.1,3.1,11,4.9,16.9,5.3c6,0.4,12-0.6,17.5-2.9s10.4-5.9,14.3-10.5
				c3.9-4.6,6.6-10,8-15.8s1.4-11.9,0-17.7c-1.4-5.8-4.2-11.3-8.1-15.8C304.7,453.9,299.8,450.3,294.3,447.9L294.3,447.9z
				 M315.6,492c-1.7,7.1-5.5,13.5-10.9,18.4s-12.1,8.2-19.3,9.3c-7.2,1.2-14.6,0.2-21.2-2.8s-12.2-7.9-16.1-14.1
				c-1.7-2.7-4.2-5-7.1-6.4c-2.9-1.4-6.2-2-9.4-1.6s-6.3,1.7-8.8,3.7s-4.4,4.8-5.5,7.8l-17.2,53.1L25.7,503.3
				c-4-1.3-7.3-4.1-9.2-7.8c-1.9-3.7-2.2-8-1-12l51.2-158.7c0.6-2,1.6-3.8,3-5.4c1.3-1.6,3-2.9,4.8-3.8s3.8-1.5,5.9-1.7
				s4.1,0.1,6.1,0.7L261,370.9l-18.4,57c-1,3.1-1,6.4-0.1,9.5s2.6,6,5,8.1c2.4,2.2,5.4,3.6,8.6,4.2s6.5,0.2,9.5-1
				c6.3-2.6,13.3-3.4,20-2.2c6.8,1.1,13.1,4.1,18.2,8.5c5.2,4.5,9,10.3,11.1,16.8C317,478.5,317.2,485.4,315.6,492L315.6,492z"/>
			<path style="fill:#4EAAF0;" d="M425.3,176.3c-0.1,0-0.2,0-0.2,0c-0.1,0-0.1-0.1-0.2-0.1c-0.1-0.1-0.1-0.1-0.1-0.2
				c0-0.1,0-0.1,0-0.2l0.2-0.4c0-0.1,0.1-0.2,0.3-0.3c0.1,0,0.1,0,0.2,0s0.1,0,0.2,0s0.1,0,0.2,0.1c0.1,0,0.1,0.1,0.1,0.1
				s0,0.1,0.1,0.2c0,0.1,0,0.1,0,0.2C425.7,176,425.7,176.3,425.3,176.3z"/>
			<path style="fill:#4EAAF0;" d="M520.7,222.6l-37.4-12c-2.9-1-5.4-2.8-7.3-5.1c-1.9-2.4-3.1-5.2-3.4-8.2s0.2-6,1.5-8.8
				c1.3-2.7,3.3-5,5.9-6.7c6.2-3.9,11.1-9.4,14.2-16s4.3-13.9,3.4-21.1c-0.9-7.2-3.8-14-8.5-19.6c-4.6-5.6-10.8-9.8-17.7-12
				c-6.9-2.2-14.3-2.4-21.3-0.6s-13.4,5.6-18.3,11c-4.9,5.3-8.3,12-9.6,19.1c-1.3,7.1-0.5,14.5,2.2,21.3c1.4,3.5,1.5,7.4,0.4,11.1
				c-0.1,0.1-0.1,0.1-0.2,0.2c-1.3,4-4.1,7.3-7.8,9.1c-3.7,1.9-8,2.2-12,1l-57.2-18.5c-0.1-0.1-0.1-0.1-0.2-0.1s-0.2,0-0.3,0
				c-0.1,0-0.2,0-0.2,0.1c-0.1,0-0.1,0.1-0.2,0.2c-0.2,0.3-0.3,1.1-12.5,38.6c0,0.1,0,0.3,0,0.4c0.1,0.1,0.2,0.2,0.3,0.3
				c0.1,0,0.3,0,0.4,0c0.1-0.1,0.2-0.2,0.3-0.3l12.2-38l56.9,18.4c4.2,1.4,8.8,1,12.8-1s7-5.6,8.3-9.8c0-0.1,0-0.2,0-0.3
				c0.1-0.1,0.1-0.1,0.2-0.2c1.2-3.8,1-7.9-0.5-11.5c-2.7-6.5-3.4-13.7-2.1-20.6c1.3-6.9,4.5-13.4,9.3-18.6s11-8.9,17.8-10.7
				c6.8-1.8,14-1.6,20.7,0.6s12.7,6.2,17.2,11.7c4.5,5.4,7.4,12.1,8.2,19.1c0.9,7-0.3,14.1-3.3,20.5s-7.8,11.8-13.8,15.5
				c-2.7,1.7-4.9,4.2-6.3,7.1c-1.4,2.9-1.9,6.2-1.6,9.4s1.6,6.3,3.7,8.8c2,2.5,4.7,4.4,7.8,5.5l37.4,12c2,0.6,3.8,1.6,5.3,3
				c1.6,1.3,2.9,3,3.8,4.8c0.9,1.8,1.5,3.8,1.7,5.9c0.2,2.1-0.1,4.1-0.7,6.1l-50.9,158.4c-0.6,2-1.6,3.8-3,5.4
				c-1.3,1.6-3,2.9-4.8,3.8s-3.8,1.5-5.9,1.7s-4.1-0.1-6.1-0.7l-172.7-55.8l18.4-57c0.8-2.5,1-5.3,0.6-7.9s-1.5-5.1-3.1-7.3
				c-1.6-2.2-3.6-3.9-6-5.1s-5-1.8-7.7-1.8c-0.1,0-0.1,0-0.2,0s-0.1,0.1-0.2,0.1c-0.1,0.1-0.1,0.1-0.1,0.2s0,0.1,0,0.2s0,0.1,0,0.2
				s0.1,0.1,0.1,0.2c0.1,0.1,0.1,0.1,0.2,0.1s0.1,0,0.2,0c2.5,0,5,0.6,7.2,1.7s4.2,2.8,5.6,4.8c1.5,2,2.5,4.4,2.9,6.8
				c0.4,2.5,0.2,5-0.5,7.4l-18.5,57.5c0,0.1,0,0.3,0,0.4c0.1,0.1,0.2,0.2,0.3,0.3l173.3,56c2.1,0.7,4.3,0.9,6.5,0.8
				c2.2-0.2,4.3-0.8,6.3-1.8s3.7-2.4,5.1-4.1s2.5-3.6,3.2-5.7l51.1-158.7c0.7-2.1,0.9-4.3,0.8-6.5c-0.2-2.2-0.8-4.3-1.8-6.3
				s-2.4-3.7-4.1-5.1C524.7,224.3,522.8,223.3,520.7,222.6z"/>
			<path style="fill:#4EAAF0;" d="M221.6,212.1c5-5.6,11.5-9.7,18.8-11.7s15-1.8,22.1,0.5c0.1,0,0.2,0.1,0.3,0.3
				c0.1,0.1,0.1,0.3,0,0.4c0,0.1-0.1,0.3-0.3,0.3c-0.1,0.1-0.3,0.1-0.4,0c-7-2.2-14.4-2.4-21.5-0.5s-13.4,5.9-18.2,11.3
				c0,0.1-0.1,0.1-0.2,0.1c-0.1,0-0.1,0.1-0.2,0.1c-0.1,0-0.3,0-0.4-0.1s-0.2-0.2-0.2-0.4C221.4,212.4,221.5,212.2,221.6,212.1z"/>
			<path style="fill:#4EAAF0;" d="M329.7,160.8c-0.2-0.3,7.7,2.5-174.9-56.5c-2.1-0.7-4.3-0.9-6.5-0.8c-2.2,0.2-4.3,0.8-6.3,1.8
				s-3.7,2.4-5.1,4.1c-1.4,1.7-2.5,3.6-3.2,5.7l-12.1,37.1c-1,2.9-2.8,5.4-5.1,7.3c-2.4,1.9-5.2,3.1-8.2,3.4c-3,0.3-6-0.2-8.8-1.5
				c-2.7-1.3-5-3.4-6.6-5.9c-3.9-6.1-9.4-11.1-15.9-14.2s-13.9-4.3-21-3.4c-7.2,0.9-14,3.8-19.6,8.4c-5.6,4.6-9.7,10.7-12,17.6
				c-2.2,6.9-2.4,14.3-0.6,21.3s5.6,13.4,10.9,18.3c5.3,4.9,11.9,8.2,19.1,9.5c7.1,1.3,14.5,0.5,21.2-2.2c2.8-1.1,5.9-1.5,8.8-0.9
				c3,0.5,5.7,1.9,8,3.9c2.2,2,3.9,4.7,4.7,7.6c0.8,2.9,0.8,6-0.1,8.9l-13.7,43c-0.7,2.1-0.9,4.3-0.8,6.5c0.2,2.2,0.8,4.3,1.8,6.3
				s2.4,3.7,4.1,5.1s3.6,2.5,5.7,3.2l124.4,40.1c0.1,0,0.3,0,0.4,0c0.1-0.1,0.2-0.2,0.3-0.3c0-0.1,0-0.3,0-0.4
				c-0.1-0.1-0.2-0.2-0.3-0.3L93.8,293.4c-2-0.6-3.8-1.6-5.3-3c-1.6-1.3-2.9-3-3.8-4.8s-1.5-3.8-1.7-5.9c-0.2-2,0.1-4.1,0.7-6.1
				l13.7-43c4.6-14.1-10-26-22.8-20.8c-6.5,2.7-13.7,3.4-20.6,2.1c-6.9-1.3-13.4-4.5-18.5-9.3c-5.2-4.8-8.8-11-10.6-17.8
				s-1.6-14,0.6-20.7s6.2-12.6,11.6-17.1s12-7.3,19-8.2s14.1,0.3,20.4,3.3c6.4,3,11.7,7.8,15.5,13.8c2.3,3.6,5.9,6.2,10,7.4
				c4.1,1.1,8.5,0.7,12.4-1.2c2-1,3.7-2.4,5.1-4.1c1.4-1.7,2.5-3.6,3.2-5.7l12.1-37.1c0.6-2,1.6-3.8,3-5.3c1.3-1.6,3-2.9,4.8-3.8
				s3.8-1.5,5.9-1.7c2.1-0.2,4.1,0.1,6.1,0.7l174,56.1l-15.2,46.9c0,0.1,0,0.3,0,0.4c0.1,0.1,0.2,0.2,0.3,0.3c0.1,0,0.3,0,0.4,0
				c0.1-0.1,0.2-0.2,0.3-0.3C330.9,157.8,329.9,161.1,329.7,160.8z"/>
			<path style="fill:#4EAAF0;" d="M442.7,346.4l-98.9,20.7c0,0-9.8-33.6-11.4-39.4c-8.9-31.6-37.4-40.9-45.3-42.9
				c-0.1,0.3-0.1,0.7-0.2,1c-11.6,13.4-36.7,25.1-49,18.7c-51.9,76.6-83.8,126.6-154,201.3c-10.8,11.3,24.6,45.7,35.5,34.6
				c82-83.2,107.7-110.6,159.2-181.6l31.4,47.3c3.5,5.3,8.5,9.3,14.4,11.6c5.9,2.3,12.3,2.7,18.5,1.3l110.9-26.7
				C463.9,389.9,452.7,343.9,442.7,346.4z"/>
			<path style="fill:#E6E7E8;" d="M477.5,191.6c-1.7,0.6-17.9,6-18.9,6.5c2.9-3.5,6.3-6.5,10.1-9.1c7.5-5.4,6.1-9.2-3.6-4.2
				c-1.1,0.6-11.8,5.8-15,7.4c-2,1-7.1,2.7-8.2,1.3c-3.4-4.1-2.3-17.2-7-17.6c-3.1-0.3-3.1,8.6-3.7,14.7c-0.4,3.5-5.4,6.9-9.4,7.4
				c-0.1,0,1.4-0.2-13.7,2.2c-2.7,9.3-0.2,25.2,5.6,32.6l10.3-1.4c21.7-3.5,28-5.5,45.1-9c18.7-3.9,17.3-7.5,5.7-6.6
				c-4.4,0.3-8.7,0.2-13.1-0.4c0.8,0,7.7-2.5,15.8-5.6c9.7-3.6,10.1-7.6-1.8-5.2c-4.2,0.9-8.6,1.4-12.9,1.6
				c0.6-0.3,10.6-5.2,18.1-9.7C489.3,191.3,487.6,187.8,477.5,191.6z"/>
			<path style="fill:#E6E7E8;" d="M288.1,209.7c-21.7,6.8-42.4,8.6-61.7,3.6c10.6-0.1,16.4-2.3,19.7-4.4c1.4-2,2.3-4.4,2.5-6.8
				c0.2-2.5-0.2-4.9-1.3-7.2c-13.8,3-14.3-17.4-10.6-30.4l1.7-4.7c5.6-12.2,15.6-9.2,18.6,3.7c0.3,1.5,1.1,1.3,1.3,1.2
				c0.9-0.3,1.7-0.8,2.4-1.4c5-3.9,9.1,5,1.5,8c-0.7,5.7-0.9,11.5-0.7,17.2c0.6,13,4.4,16.4,8.3,18.2
				C275.6,209,281.9,210,288.1,209.7z"/>
			<path style="fill:#4EAAF0;" d="M340,48.9c2.1-3.5,2.8-7.6,2.2-11.5c-0.6-4-2.7-7.6-5.7-10.3c-3.1-2.7-7-4.2-11.1-4.4
				c-4.1-0.2-8.2,1-11.5,3.4s-5.7,5.8-6.7,9.7s-0.6,8,1.1,11.7s4.7,6.6,8.4,8.4c3.7,1.8,7.9,2.2,11.9,1.3l2.8,10.4
				c-0.5,0.2-0.9,0.7-1.2,1.2c-0.2,0.5-0.3,1.1-0.1,1.6l6.2,22.7c0.2,0.6,0.6,1.1,1.2,1.4s1.2,0.4,1.9,0.2c0.6-0.2,1.2-0.6,1.5-1.1
				c0.3-0.6,0.4-1.2,0.3-1.8L335,69.1c-0.1-0.5-0.4-1-0.9-1.4c-0.5-0.3-1-0.5-1.6-0.4l-2.8-10.4C334,55.6,337.7,52.8,340,48.9z
				 M308.3,44.4c-0.7-2.6-0.7-5.3-0.1-8c0.6-2.6,1.9-5.1,3.7-7.1c1.8-2,4.1-3.6,6.7-4.5c2.6-1,5.4-1.3,8.1-0.9s5.3,1.4,7.6,2.9
				c2.2,1.6,4,3.7,5.3,6.1c1.2,2.4,1.8,5.1,1.7,7.8c-0.1,2.7-0.9,5.3-2.3,7.7c-1.7,2.8-4.2,5.1-7.1,6.5c-3,1.4-6.3,2-9.6,1.5
				c-3.3-0.4-6.4-1.8-8.9-3.9C310.9,50.3,309.2,47.5,308.3,44.4z"/>
			<path style="fill:#4EAAF0;" d="M179.8,117.9l-21.4-76.5c0-0.1-0.1-0.1-0.1-0.2s-0.1-0.1-0.2-0.1c-0.1,0-0.1-0.1-0.2-0.1
				c-0.1,0-0.1,0-0.2,0l-25.6,7.1c-1.4,0.4-2.7,1.2-3.7,2.3s-1.6,2.5-1.9,3.9c-0.2,1.5,0,2.9,0.5,4.3c0.6,1.3,1.5,2.5,2.8,3.3
				c2.5,1.7,4.5,4.1,5.7,6.9s1.6,5.8,1.1,8.8s-1.9,5.7-3.9,8c-2,2.2-4.7,3.9-7.6,4.7c-2.9,0.8-6,0.8-8.9-0.1s-5.5-2.6-7.5-4.9
				s-3.2-5.1-3.7-8.1c-0.4-3,0-6,1.3-8.8c0.6-1.3,0.8-2.8,0.6-4.3c-0.2-1.5-0.8-2.8-1.8-4c-1-1.1-2.2-2-3.6-2.4s-2.9-0.5-4.4-0.1
				l-23.9,6.6c-0.1,0-0.3,0.1-0.3,0.3c-0.1,0.1-0.1,0.3-0.1,0.4l21.4,76.5c0.5,1.7,1.5,3.1,2.9,4.2c1.4,1,3.2,1.5,4.9,1.4
				c1.2-0.1-3.7,1.2,72.3-19.7c1-0.3,1.9-0.7,2.7-1.3c0.8-0.6,1.5-1.4,2-2.3s0.8-1.8,0.9-2.8C180.1,119.9,180.1,118.9,179.8,117.9z"
				/>
			<path style="fill:#E6E7E8;" d="M157.4,155.7c-2.4-6.8-5-15.2-6-18.9c-1.3-4.7-3.9-20.3-6.5-16.5c-1.9,2.8-2,11-2.2,15.5
				l-19.6,5.4c2.1,8.2,5,16.3,8.8,23.9C139.9,160.8,148.5,157.6,157.4,155.7z"/>
			<path style="fill:#4EAAF0;" d="M28.4,285.8c2.4-8.4,13.6-10.6,16-19.1c0.4-1.2,0.5-2.4,0.4-3.7c-0.1-1.2-0.5-2.4-1.1-3.5
				s-1.4-2-2.4-2.8c-1-0.7-2.1-1.3-3.3-1.5c-1.2-0.3-2.4-0.3-3.7,0c-1.2,0.2-2.4,0.7-3.4,1.4s-1.9,1.6-2.5,2.7s-1,2.3-1.2,3.5
				c0,0.1-0.1,0.3-0.2,0.4s-0.3,0.1-0.4,0.1s-0.3-0.1-0.4-0.2s-0.1-0.3-0.1-0.4c0.2-1.4,0.6-2.7,1.3-3.9c0.7-1.2,1.7-2.2,2.8-3
				c1.1-0.8,2.4-1.4,3.8-1.6c1.4-0.3,2.8-0.3,4.1,0c1.4,0.3,2.6,0.9,3.7,1.7c1.1,0.8,2.1,1.9,2.7,3.1c0.7,1.2,1.1,2.6,1.3,4
				c0.1,1.4,0,2.8-0.4,4.1c-0.9,3.1-2.2,5.4-7.7,9.6c-5.7,4.4-7.4,6.4-8.2,9.4c0,0.1-0.1,0.2-0.3,0.3c-0.1,0.1-0.3,0.1-0.4,0
				c-0.1,0-0.3-0.1-0.3-0.3C28.4,286.1,28.4,286,28.4,285.8z"/>
			<path style="fill:#4EAAF0;" d="M24.9,294.9c-0.4,0.5-0.6,1.2-0.5,1.8c0.1,0.7,0.4,1.3,0.9,1.7c0.5,0.4,1.1,0.7,1.8,0.6
				c0.7,0,1.3-0.3,1.7-0.8c0.4-0.5,0.6-1.2,0.5-1.8c-0.1-0.7-0.4-1.3-0.9-1.7c-0.5-0.4-1.1-0.7-1.8-0.6
				C25.9,294.2,25.4,294.4,24.9,294.9z"/>
			<path style="fill:#000001;" d="M435.3,217.8c8.4-2.1,12.8-7.9,13.1-17.5c0-0.1-0.1-0.3-0.2-0.4c-0.1-0.1-0.2-0.2-0.4-0.2
				c-0.2,0-0.3,0.1-0.4,0.1c-0.1,0.1-0.2,0.2-0.2,0.4c-0.3,9-4.4,14.6-12.3,16.5c-0.1,0-0.3,0.1-0.4,0.2c-0.1,0.1-0.1,0.3-0.1,0.4
				c0,0.1,0.1,0.3,0.3,0.3C435,217.8,435.1,217.8,435.3,217.8z"/>
			<path style="fill:#000001;" d="M478.7,351.7c-3.5-2.3-7.5-3.9-11.7-4.7c-5.4-0.9-11.1,1.6-17.3,3.6c-2.3-3.4-4.7-5-6.9-4.4
				l-98.3,20.6l-11.3-39.1c-3-10.6-8.8-20.2-16.7-27.9c-7.9-7.6-17.8-13-28.5-15.6c0.4-2.9,3.1-21.2,4.1-26.7
				c43-1,85.6-7.8,126.8-20.2c1.2-0.1,3.3-1.1,4.9-4.9c21.3-3.4,27.8-5.5,44.7-9.1c3.1-0.6,15.2-3.1,14.6-6.2
				c-0.3-1.5-3.3-2-9.1-1.6c-3.4,0.2-6.9,0.2-10.3-0.1c2.2-0.8,6.2-2.2,13.3-4.9c5.2-1.9,7.9-4.1,7.5-5.7c-0.6-2.1-5.6-1.5-9.6-0.7
				c-3.3,0.7-6.7,1.2-10.1,1.5c3.5-1.8,10.3-5.3,15.7-8.7c4.2-2.6,6.2-5,5.5-6.5c-0.8-1.6-4.2-1.4-9.3,0.6c-0.9,0.3-10.5,3.6-17,5.8
				c2.6-2.8,5.5-5.3,8.7-7.6c3.8-2.8,5.7-5.4,4.8-6.8c-0.9-1.5-4.2-0.9-8.9,1.6c-0.8,0.4-14.9,7.5-14.9,7.5
				c-2.5,1.2-6.8,2.4-7.5,1.5c-3.4-4.2-2-17.6-7.4-18.2c-0.3,0-0.5,0-0.8,0.1s-0.5,0.2-0.7,0.4c-2.2,1.9-2.2,9.2-2.8,15
				c-0.3,3.3-5.1,6.5-8.9,7c-0.1,0-0.4,0.1-1.7,0.3c-1.6-2.3-4.3-5.1-7-4.5c-22,4.2-122.6,22.7-143,13c-3.7-1.8-7.3-5.1-7.9-17.3
				c2.5-0.9,15.4-6.2,17.7-15.7c1.2-5.2-1-10.7-6.5-16.4c2.2,1,4.7,1.4,7.1,1.3c15.4-0.9,23.6-20.9,12.3-30.5
				c-3.6-2.7-8-3.9-12.5-3.3c-4.4,0.6-8.4,2.9-11.1,6.5c-2.4,2.7-4,6.1-4.4,9.8c-0.4,3.6,0.3,7.3,2,10.5c-12.5-9.4-22-5.6-28.1,7.4
				c-4.2,8.8-6.1,23.5-2.1,31.6c0.8,2,2.4,3.7,4.3,4.6c1.9,1,4.2,1.2,6.3,0.6c0.5,1.1,0.9,2.2,1.1,3.4c0.2,1.5-1,8.6-2.3,9.4
				c-14.1,9-45.7,1.9-61.9-2.4l-18.5-49c-0.8-2.2-5.5-1.5-7.8-1.1c-2.1-6.1-5.2-15.7-6.8-23c-1.7-7.6-3-12.6-4.8-12.9
				c-3.7-0.7-3.9,16.5-3.8,20.3c-2.1,2.1-3.3,4.9-3.4,7.8c-0.3,5.9,2.8,10.7,3.7,10.6c0.1,0,0.2,0,0.3-0.1s0.2-0.1,0.2-0.2
				c0-0.1,0-0.2,0-0.3s-0.1-0.2-0.1-0.3c-2.1-2.7-3.2-6.2-3-9.6c0-1.4,0.3-2.7,0.9-4c0.6-1.2,1.3-2.4,2.3-3.3
				c0.1-0.1,0.1-0.1,0.1-0.2c0-0.1,0-0.2,0-0.2c0-0.2-0.2-15.6,2.2-19.1c0.2-0.3,0.3-0.4,0.4-0.3c1.3,0.2,3.1,8.2,3.9,12.1
				c1.6,7.1,4.6,16.5,6.8,22.9c-8.4,1.9-16.6,4.9-24.2,9.1c-3.6-7.5-6.4-15.3-8.4-23.3l-1.1,0.3c2,8.1,4.9,16,8.5,23.6
				c-1.9,1.2-5.6,3.6-4.8,5.7c30.6,80.6,29.9,77.5,30.2,77.8l0.1,0.1c19.4,8.6,40.4,12.9,61.6,12.7c2.2,10.6,8.6,24.6,19.4,42.8
				C176.2,395.4,158.2,426.8,84,506c-2.4,2.5-2.8,6.2-1.2,10.9c-7.2,6.4-20.2,17.8-29.1,24.5c-20.2,15.3-22.4,19.2-22.1,20.9
				c1.9,10.4,35.9-7.7,53.7-7.3c4.2,0.2,8.5-0.4,12.4-1.9c4.6-1.8,8.1-6.1,11.6-10.2c3.9,1.2,8,1.4,10.8-1.5
				c66.1-67.3,105.1-106,158.6-181.5l31.1,47c3.6,5.4,8.7,9.5,14.7,11.8s12.5,2.8,18.8,1.3l110.8-26.8c2.8-0.7,3.8-4.3,4.1-6.7
				c8.4-1.7,28.3-5.6,40.8-7c25.1-2.9,29-5.2,29.6-6.8C532.4,362.7,493.9,361.1,478.7,351.7z M332.2,328c4.1,14.6,1.6,5.4,11.4,39.6
				c0,0.1,0.1,0.2,0.2,0.3c0.1,0.1,0.2,0.1,0.3,0.1l78.8-16.5c4.5-1,9.6,17,10.8,22l-93.6,17.8c-2.4,0.4-4.8,0.1-7-1.1
				c-2.1-1.2-3.8-3-4.7-5.3c-5.8-14.5-15.9-40.7-18.2-53.7c-3.7-21.2-28.6-32.8-34-35.1c4.2-2.8,8-6.1,11.3-9.9
				c0.1-0.2,0.1-0.4,0.2-0.8c10.5,2.5,20.1,7.8,27.9,15.3C323.6,308.2,329.2,317.6,332.2,328z M475.1,205.3c6.5-1.3,8.2-0.5,8.3-0.1
				c0.1,0.5-1.4,2.3-6.8,4.3c-3.6,1.3-14.3,5.4-15.6,5.6c-1.8-0.3-3.1-0.5-3.7-0.7c0.2-2.6,0-5.1-0.4-7.7
				C463,207.2,469.1,206.7,475.1,205.3z M477,192.2c5.2-2,7.7-1.8,8-1.1c0.3,0.6-0.9,2.4-5.1,5c-7.1,4.4-16.7,9.1-17.9,9.8
				c-1.8,0.1-3.5,0-5.3-0.2c-0.4-2-1-3.9-1.8-5.8C456.2,199.3,475.8,192.6,477,192.2z M421.3,198.6c4.2-0.5,9.5-4.2,9.9-8
				c0.4-4.1,0.5-14.7,3-14.5c4.1,0.4,3.3,13.6,6.7,17.8c1.8,2.2,8.8-1.1,8.9-1.2c0,0,14.2-7.1,14.9-7.5c4.8-2.5,7.1-2.5,7.5-2
				c0.3,0.5-0.4,2.4-4.5,5.3c-3.7,2.6-7.1,5.7-10,9.2l-3.2,1.1c-0.6-1.2-1.2-2.5-1.9-3.8c-0.1-0.1-0.2-0.2-0.3-0.3
				c-0.1,0-0.3,0-0.4,0c-0.1,0.1-0.2,0.2-0.3,0.3c0,0.1,0,0.3,0.1,0.4c4,6.7,5.5,14.5,4.3,22.2c0,0.1,0,0.3,0.1,0.4
				c0.1,0.1,0.2,0.2,0.4,0.2c0.1,0,0.3,0,0.4-0.1s0.2-0.2,0.2-0.4c0.1-0.8,0.2-1.5,0.2-2.3c5.5,1.2,11.2,1.6,16.9,1.2
				c6.4-0.5,7.9,0.4,8,0.7c0,0.3-1,1.7-6.9,3.3c-2.4,0.7-4.7,1.2-6.9,1.7c-20.5,4.3-25.4,6.4-54.9,10.5c-5.4-7.3-8-22.6-5.4-32.1
				C425.6,197.9,420.3,198.7,421.3,198.6z M246,209.1c1.9-1.2,2.8-8.5,2.8-10.2c3.2-4.1,4.3-5.4,4.7-6c0.5-0.7,0.2-1.3-0.5-1
				c-0.5,0.2-1.4,0.7-3,1.3c-4.1,1.6-8.2,2.2-11.3-1.1c-4.8-5.2-4.5-18-1.8-27.4l1.7-4.6c5.3-11.6,14.6-8.8,17.5,3.6
				c0.3,1.6,1.4,1.9,2,1.6c1.9-0.6,2.8-2.2,4.5-2.3c3.1-0.1,4.5,5.7-1.1,7.9h-0.1c-0.1,0-0.1,0.1-0.2,0.2c0,0.1-0.1,0.2-0.1,0.2
				c-0.7,5.7-0.9,11.5-0.7,17.2c0.6,13.1,4.6,16.8,8.5,18.6c4.8,1.8,9.9,2.7,15.1,2.7c-19.9,5.8-37.6,7-53.9,3.6
				C235.8,213.4,241.2,211.9,246,209.1z M219.2,261.1c-1.5-7.2-1-14.7,1.5-21.7c0-0.1,0-0.2,0-0.3s-0.1-0.2-0.1-0.2
				c-0.1-0.1-0.1-0.1-0.2-0.2c-0.1,0-0.2,0-0.3,0c-0.6,0.1,0.1-1.3-7.8,21.9c-18.9-0.6-37.6-4.8-54.9-12.4l-30-77.3
				c-0.1-0.4,0.1-0.9,0.5-1.4c4-4.8,21.1-11.1,29.1-12.6c0.3,0,6.5-1.3,7.1,0.3c19.2,51.4,18.5,49.3,18.9,49.5
				c0.9,0.5,25.4,7.1,43.2,6.9c20.6,5.3,41.4,2.7,61.5-3.6c32,0.7,90.3-9.2,122-15.1c-7.5,8.2-2.8,37.8,6.8,42
				c-36,10.6-73.1,17-110.6,19.2c-10.6-13.7-10.3-13.4-10.6-13.6l0,0c-0.1-0.1-0.2-0.1-0.3-0.1c-0.1,0-0.2,0-0.3,0.1l0,0
				c-2.2,2-7.4,39.6-7.9,43c-10.7,12.4-35.3,25-48.1,18.6C227.7,285.7,221.3,271.7,219.2,261.1L219.2,261.1z M119.4,540.6
				c-10.4,10.6-45-23.4-34.7-33.9c3.6-3.9,7.2-7.7,10.6-11.5c-0.9,10.8,24.2,36.1,34.5,34.8C126.5,533.5,123,537,119.4,540.6z
				 M138.2,521.5c-2.1,2.1-4.1,4.3-6.3,6.5c-2.8,2.8-9.6-0.4-16.4-5.9c53-56,103.1-114.7,150.2-175.8l7.3,19.9
				C225.6,431.2,199.2,459.3,138.2,521.5z M434,397l-90.8,22c-6,1.4-12.4,1-18.1-1.3s-10.7-6.3-14.2-11.4L261.7,332
				c-0.1-0.1-0.2-0.2-0.3-0.2s-0.3,0-0.4,0c-0.1,0.1-0.2,0.2-0.3,0.3c0,0.1-0.1,0.3,0,0.4l4.6,12.7
				c-47.2,61.3-97.4,120.2-150.6,176.3c-2-1.7-3.9-3.4-5.7-5.3c-8.4-8.5-15.1-19.2-11.6-23c24.5-26.1,47.4-53.6,68.7-82.3
				c20.9-28,40-57.6,72.4-105.6c10.3,4.9,27-2,36.8-8.4c3.1,1.2,30.1,12.6,34,34.5c2.3,13.1,12.4,39.4,18.2,53.9
				c1,2.5,2.8,4.6,5.2,5.8c2.4,1.3,5.1,1.7,7.7,1.2l93.6-17.8c1.2,4.8,1.9,9.8,2.1,14.8C436.1,393.8,435.4,396.6,434,397z
				 M454,392.1l-17.9,4.3c4-7.4-4-40.5-11-45.5l17.9-3.8C452.3,345,463.2,390,454,392.1L454,392.1z"/>
			<path style="fill:#000001;" d="M253.1,231c0.6-0.1,1.2-0.3,1.6-0.6c0.5-0.3,0.8-0.8,0.9-1.2c0.2-0.5,0.1-1-0.1-1.4
				c-0.2-0.5-0.6-0.9-1-1.1c-0.5-0.3-1.1-0.4-1.7-0.5c-0.6,0-1.2,0.1-1.7,0.4c-0.5,0.3-1,0.6-1.2,1.1c-0.3,0.4-0.4,0.9-0.3,1.4
				c0.1,0.3,0.2,0.6,0.4,0.9s0.5,0.5,0.8,0.7s0.7,0.3,1.1,0.4C252.3,231,252.7,231,253.1,231z"/>
			<path style="fill:#000001;" d="M249.4,252.2c0.6-0.1,1.2-0.4,1.6-0.8c0.5-0.4,0.8-0.9,0.9-1.5c0.1-0.6,0.1-1.2-0.1-1.8
				s-0.6-1.1-1.1-1.4c-0.5-0.4-1.1-0.6-1.7-0.6c-0.6,0-1.2,0.1-1.7,0.4c-0.5,0.3-0.9,0.8-1.2,1.3c-0.3,0.6-0.4,1.2-0.3,1.8
				c0.1,0.4,0.2,0.8,0.4,1.1s0.5,0.7,0.8,0.9s0.7,0.4,1.1,0.5C248.6,252.3,249,252.3,249.4,252.2z"/>
			<path style="fill:#000001;" d="M250.7,274.4c0.6-0.1,1.2-0.4,1.6-0.8c0.5-0.4,0.8-0.9,0.9-1.5c0.1-0.6,0.1-1.2-0.1-1.8
				c-0.2-0.6-0.6-1.1-1.1-1.4c-0.5-0.4-1.1-0.6-1.7-0.6c-0.6,0-1.2,0.1-1.7,0.4s-0.9,0.8-1.2,1.3c-0.3,0.6-0.4,1.2-0.3,1.8
				c0.1,0.4,0.2,0.8,0.4,1.1c0.2,0.3,0.5,0.7,0.8,0.9c0.3,0.2,0.7,0.4,1.1,0.5C249.9,274.5,250.3,274.5,250.7,274.4z"/>
		</g>
	</g>
</g>
</svg>
