<svg width="335" height="200" viewBox="0 0 335 200" fill="none" xmlns="http://www.w3.org/2000/svg">
<mask id="mask0_1761_4732" style="mask-type:alpha" maskUnits="userSpaceOnUse" x="0" y="0" width="335" height="200">
<rect width="335" height="200" fill="#F9F9F9"/>
</mask>
<g mask="url(#mask0_1761_4732)">
<path d="M275.158 4.10888L265.076 53.205C264.863 54.2738 264.442 55.2894 263.837 56.1932C263.232 57.097 262.456 57.871 261.553 58.4706C260.649 59.0702 259.637 59.4835 258.575 59.6866C257.512 59.8897 256.42 59.8785 255.362 59.6538L206.661 49.5028C205.602 49.2864 204.597 48.8607 203.702 48.2503C202.807 47.64 202.04 46.8571 201.447 45.9468C200.853 45.0364 200.444 44.0167 200.244 42.9463C200.043 41.8759 200.055 40.776 200.278 39.7102L210.321 -9.38593C210.767 -11.5359 212.04 -13.4205 213.859 -14.6286C215.679 -15.8367 217.899 -16.2703 220.035 -15.8348L268.735 -5.68381C269.795 -5.46698 270.803 -5.04154 271.699 -4.4318C272.596 -3.82207 273.365 -3.04005 273.961 -2.13046C274.558 -1.22088 274.971 -0.20158 275.176 0.86904C275.382 1.93966 275.376 3.04062 275.158 4.10888V4.10888Z" fill="#FCBB16"/>
<path d="M311.42 39.5832L302.84 34.4654C302.653 34.357 302.489 34.2125 302.358 34.0403C302.227 33.8681 302.131 33.6716 302.077 33.4623C302.022 33.2529 302.009 33.0347 302.039 32.8204C302.069 32.6061 302.142 32.3998 302.252 32.2136L307.367 23.6413C307.475 23.454 307.62 23.2901 307.792 23.159C307.964 23.0279 308.16 22.9322 308.369 22.8775C308.579 22.8227 308.797 22.81 309.011 22.8401C309.225 22.8702 309.431 22.9425 309.617 23.0528L318.198 28.1706C318.573 28.392 318.846 28.7532 318.956 29.1751C319.066 29.597 319.005 30.0455 318.786 30.4224L313.671 39.0075C313.448 39.381 313.086 39.6511 312.664 39.7589C312.243 39.8668 311.796 39.8036 311.42 39.5832V39.5832Z" fill="black"/>
<path d="M245.739 169.983L241.716 183.221C241.628 183.509 241.485 183.777 241.294 184.009C241.103 184.241 240.868 184.433 240.603 184.573C240.337 184.714 240.046 184.801 239.747 184.829C239.448 184.857 239.146 184.826 238.859 184.737L225.621 180.713C225.332 180.628 225.064 180.485 224.831 180.294C224.598 180.104 224.405 179.869 224.264 179.603C224.123 179.337 224.037 179.045 224.009 178.745C223.982 178.446 224.015 178.143 224.106 177.856L228.129 164.618C228.217 164.33 228.36 164.063 228.551 163.831C228.742 163.599 228.977 163.407 229.243 163.266C229.508 163.125 229.799 163.038 230.098 163.01C230.397 162.982 230.699 163.013 230.986 163.102L244.237 167.126C244.814 167.308 245.295 167.711 245.576 168.246C245.857 168.781 245.916 169.405 245.739 169.983V169.983Z" fill="black"/>
<path d="M367.723 211.368L320.829 229.716C319.811 230.119 318.725 230.316 317.631 230.297C316.537 230.277 315.458 230.041 314.456 229.603C313.454 229.164 312.549 228.532 311.792 227.742C311.035 226.952 310.443 226.019 310.048 224.999L291.685 178.135C291.282 177.119 291.084 176.033 291.103 174.94C291.121 173.847 291.356 172.768 291.793 171.766C292.23 170.764 292.861 169.859 293.65 169.102C294.439 168.345 295.37 167.751 296.389 167.355L343.27 148.967C345.327 148.168 347.617 148.216 349.64 149.1C351.662 149.983 353.253 151.631 354.064 153.684L372.427 200.575C373.23 202.63 373.186 204.92 372.304 206.943C371.423 208.966 369.776 210.557 367.723 211.368Z" fill="#FCBB16"/>
<path d="M342.363 107.755C357.272 107.755 369.359 95.6689 369.359 80.7595C369.359 65.8501 357.272 53.7637 342.363 53.7637C327.454 53.7637 315.367 65.8501 315.367 80.7595C315.367 95.6689 327.454 107.755 342.363 107.755Z" fill="black"/>
<path d="M263.497 122.315C267.685 122.315 271.08 119.056 271.08 115.036C271.08 111.015 267.685 107.756 263.497 107.756C259.309 107.756 255.914 111.015 255.914 115.036C255.914 119.056 259.309 122.315 263.497 122.315Z" fill="#FCBB16"/>
<path d="M166.74 13.1179C173.776 13.1179 179.479 7.41418 179.479 0.378284C179.479 -6.65761 173.776 -12.3613 166.74 -12.3613C159.704 -12.3613 154 -6.65761 154 0.378284C154 7.41418 159.704 13.1179 166.74 13.1179Z" fill="black"/>
</g>
</svg>
