<?xml version="1.0" encoding="utf-8"?>
<!-- Generator: Adobe Illustrator 26.0.2, SVG Export Plug-In . SVG Version: 6.00 Build 0)  -->
<svg version="1.1" xmlns="http://www.w3.org/2000/svg" xmlns:xlink="http://www.w3.org/1999/xlink" x="0px" y="0px"
	 viewBox="0 0 500 326" style="enable-background:new 0 0 500 326;" xml:space="preserve">

<g id="CARD5">
	<g id="Mandaci_i_tuoi_tool_preferiti_base">
		<g>
			<g>
				<g>
					<defs>
						<path id="SVGID_00000168836127687409227180000011723231863172009650_" d="M500,20v286c0,11-9,20-20,20H20c-11,0-20-9-20-20V20
							C0,9,9,0,20,0h460C491.1,0,500,9,500,20z"/>
					</defs>
					<clipPath id="SVGID_00000026138552262854057950000007398280876017347998_">
						<use xlink:href="#SVGID_00000168836127687409227180000011723231863172009650_"  style="overflow:visible;"/>
					</clipPath>
					<g style="clip-path:url(#SVGID_00000026138552262854057950000007398280876017347998_);">
						<circle style="fill:#9747FF;" cx="359.1" cy="306.5" r="27.8"/>
						<circle cx="460" cy="90" r="14"/>
						<circle cx="425.1" cy="269.1" r="9"/>
						<path style="fill:#9747FF;" d="M389.7-14.5l10.6,32.3c1.9,5.8-1.2,12-7,13.9L361,42.3c-5.8,1.9-12-1.2-13.9-7L336.5,3
							c-1.9-5.8,1.2-12,7-13.9l32.3-10.6C381.5-23.4,387.8-20.3,389.7-14.5z"/>
						<path style="fill:#9747FF;" d="M391,170l9.7-12.9c1.7-2.2,4.8-2.7,7-1l12.9,9.7c2.2,1.7,2.7,4.8,1,7l-9.7,12.9
							c-1.7,2.2-4.8,2.7-7,1L392,177C389.8,175.3,389.4,172.2,391,170z"/>
					</g>
				</g>
			</g>
		</g>
	</g>
</g>
</svg>
