<svg width="335" height="200" viewBox="0 0 335 200" fill="none" xmlns="http://www.w3.org/2000/svg">
<mask id="mask0_1765_4756" style="mask-type:alpha" maskUnits="userSpaceOnUse" x="0" y="0" width="335" height="200">
<rect width="335" height="200" rx="20" fill="#24B265"/>
</mask>
<g mask="url(#mask0_1765_4756)">
<path d="M293.37 29.1009C286.098 13.0287 267.173 5.89524 251.101 13.1679C235.028 20.4406 227.895 39.3654 235.168 55.4377C242.44 71.5099 261.365 78.6434 277.437 71.3707C293.51 64.098 300.643 45.1732 293.37 29.1009Z" fill="black"/>
<path d="M296.703 182.648L313.512 189.623C313.878 189.773 314.209 189.995 314.488 190.275C314.767 190.555 314.988 190.888 315.137 191.254C315.286 191.621 315.361 192.015 315.358 192.412C315.354 192.81 315.273 193.203 315.117 193.57L307.993 210.482C307.84 210.849 307.615 211.184 307.333 211.466C307.05 211.747 306.715 211.971 306.348 212.123C305.98 212.276 305.586 212.354 305.189 212.354C304.793 212.353 304.401 212.274 304.036 212.121L287.233 205.17C286.498 204.862 285.917 204.274 285.617 203.534C285.317 202.794 285.324 201.963 285.634 201.221L292.758 184.303C293.069 183.564 293.659 182.975 294.398 182.665C295.137 182.355 295.965 182.349 296.703 182.648V182.648Z" fill="black"/>
<path d="M289.242 124.957L296.063 92.6294C296.209 91.9267 296.494 91.2585 296.902 90.6633C297.31 90.0682 297.832 89.5578 298.44 89.1617C299.047 88.7657 299.727 88.4917 300.441 88.3558C301.154 88.2198 301.887 88.2246 302.597 88.3697L335.297 94.8468C336.008 94.9857 336.683 95.2623 337.283 95.6608C337.884 96.0594 338.397 96.5721 338.794 97.1689C339.192 97.7657 339.465 98.4351 339.598 99.1384C339.731 99.8416 339.721 100.565 339.569 101.266L332.763 133.604C332.463 135.02 331.606 136.264 330.381 137.062C329.156 137.861 327.663 138.149 326.23 137.863L293.508 131.351C292.082 131.063 290.833 130.229 290.034 129.031C289.235 127.833 288.95 126.369 289.242 124.957V124.957Z" fill="white"/>
</g>
</svg>
