<svg width="881" height="543" viewBox="0 0 881 543" fill="none" xmlns="http://www.w3.org/2000/svg">
<g clip-path="url(#clip0_1771_4665)">
<g clip-path="url(#clip1_1771_4665)">
<path d="M692.505 510.833C683.444 506.4 672.992 505.742 663.446 509.004C651.159 513.187 638.126 501.29 643.174 488.283L665.097 431.943C665.123 431.875 665.136 431.803 665.135 431.731C665.133 431.659 665.118 431.587 665.088 431.521C665.059 431.455 665.017 431.395 664.965 431.345C664.912 431.295 664.85 431.256 664.783 431.23L493.379 364.648C491.32 363.846 489.124 363.458 486.916 363.506C484.707 363.553 482.529 364.035 480.507 364.924C478.485 365.812 476.658 367.091 475.131 368.685C473.603 370.28 472.405 372.159 471.606 374.217L411.137 529.61C409.526 533.765 409.631 538.388 411.427 542.466C413.224 546.544 416.566 549.744 420.72 551.363C597.292 619.938 592.045 617.995 592.338 617.995C592.45 617.996 592.559 617.962 592.651 617.9C592.742 617.837 592.813 617.747 592.852 617.643L613.298 565.101C614.461 562.31 616.388 559.903 618.857 558.156C621.327 556.409 624.239 555.392 627.26 555.223C630.281 555.054 633.289 555.739 635.938 557.2C638.588 558.66 640.772 560.837 642.24 563.48C645.128 568.739 649.217 573.244 654.174 576.628C659.132 580.013 664.818 582.182 670.771 582.959C676.725 583.737 682.778 583.101 688.439 581.104C694.101 579.107 699.211 575.804 703.356 571.464C707.501 567.124 710.563 561.868 712.294 556.124C714.025 550.38 714.377 544.309 713.32 538.404C712.263 532.499 709.827 526.926 706.211 522.138C702.594 517.349 697.899 513.48 692.505 510.844V510.833ZM711.191 556.095C709.036 563.052 704.879 569.22 699.238 573.83C693.596 578.44 686.72 581.288 679.469 582.018C672.217 582.748 664.911 581.328 658.462 577.934C652.014 574.541 646.709 569.325 643.209 562.937C641.653 560.092 639.322 557.745 636.484 556.171C633.647 554.596 630.421 553.858 627.18 554.043C623.94 554.227 620.819 555.326 618.179 557.212C615.539 559.099 613.489 561.695 612.267 564.699L592.024 616.707L421.117 550.333C417.238 548.819 414.117 545.83 412.439 542.022C410.761 538.213 410.663 533.896 412.165 530.015L472.634 374.619C473.381 372.697 474.5 370.941 475.926 369.451C477.353 367.961 479.06 366.766 480.949 365.936C482.837 365.105 484.872 364.654 486.935 364.61C488.998 364.565 491.05 364.927 492.973 365.675L663.878 432.075L642.157 487.899C641.025 490.94 640.782 494.24 641.454 497.415C642.127 500.589 643.688 503.507 645.956 505.83C648.224 508.152 651.106 509.783 654.266 510.533C657.425 511.282 660.733 511.119 663.804 510.064C670.28 507.861 677.24 507.492 683.913 508.995C690.587 510.498 696.714 513.815 701.618 518.581C706.522 523.346 710.012 529.374 711.701 535.997C713.391 542.62 713.214 549.581 711.191 556.11V556.095Z" fill="#4EAAF0"/>
<path d="M839.222 247.37C839.136 247.37 839.052 247.353 838.977 247.321C838.901 247.289 838.837 247.242 838.788 247.185C838.74 247.128 838.709 247.063 838.699 246.995C838.689 246.926 838.699 246.857 838.73 246.792L838.914 246.406C838.965 246.301 839.065 246.216 839.192 246.171C839.255 246.148 839.323 246.136 839.393 246.135C839.462 246.134 839.53 246.143 839.595 246.163C839.659 246.184 839.718 246.214 839.768 246.252C839.818 246.291 839.858 246.337 839.886 246.388C839.914 246.439 839.929 246.494 839.931 246.55C839.932 246.606 839.92 246.661 839.895 246.713C839.722 247.079 839.655 247.37 839.222 247.37Z" fill="#4EAAF0"/>
<path d="M931.764 299.136L895.101 284.931C892.313 283.768 889.909 281.842 888.164 279.375C886.419 276.907 885.404 273.997 885.235 270.978C885.066 267.959 885.75 264.954 887.209 262.306C888.667 259.659 890.842 257.476 893.482 256.009C899.849 252.517 905.088 247.278 908.582 240.908C912.077 234.538 913.683 227.302 913.21 220.05C912.738 212.798 910.207 205.832 905.916 199.97C901.625 194.108 895.751 189.595 888.985 186.96C882.219 184.325 874.843 183.679 867.723 185.097C860.603 186.515 854.035 189.938 848.791 194.964C843.548 199.99 839.846 206.41 838.123 213.47C836.399 220.529 836.724 227.935 839.06 234.816C840.249 238.426 840.166 242.335 838.825 245.891C838.751 245.951 838.695 246.029 838.661 246.117C837.149 249.996 834.161 253.116 830.354 254.793C826.547 256.469 822.231 256.566 818.353 255.061L762.302 233.248C762.245 233.183 762.174 233.133 762.094 233.101C762.014 233.07 761.928 233.057 761.842 233.065C761.757 233.073 761.674 233.1 761.601 233.146C761.528 233.191 761.467 233.254 761.422 233.327C761.188 233.621 761.091 234.402 746.719 271.166C746.675 271.3 746.684 271.446 746.744 271.574C746.804 271.702 746.911 271.802 747.043 271.853C747.175 271.905 747.321 271.903 747.452 271.85C747.582 271.796 747.688 271.694 747.745 271.565L762.185 234.387L817.951 256.091C822.102 257.701 826.721 257.597 830.795 255.802C834.869 254.007 838.066 250.668 839.685 246.516C839.718 246.427 839.728 246.332 839.714 246.238C839.787 246.179 839.844 246.102 839.878 246.014C841.306 242.308 841.384 238.216 840.098 234.458C837.826 227.773 837.508 220.578 839.182 213.719C840.855 206.86 844.449 200.622 849.543 195.738C854.637 190.854 861.017 187.528 867.935 186.15C874.852 184.772 882.019 185.4 888.592 187.96C895.165 190.52 900.872 194.906 905.04 200.601C909.209 206.297 911.666 213.066 912.123 220.111C912.58 227.157 911.019 234.187 907.621 240.375C904.224 246.562 899.133 251.65 892.946 255.04C890.12 256.609 887.795 258.944 886.235 261.777C884.676 264.609 883.946 267.825 884.13 271.054C884.314 274.283 885.404 277.394 887.274 280.031C889.145 282.668 891.721 284.724 894.705 285.961L931.368 300.164C933.289 300.91 935.045 302.028 936.534 303.454C938.023 304.88 939.216 306.586 940.046 308.474C940.876 310.362 941.326 312.396 941.371 314.458C941.415 316.521 941.053 318.571 940.305 320.494L879.94 475.935C879.194 477.858 878.077 479.614 876.652 481.104C875.227 482.594 873.523 483.789 871.637 484.619C869.751 485.449 867.72 485.899 865.66 485.944C863.6 485.988 861.552 485.625 859.632 484.876L690.472 419.044L712.159 363.203C713.11 360.705 713.459 358.017 713.178 355.357C712.897 352.698 711.993 350.143 710.541 347.899C709.089 345.654 707.129 343.784 704.819 342.44C702.51 341.096 699.917 340.316 697.25 340.163C697.178 340.157 697.104 340.165 697.035 340.188C696.965 340.21 696.901 340.246 696.846 340.294C696.79 340.341 696.745 340.399 696.712 340.464C696.679 340.53 696.659 340.601 696.654 340.674C696.649 340.746 696.658 340.82 696.681 340.889C696.704 340.958 696.741 341.022 696.789 341.077C696.837 341.132 696.896 341.177 696.961 341.209C697.027 341.241 697.098 341.26 697.171 341.264C699.666 341.404 702.093 342.132 704.254 343.387C706.415 344.642 708.25 346.39 709.61 348.488C710.97 350.587 711.816 352.977 712.08 355.464C712.344 357.952 712.019 360.466 711.129 362.804L689.243 419.158C689.191 419.295 689.195 419.447 689.255 419.582C689.314 419.716 689.424 419.821 689.56 419.875L859.23 485.898C861.285 486.699 863.478 487.088 865.683 487.04C867.888 486.992 870.062 486.51 872.081 485.62C874.1 484.731 875.923 483.451 877.448 481.856C878.972 480.26 880.167 478.379 880.964 476.32L941.329 320.884C942.128 318.828 942.515 316.633 942.466 314.427C942.418 312.221 941.936 310.046 941.048 308.026C940.16 306.006 938.883 304.182 937.29 302.656C935.697 301.131 933.819 299.935 931.764 299.136Z" fill="#4EAAF0"/>
<path d="M633.775 271.13C639.077 265.799 645.832 262.128 653.206 260.567C660.58 259.006 668.252 259.624 675.277 262.345C675.411 262.401 675.518 262.508 675.574 262.641C675.631 262.774 675.633 262.924 675.579 263.059C675.526 263.194 675.423 263.303 675.29 263.363C675.157 263.423 675.007 263.429 674.87 263.38C668.048 260.739 660.598 260.14 653.438 261.656C646.278 263.172 639.72 266.738 634.572 271.913C634.52 271.966 634.459 272.007 634.391 272.035C634.323 272.064 634.25 272.079 634.177 272.079C634.028 272.08 633.885 272.022 633.78 271.918C633.674 271.814 633.614 271.673 633.613 271.525C633.612 271.377 633.671 271.235 633.775 271.13Z" fill="#4EAAF0"/>
<path d="M744.739 226.264C744.596 225.942 752.292 229.192 573.496 159.561C571.443 158.762 569.253 158.376 567.051 158.424C564.849 158.472 562.678 158.953 560.662 159.84C558.646 160.727 556.824 162.002 555.302 163.593C553.779 165.183 552.585 167.058 551.788 169.11L537.518 205.412C536.371 208.208 534.456 210.622 531.992 212.375C529.529 214.128 526.62 215.148 523.601 215.317C520.581 215.486 517.576 214.797 514.932 213.33C512.289 211.863 510.115 209.678 508.662 207.028C505.178 200.673 499.951 195.445 493.596 191.957C487.24 188.469 480.021 186.867 472.785 187.338C465.55 187.81 458.6 190.336 452.751 194.619C446.903 198.902 442.4 204.764 439.771 211.517C437.142 218.27 436.497 225.632 437.911 232.738C439.325 239.845 442.74 246.4 447.755 251.634C452.769 256.868 459.174 260.563 466.217 262.284C473.26 264.005 480.649 263.681 487.514 261.35C490.378 260.373 493.459 260.227 496.403 260.927C499.346 261.628 502.031 263.147 504.146 265.31C506.261 267.472 507.72 270.189 508.354 273.145C508.988 276.102 508.771 279.177 507.728 282.016L491.492 324.096C490.694 326.147 490.309 328.336 490.358 330.537C490.407 332.738 490.89 334.908 491.779 336.922C492.668 338.936 493.945 340.755 495.538 342.276C497.131 343.796 499.009 344.988 501.063 345.783L622.876 393.115C623.013 393.167 623.164 393.164 623.298 393.105C623.432 393.046 623.537 392.936 623.59 392.8C623.643 392.664 623.639 392.512 623.58 392.378C623.521 392.245 623.411 392.14 623.275 392.087L501.447 344.758C499.529 344.014 497.776 342.899 496.29 341.478C494.803 340.056 493.611 338.356 492.781 336.474C491.952 334.593 491.502 332.566 491.457 330.51C491.412 328.455 491.772 326.41 492.518 324.494L508.747 282.42C514.117 268.611 500.307 255.838 487.16 260.314C480.491 262.581 473.313 262.897 466.471 261.227C459.628 259.557 453.405 255.969 448.533 250.885C443.661 245.802 440.343 239.434 438.968 232.53C437.594 225.626 438.22 218.474 440.774 211.914C443.328 205.354 447.704 199.659 453.385 195.499C459.067 191.339 465.82 188.886 472.849 188.429C479.878 187.973 486.891 189.531 493.064 192.921C499.237 196.311 504.313 201.392 507.696 207.566C509.787 211.305 513.187 214.14 517.242 215.527C521.297 216.915 525.722 216.757 529.667 215.084C531.687 214.202 533.511 212.929 535.035 211.338C536.558 209.747 537.751 207.87 538.544 205.816L552.808 169.514C553.552 167.597 554.668 165.846 556.091 164.36C557.513 162.874 559.215 161.683 561.098 160.854C562.982 160.026 565.01 159.576 567.068 159.532C569.125 159.487 571.171 159.848 573.089 160.594L743.515 226.806L725.583 272.721C725.53 272.857 725.534 273.009 725.593 273.142C725.652 273.276 725.762 273.381 725.898 273.434C726.034 273.486 726.186 273.483 726.32 273.424C726.454 273.365 726.558 273.255 726.611 273.119C746.081 223.319 744.883 226.592 744.739 226.264Z" fill="#4EAAF0"/>
<path d="M846.642 418.128L746.701 432.988C746.701 432.988 738.924 398.854 737.631 392.953C730.58 360.854 702.675 349.889 694.929 347.439C694.85 347.764 694.783 348.092 694.718 348.405C682.382 361.123 656.608 371.326 644.659 364.211C588.319 437.677 553.548 485.7 479.068 556.081C467.635 566.679 500.976 603.099 512.461 592.668C599.187 514.466 626.445 488.571 682.01 420.724L710.719 469.938C713.903 475.393 718.689 479.738 724.43 482.386C730.17 485.033 736.587 485.855 742.811 484.74L855.129 464.564C865.255 462.82 856.818 416.275 846.642 418.128Z" fill="#4EAAF0"/>
<path d="M890.463 265.651C888.722 266.188 872.24 270.587 871.174 270.99C874.302 267.699 877.869 264.838 881.779 262.487C889.608 257.583 888.381 253.674 878.46 258.065C877.377 258.555 866.343 263.202 863.072 264.587C861.057 265.429 855.868 266.894 854.793 265.406C851.656 261.119 853.545 248.116 848.817 247.389C845.754 246.919 845.266 255.815 844.288 261.846C843.701 265.331 838.523 268.403 834.453 268.677C834.344 268.677 835.892 268.55 820.609 270.061C817.378 279.2 818.917 295.203 824.294 302.966L834.655 302.138C856.564 299.948 862.904 298.316 880.205 295.792C899.062 293.034 897.94 289.353 886.249 289.515C881.877 289.569 877.513 289.162 873.23 288.3C874.067 288.3 881.021 286.226 889.368 283.685C899.285 280.662 899.875 276.713 887.843 278.392C883.548 279.032 879.206 279.315 874.863 279.24C875.494 278.975 885.788 274.717 893.532 270.627C902.242 266.029 900.777 262.504 890.463 265.651Z" fill="#E6E7E8"/>
<path d="M700.326 272.666C678.238 278.166 657.471 278.774 638.555 272.666C649.147 273.193 655.082 271.297 658.483 269.389C660.009 267.456 661 265.155 661.358 262.717C661.715 260.278 661.426 257.788 660.519 255.498C646.564 257.704 647.246 237.336 651.763 224.568L653.734 220.011C660.01 208.131 669.882 211.697 672.094 224.81C672.297 226.285 673.148 226.187 673.301 226.087C674.185 225.835 675.012 225.415 675.737 224.848C680.936 221.235 684.511 230.369 676.764 232.971C675.775 238.634 675.201 244.362 675.046 250.109C674.86 263.086 678.523 266.77 682.216 268.781C687.955 271.209 694.099 272.527 700.326 272.666V272.666Z" fill="#E6E7E8"/>
<path d="M761.606 115.155C763.876 111.794 764.891 107.771 764.48 103.764C764.07 99.7564 762.258 96.0101 759.351 93.156C756.444 90.302 752.62 88.5146 748.521 88.0952C744.423 87.6758 740.303 88.65 736.854 90.8536C733.405 93.0572 730.839 96.3555 729.588 100.193C728.337 104.03 728.477 108.171 729.986 111.919C731.495 115.666 734.279 118.791 737.87 120.766C741.461 122.741 745.638 123.446 749.699 122.762L751.902 133.269C751.373 133.479 750.939 133.867 750.678 134.363C750.417 134.859 750.347 135.43 750.48 135.973L755.306 158.991C755.454 159.614 755.844 160.157 756.395 160.502C756.946 160.848 757.614 160.969 758.255 160.84C758.896 160.711 759.46 160.342 759.827 159.812C760.193 159.282 760.333 158.633 760.216 158.003L755.393 134.985C755.298 134.437 755.005 133.94 754.567 133.584C754.13 133.228 753.577 133.037 753.008 133.045L750.802 122.541C755.238 121.522 759.105 118.878 761.606 115.155ZM730.205 108.806C729.651 106.162 729.773 103.426 730.559 100.839C731.346 98.2528 732.773 95.8956 734.714 93.9767C736.655 92.0578 739.05 90.6363 741.687 89.8381C744.325 89.0399 747.122 88.8897 749.833 89.4007C752.544 89.9118 755.084 91.0683 757.229 92.7679C759.373 94.4674 761.056 96.6576 762.127 99.1445C763.199 101.631 763.626 104.338 763.372 107.025C763.118 109.712 762.19 112.296 760.67 114.549C758.834 117.248 756.223 119.357 753.165 120.61C750.106 121.863 746.737 122.204 743.481 121.59C740.225 120.976 737.227 119.435 734.865 117.16C732.503 114.885 730.881 111.979 730.205 108.806Z" fill="#4EAAF0"/>
<path d="M597.609 174.655L580.757 97.0811C580.741 97.0106 580.712 96.9437 580.67 96.8844C580.629 96.8251 580.576 96.7745 580.515 96.7355C580.453 96.6965 580.385 96.6698 580.313 96.6571C580.242 96.6443 580.168 96.6457 580.097 96.6611L554.108 102.202C552.662 102.535 551.34 103.267 550.297 104.314C549.254 105.361 548.533 106.679 548.216 108.115C547.899 109.552 548 111.048 548.507 112.43C549.014 113.812 549.906 115.023 551.081 115.923C553.486 117.772 555.308 120.261 556.334 123.1C557.359 125.939 557.544 129.008 556.868 131.947C556.192 134.887 554.683 137.574 552.517 139.693C550.352 141.812 547.62 143.275 544.644 143.91C541.667 144.544 538.57 144.324 535.716 143.275C532.861 142.227 530.369 140.393 528.531 137.989C526.693 135.586 525.586 132.713 525.34 129.708C525.095 126.703 525.721 123.692 527.145 121.027C527.839 119.728 528.148 118.261 528.035 116.796C527.922 115.331 527.392 113.928 526.506 112.749C525.621 111.57 524.416 110.663 523.031 110.134C521.647 109.606 520.139 109.476 518.683 109.761L494.444 114.926C494.301 114.957 494.176 115.042 494.096 115.164C494.017 115.286 493.989 115.434 494.02 115.576L510.873 193.15C511.245 194.854 512.195 196.381 513.564 197.477C514.933 198.574 516.64 199.174 518.401 199.178C519.608 199.178 514.648 200.155 591.701 183.722C592.691 183.512 593.629 183.11 594.462 182.541C595.295 181.971 596.006 181.244 596.555 180.402C597.104 179.56 597.479 178.619 597.66 177.633C597.841 176.646 597.824 175.634 597.609 174.655Z" fill="#4EAAF0"/>
<path d="M573.075 211.041C571.046 204.074 569.007 195.546 568.223 191.868C567.209 187.112 565.48 171.421 562.731 175.009C560.716 177.649 560.057 185.863 559.614 190.342L539.719 194.567C541.313 202.924 543.777 211.097 547.071 218.956C555.302 215.081 564.063 212.415 573.075 211.041V211.041Z" fill="#E6E7E8"/>
<path d="M436.67 333.402C439.552 325.139 450.887 323.656 453.754 315.303C454.203 314.145 454.407 312.906 454.353 311.664C454.3 310.421 453.99 309.204 453.443 308.09C452.896 306.976 452.125 305.989 451.179 305.193C450.232 304.397 449.131 303.809 447.947 303.467C446.762 303.125 445.52 303.036 444.299 303.206C443.079 303.377 441.907 303.802 440.858 304.456C439.81 305.11 438.909 305.977 438.212 307.002C437.516 308.028 437.039 309.189 436.812 310.411C436.785 310.558 436.702 310.688 436.58 310.772C436.458 310.856 436.308 310.888 436.162 310.861C436.017 310.834 435.888 310.749 435.805 310.626C435.721 310.503 435.689 310.352 435.716 310.205C435.971 308.83 436.508 307.524 437.291 306.371C438.075 305.217 439.088 304.241 440.267 303.505C441.445 302.769 442.763 302.289 444.136 302.096C445.509 301.903 446.906 302.001 448.239 302.385C449.573 302.768 450.812 303.427 451.878 304.321C452.944 305.215 453.813 306.323 454.431 307.575C455.048 308.827 455.4 310.196 455.463 311.593C455.527 312.99 455.301 314.385 454.8 315.689C453.751 318.758 452.241 320.922 446.506 324.858C440.583 328.931 438.767 330.766 437.719 333.776C437.664 333.908 437.561 334.014 437.431 334.073C437.301 334.131 437.154 334.137 437.019 334.089C436.885 334.041 436.774 333.943 436.709 333.816C436.644 333.688 436.63 333.54 436.67 333.402V333.402Z" fill="#4EAAF0"/>
<path d="M432.644 342.23C432.208 342.721 431.978 343.362 432.002 344.018C432.026 344.675 432.302 345.298 432.773 345.755C433.244 346.213 433.873 346.472 434.53 346.477C435.186 346.482 435.82 346.233 436.297 345.782C436.734 345.291 436.964 344.65 436.94 343.994C436.916 343.337 436.64 342.715 436.169 342.257C435.698 341.799 435.069 341.54 434.412 341.535C433.755 341.53 433.122 341.779 432.644 342.23V342.23Z" fill="#4EAAF0"/>
<path d="M846.792 289.364C855.347 287.806 860.085 282.182 860.929 272.651C860.941 272.511 860.893 272.372 860.794 272.265C860.696 272.158 860.555 272.091 860.403 272.08C860.251 272.068 860.101 272.113 859.984 272.204C859.868 272.294 859.795 272.424 859.783 272.564C858.989 281.563 854.543 286.87 846.569 288.326C846.419 288.354 846.287 288.434 846.203 288.551C846.118 288.667 846.087 288.81 846.116 288.948C846.146 289.085 846.234 289.207 846.36 289.285C846.487 289.363 846.642 289.391 846.792 289.364V289.364Z" fill="#000001"/>
<path d="M882.334 425.54C878.932 423.017 875.068 421.189 870.962 420.159C865.617 418.929 859.746 421.081 853.431 422.734C851.322 419.179 849.037 417.515 846.761 417.917L747.404 432.743L738.455 393.098C736.085 382.331 730.893 372.393 723.415 364.306C715.937 356.219 706.443 350.275 695.911 347.088C696.523 344.209 700.278 326.086 701.573 320.67C744.548 322.166 787.529 317.881 829.367 307.927C830.583 307.871 832.742 307.064 834.502 303.357C855.973 301.187 862.623 299.459 879.648 296.922C882.747 296.461 894.971 294.683 894.622 291.595C894.452 290.083 891.4 289.355 885.588 289.437C882.142 289.478 878.698 289.226 875.295 288.683C877.544 288.063 881.566 286.857 888.866 284.591C894.139 282.959 897.044 281.007 896.678 279.369C896.213 277.284 891.218 277.546 887.108 278.127C883.725 278.631 880.314 278.925 876.894 279.008C880.541 277.42 887.524 274.29 893.119 271.276C897.49 268.927 899.625 266.688 898.978 265.152C898.304 263.541 894.897 263.559 889.63 265.196C888.731 265.49 878.892 268.211 872.348 270.025C875.129 267.375 878.172 265.015 881.429 262.98C885.415 260.441 887.398 257.94 886.602 256.461C885.77 254.92 882.501 255.304 877.594 257.517C876.795 257.884 862.257 264.146 862.257 264.146C859.691 265.241 855.37 266.15 854.661 265.167C851.547 260.823 853.703 247.449 848.34 246.607C848.077 246.564 847.809 246.575 847.551 246.642C847.294 246.708 847.052 246.827 846.843 246.991C844.5 248.752 844.101 256.091 843.193 261.774C842.663 265.053 837.672 268.006 833.928 268.264C833.828 268.264 833.5 268.296 832.188 268.446C830.75 266.013 828.181 263.104 825.483 263.523C803.247 266.415 701.772 278.984 682.014 268.061C678.394 266.086 675.063 262.566 675.16 250.376C677.691 249.601 690.943 245.127 693.74 235.699C695.263 230.585 693.388 224.955 688.174 218.967C690.356 220.087 692.776 220.663 695.228 220.646C710.645 220.646 719.966 201.143 709.326 190.928C705.937 188.023 701.537 186.583 697.09 186.922C692.644 187.261 688.512 189.351 685.6 192.736C682.999 195.301 681.258 198.612 680.616 202.211C679.975 205.811 680.466 209.521 682.02 212.829C670.045 202.734 660.423 205.992 653.521 218.606C648.835 227.165 646.055 241.675 649.564 250.038C650.27 252.094 651.697 253.823 653.579 254.903C655.462 255.983 657.672 256.34 659.799 255.909C660.254 257.021 660.56 258.189 660.71 259.381C660.795 260.899 659.21 267.894 657.854 268.649C643.295 276.812 612.093 267.853 596.24 262.578L580.618 212.6C579.927 210.354 575.255 210.756 572.923 211.024C571.166 204.859 568.67 195.023 567.454 187.69C566.18 180.02 565.21 174.962 563.406 174.516C559.727 173.597 558.567 190.787 558.371 194.594C556.135 196.532 554.749 199.273 554.513 202.226C553.848 208.097 556.71 213.034 557.586 213.034C557.69 213.034 557.793 213.005 557.881 212.949C557.97 212.893 558.04 212.812 558.085 212.718C558.129 212.623 558.146 212.517 558.133 212.413C558.12 212.309 558.077 212.211 558.01 212.13C556.035 209.279 555.18 205.797 555.608 202.352C555.711 200.994 556.086 199.67 556.711 198.459C557.335 197.249 558.197 196.177 559.244 195.307C559.307 195.259 559.359 195.197 559.396 195.126C559.433 195.055 559.454 194.976 559.457 194.896C559.457 194.744 560.219 179.286 562.765 175.913C562.958 175.655 563.11 175.579 563.142 175.587C564.379 175.881 565.723 183.983 566.365 187.872C567.56 195.052 569.959 204.604 571.813 211.164C563.285 212.547 554.991 215.116 547.172 218.797C544.05 211.137 541.708 203.18 540.18 195.049L539.102 195.266C540.652 203.495 543.027 211.545 546.191 219.296C544.178 220.37 540.35 222.563 541.035 224.744C566.813 306.967 566.385 303.844 566.666 304.138L566.766 304.208C585.632 313.883 606.332 319.435 627.498 320.497C629.118 331.234 634.639 345.583 644.367 364.331C577.768 451.433 557.92 481.756 479.19 556.397C476.621 558.746 475.986 562.465 477.339 567.182C469.79 573.12 456.084 583.741 446.875 589.899C425.84 603.971 423.388 607.749 423.602 609.472C424.882 619.984 459.875 603.895 477.673 605.363C481.881 605.809 486.136 605.427 490.198 604.239C494.906 602.753 498.629 598.635 502.393 594.769C506.201 596.237 510.281 596.668 513.29 593.927C583.269 530.61 624.437 494.325 682.243 422L710.545 470.707C713.793 476.267 718.662 480.695 724.498 483.397C730.334 486.099 736.856 486.944 743.186 485.819L855.411 465.585C858.267 465.097 859.436 461.49 859.896 459.127C868.391 457.932 888.488 455.223 901.075 454.495C926.319 453.045 930.344 451.031 931.032 449.437C935.233 439.709 896.904 435.82 882.334 425.54ZM737.377 393.333C740.599 408.157 738.669 398.769 746.44 433.486C746.468 433.608 746.536 433.717 746.633 433.795C746.73 433.874 746.851 433.917 746.976 433.918L826.622 422.038C831.125 421.278 835.22 439.586 836.072 444.605L741.613 456.914C739.208 457.221 736.772 456.685 734.718 455.395C732.664 454.105 731.119 452.142 730.347 449.839C725.411 435.045 716.907 408.268 715.381 395.15C712.886 373.721 688.725 360.732 683.52 358.164C687.872 355.606 691.876 352.496 695.433 348.911C695.591 348.75 695.594 348.559 695.679 348.16C706.01 351.294 715.319 357.132 722.649 365.073C729.978 373.013 735.062 382.768 737.377 393.333ZM887.264 279.219C893.79 278.288 895.515 279.219 895.603 279.606C895.717 280.114 894.095 281.808 888.541 283.534C884.906 284.661 873.971 288.052 872.656 288.195C870.898 287.828 869.589 287.464 868.962 287.277C869.274 284.73 869.303 282.156 869.047 279.603C875.106 280.356 881.242 280.226 887.264 279.219ZM889.961 266.236C895.299 264.571 897.706 264.938 897.967 265.563C898.207 266.15 896.962 267.932 892.598 270.286C885.228 274.255 875.421 278.432 874.144 278.975C872.387 278.956 870.635 278.78 868.909 278.45C868.605 276.434 868.115 274.451 867.444 272.526C868.771 272.159 888.755 266.608 889.961 266.236ZM833.969 269.338C838.234 269.045 843.668 265.742 844.283 261.921C844.942 257.811 845.692 247.299 848.173 247.669C852.227 248.306 850.654 261.43 853.771 265.781C855.405 268.058 862.62 265.164 862.696 265.132C862.696 265.132 877.246 258.865 878.051 258.492C882.981 256.267 885.316 256.367 885.635 256.954C885.896 257.444 885.07 259.326 880.84 262.02C876.951 264.389 873.398 267.27 870.274 270.586L867.052 271.467C866.574 270.198 866.006 268.886 865.341 267.518C865.277 267.387 865.163 267.286 865.025 267.239C864.887 267.191 864.736 267.2 864.605 267.264C864.473 267.329 864.373 267.443 864.325 267.581C864.278 267.719 864.287 267.871 864.351 268.003C867.961 274.888 869.033 282.827 867.38 290.426C867.363 290.567 867.401 290.708 867.485 290.822C867.569 290.935 867.694 291.012 867.833 291.036C867.972 291.06 868.115 291.03 868.232 290.951C868.35 290.873 868.433 290.752 868.464 290.614C868.596 289.86 868.71 289.117 868.809 288.38C874.274 289.889 879.924 290.614 885.591 290.532C892.035 290.444 893.5 291.433 893.515 291.706C893.529 291.979 892.372 293.294 886.417 294.559C883.98 295.07 881.642 295.496 879.475 295.819C858.724 298.91 853.753 300.668 824.068 303.095C819.141 295.54 817.445 280.05 820.521 270.7C838.301 268.904 832.979 269.382 833.969 269.338ZM658.396 269.603C660.355 268.505 661.732 261.316 661.814 259.552C665.23 255.668 666.398 254.388 666.835 253.866C667.388 253.205 667.113 252.601 666.401 252.791C665.889 252.929 664.992 253.361 663.32 253.919C659.11 255.313 654.957 255.607 652.136 252.201C647.625 246.759 648.676 233.967 651.945 224.732L653.888 220.235C659.86 208.934 669.011 212.262 671.132 224.829C671.349 226.411 672.38 226.837 673.059 226.549C674.987 226.109 675.971 224.468 677.717 224.515C680.819 224.603 681.897 230.424 676.153 232.352L676.085 232.379C676.008 232.418 675.941 232.476 675.89 232.547C675.839 232.618 675.805 232.7 675.792 232.787C674.806 238.451 674.231 244.179 674.073 249.926C673.888 263.065 677.723 266.952 681.496 269.007C686.209 271.11 691.266 272.336 696.417 272.626C676.206 277.252 658.443 277.384 642.384 273.028C647.921 273.223 653.421 272.046 658.396 269.603ZM628.517 319.88C627.434 312.573 628.379 305.109 631.25 298.305C631.28 298.218 631.288 298.126 631.272 298.036C631.257 297.946 631.22 297.861 631.164 297.789C631.108 297.717 631.034 297.66 630.951 297.623C630.867 297.587 630.776 297.572 630.685 297.58C630.123 297.683 630.881 296.309 621.572 318.961C602.712 317.267 584.352 311.961 567.486 303.333L542.087 224.409C541.964 224.007 542.228 223.528 542.693 223.029C546.95 218.509 564.443 213.228 572.475 212.183C572.768 212.209 579.051 211.261 579.567 212.929C595.765 265.384 595.139 263.183 595.514 263.47C596.425 263.999 620.456 272.054 638.187 272.928C658.422 279.439 679.375 278.021 699.833 272.928C731.788 275.473 790.496 269.077 822.507 264.982C814.548 272.691 817.527 302.555 826.827 307.358C790.258 315.792 752.851 320.034 715.326 320.003C705.533 305.693 705.829 306.019 705.583 305.814L705.551 305.787C705.464 305.73 705.364 305.699 705.26 305.695C705.157 305.692 705.055 305.718 704.965 305.77L704.927 305.793C702.583 307.631 695.24 344.904 694.519 348.257C683.095 359.998 657.775 371.153 645.425 363.973C635.571 345.004 630.041 330.574 628.52 319.88H628.517ZM512.557 593.105C501.552 603.126 469.043 567.141 479.931 557.208C483.792 553.544 487.548 549.941 491.2 546.399C489.671 557.114 513.26 583.829 523.559 583.133C519.984 586.384 516.316 589.707 512.557 593.105ZM532.423 575.105C530.221 577.104 528.03 579.164 525.718 581.184C522.722 583.826 516.166 580.186 509.725 574.344C565.926 521.554 619.405 465.928 669.954 407.681L676.039 427.968C624.929 490.128 596.946 516.631 532.423 575.105ZM834.956 468.147L742.978 484.73C736.871 485.815 730.579 484.999 724.948 482.392C719.318 479.786 714.619 475.513 711.485 470.149L666.7 393.071C666.632 392.956 666.523 392.869 666.396 392.828C666.268 392.787 666.13 392.794 666.007 392.848C665.884 392.901 665.785 392.998 665.728 393.12C665.671 393.242 665.661 393.38 665.698 393.509L669.574 406.425C618.898 464.858 565.274 520.655 508.91 573.599C507.023 571.825 505.227 569.958 503.526 568.004C495.67 558.984 489.568 547.92 493.303 544.368C519.282 519.781 543.8 493.691 566.734 466.231C589.204 439.539 610.046 411.045 645.164 365.1C655.203 370.63 672.225 364.683 682.366 358.851C685.368 360.262 711.711 373.234 714.277 395.279C715.815 408.488 724.345 435.356 729.292 450.191C730.145 452.737 731.852 454.908 734.122 456.334C736.393 457.76 739.087 458.353 741.744 458.011L836.251 445.697C837.13 450.598 837.54 455.572 837.475 460.551C837.323 465.112 836.421 467.88 834.956 468.147ZM855.218 464.493L837.092 467.763C841.485 460.592 835.434 427.102 828.793 421.712L846.916 419.009C856.299 417.286 864.541 462.934 855.226 464.493H855.218Z" fill="#000001"/>
<path d="M664.149 291.836C664.758 291.794 665.337 291.608 665.814 291.303C666.29 290.997 666.643 290.585 666.827 290.119C667.011 289.653 667.018 289.153 666.847 288.684C666.676 288.215 666.335 287.797 665.867 287.482C665.399 287.168 664.825 286.972 664.217 286.919C663.61 286.866 662.997 286.958 662.455 287.184C661.913 287.41 661.467 287.759 661.173 288.187C660.879 288.616 660.751 289.105 660.805 289.592C660.84 289.915 660.954 290.229 661.141 290.517C661.328 290.805 661.584 291.061 661.895 291.269C662.205 291.478 662.564 291.635 662.951 291.732C663.338 291.83 663.745 291.865 664.149 291.836V291.836Z" fill="#000001"/>
<path d="M659.21 312.837C659.819 312.783 660.398 312.551 660.874 312.168C661.35 311.786 661.702 311.271 661.886 310.689C662.069 310.106 662.076 309.482 661.905 308.896C661.734 308.31 661.393 307.787 660.926 307.395C660.458 307.002 659.884 306.757 659.277 306.69C658.67 306.624 658.056 306.739 657.515 307.02C656.973 307.302 656.527 307.739 656.233 308.274C655.939 308.809 655.81 309.42 655.863 310.028C655.898 310.433 656.012 310.826 656.199 311.186C656.387 311.546 656.643 311.866 656.954 312.127C657.265 312.388 657.624 312.585 658.011 312.707C658.399 312.829 658.806 312.873 659.21 312.837Z" fill="#000001"/>
<path d="M659.207 335.073C659.816 335.02 660.395 334.788 660.872 334.406C661.349 334.024 661.702 333.509 661.885 332.926C662.069 332.344 662.076 331.719 661.905 331.133C661.735 330.546 661.394 330.024 660.926 329.631C660.457 329.238 659.883 328.993 659.276 328.927C658.669 328.86 658.055 328.975 657.513 329.257C656.971 329.54 656.525 329.976 656.232 330.512C655.938 331.048 655.81 331.659 655.863 332.267C655.898 332.671 656.012 333.065 656.199 333.424C656.386 333.784 656.643 334.104 656.953 334.364C657.264 334.625 657.623 334.822 658.01 334.943C658.396 335.065 658.803 335.109 659.207 335.073V335.073Z" fill="#000001"/>
</g>
</g>
<defs>
<clipPath id="clip0_1771_4665">
<rect width="881" height="543" fill="white"/>
</clipPath>
<clipPath id="clip1_1771_4665">
<rect width="985" height="479" fill="white" transform="translate(-104 64)"/>
</clipPath>
</defs>
</svg>
