<svg width="540" height="716" viewBox="0 0 540 716" fill="none" xmlns="http://www.w3.org/2000/svg">
<g filter="url(#filter0_d_1740_4590)">
<rect x="20" y="20" width="500" height="676" fill="#24B265"/>
</g>
<g clip-path="url(#clip0_1740_4590)">
<path d="M271.917 103.675C300.8 98.9209 320.323 71.4324 315.525 42.2774C310.726 13.1225 283.422 -6.65846 254.54 -1.90457C225.657 2.84933 206.133 30.3379 210.932 59.4928C215.731 88.6478 243.035 108.429 271.917 103.675Z" fill="black"/>
<path d="M484.69 654.431C521.474 648.376 546.386 613.648 540.331 576.864C534.277 540.08 499.549 515.168 462.765 521.223C425.981 527.277 401.069 562.005 407.124 598.789C413.178 635.574 447.906 660.485 484.69 654.431Z" fill="white"/>
<path d="M216.037 668.705L162.46 695.848C161.297 696.442 160.029 696.798 158.729 696.896C157.428 696.993 156.12 696.83 154.881 696.417C153.641 696.003 152.494 695.346 151.505 694.484C150.516 693.622 149.705 692.572 149.119 691.394L122.04 637.222C121.449 636.047 121.093 634.766 120.993 633.453C120.894 632.14 121.052 630.821 121.461 629.572C121.869 628.323 122.518 627.169 123.371 626.176C124.224 625.182 125.264 624.37 126.43 623.785L179.938 596.606C182.288 595.424 185.01 595.232 187.507 596.07C190.004 596.908 192.075 598.709 193.265 601.078L220.362 655.263C221.547 657.632 221.756 660.374 220.946 662.892C220.136 665.41 218.372 667.5 216.037 668.705V668.705Z" fill="black"/>
<path d="M129.842 136.578L75.9348 184.692C74.7688 185.74 73.4064 186.549 71.9256 187.074C70.4449 187.598 68.8749 187.827 67.3062 187.748C65.7374 187.669 64.2007 187.283 62.7843 186.612C61.3679 185.941 60.0996 184.999 59.0524 183.839L10.7134 130.456C9.65665 129.303 8.84148 127.954 8.31441 126.485C7.78733 125.016 7.55908 123.457 7.643 121.899C7.72692 120.34 8.12134 118.813 8.8033 117.405C9.48527 115.998 10.441 114.737 11.6158 113.698L65.5175 65.5525C67.88 63.4521 70.9816 62.3628 74.1448 62.5227C77.308 62.6825 80.2757 64.0785 82.3998 66.4057L130.771 119.783C131.821 120.943 132.631 122.298 133.153 123.77C133.675 125.243 133.9 126.803 133.813 128.363C133.727 129.923 133.332 131.451 132.651 132.861C131.969 134.271 131.014 135.534 129.842 136.578V136.578Z" fill="white"/>
<path d="M72.6345 607.731C80.5364 606.43 85.8877 598.97 84.5871 591.068C83.2865 583.167 75.8265 577.815 67.9247 579.116C60.0229 580.416 54.6715 587.876 55.9721 595.778C57.2727 603.68 64.7327 609.031 72.6345 607.731Z" fill="black"/>
<path d="M432.53 106.628C440.159 105.373 445.29 97.9489 443.989 90.0471C442.688 82.1453 435.449 76.7576 427.82 78.0134C420.191 79.2691 415.06 86.6928 416.361 94.5946C417.661 102.496 424.901 107.884 432.53 106.628Z" fill="white"/>
<path d="M514.068 189.485C531.507 186.615 543.28 169.93 540.365 152.219C537.45 134.508 520.95 122.478 503.512 125.348C486.073 128.218 474.3 144.902 477.215 162.613C480.13 180.324 496.63 192.355 514.068 189.485Z" fill="white"/>
<path d="M305.39 631.873L343.677 642.965C344.509 643.203 345.288 643.605 345.968 644.149C346.647 644.693 347.215 645.367 347.637 646.134C348.059 646.9 348.328 647.742 348.428 648.613C348.528 649.483 348.457 650.365 348.219 651.205L337.508 689.971C337.278 690.814 336.885 691.602 336.351 692.288C335.818 692.975 335.156 693.547 334.402 693.972C333.649 694.396 332.819 694.665 331.961 694.762C331.103 694.86 330.234 694.783 329.403 694.538L291.104 683.464C289.427 682.976 288.007 681.835 287.155 680.289C286.303 678.744 286.09 676.922 286.562 675.224L297.317 636.435C297.791 634.745 298.906 633.317 300.419 632.462C301.931 631.608 303.718 631.396 305.39 631.873V631.873Z" fill="white"/>
<path d="M377.337 63.5889L395.507 56.0547C395.9 55.8901 396.322 55.8074 396.748 55.8116C397.174 55.8157 397.596 55.9065 397.989 56.0787C398.383 56.2509 398.741 56.5011 399.042 56.8152C399.343 57.1292 399.582 57.5008 399.745 57.9087L407.255 76.7396C407.421 77.1481 407.507 77.5857 407.508 78.0269C407.508 78.4682 407.424 78.9042 407.26 79.3096C407.095 79.7151 406.854 80.0819 406.55 80.3887C406.246 80.6955 405.885 80.9361 405.488 81.0966L387.321 88.6469C386.927 88.8115 386.506 88.8941 386.08 88.89C385.654 88.8858 385.232 88.7951 384.838 88.6229C384.445 88.4507 384.087 88.2004 383.786 87.8863C383.484 87.5723 383.245 87.2007 383.082 86.7928L375.57 67.9459C375.243 67.12 375.246 66.1978 375.577 65.3812C375.908 64.5646 376.541 63.9202 377.337 63.5889V63.5889Z" fill="black"/>
</g>
<defs>
<filter id="filter0_d_1740_4590" x="0" y="0" width="540" height="716" filterUnits="userSpaceOnUse" color-interpolation-filters="sRGB">
<feFlood flood-opacity="0" result="BackgroundImageFix"/>
<feColorMatrix in="SourceAlpha" type="matrix" values="0 0 0 0 0 0 0 0 0 0 0 0 0 0 0 0 0 0 127 0" result="hardAlpha"/>
<feOffset/>
<feGaussianBlur stdDeviation="10"/>
<feComposite in2="hardAlpha" operator="out"/>
<feColorMatrix type="matrix" values="0 0 0 0 0 0 0 0 0 0 0 0 0 0 0 0 0 0 0.05 0"/>
<feBlend mode="normal" in2="BackgroundImageFix" result="effect1_dropShadow_1740_4590"/>
<feBlend mode="normal" in="SourceGraphic" in2="effect1_dropShadow_1740_4590" result="shape"/>
</filter>
<clipPath id="clip0_1740_4590">
<rect width="500" height="676" fill="white" transform="translate(20 20)"/>
</clipPath>
</defs>
</svg>
