<?xml version="1.0" encoding="utf-8"?>
<!-- Generator: Adobe Illustrator 26.0.2, SVG Export Plug-In . SVG Version: 6.00 Build 0)  -->
<svg version="1.1" xmlns="http://www.w3.org/2000/svg" xmlns:xlink="http://www.w3.org/1999/xlink" x="0px" y="0px"
	 viewBox="0 0 500 676" style="enable-background:new 0 0 500 676;" xml:space="preserve">

<g id="CARD4">
	<g id="Scopri_di_più_sul_progetto_base">
		<g>
			<g>
				<g>
					<g>
						<defs>
							<rect id="SVGID_00000145035825431608407280000002571098016634650040_" y="20" width="500" height="656"/>
						</defs>
						<clipPath id="SVGID_00000139978902729961112570000006632539259628047764_">
							<use xlink:href="#SVGID_00000145035825431608407280000002571098016634650040_"  style="overflow:visible;"/>
						</clipPath>
						<g style="clip-path:url(#SVGID_00000139978902729961112570000006632539259628047764_);">
							<path style="fill:#0063D2;" d="M371.8,594.6l-2.3-0.5c-0.1,0-0.2-0.1-0.3-0.2c-0.1-0.1-0.1-0.2,0-0.2c0-0.1,0.1-0.1,0.3-0.2
								c0.1,0,0.3,0,0.4,0l2.3,0.5c0.1,0,0.2,0.1,0.3,0.2c0.1,0.1,0.1,0.2,0,0.2c0,0.1-0.1,0.1-0.3,0.2
								C372,594.6,371.9,594.6,371.8,594.6z"/>
							<path style="fill:#0063D2;" d="M366.2,592.3l-4.4-1.3c-0.1,0-0.2-0.1-0.3-0.2s-0.1-0.2,0-0.3s0.1-0.2,0.3-0.2
								c0.1-0.1,0.3-0.1,0.4,0l4.4,1.3c0.1,0,0.3,0.1,0.3,0.2c0.1,0.1,0.1,0.2,0,0.3s-0.2,0.2-0.3,0.3
								C366.5,592.4,366.3,592.4,366.2,592.3z"/>
							<path style="fill:#F45A5D;" d="M411.3,507c-1.1-3-13.9-30.3-18.1-37.9c-6-11-11-11.4-15.8-15.9l-0.1-0.1
								c-4.2-0.4-8.2-1.7-11.8-3.8c-0.5,0.3-1,0.5-1.6,0.7c1.3,2.1-2.2,4.9-5,5.3c2.3-0.2,1.3,3.9-2.2,4.5c-0.8,0-6.8,0.2-9.6,0.3
								c-3.4,8.3-8.7,1.3-8.7-11.6c-0.1-3.7,0.5-7.4,1.6-10.9c0.9-2.4,2-3.9,3.2-4.2l-37.6,3.1c-3.7,0.3-7.3,1.9-10,4.4
								c-2.8,2.5-4.6,5.9-5.2,9.6s0,7.5,1.8,10.8s4.6,5.9,8,7.5l25,11.2l-3.1,15l46.8,22.1l13.5-29.1v17.4l5.9,10.7l-15.2,41.6
								c7.5,5.4,16.4,8.5,25.7,8.8l12.8-39C413.7,520.5,413.6,513.4,411.3,507z"/>
							<path style="fill:#000001;" d="M411.3,506.5c-1.1-3.1-13.9-30.2-18.1-37.8c-6.1-11.1-11.1-11.5-15.8-16
								c-0.7-1.1-1-2.4-1.1-3.7s0.2-2.6,0.8-3.8c0.8-1.8,1.8-3.5,3-5c6.2-6.7,18.8,4,18.9,4.1c1.5,1.6,3.6,2.6,5.8,2.9
								c0.3,0,0.7,0,1-0.1s0.6-0.3,0.8-0.5c0.2-0.2,0.4-0.5,0.5-0.8s0.2-0.6,0.1-1c-0.4-2.4-1.6-4.5-3.5-6c3.5,0.6,4.9-3.6-0.1-8.3
								c4,1.1,5.7-3.1,0.6-8c-0.5-0.5-1.1-1-1.7-1.4c-18.4-15.4-29.5-3.4-30.3-2.6c-3.6,3.3-6.4,7.3-8.2,11.8
								c-2.6,0.6-5.1,1.7-7.3,3.3c-3.1,1.4-6.3,2.2-9.6,2.7c-0.4-0.9-1.7-3.6-3.6-3.5c-0.3,0,0.6-0.1-38.1,3.1
								c-3.5,0.3-6.9,1.7-9.6,3.9c-2.7,2.2-4.7,5.3-5.7,8.6c-3.9-0.3-7.8,0.6-11.2,2.6c-54.3,32.3-51.9,30.6-52,31.1
								c0,0.3,0.1,0.7,0.2,1c-5.4,0.9-13.6,1.7-17.8,2.5c-17.7,3.2-20.7,5.1-21.2,6.5c-2.9,8,24.4,8,34.6,14.7
								c2.9,2.1,6.2,3.6,9.7,4.7c3.3,0.1,6.5-0.8,9.2-2.6c1,1.1,1.1,1.2,1.4,1.2s-1.5,0.9,37.9-20.3l18.5,41.2l-17.5,5.7
								c-4.7,1.5-8.9,4-12.6,7.3c-3.6,3.3-6.6,7.3-8.6,11.7c-27,60.1-25.4,56.3-25,56.7c0.2,0.2,1.4,1.1,1.6,1.3
								c-5.4,10.1-12.1,21.5-15.5,29.1c-8,18-8,21.7-7.1,23c5.4,7.5,22-17,34.4-22.1c3-1.1,5.7-3,7.9-5.3c3-3.6,5.3-7.7,6.9-12.1
								c0.8,0.2,1.6,0.3,2.4,0.4c0.5-0.1-1.4,3.5,26-54.8c10.9-2.5,29.2-6.4,47.9-9.9c25.5-4.7,28.7-43,28.9-45.3l8.6-18.6l9.7,17.4
								c-12.1,33-14.6,39.8-15,41.2c-0.1,0.5,0,0.4,0.1,0.5c0.2,0.2,1.1,0.8,1.3,0.9c-1.9,3.9-4.7,7.2-8.2,9.8
								c-4.8,3.5-6.9,5.9-6.1,7.2c1.2,2,8.6-1.4,10.7-2.4c-2.2,5-5,9.8-8.4,14.2c-1.3,1.8-1.6,3.3-0.7,4c1.9,1.7,6.3-3.2,8.1-5.1
								c-1.2,2.4-2.4,4.7-3.8,6.9c-1.2,1.7-1.4,3.2-0.5,3.9c1.3,1,3.5-0.6,4.7-1.8c1.5-1.7,3-3.5,4.3-5.3c-0.8,2-1.5,3.7-2,4.5
								c-2.1,4.2,1.1,6.1,4.4,1.6c1.2-1.7,2.2-3.4,3.2-5.1c-0.2,0.6-0.3,1.2-0.5,1.7c-1,2.7-0.3,3.5,0.2,3.7c1.3,0.6,3-1.5,3.8-2.8
								c5.2-8.7,9.8-17.7,13.6-27c0.2,0,1.7,0.1,1.9,0.1c0.5-0.1-0.3,1.9,13.1-39.2C413.7,520.2,413.6,513.1,411.3,506.5z
								 M373,419.3c0.3-0.2,6.4-6.4,10.5-3.4c3.9,2.8,1,10.3,1.3,9.5c-0.6,1.7,0.6,2.1,2.3,2c1-0.1,1.9-0.2,2.5,0.7
								c0.9,1.4-0.5,4.1-3.9,3.6c-0.1,0-0.2,0-0.3,0c-0.1,0-0.2,0.1-0.2,0.2c-1.4,1.8-5.7,7.5-6,7.9c-2.8,3.9-5.2,8.3-3.2,12.7
								c-3.4-0.4-6.8-1.5-9.8-3.1c0.9-0.6,1.6-1.3,2.1-2.2c0.5-0.9,0.9-1.9,1-2.9c3-0.9,8.8-4.4,10-7.4c0.1-0.2,0.2-0.5,0.2-0.7
								s0-0.5-0.1-0.7c-1-2-7.3,1.1-10.1,1.9c-1.4,0.4-2.8,0.7-4.1,0.9c-0.7-1.2-1-2.5-0.9-3.9c0.9-1.2,2.3-3.1,1-3.8
								C367,426.2,369.7,422.5,373,419.3z M363.2,435.5c0,1,0.3,2,0.8,2.8c-1.3,0.2-2.7,0.3-4,0.4
								C361.3,437.4,362.4,436.3,363.2,435.5L363.2,435.5z M357.3,434.5c5.2-3.1,7.1-3.3,7.3-3.1c0,0,0.4,1.3-6.3,7.3
								c-1.3,0-2.6-0.1-4-0.2c-0.1,0-0.3,0-0.4,0.1s-0.2,0.2-0.2,0.4c0,0.1,0,0.3,0.1,0.4s0.2,0.2,0.4,0.2c5.1,0.5,10.2,0,15.2-1.3
								c1.7-0.4,8.2-3.1,8.8-2.4c0.1,0.2,0,0.4-0.1,0.6c-2.2,3.1-5.3,5.5-9,6.6c-2.4,0.6-4.8,1.1-7.3,1.4c-0.1,0-0.3,0.1-0.3,0.2
								c-0.1,0.1-0.1,0.3-0.1,0.4s0.1,0.3,0.2,0.3c0.1,0.1,0.3,0.1,0.4,0.1c1.4-0.2,4-0.6,6-1.1c-0.2,0.9-0.6,1.8-1.1,2.5
								c-0.6,0.7-1.3,1.4-2.1,1.8c-1.4,0.8-1.7,0.7-6.7,1.3c-0.1,0-0.3,0.1-0.3,0.2c-0.1,0.1-0.1,0.2-0.1,0.4c0,0.1,0.1,0.3,0.2,0.4
								s0.2,0.1,0.4,0.1l4.3-0.5h0.1h0.1h0.1l0.4-0.1c0.7,1.7-2.5,3.7-4.4,4.1c-0.3,0.1-3.4,0.5-3.7,0.5c-0.1,0-0.3,0.1-0.4,0.2
								s-0.2,0.2-0.2,0.4c0,0.1,0,0.3,0.1,0.4s0.2,0.2,0.3,0.2c0.4,0,3.1-0.4,3.8-0.5c0.9,0.7-0.3,3-2.6,3.4
								c-0.7,0-13.6,0.3-15.9,0.3c-2.2-7-2.3-14.5-0.3-21.5c2.3,0,4.6-0.3,6.9-0.7C350.6,436.8,354,435.9,357.3,434.5L357.3,434.5z
								 M322.5,494.2l5.9-28.9l15.4-1.2c1.3-0.2,2.5-1.4,3.4-3.5c2.3,0,6.4-0.2,8.3-0.2c-7.4,13.1-12.9,27.2-16.1,41.9L322.5,494.2z
								 M313.4,475l10.9,4.9l-2.6,12.9L313.4,475z M305.6,436.9l35.5-2.9c-4.6,5.3-4.6,24.5,0.3,29.2l-37.9,3
								c-0.1,0-0.3,0.1-0.3,0.2c-0.1,0.1-0.1,0.2-0.1,0.4c0,0.1,0,0.3,0.1,0.4s0.2,0.2,0.3,0.2l23.1,1.2l-2.1,10.4
								c-27.7-12.4-18.8-8.4-24.3-10.8c-3.3-1.5-6-4-7.7-7.2s-2.3-6.9-1.7-10.4c0.6-3.6,2.4-6.8,5.1-9.3
								C298.6,438.7,302,437.2,305.6,436.9L305.6,436.9z M339.9,560.9c-1.5,0.3-47.8,9.3-48.5,10.2c-0.2,0.3,0.8-1.9-25.6,54.5
								c-10.7-2.1-20.7-6.8-29.1-13.7l25-55.8c1.9-4.3,4.8-8.2,8.3-11.4s7.7-5.6,12.2-7l44.8-14.5c0.1,0,0.2-0.1,0.3-0.2
								c0.1-0.1,0.1-0.2,0.1-0.4c0-0.1-0.1-0.2-0.2-0.3s-0.2-0.1-0.4-0.1l-29.7,1.4l-15.3-34.2l3.3-1.8c0.1-0.1,0.2-0.2,0.3-0.3
								c0-0.1,0-0.3,0-0.4c-0.1-0.1-0.2-0.2-0.3-0.3c-0.1,0-0.3,0-0.4,0l-41.6,22.3c-7.3-7.3-12.5-16.4-15-26.4l51.4-30.5
								c3.1-1.9,6.8-2.7,10.4-2.5c-0.8,3.9-0.3,8,1.5,11.5c1.8,3.6,4.8,6.4,8.4,8l12.1,5.4c9.8,21,9.4,20.3,9.7,20.6
								c0.3,0.2-1.9-0.9,46.3,21.9C367.6,520,364.2,556.4,339.9,560.9L339.9,560.9z M388.3,515.1l-5.8-10.5v-17.1
								c0-0.1,0-0.2-0.1-0.3c-0.1-0.1-0.2-0.2-0.3-0.2c-0.1,0-0.2,0-0.3,0c-0.1,0.1-0.2,0.1-0.2,0.2l-13.2,28.5l-27.8-13.1
								c3.2-14.9,8.8-29.2,16.4-42.4c2.8-0.6,4.2-3.3,3.4-4.8c2-0.7,4.4-2.4,4.4-4.5v-0.1c0-0.2-0.1-0.4-0.1-0.6
								c0.3-0.1,0.5-0.2,0.8-0.4c3.6,2,7.5,3.2,11.5,3.6c4.9,4.6,9.7,4.9,15.6,15.7c4.2,7.6,17,34.7,18,37.7
								c2.2,6.3,2.3,13.2,0.2,19.6L398,564.9c-8.8-0.4-17.4-3.3-24.6-8.4C389.2,513.1,388.5,515.4,388.3,515.1L388.3,515.1z
								 M382,592.4c-1.3,2.1-2.3,2.5-2.5,2.4c-0.1,0-0.3-0.6,0.3-2.4c0.6-1.6,1.5-5.6,1.6-5.9c0.8-1.6,1.5-3,1.9-3.8
								c0.1-0.1,0.1-0.3,0-0.4c0-0.1-0.1-0.2-0.3-0.3c-0.1-0.1-0.3-0.1-0.4,0s-0.2,0.1-0.3,0.3c-1,2.3-7.7,16-9.9,14.7
								c-0.3-0.2-0.4-1,0.3-2.6c1.3-2.7,2.4-5.4,3.3-8.3c1.4-2.1,2.6-3.9,3.2-4.9c0.1-0.1,0.1-0.3,0.1-0.4c0-0.1-0.1-0.2-0.2-0.3
								s-0.3-0.1-0.4-0.1s-0.3,0.1-0.3,0.2c-2.9,4.7-6.2,9.1-9.8,13.3c-1.6,1.7-2.9,2-3.2,1.7c-0.2-0.2-0.3-1,0.7-2.5
								c2.1-3.5,4.1-7.1,5.7-10.9c1.1-1.4,1.8-2.5,2.2-3c0-0.1,0.1-0.1,0.1-0.2c0-0.1,0-0.1,0-0.2c0-0.1,0-0.1-0.1-0.2
								c0-0.1-0.1-0.1-0.1-0.1c-0.1,0-0.1-0.1-0.2-0.1s-0.1,0-0.2,0s-0.1,0-0.2,0.1c-0.1,0-0.1,0.1-0.1,0.1
								c-2.5,3.5-5.3,6.8-8.4,9.8c-1.8,1.6-2.9,1.7-3.1,1.5c-1.5-1.3,6.3-7.5,11-21.4c0-0.1,0-0.1,0-0.2c0-0.1,0-0.1-0.1-0.2
								c0-0.1-0.1-0.1-0.1-0.2c-0.1,0-0.1-0.1-0.2-0.1s-0.1,0-0.2,0s-0.1,0-0.2,0.1c-0.1,0-0.1,0.1-0.2,0.1c0,0.1-0.1,0.1-0.1,0.2
								c-0.3,1-0.7,2-1.1,2.9c-0.1,0-0.1,0-0.2,0c-7.9,3.8-10.1,3.5-10.3,3.2c-0.1-0.2,0.5-1.9,5.9-5.8c3.6-2.7,6.4-6.1,8.4-10.1
								c6.3,4,13.4,6.5,20.9,7.2C391.6,575,387.1,583.9,382,592.4z"/>
							<path style="fill:#000001;" d="M334,553.9c0,0.6,0.2,1.1,0.5,1.6c0.3,0.4,0.7,0.6,1.1,0.6s0.8-0.2,1.1-0.6
								c0.3-0.4,0.5-1,0.5-1.6s-0.2-1.1-0.5-1.6c-0.3-0.4-0.7-0.6-1.1-0.6s-0.8,0.2-1.1,0.6C334.2,552.8,334,553.3,334,553.9z"/>
							<path style="fill:#000001;" d="M351.6,518.8c0,0.6,0.3,1.1,0.7,1.6c0.4,0.4,1,0.6,1.5,0.6c0.6,0,1.1-0.2,1.5-0.6
								c0.4-0.4,0.7-1,0.7-1.6s-0.3-1.1-0.7-1.6c-0.4-0.4-1-0.6-1.5-0.6c-0.6,0-1.1,0.2-1.5,0.6
								C351.9,517.6,351.6,518.2,351.6,518.8z"/>
							<path style="fill:#000001;" d="M304.4,512.7c0,0.4,0.2,0.9,0.5,1.2s0.7,0.5,1.1,0.5s0.8-0.2,1.1-0.5c0.3-0.3,0.5-0.7,0.5-1.2
								c0-0.4-0.2-0.9-0.5-1.2c-0.3-0.3-0.7-0.5-1.1-0.5s-0.8,0.2-1.1,0.5C304.6,511.9,304.4,512.3,304.4,512.7z"/>
							<path style="fill:#000001;" d="M307.7,479.8c0,0.4,0.2,0.9,0.5,1.2c0.3,0.3,0.7,0.5,1.1,0.5s0.8-0.2,1.1-0.5
								c0.3-0.3,0.5-0.7,0.5-1.2c0-0.4-0.2-0.9-0.5-1.2c-0.3-0.3-0.7-0.5-1.1-0.5s-0.8,0.2-1.1,0.5
								C307.9,478.9,307.7,479.3,307.7,479.8z"/>
							<path style="fill:#000001;" d="M278,462.2c0,0.4,0.2,0.9,0.5,1.2c0.3,0.3,0.7,0.5,1.1,0.5s0.8-0.2,1.1-0.5
								c0.3-0.3,0.5-0.7,0.5-1.2c0-0.4-0.2-0.9-0.5-1.2c-0.3-0.3-0.7-0.5-1.1-0.5s-0.8,0.2-1.1,0.5C278.2,461.4,278,461.8,278,462.2
								z"/>
							<path style="fill:#000001;" d="M235.2,483.6c0,0.6,0.2,1.1,0.5,1.6c0.3,0.4,0.7,0.6,1.2,0.6c0.4,0,0.9-0.2,1.2-0.6
								s0.5-1,0.5-1.6s-0.2-1.1-0.5-1.6s-0.7-0.6-1.2-0.6c-0.4,0-0.9,0.2-1.2,0.6C235.4,482.5,235.2,483.1,235.2,483.6z"/>
							<path style="fill:#000001;" d="M264.8,487.5c0,0.4,0.2,0.9,0.5,1.2c0.3,0.3,0.7,0.5,1.1,0.5s0.8-0.2,1.1-0.5
								c0.3-0.3,0.5-0.7,0.5-1.2c0-0.4-0.2-0.9-0.5-1.2c-0.3-0.3-0.7-0.5-1.1-0.5s-0.8,0.2-1.1,0.5C265,486.6,264.8,487,264.8,487.5
								z"/>
							<path style="fill:#000001;" d="M280.2,572.1c0,0.4,0.3,0.9,0.7,1.2c0.4,0.3,1,0.5,1.5,0.5c0.6,0,1.1-0.2,1.5-0.5
								s0.7-0.7,0.7-1.2c0-0.4-0.3-0.9-0.7-1.2c-0.4-0.3-1-0.5-1.5-0.5c-0.6,0-1.1,0.2-1.5,0.5C280.5,571.2,280.2,571.6,280.2,572.1
								z"/>
							<path style="fill:#000001;" d="M301.1,537.4c0,0.6,0.2,1.1,0.6,1.6c0.4,0.4,1,0.6,1.6,0.6s1.1-0.2,1.6-0.6
								c0.4-0.4,0.6-1,0.6-1.6s-0.2-1.1-0.6-1.6c-0.4-0.4-1-0.6-1.6-0.6s-1.1,0.2-1.6,0.6C301.3,536.3,301.1,536.9,301.1,537.4z"/>
							<path style="fill:#000001;" d="M246.2,597.9c0,0.6,0.2,1.1,0.5,1.6c0.3,0.4,0.7,0.6,1.1,0.6c0.4,0,0.8-0.2,1.1-0.6
								c0.3-0.4,0.5-1,0.5-1.6s-0.2-1.1-0.5-1.6c-0.3-0.4-0.7-0.6-1.1-0.6c-0.4,0-0.8,0.2-1.1,0.6S246.2,597.3,246.2,597.9z"/>
							<path style="fill:#F45A5D;" d="M493.5,579.6c2.9,1.9,5.8,3.6,8.9,5.1c0.5,0-0.2,1,9.4-17.2c0.1-0.1,0.1-0.3,0-0.4
								c0-0.1-0.1-0.3-0.2-0.3l-8.7-5c-0.1,0-0.1-0.1-0.2-0.1s-0.1,0-0.2,0s-0.1,0.1-0.2,0.1s-0.1,0.1-0.1,0.2l-9,16.9
								c-0.1,0.1-0.1,0.3,0,0.4C493.3,579.4,493.4,579.5,493.5,579.6z"/>
							<path style="fill:#F45A5D;" d="M482.6,573.2c2.9,1.8,5.8,3.4,8.9,4.8c0.5,0-0.2,1,9.4-16.4c0.1-0.1,0.1-0.3,0-0.4
								c0-0.1-0.1-0.2-0.2-0.3c-9.4-5.2-8.8-4.9-9.1-4.8c-0.3,0.1,0.3-0.8-9.3,16.4c0,0.1-0.1,0.1-0.1,0.2c0,0.1,0,0.1,0,0.2
								c0,0.1,0.1,0.1,0.1,0.2C482.4,573.2,482.5,573.2,482.6,573.2z M492,557.4l7.7,4.3l-8.5,15.2l-7.7-4.3L492,557.4z"/>
							<path style="fill:#000001;" d="M546.6,524.7c0-0.1-0.1-0.3-0.2-0.4s-0.2-0.2-0.4-0.1l-102,2.2c-9.5-8.6-20.5-15.3-32.6-19.7
								c-0.1,0-0.3,0-0.4,0c-0.1,0.1-0.2,0.2-0.3,0.3c0,0.1,0,0.3,0,0.4c0.1,0.1,0.1,0.2,0.3,0.3c16.9,6.2,31.8,16.9,43.2,31
								c11.3,14,18.7,30.9,21.2,48.7c2.5,17.9,0.2,36.1-6.8,52.7c-7,16.6-18.4,31-32.9,41.7s-31.7,17.2-49.6,19
								c-18,1.7-36-1.4-52.3-9.2c-16.3-7.7-30.2-19.7-40.2-34.7s-15.8-32.4-16.7-50.4c0-0.1,0-0.1-0.1-0.2s-0.1-0.1-0.1-0.2
								c-0.1,0-0.1-0.1-0.2-0.1s-0.1,0-0.2,0s-0.1,0-0.2,0s-0.1,0.1-0.2,0.1c0,0.1-0.1,0.1-0.1,0.2c0,0.1,0,0.1,0,0.2
								c0.7,14.3,4.5,28.3,11,41s15.7,23.9,26.9,32.8c11.2,8.9,24.2,15.3,38,18.9c13.9,3.5,28.3,4.1,42.4,1.6s27.5-8,39.3-16
								c11.8-8.1,21.8-18.5,29.2-30.8c7.5-12.2,12.2-25.9,14-40.1c1.8-14.2,0.5-28.6-3.7-42.3c44.4,24.6,42.7,23.7,43,23.7
								c0.5,0-0.6,1.6,12.4-21.8c0.1-0.1,0.1-0.3,0-0.4c0-0.1-0.1-0.2-0.3-0.3l-39.1-21.6c61.2-1.3,57.6-1.1,57.8-1.4
								C547.2,549.5,547.1,550.8,546.6,524.7z M464.3,551.7l11.9-0.3l-6.4,11.5C468.2,559.1,466.4,555.3,464.3,551.7z M470.4,564.3
								l7.1-12.8h2.1l-8.3,15C470.9,565.7,470.7,565,470.4,564.3z M480.7,551.3c0.5,0-0.5-0.5,7.9,4.2l-8.6,15.4l-7.8-4.3
								L480.7,551.3z M527.2,573.5l-11.4,20.6l-43.3-24c-0.3-0.9-0.6-1.8-0.9-2.7l8.5,4.7c0.1,0.1,0.3,0.1,0.4,0
								c0.1,0,0.2-0.1,0.3-0.3l9.1-16.4c0-0.1,0.1-0.1,0.1-0.2c0-0.1,0-0.1,0-0.2c0-0.1-0.1-0.1-0.1-0.2c0-0.1-0.1-0.1-0.2-0.1
								l-6.4-3.6l3.8-0.1L527.2,573.5z M463.7,550.7c-5-8.6-11.3-16.4-18.6-23.2l100.4-2.2l0.5,23.6L463.7,550.7z"/>
							<path style="fill:#F45A5D;" d="M503.3,527.6c-9.8,0.2-9.7,0.1-9.9,0.4c-0.3,0.3-0.2-0.6,0.2,18.9c0,0.1,0.1,0.3,0.2,0.4
								c0.1,0.1,0.2,0.2,0.4,0.2l9.6-0.2c0.1,0,0.3-0.1,0.4-0.2c0.1-0.1,0.1-0.2,0.1-0.4l-0.4-18.5c0-0.1-0.1-0.3-0.2-0.4
								C503.6,527.6,503.5,527.6,503.3,527.6z M494.7,546.3l-0.4-17.5l8.6-0.2l0.4,17.5L494.7,546.3z"/>
							<path style="fill:#F45A5D;" d="M491.6,527.7c-0.3-0.3,0-0.2-10.9,0.1c-0.1,0-0.3,0.1-0.4,0.2s-0.2,0.2-0.2,0.4l0.4,19.5
								c0,0.1,0.1,0.3,0.2,0.4c0.1,0.1,0.2,0.2,0.4,0.2l10.5-0.2c0.1,0,0.3-0.1,0.4-0.2c0.1-0.1,0.2-0.2,0.2-0.4
								C491.7,527.1,491.9,528,491.6,527.7z M481.6,547.3l-0.4-18.4l9.4-0.2l0.4,18.4L481.6,547.3z"/>
							<path style="fill:#F45A5D;" d="M370.9,563.8c-0.3,0-0.3-0.1-18.9-6.7c-0.1,0-0.2-0.1-0.3-0.3c-0.1-0.1-0.1-0.3,0-0.4
								c0-0.1,0.1-0.2,0.3-0.3c0.1-0.1,0.3-0.1,0.4,0l18.7,6.7c0.1,0,0.2,0.1,0.3,0.2c0.1,0.1,0.1,0.2,0.1,0.3s-0.1,0.2-0.2,0.3
								C371.1,563.8,371,563.8,370.9,563.8z"/>
							<path style="fill:#F45A5D;" d="M293,533.5c-94-34.7-87.7-32.5-88-32.3s0.1-0.6-4.1,10.7c-0.3-0.7-0.9-1.2-1.5-1.6L170.3,493
								c-0.9-0.5-1.9-0.7-2.9-0.5l-41.5,5.4c0-0.1,0-0.3,0-0.4c-0.1-0.1-0.2-0.2-0.3-0.3l-1.8-0.7l69.5-60.5
								c0.9,0.8,2.1,1.3,3.4,1.3c1.2,0,2.4-0.5,3.3-1.4c0.9-0.9,1.4-2,1.5-3.3c0.1-1.2-0.4-2.4-1.2-3.4c-0.8-0.9-2-1.5-3.2-1.6
								s-2.5,0.2-3.4,1c-1,0.8-1.6,1.9-1.8,3.1s0.1,2.5,0.8,3.5l-69.9,60.9c-3.8-1.4-5.3-2-6-2.2c-0.4-0.1-0.7-0.2-0.8,0.3
								c-0.3,0.6-1,2.6-3.4,9c0,0.1,0,0.3,0,0.4c0.1,0.1,0.2,0.2,0.3,0.3l0.7,0.2L40,568c-0.9-0.8-2.2-1.2-3.4-1.2
								c-1.2,0.1-2.4,0.6-3.3,1.5c-0.9,0.9-1.3,2.1-1.4,3.3c0,1.2,0.5,2.4,1.3,3.3c0.8,0.9,2,1.5,3.2,1.5c1.2,0.1,2.5-0.3,3.4-1.1
								c1-0.8,1.6-1.9,1.7-3.1c0.1-1.2-0.2-2.5-0.9-3.5l73.8-64.2c6.3,2.3,7.2,2.7,7.5,2.7c0.1,0,0.2,0,0.3-0.1
								c0.1-0.1,0.2-0.1,0.2-0.2v-0.1l27.8,31.3c0.6,0.8,1.5,1.4,2.5,1.5l33.4,5.8c0.7,0.1,1.5,0,2.2-0.2l-4.1,11c0,0.1,0,0.1,0,0.2
								c0,0.1,0,0.1,0,0.2c0,0.1,0.1,0.1,0.1,0.2c0.1,0,0.1,0.1,0.2,0.1c67.8,25.1,65.8,24.4,66.1,24.4c0.1,0,0.2,0,0.3-0.1
								s0.2-0.2,0.2-0.3s0-0.2-0.1-0.4c-0.1-0.1-0.2-0.2-0.3-0.2l-65.5-24.2c0,0,4.6-11.6,10.2-26.8c68,25.1,67,24.8,67.3,24.8
								c0.1,0,0.2,0,0.3-0.1c0.1-0.1,0.2-0.2,0.2-0.3s0-0.2-0.1-0.4c-0.1-0.1-0.2-0.2-0.3-0.2l-67.1-24.8
								c5.4-14.6,9.5-26.1,9.5-26.1l87.1,32.2c0.1,0,0.3,0,0.4,0c0.1-0.1,0.2-0.2,0.3-0.3c0.1-0.1,0-0.3,0-0.4
								C293.3,533.6,293.2,533.5,293,533.5z M122.8,503l-3.6-1.4c-0.1,0-0.2,0-0.3,0s-0.2,0.1-0.3,0.2c-0.1,0.1-0.1,0.2-0.1,0.3
								c0,0.1,0.1,0.2,0.1,0.3l3.1,3.5v0.1l-8.1-3l3-8.1l8.1,3v0.1c-2.8,0.4-3.8,0.5-4.3,0.6c-0.1,0-0.2,0.1-0.3,0.1
								c-0.1,0.1-0.2,0.2-0.2,0.3c0,0.1,0,0.2,0.1,0.3c0.1,0.1,0.2,0.2,0.3,0.2l3.4,1.2L122.8,503z M171.6,519.8
								c-0.1,0.3-0.2,0.6-0.4,0.8s-0.4,0.4-0.7,0.6c-0.3,0.1-0.6,0.2-0.9,0.3c-0.3,0-0.6,0-0.9-0.1l-44.8-17.9l0.8-2.3L170,517
								c0.5,0.2,1,0.6,1.3,1.1S171.7,519.2,171.6,519.8z"/>
							<path style="fill:#F45A5D;" d="M448.2,597.3c-0.1-0.3,0.8,0.1-17.6-6.7c1.8-4.7,1.8-4.5,1.6-4.8c-0.1-0.3,2.4,0.6-38.4-14.4
								c-0.1,0-0.3,0-0.4,0c-0.1,0.1-0.2,0.2-0.3,0.3c0,0.1,0,0.3,0,0.4c0.1,0.1,0.2,0.2,0.3,0.3l37.6,13.9l-9.7,26l-45.7-16.9
								c-0.1,0-0.3,0-0.4,0c-0.1,0.1-0.2,0.2-0.3,0.3c0,0.1,0,0.3,0,0.4c0.1,0.1,0.2,0.2,0.3,0.3l45.7,16.9l-10,26.9L282,592.7
								c-0.1,0-0.3,0-0.4,0c-0.1,0.1-0.2,0.2-0.3,0.3c0,0.1,0,0.3,0,0.4c0.1,0.1,0.2,0.2,0.3,0.3c132.1,48.7,129.3,47.8,129.6,47.8
								c0.1,0,0.2,0,0.3-0.1c0.1-0.1,0.2-0.1,0.2-0.2l1.7-4.6c15.6,5.8,17.2,6.4,17.5,6.4c0.1,0,0.2,0,0.3-0.1
								c0.1-0.1,0.2-0.1,0.2-0.2C449.3,594.9,448.3,597.6,448.2,597.3z"/>
							<path style="fill:#F45A5D;" d="M362.1,591.3c-0.3,0,1.6,0.6-58.4-22c-0.1-0.1-0.2-0.2-0.3-0.3c-0.1-0.1-0.1-0.3,0-0.4
								c0-0.1,0.1-0.2,0.3-0.3c0.1-0.1,0.3-0.1,0.4,0l58.2,22c0.1,0,0.2,0.1,0.3,0.2c0.1,0.1,0.1,0.2,0.1,0.4c0,0.1-0.1,0.2-0.2,0.3
								C362.3,591.2,362.2,591.3,362.1,591.3z"/>
							<path style="fill:#F45A5D;" d="M466.5,343.7l-9.2,1.6c-2.1,0.4-4.3-0.1-6.1-1.3c-1.8-1.2-3-3.1-3.4-5.2l-1.6-9.2
								c0-0.2-0.1-0.3-0.3-0.4c-0.1-0.1-0.3-0.1-0.5-0.1s-0.3,0.1-0.4,0.3c-0.1,0.1-0.1,0.3-0.1,0.5l1.6,9.2
								c0.4,2.1-0.1,4.3-1.3,6.1c-1.2,1.8-3.1,3-5.2,3.3l-9.2,1.6c-0.2,0-0.3,0.1-0.4,0.3c-0.1,0.1-0.1,0.3-0.1,0.5s0.1,0.3,0.3,0.4
								c0.1,0.1,0.3,0.1,0.5,0.1l9.2-1.6c1.1-0.2,2.1-0.2,3.2,0.1s2,0.7,2.9,1.3c0.9,0.6,1.6,1.4,2.2,2.3s1,1.9,1.2,3l1.6,9.2
								c0,0.1,0,0.2,0.1,0.2c0,0.1,0.1,0.1,0.2,0.2s0.2,0.1,0.2,0.1c0.1,0,0.2,0,0.3,0c0.1,0,0.2,0,0.2-0.1c0.1,0,0.1-0.1,0.2-0.2
								s0.1-0.2,0.1-0.2c0-0.1,0-0.2,0-0.3l-1.6-9.2c-0.4-2.1,0.1-4.3,1.3-6.1c1.2-1.8,3.1-3,5.2-3.4l9.2-1.6
								c0.2-0.1,0.3-0.2,0.4-0.3c0.1-0.1,0.1-0.3,0.1-0.5s-0.1-0.3-0.2-0.4C466.8,343.8,466.7,343.7,466.5,343.7z M449.6,352.7
								c-0.7-1.1-1.6-2-2.6-2.8c-1.1-0.7-2.2-1.2-3.5-1.5c1.1-0.7,2-1.6,2.8-2.6c0.7-1,1.3-2.2,1.5-3.5c0.7,1.1,1.6,2,2.6,2.8
								c1,0.7,2.2,1.3,3.5,1.5c-1.1,0.7-2,1.6-2.8,2.6C450.4,350.3,449.9,351.5,449.6,352.7z"/>
							<path style="fill:#F45A5D;" d="M225,593.9l-8.4-4l3.8-8.9c0.1-0.1,0.1-0.3,0-0.4c0-0.1-0.1-0.2-0.3-0.3
								c-0.1-0.1-0.3-0.1-0.4,0c-0.1,0-0.2,0.2-0.3,0.3l-3.8,8.9l-8.4-4c-0.1-0.1-0.3-0.1-0.4,0c-0.1,0.1-0.2,0.2-0.3,0.3
								s-0.1,0.3,0,0.4c0,0.1,0.1,0.2,0.3,0.3l8.4,4l-3.8,8.9c-0.1,0.1-0.1,0.3,0,0.4c0,0.1,0.1,0.2,0.3,0.3c0.1,0.1,0.3,0.1,0.4,0
								c0.1,0,0.2-0.1,0.3-0.3l3.8-8.9c8.2,3.9,8.3,4.1,8.6,4.1c0.1,0,0.2,0,0.3-0.1s0.1-0.2,0.2-0.3c0-0.1,0-0.2,0-0.4
								C225.2,594.1,225.1,594,225,593.9z"/>
							<path style="fill:#F45A5D;" d="M87.8,86.8c-13.4-1.8-18.6-18.5-36-13.2c-8.7-4.5-17.7-8.3-26.9-11.5
								c-13.1-4.4-26.5-8-40-10.7c-19.9-3.7-21-0.7-21.3,0.3c-0.3,1-1.4,4,16.8,13c12.4,6,25.3,11.2,38.4,15.6
								c9.3,3,18.8,5.4,28.5,7.1c9.9,12.9,28.6,11.2,41.1,0.9c0.1-0.1,0.2-0.2,0.3-0.4c0.1-0.2,0.1-0.3,0-0.5c0-0.2-0.1-0.3-0.3-0.4
								C88.2,86.9,88,86.8,87.8,86.8z M-18.9,63.3c-13.3-6.6-16.2-10.1-15.9-11c0.3-0.9,4.8-1.9,19.4,0.8C-1,56,13.1,59.8,27,64.6
								l-5.1,15C7.9,75.1-5.7,69.6-18.9,63.3L-18.9,63.3z M23.5,80.1l5-14.9c7.6,2.8,14.9,6.1,22.1,9.7L47,85.6
								C39.1,84.2,31.3,82.4,23.5,80.1L23.5,80.1z"/>
							<path style="fill:#F45A5D;" d="M312.8,82.3c-7.1-5.9-16-9-25.2-8.7s-18,3.9-24.7,10.2c-5.5,5.1-8.9,12-9.6,19.4
								c-0.7,7.4,1.4,14.8,5.9,20.8l-5,14.5c0,0.1,0,0.2,0,0.3s0.1,0.2,0.2,0.3c0.1,0.1,0.2,0.1,0.3,0.1s0.2,0,0.3,0l14.2-6.3
								c23.9,14.4,55.6-2.1,54.8-28.1c-0.2-4.3-1.2-8.6-3.1-12.4C318.8,88.5,316.1,85,312.8,82.3z M322.8,104.8
								c0.8,25.5-30.5,41.1-53.5,27.1c-0.4-0.2,0.5-0.5-13.8,5.9c5-14.6,4.9-13.7,4.6-14.2c-4.4-5.8-6.5-13-5.8-20.2
								c0.6-7.2,3.9-14,9.3-18.9c6.5-6.1,15.1-9.6,24-9.9s17.7,2.7,24.5,8.4c3.2,2.7,5.8,6,7.7,9.7
								C321.6,96.5,322.7,100.6,322.8,104.8z"/>
							<path style="fill:#F45A5D;" d="M285.4,110.6c1.1-5.5,8.3-7.5,9.3-12.8c0.2-0.7,0.2-1.5,0-2.2s-0.4-1.4-0.9-2
								c-0.4-0.6-1-1.1-1.6-1.5c-0.7-0.4-1.4-0.6-2.1-0.7c-0.8-0.1-1.5,0-2.3,0.2c-0.7,0.2-1.4,0.6-2,1.1s-1.1,1.1-1.4,1.7
								c-0.3,0.7-0.5,1.4-0.6,2.1c0,0.1,0,0.2-0.1,0.2c0,0.1-0.1,0.1-0.1,0.2c-0.1,0.1-0.1,0.1-0.2,0.1s-0.2,0-0.2,0
								c-0.1,0-0.2,0-0.2-0.1c-0.1,0-0.1-0.1-0.2-0.1c-0.1-0.1-0.1-0.1-0.1-0.2s0-0.2,0-0.2c0-0.9,0.3-1.8,0.7-2.6
								c0.4-0.8,1-1.5,1.7-2.1s1.6-1,2.5-1.3s1.8-0.3,2.8-0.2c0.9,0.1,1.8,0.4,2.6,0.9c0.8,0.5,1.5,1.1,2,1.8
								c0.5,0.7,0.9,1.6,1.1,2.5s0.2,1.8,0,2.7c-1.1,5.8-8.3,7.9-9.3,12.8c0,0.1,0,0.2-0.1,0.2c0,0.1-0.1,0.1-0.2,0.2
								c-0.1,0-0.1,0.1-0.2,0.1s-0.2,0-0.2,0c-0.1,0-0.2,0-0.2-0.1c-0.1,0-0.1-0.1-0.2-0.2c0-0.1-0.1-0.1-0.1-0.2
								C285.3,110.7,285.3,110.7,285.4,110.6z"/>
							<path style="fill:#F45A5D;" d="M285.4,115.1c-0.3,0-0.6-0.1-0.9,0c-0.3,0-0.6,0.1-0.8,0.3c-0.3,0.1-0.5,0.3-0.6,0.5
								c-0.2,0.2-0.3,0.4-0.4,0.7c-0.1,0.2-0.1,0.5,0,0.7c0,0.2,0.1,0.5,0.3,0.6c0.2,0.2,0.4,0.4,0.6,0.5s0.5,0.2,0.8,0.3
								c0.3,0,0.6,0.1,0.9,0c0.3,0,0.6-0.1,0.8-0.3c0.3-0.1,0.5-0.3,0.6-0.5c0.2-0.2,0.3-0.4,0.4-0.7c0.1-0.2,0.1-0.5,0-0.7
								c0-0.2-0.1-0.5-0.3-0.6c-0.2-0.2-0.4-0.4-0.6-0.5C285.9,115.3,285.7,115.2,285.4,115.1z"/>
							<path style="fill:#000001;" d="M441.4,78.9l-20.8,6.3c-0.2,0.1-0.4,0-0.5-0.1c-0.2-0.1-0.3-0.2-0.3-0.4
								c-3.6-10.8-3.6-10.2-3.4-10.6s-0.9,0,21.2-6.6c0.2-0.1,0.4,0,0.5,0.1c0.2,0.1,0.3,0.2,0.3,0.4l3.4,10.1
								c0.1,0.2,0.1,0.4,0,0.5C441.7,78.7,441.6,78.8,441.4,78.9z M420.8,83.6l19.4-5.8l-2.9-8.7l-19.4,5.8L420.8,83.6z"/>
							<path style="fill:#000001;" d="M409.7,21.1c-2.8,0.8-5.3,2.2-7.4,4.2s-3.7,4.5-4.6,7.2c-0.9,2.8-1.1,5.7-0.7,8.6
								c0.5,2.9,1.7,5.6,3.4,7.9c9,9.8,9.5,9.9,14.6,21.8v0.1c0.1,0.1,0.1,0.2,0.2,0.2c0.1,0.1,0.2,0.1,0.3,0.1
								c0.2,0,19.5-5.8,19.7-6l0.1-0.1c0.1-0.1,0.1-0.3,0.1-0.5v-0.1c-2.9-11.5-2.5-12.8-1.3-25.8c0.1-2-0.3-4-0.9-5.8
								c-1.7-4.6-5-8.5-9.4-10.7C419.5,20.1,414.4,19.7,409.7,21.1z M432.8,38.7c-1.4,12.6-1.6,14.4,1.2,25.6l-8.4,2.5l-7.7-23
								c4.7-1.4,5.4-1.6,5.9-1.8c1.1-0.5,1.9-1.3,2.4-2.4c0.5-1.1,0.5-2.3,0.2-3.4c-0.4-1.2-1.3-2.2-2.5-2.8s-2.5-0.7-3.7-0.3
								l-1.8,0.6c-0.6,0.2-1.2,0.5-1.7,0.9s-0.9,0.9-1.2,1.5c-0.3,0.6-0.5,1.2-0.5,1.8c-0.1,0.6,0,1.3,0.2,1.9l1.1,3.3l-5.2,1.6
								c-0.6,0.2-1.4,0.2-2,0.1c-0.7-0.2-1.3-0.5-1.7-1.1c-0.5-0.5-0.8-1.1-0.9-1.8s0-1.4,0.3-2c0.2-0.4,0.5-0.8,0.9-1.1
								s0.8-0.5,1.2-0.6l4.2-1.3c0.2-0.1,0.3-0.2,0.4-0.4s0.1-0.3,0-0.5s-0.2-0.3-0.3-0.4c-0.2-0.1-0.3-0.1-0.5,0l-4.1,1.2
								c-0.6,0.2-1.2,0.5-1.7,0.9s-0.9,0.9-1.2,1.5c-0.4,0.9-0.6,1.8-0.4,2.8c0.1,0.9,0.5,1.8,1.2,2.5c0.6,0.7,1.5,1.2,2.4,1.5
								s1.9,0.2,2.8-0.1l5.3-1.6l7.7,23l-8.4,2.5c-2.7-7.7-7.3-14.7-13.3-20.2c-2-2-3.4-4.6-4.1-7.3c-0.7-2.8-0.7-5.6,0.1-8.4
								c0.7-2.7,2.2-5.2,4.2-7.2s4.5-3.4,7.2-4.2c2.6-0.8,5.3-1,8-0.6s5.2,1.5,7.4,3.1c2.2,1.6,4,3.7,5.3,6.1
								C432.1,33.3,432.8,36,432.8,38.7z M417.6,42.5l-1.1-3.3c-0.1-0.4-0.2-0.9-0.2-1.3s0.2-0.9,0.4-1.3c0.8-1.6,2.4-1.8,3.9-2.3
								c0.6-0.2,1.3-0.2,2-0.1c0.7,0.2,1.3,0.5,1.7,1.1c0.5,0.5,0.8,1.1,0.9,1.8s0,1.4-0.3,2c-0.2,0.4-0.5,0.8-0.9,1.1
								s-0.8,0.5-1.2,0.6L417.6,42.5z"/>
							<path style="fill:#000001;" d="M182.7,49.3l-7.5-3.6c-1.7-0.8-3-2.3-3.7-4.1c-0.6-1.8-0.5-3.8,0.3-5.5l3.6-7.5
								c0.1-0.1,0.1-0.3,0-0.5c-0.1-0.1-0.2-0.3-0.3-0.3c-0.1-0.1-0.3-0.1-0.5,0s-0.3,0.2-0.3,0.3l-3.6,7.5c-0.8,1.7-2.3,3-4.1,3.7
								c-1.8,0.6-3.8,0.5-5.5-0.3l-7.5-3.6c-0.1-0.1-0.3-0.1-0.5,0c-0.1,0.1-0.3,0.2-0.3,0.3c-0.1,0.1-0.1,0.3,0,0.5
								c0.1,0.1,0.2,0.3,0.3,0.3l7.5,3.6c0.9,0.4,1.6,1,2.3,1.7c0.6,0.7,1.1,1.5,1.4,2.4c0.3,0.9,0.5,1.8,0.4,2.8
								c0,0.9-0.3,1.9-0.7,2.7l-3.6,7.5c0,0.1-0.1,0.1-0.1,0.2c0,0.1,0,0.2,0,0.2c0,0.1,0.1,0.1,0.1,0.2c0.1,0.1,0.1,0.1,0.2,0.1
								c0.1,0,0.2,0.1,0.2,0.1c0.1,0,0.2,0,0.2,0c0.1,0,0.1-0.1,0.2-0.1c0.1-0.1,0.1-0.1,0.1-0.2l3.6-7.5c0.8-1.7,2.3-3,4.1-3.7
								c1.8-0.6,3.8-0.5,5.5,0.3l7.5,3.6c0.1,0,0.3,0,0.4,0c0.1-0.1,0.2-0.2,0.3-0.3s0.1-0.3,0-0.4
								C182.9,49.5,182.9,49.4,182.7,49.3z M165.9,47.1c0.1-1.1-0.1-2.3-0.5-3.3c-0.4-1.1-1-2.1-1.7-2.9c1.1,0.1,2.3-0.1,3.3-0.5
								c1.1-0.4,2-1,2.9-1.7c-0.1,1.1,0.1,2.3,0.5,3.3c0.4,1.1,1,2.1,1.7,2.9c-1.1-0.1-2.3,0.1-3.3,0.5
								C167.8,45.8,166.8,46.4,165.9,47.1z"/>
						</g>
					</g>
				</g>
			</g>
		</g>
	</g>
</g>
</svg>
