<?xml version="1.0" encoding="utf-8"?>
<!-- Generator: Adobe Illustrator 26.0.2, SVG Export Plug-In . SVG Version: 6.00 Build 0)  -->
<svg version="1.1" xmlns="http://www.w3.org/2000/svg" xmlns:xlink="http://www.w3.org/1999/xlink" x="0px" y="0px"
	 viewBox="0 0 500 326" style="enable-background:new 0 0 500 326;" xml:space="preserve">
<g id="show-on-hover">
	<g>
		<defs>
			<path id="SVGID_1_" d="M500,20v286c0,11-9,20-20,20H20c-11,0-20-9-20-20V20C0,9,9,0,20,0h460C491.1,0,500,9,500,20z"/>
		</defs>
		<clipPath id="SVGID_00000056405928309529596380000000548729725365712302_">
			<use xlink:href="#SVGID_1_"  style="overflow:visible;"/>
		</clipPath>
		<g id="Mandaci_i_tuoi_tool_preferiti_Over" style="clip-path:url(#SVGID_00000056405928309529596380000000548729725365712302_);">
			<g>
				<g>
					<g>
						<ellipse style="fill:#9747FF;" cx="361.4" cy="340.2" rx="41.4" ry="41.4"/>
					</g>
				</g>
				<g>
					<g>
						<ellipse transform="matrix(0.2298 -0.9732 0.9732 0.2298 298.9038 541.8811)" cx="491.8" cy="82.1" rx="26.1" ry="26.1"/>
					</g>
				</g>
				<g>
					<g>
						<defs>
							<path id="SVGID_00000174577518397006280220000016842528708288749497_" d="M500,20v286c0,11-9,20-20,20H20c-11,0-20-9-20-20
								V20C0,9,9,0,20,0h460C491,0,500,9,500,20z"/>
						</defs>
						<clipPath id="SVGID_00000037661110099320868060000008582159657817367175_">
							<use xlink:href="#SVGID_00000174577518397006280220000016842528708288749497_"  style="overflow:visible;"/>
						</clipPath>
						<circle style="clip-path:url(#SVGID_00000037661110099320868060000008582159657817367175_);" cx="448" cy="284" r="15.9"/>
					</g>
				</g>
				<g>
					<g>
						<defs>
							<path id="SVGID_00000094578165454684473310000012253613882179252910_" d="M500,20v286c0,11-9,20-20,20H20c-11,0-20-9-20-20
								V20C0,9,9,0,20,0h460C491,0,500,9,500,20z"/>
						</defs>
						<clipPath id="SVGID_00000181775827070925134620000017291588679017167262_">
							<use xlink:href="#SVGID_00000094578165454684473310000012253613882179252910_"  style="overflow:visible;"/>
						</clipPath>
						<path style="clip-path:url(#SVGID_00000181775827070925134620000017291588679017167262_);fill:#9747FF;" d="M428.3-30.9
							l-33.8,58.5c-3,5.3-9.8,7.1-15,4L320.9-2.2c-5.3-3-7.1-9.8-4-15l33.8-58.5c3-5.3,9.8-7.1,15-4L424.2-46
							C429.5-42.9,431.3-36.2,428.3-30.9z"/>
					</g>
				</g>
				<g>
					<g>
						<defs>
							<path id="SVGID_00000122695601270837912610000000727585380459164051_" d="M500,20v286c0,11-9,20-20,20H20c-11,0-20-9-20-20
								V20C0,9,9,0,20,0h460C491,0,500,9,500,20z"/>
						</defs>
						<clipPath id="SVGID_00000141457063450871403920000009343079854371126953_">
							<use xlink:href="#SVGID_00000122695601270837912610000000727585380459164051_"  style="overflow:visible;"/>
						</clipPath>
						<path style="clip-path:url(#SVGID_00000141457063450871403920000009343079854371126953_);fill:#9747FF;" d="M412.4,199.6
							l-15.7-27.1c-1.7-2.9-0.7-6.5,2.2-8.2l27.1-15.7c2.9-1.7,6.5-0.7,8.2,2.2l15.7,27.1c1.7,2.9,0.7,6.5-2.2,8.2l-27.1,15.7
							C417.7,203.4,414,202.4,412.4,199.6z"/>
					</g>
				</g>
			</g>
		</g>
	</g>
</g>
<g id="CARD5">
	<g id="Mandaci_i_tuoi_tool_preferiti_base">
		<g>
			<g>
				<g>
					<defs>
						<path id="SVGID_00000168836127687409227180000011723231863172009650_" d="M500,20v286c0,11-9,20-20,20H20c-11,0-20-9-20-20V20
							C0,9,9,0,20,0h460C491.1,0,500,9,500,20z"/>
					</defs>
					<clipPath id="SVGID_00000026138552262854057950000007398280876017347998_">
						<use xlink:href="#SVGID_00000168836127687409227180000011723231863172009650_"  style="overflow:visible;"/>
					</clipPath>
					<g style="clip-path:url(#SVGID_00000026138552262854057950000007398280876017347998_);">
						<circle style="fill:#9747FF;" cx="359.1" cy="306.5" r="27.8"/>
						<circle cx="460" cy="90" r="14"/>
						<circle cx="425.1" cy="269.1" r="9"/>
						<path style="fill:#9747FF;" d="M389.7-14.5l10.6,32.3c1.9,5.8-1.2,12-7,13.9L361,42.3c-5.8,1.9-12-1.2-13.9-7L336.5,3
							c-1.9-5.8,1.2-12,7-13.9l32.3-10.6C381.5-23.4,387.8-20.3,389.7-14.5z"/>
						<path style="fill:#9747FF;" d="M391,170l9.7-12.9c1.7-2.2,4.8-2.7,7-1l12.9,9.7c2.2,1.7,2.7,4.8,1,7l-9.7,12.9
							c-1.7,2.2-4.8,2.7-7,1L392,177C389.8,175.3,389.4,172.2,391,170z"/>
					</g>
				</g>
			</g>
		</g>
	</g>
</g>
</svg>
