<?xml version="1.0" encoding="utf-8"?>
<!-- Generator: Adobe Illustrator 26.0.2, SVG Export Plug-In . SVG Version: 6.00 Build 0)  -->
<svg version="1.1" xmlns="http://www.w3.org/2000/svg" xmlns:xlink="http://www.w3.org/1999/xlink" x="0px" y="0px"
	 viewBox="0 0 132.4 130.9" style="enable-background:new 0 0 132.4 130.9;" xml:space="preserve">
<g id="show-on-hover_00000106124355883205625110000003092690107186069901_">
	<g class="show-on-hover">
		<g id="Co-framework_Over">
			<g id="Co-framework_Base_00000027593367245428450560000007130065214900425366_">
				<g>

						<line style="fill:none;stroke:#000000;stroke-width:3;stroke-linecap:round;stroke-linejoin:round;stroke-miterlimit:10;" x1="102.8" y1="65.4" x2="130.2" y2="65.4"/>

						<line style="fill:none;stroke:#000000;stroke-width:3;stroke-linecap:round;stroke-linejoin:round;stroke-miterlimit:10;" x1="66.5" y1="65.4" x2="84.7" y2="65.4"/>

						<line style="fill:none;stroke:#000000;stroke-width:3;stroke-linecap:round;stroke-linejoin:round;stroke-miterlimit:10;" x1="2.8" y1="65.4" x2="48.7" y2="65.4"/>

						<polyline style="fill:none;stroke:#000000;stroke-width:3;stroke-linecap:round;stroke-linejoin:round;stroke-miterlimit:10;" points="
						124.7,71.1 130.4,65.4 124.7,59.7 					"/>

						<rect x="51" y="58.9" transform="matrix(0.7071 -0.7071 0.7071 0.7071 -29.3735 59.7709)" style="fill:none;stroke:#000000;stroke-width:3;stroke-linecap:round;stroke-linejoin:round;stroke-miterlimit:9.9997;" width="12.9" height="12.9"/>
					<path style="stroke:#000000;stroke-width:3;stroke-linecap:round;stroke-linejoin:round;stroke-miterlimit:10;" d="M21,74.5
						L21,74.5c-5,0-9.1-4.1-9.1-9.1l0,0c0-5,4.1-9.1,9.1-9.1l0,0c5,0,9.1,4.1,9.1,9.1l0,0C30.1,70.4,26,74.5,21,74.5z"/>

						<path style="fill:#FCBB16;stroke:#000000;stroke-width:3;stroke-linecap:round;stroke-linejoin:round;stroke-miterlimit:10;" d="
						M93.8,74.5L93.8,74.5c-5,0-9.1-4.1-9.1-9.1l0,0c0-5,4.1-9.1,9.1-9.1l0,0c5,0,9.1,4.1,9.1,9.1l0,0
						C102.9,70.4,98.8,74.5,93.8,74.5z"/>

						<line style="fill:none;stroke:#000000;stroke-width:3;stroke-linecap:round;stroke-linejoin:round;stroke-miterlimit:10;" x1="21" y1="47.2" x2="21" y2="19.9"/>

						<path style="fill:#FCBB16;stroke:#000000;stroke-width:3;stroke-linecap:round;stroke-linejoin:round;stroke-miterlimit:10;" d="
						M34.7,10.7H7.3c-2.5,0-4.5-2-4.5-4.5l0,0c0-2.5,2-4.5,4.5-4.5h27.4c2.5,0,4.5,2,4.5,4.5l0,0C39.2,8.7,37.2,10.7,34.7,10.7z"/>

						<line style="fill:none;stroke:#000000;stroke-width:3;stroke-linecap:round;stroke-linejoin:round;stroke-miterlimit:10;" x1="93.8" y1="47.2" x2="93.8" y2="38.1"/>
					<path style="stroke:#000000;stroke-width:3;stroke-linecap:round;stroke-linejoin:round;stroke-miterlimit:10;" d="M116.6,28.9
						H61.9c-2.5,0-4.5-2-4.5-4.5l0,0c0-2.5,2-4.5,4.5-4.5h54.7c2.5,0,4.5,2,4.5,4.5l0,0C121.1,26.9,119.1,28.9,116.6,28.9z"/>

						<line style="fill:none;stroke:#000000;stroke-width:3;stroke-linecap:round;stroke-linejoin:round;stroke-miterlimit:10;" x1="57.4" y1="83.6" x2="57.4" y2="101.4"/>

						<path style="fill:#FCBB16;stroke:#000000;stroke-width:3;stroke-linecap:round;stroke-linejoin:round;stroke-miterlimit:10;" d="
						M39.2,110.9h54.6c5,0,9.1,4.1,9.1,9.1l0,0c0,5-4.1,9.1-9.1,9.1H39.2c-5,0-9.1-4.1-9.1-9.1l0,0C30.1,115,34.2,110.9,39.2,110.9z
						"/>
				</g>
			</g>
		</g>
	</g>
</g>
<g id="COFRAMEWORK_00000109730026931580639940000013051187254278867097_">
	<g id="COFRAMEWORK">
		<g id="Co-framework_Base_00000160161646475875361040000016308425426746038437_">
			<g id="Co-framework_Base_00000050663261507677086060000004257521448489038748_">
				<g>

						<line style="fill:none;stroke:#000000;stroke-width:3;stroke-linecap:round;stroke-linejoin:round;stroke-miterlimit:10;" x1="102.8" y1="65.4" x2="130.2" y2="65.4"/>

						<line style="fill:none;stroke:#000000;stroke-width:3;stroke-linecap:round;stroke-linejoin:round;stroke-miterlimit:10;" x1="66.5" y1="65.4" x2="84.7" y2="65.4"/>

						<line style="fill:none;stroke:#000000;stroke-width:3;stroke-linecap:round;stroke-linejoin:round;stroke-miterlimit:10;" x1="2.8" y1="65.4" x2="48.7" y2="65.4"/>

						<polyline style="fill:none;stroke:#000000;stroke-width:3;stroke-linecap:round;stroke-linejoin:round;stroke-miterlimit:10;" points="
						124.7,71.1 130.4,65.4 124.7,59.7 					"/>

						<rect x="51" y="58.9" transform="matrix(0.7071 -0.7071 0.7071 0.7071 -29.3687 59.7563)" style="fill:none;stroke:#000000;stroke-width:3;stroke-linecap:round;stroke-linejoin:round;stroke-miterlimit:9.9996;" width="12.9" height="12.9"/>
					<path style="stroke:#000000;stroke-width:3;stroke-linecap:round;stroke-linejoin:round;stroke-miterlimit:10;" d="M21,74.5
						L21,74.5c-5,0-9.1-4.1-9.1-9.1l0,0c0-5,4.1-9.1,9.1-9.1l0,0c5,0,9.1,4.1,9.1,9.1l0,0C30.1,70.4,26,74.5,21,74.5z"/>
					<path style="fill:none;stroke:#000000;stroke-width:3;stroke-linecap:round;stroke-linejoin:round;stroke-miterlimit:10;" d="
						M93.8,74.5L93.8,74.5c-5,0-9.1-4.1-9.1-9.1l0,0c0-5,4.1-9.1,9.1-9.1l0,0c5,0,9.1,4.1,9.1,9.1l0,0
						C102.9,70.4,98.8,74.5,93.8,74.5z"/>

						<line style="fill:none;stroke:#000000;stroke-width:3;stroke-linecap:round;stroke-linejoin:round;stroke-miterlimit:10;" x1="21" y1="47.2" x2="21" y2="19.9"/>
					<path style="fill:none;stroke:#000000;stroke-width:3;stroke-linecap:round;stroke-linejoin:round;stroke-miterlimit:10;" d="
						M34.7,10.7H7.3c-2.5,0-4.5-2-4.5-4.5l0,0c0-2.5,2-4.5,4.5-4.5h27.4c2.5,0,4.5,2,4.5,4.5l0,0C39.2,8.7,37.2,10.7,34.7,10.7z"/>

						<line style="fill:none;stroke:#000000;stroke-width:3;stroke-linecap:round;stroke-linejoin:round;stroke-miterlimit:10;" x1="93.8" y1="47.2" x2="93.8" y2="38.1"/>
					<path style="stroke:#000000;stroke-width:3;stroke-linecap:round;stroke-linejoin:round;stroke-miterlimit:10;" d="M116.6,28.9
						H61.9c-2.5,0-4.5-2-4.5-4.5l0,0c0-2.5,2-4.5,4.5-4.5h54.7c2.5,0,4.5,2,4.5,4.5l0,0C121.1,26.9,119.1,28.9,116.6,28.9z"/>

						<line style="fill:none;stroke:#000000;stroke-width:3;stroke-linecap:round;stroke-linejoin:round;stroke-miterlimit:10;" x1="57.4" y1="83.6" x2="57.4" y2="101.4"/>
					<path style="fill:none;stroke:#000000;stroke-width:3;stroke-linecap:round;stroke-linejoin:round;stroke-miterlimit:10;" d="
						M39.2,110.9h54.6c5,0,9.1,4.1,9.1,9.1l0,0c0,5-4.1,9.1-9.1,9.1H39.2c-5,0-9.1-4.1-9.1-9.1l0,0C30.1,115,34.2,110.9,39.2,110.9z
						"/>
				</g>
			</g>
		</g>
	</g>
</g>
</svg>
