<?xml version="1.0" encoding="utf-8"?>
<!-- Generator: Adobe Illustrator 26.0.2, SVG Export Plug-In . SVG Version: 6.00 Build 0)  -->
<svg version="1.1" xmlns="http://www.w3.org/2000/svg" xmlns:xlink="http://www.w3.org/1999/xlink" x="0px" y="0px"
	 viewBox="0 0 113.1 131" style="enable-background:new 0 0 113.1 131;" xml:space="preserve">
<g id="show-on-hover">
	<g id="Definizione_Valori_Over">
		<circle style="fill:none;stroke:#000000;stroke-width:3;stroke-miterlimit:10;" cx="20" cy="20" r="18.4"/>
		<path style="fill:#24B265;stroke:#000000;stroke-width:3;stroke-miterlimit:10;" d="M19.6,26.4l-3.7,2c-0.9,0.5-2-0.3-1.9-1.4
			l0.7-4.2c0.1-0.4-0.1-0.8-0.4-1.1l-3-3c-0.8-0.7-0.3-2,0.7-2.2l4.2-0.6c0.4-0.1,0.8-0.3,1-0.7l1.9-3.8c0.5-1,1.8-1,2.3,0l1.9,3.8
			c0.2,0.4,0.5,0.6,1,0.7l4.2,0.6c1.1,0.2,1.5,1.4,0.7,2.2l-3,3c-0.3,0.3-0.4,0.7-0.4,1.1l0.7,4.2c0.2,1-0.9,1.8-1.9,1.4l-3.7-2
			C20.4,26.2,19.9,26.2,19.6,26.4z"/>
		<circle style="stroke:#000000;stroke-width:3;stroke-miterlimit:10;" cx="20" cy="65.4" r="18.4"/>
		<path style="fill:#24B265;" d="M19.6,71.9l-3.7,2c-0.9,0.5-2-0.3-1.9-1.4l0.7-4.2c0.1-0.4-0.1-0.8-0.4-1.1l-3-3
			c-0.8-0.7-0.3-2,0.7-2.2l4.2-0.6c0.4-0.1,0.8-0.3,1-0.7l1.9-3.8c0.5-1,1.8-1,2.3,0l1.9,3.8c0.2,0.4,0.5,0.6,1,0.7l4.2,0.6
			c1.1,0.2,1.5,1.4,0.7,2.2l-3,3c-0.3,0.3-0.4,0.7-0.4,1.1l0.7,4.2c0.2,1-0.9,1.8-1.9,1.4l-3.7-2C20.4,71.7,19.9,71.7,19.6,71.9z"/>
		<circle style="fill:none;stroke:#000000;stroke-width:3;stroke-miterlimit:10;" cx="20" cy="110.7" r="18.4"/>
		<path style="fill:#24B265;stroke:#000000;stroke-width:3;stroke-miterlimit:10;" d="M19.6,117.2l-3.7,2c-0.9,0.5-2-0.3-1.9-1.4
			l0.7-4.2c0.1-0.4-0.1-0.8-0.4-1.1l-3-3c-0.8-0.7-0.3-2,0.7-2.2l4.2-0.6c0.4-0.1,0.8-0.3,1-0.7l1.9-3.8c0.5-1,1.8-1,2.3,0l1.9,3.8
			c0.2,0.4,0.5,0.6,1,0.7l4.2,0.6c1.1,0.2,1.5,1.4,0.7,2.2l-3,3c-0.3,0.3-0.4,0.7-0.4,1.1l0.7,4.2c0.2,1-0.9,1.8-1.9,1.4l-3.7-2
			C20.4,117,19.9,117,19.6,117.2z"/>
		
			<line style="fill:none;stroke:#000000;stroke-width:3;stroke-linecap:round;stroke-miterlimit:10;" x1="47.2" y1="10.8" x2="101.9" y2="10.8"/>
		
			<line style="fill:none;stroke:#000000;stroke-width:3;stroke-linecap:round;stroke-miterlimit:10;" x1="47.2" y1="20" x2="56.4" y2="20"/>
		
			<line style="fill:none;stroke:#000000;stroke-width:3;stroke-linecap:round;stroke-miterlimit:10;" x1="47.2" y1="111" x2="92.7" y2="111"/>
		
			<line style="fill:none;stroke:#000000;stroke-width:3;stroke-linecap:round;stroke-miterlimit:10;" x1="47.2" y1="65.3" x2="74.5" y2="65.3"/>
		
			<line style="fill:none;stroke:#000000;stroke-width:3;stroke-linecap:round;stroke-miterlimit:10;" x1="65.4" y1="20" x2="83.6" y2="20"/>
		
			<line style="fill:none;stroke:#000000;stroke-width:3;stroke-linecap:round;stroke-miterlimit:10;" x1="47.2" y1="28.9" x2="111" y2="28.9"/>
		
			<line style="fill:none;stroke:#000000;stroke-width:3;stroke-linecap:round;stroke-miterlimit:10;" x1="47.3" y1="56.3" x2="65.4" y2="56.3"/>
		
			<line style="fill:none;stroke:#000000;stroke-width:3;stroke-linecap:round;stroke-miterlimit:10;" x1="74.5" y1="56.3" x2="101.9" y2="56.3"/>
		
			<line style="fill:none;stroke:#000000;stroke-width:3;stroke-linecap:round;stroke-miterlimit:10;" x1="47.2" y1="74.5" x2="65.4" y2="74.5"/>
		
			<line style="fill:none;stroke:#000000;stroke-width:3;stroke-linecap:round;stroke-miterlimit:10;" x1="74.6" y1="74.5" x2="92.7" y2="74.5"/>
		
			<line style="fill:none;stroke:#000000;stroke-width:3;stroke-linecap:round;stroke-miterlimit:10;" x1="47.2" y1="101.7" x2="83.6" y2="101.7"/>
		
			<line style="fill:none;stroke:#000000;stroke-width:3;stroke-linecap:round;stroke-miterlimit:10;" x1="92.7" y1="101.7" x2="111" y2="101.7"/>
		
			<line style="fill:none;stroke:#000000;stroke-width:3;stroke-linecap:round;stroke-miterlimit:10;" x1="47.2" y1="120" x2="56.4" y2="120"/>
		
			<line style="fill:none;stroke:#000000;stroke-width:3;stroke-linecap:round;stroke-miterlimit:10;" x1="65.4" y1="120" x2="111" y2="120"/>
	</g>
</g>
<g id="DEFINIZIONEVALORI">
	<g id="Definizione_Valori_Base">
		
			<circle style="fill:#FFFFFF;stroke:#000000;stroke-width:3;stroke-linecap:round;stroke-miterlimit:10;" cx="20" cy="20" r="18.4"/>
		<path style="fill:#24B265;stroke:#000000;stroke-width:3;stroke-linecap:round;stroke-miterlimit:10;" d="M19.6,26.4l-3.7,2
			c-0.9,0.5-2-0.3-1.9-1.4l0.7-4.2c0.1-0.4-0.1-0.8-0.4-1.1l-3-3c-0.8-0.7-0.3-2,0.7-2.2l4.2-0.6c0.4-0.1,0.8-0.3,1-0.7l1.9-3.8
			c0.5-1,1.8-1,2.3,0l1.9,3.8c0.2,0.4,0.5,0.6,1,0.7l4.2,0.6c1.1,0.2,1.5,1.4,0.7,2.2l-3,3c-0.3,0.3-0.4,0.7-0.4,1.1l0.7,4.2
			c0.2,1-0.9,1.8-1.9,1.4l-3.7-2C20.4,26.2,19.9,26.2,19.6,26.4z"/>
		
			<circle style="fill:#24B265;stroke:#000000;stroke-width:3;stroke-linecap:round;stroke-miterlimit:10;" cx="20" cy="65.4" r="18.4"/>
		<path d="M19.6,71.9l-3.7,2c-0.9,0.5-2-0.3-1.9-1.4l0.7-4.2c0.1-0.4-0.1-0.8-0.4-1.1l-3-3c-0.8-0.7-0.3-2,0.7-2.2l4.2-0.6
			c0.4-0.1,0.8-0.3,1-0.7l1.9-3.8c0.5-1,1.8-1,2.3,0l1.9,3.8c0.2,0.4,0.5,0.6,1,0.7l4.2,0.6c1.1,0.2,1.5,1.4,0.7,2.2l-3,3
			c-0.3,0.3-0.4,0.7-0.4,1.1l0.7,4.2c0.2,1-0.9,1.8-1.9,1.4l-3.7-2C20.4,71.7,19.9,71.7,19.6,71.9z"/>
		
			<circle style="fill:#FFFFFF;stroke:#000000;stroke-width:3;stroke-linecap:round;stroke-miterlimit:10;" cx="20" cy="110.7" r="18.4"/>
		<path style="fill:#24B265;stroke:#000000;stroke-width:3;stroke-linecap:round;stroke-miterlimit:10;" d="M19.6,117.2l-3.7,2
			c-0.9,0.5-2-0.3-1.9-1.4l0.7-4.2c0.1-0.4-0.1-0.8-0.4-1.1l-3-3c-0.8-0.7-0.3-2,0.7-2.2l4.2-0.6c0.4-0.1,0.8-0.3,1-0.7l1.9-3.8
			c0.5-1,1.8-1,2.3,0l1.9,3.8c0.2,0.4,0.5,0.6,1,0.7l4.2,0.6c1.1,0.2,1.5,1.4,0.7,2.2l-3,3c-0.3,0.3-0.4,0.7-0.4,1.1l0.7,4.2
			c0.2,1-0.9,1.8-1.9,1.4l-3.7-2C20.4,117,19.9,117,19.6,117.2z"/>
		
			<line style="fill:none;stroke:#000000;stroke-width:3;stroke-linecap:round;stroke-miterlimit:10;" x1="47.2" y1="10.8" x2="101.9" y2="10.8"/>
		
			<line style="fill:none;stroke:#000000;stroke-width:3;stroke-linecap:round;stroke-miterlimit:10;" x1="47.2" y1="20" x2="56.4" y2="20"/>
		
			<line style="fill:none;stroke:#000000;stroke-width:3;stroke-linecap:round;stroke-miterlimit:10;" x1="47.2" y1="111" x2="92.7" y2="111"/>
		
			<line style="fill:none;stroke:#000000;stroke-width:3;stroke-linecap:round;stroke-miterlimit:10;" x1="47.2" y1="65.3" x2="74.5" y2="65.3"/>
		
			<line style="fill:none;stroke:#000000;stroke-width:3;stroke-linecap:round;stroke-miterlimit:10;" x1="65.4" y1="20" x2="83.6" y2="20"/>
		
			<line style="fill:none;stroke:#000000;stroke-width:3;stroke-linecap:round;stroke-miterlimit:10;" x1="47.2" y1="28.9" x2="111" y2="28.9"/>
		
			<line style="fill:none;stroke:#000000;stroke-width:3;stroke-linecap:round;stroke-miterlimit:10;" x1="47.3" y1="56.3" x2="65.4" y2="56.3"/>
		
			<line style="fill:none;stroke:#000000;stroke-width:3;stroke-linecap:round;stroke-miterlimit:10;" x1="74.5" y1="56.3" x2="101.9" y2="56.3"/>
		
			<line style="fill:none;stroke:#000000;stroke-width:3;stroke-linecap:round;stroke-miterlimit:10;" x1="47.2" y1="74.5" x2="65.4" y2="74.5"/>
		
			<line style="fill:none;stroke:#000000;stroke-width:3;stroke-linecap:round;stroke-miterlimit:10;" x1="74.6" y1="74.5" x2="92.7" y2="74.5"/>
		
			<line style="fill:none;stroke:#000000;stroke-width:3;stroke-linecap:round;stroke-miterlimit:10;" x1="47.2" y1="101.7" x2="83.6" y2="101.7"/>
		
			<line style="fill:none;stroke:#000000;stroke-width:3;stroke-linecap:round;stroke-miterlimit:10;" x1="92.7" y1="101.7" x2="111" y2="101.7"/>
		
			<line style="fill:none;stroke:#000000;stroke-width:3;stroke-linecap:round;stroke-miterlimit:10;" x1="47.2" y1="120" x2="56.4" y2="120"/>
		
			<line style="fill:none;stroke:#000000;stroke-width:3;stroke-linecap:round;stroke-miterlimit:10;" x1="65.4" y1="120" x2="111" y2="120"/>
	</g>
</g>
</svg>
