<?xml version="1.0" encoding="utf-8"?>
<!-- Generator: Adobe Illustrator 26.0.2, SVG Export Plug-In . SVG Version: 6.00 Build 0)  -->
<svg version="1.1" xmlns="http://www.w3.org/2000/svg" xmlns:xlink="http://www.w3.org/1999/xlink" x="0px" y="0px"
	 viewBox="0 0 130.5 130.9" style="enable-background:new 0 0 130.5 130.9;" xml:space="preserve">
<g id="show-on-hover">
	<g id="How_Might_We_over">
		<path style="fill:#FFFFFF;stroke:#000000;stroke-width:3;stroke-linecap:round;stroke-miterlimit:10;" d="M56,128.8v0.3H1.8v-0.3
			c0-15,12.1-27.1,27.1-27.1C43.9,101.8,56,113.9,56,128.8z"/>
		
			<circle style="fill:#FFFFFF;stroke:#000000;stroke-width:3;stroke-linecap:round;stroke-miterlimit:10;" cx="29" cy="79" r="13.6"/>
		<path style="stroke:#000000;stroke-width:3;stroke-linecap:round;stroke-miterlimit:10;" d="M92.5,128.8v0.3H38.3v-0.3
			c0-15,12.1-27.1,27.1-27.1C80.3,101.8,92.5,113.9,92.5,128.8z"/>
		<circle style="stroke:#000000;stroke-width:3;stroke-linecap:round;stroke-miterlimit:10;" cx="65.4" cy="79" r="13.6"/>
		<path style="fill:#24B265;stroke:#000000;stroke-width:3;stroke-miterlimit:10;" d="M128.8,128.8v0.3H74.6v-0.3
			c0-15,12.1-27.1,27.1-27.1C116.7,101.8,128.8,113.9,128.8,128.8z"/>
		<circle style="fill:#24B265;stroke:#000000;stroke-width:3;stroke-miterlimit:10;" cx="101.7" cy="79" r="13.6"/>
		<path style="fill:none;stroke:#000000;stroke-width:3;stroke-linecap:round;stroke-linejoin:round;stroke-miterlimit:10;" d="
			M128.8,10.9v26.9c0,5.1-4.2,9.3-9.3,9.3h-7.7l-7.4,7.4c-0.6,0.6-1.7,0.2-1.7-0.7v-6.7H65.1v6.7c0,0.9-1.1,1.4-1.7,0.7L56,47.1H20
			l-7.4,7.4c-0.6,0.6-1.8,0.2-1.8-0.7v-6.7l0,0c-5.1,0-8.9-4.2-8.9-9.3V10.9c0-5.1,4.2-9.3,9.3-9.3h108.4
			C124.7,1.6,128.8,5.8,128.8,10.9z"/>
		<path style="fill:#24B265;stroke:#000000;stroke-width:3;stroke-miterlimit:10;" d="M88.1,19.9H15.4c-2.5,0-4.6-2.1-4.6-4.6l0,0
			c0-2.5,2.1-4.6,4.6-4.6h72.7c2.5,0,4.6,2.1,4.6,4.6l0,0C92.7,17.8,90.6,19.9,88.1,19.9z"/>
		
			<line style="fill:none;stroke:#000000;stroke-width:3;stroke-linecap:round;stroke-linejoin:round;stroke-miterlimit:10;" x1="10.7" y1="28.8" x2="74.5" y2="28.8"/>
		
			<line style="fill:none;stroke:#000000;stroke-width:3;stroke-linecap:round;stroke-linejoin:round;stroke-miterlimit:10;" x1="10.7" y1="38.1" x2="29" y2="38.1"/>
		
			<line style="fill:none;stroke:#000000;stroke-width:3;stroke-linecap:round;stroke-linejoin:round;stroke-miterlimit:10;" x1="38.4" y1="38.1" x2="92.7" y2="38.1"/>
		
			<line style="fill:none;stroke:#000000;stroke-width:3;stroke-linecap:round;stroke-linejoin:round;stroke-miterlimit:10;" x1="83.5" y1="28.8" x2="120" y2="28.8"/>
	</g>
</g>
<g id="HOWMIGHTWE">
	<g id="How_Might_We_base">
		<path style="fill:#FFFFFF;stroke:#000000;stroke-width:3;stroke-linecap:round;stroke-miterlimit:10;" d="M56,128.8v0.3H1.8v-0.3
			c0-15,12.1-27.1,27.1-27.1C43.9,101.8,56,113.9,56,128.8z"/>
		
			<circle style="fill:#FFFFFF;stroke:#000000;stroke-width:3;stroke-linecap:round;stroke-miterlimit:10;" cx="29" cy="79" r="13.6"/>
		<path style="stroke:#000000;stroke-width:3;stroke-linecap:round;stroke-miterlimit:10;" d="M92.5,128.8v0.3H38.3v-0.3
			c0-15,12.1-27.1,27.1-27.1C80.3,101.8,92.5,113.9,92.5,128.8z"/>
		<circle style="stroke:#000000;stroke-width:3;stroke-linecap:round;stroke-miterlimit:10;" cx="65.4" cy="79" r="13.6"/>
		<path style="fill:#FFFFFF;stroke:#000000;stroke-width:3;stroke-linecap:round;stroke-miterlimit:10;" d="M128.8,128.8v0.3H74.6
			v-0.3c0-15,12.1-27.1,27.1-27.1C116.7,101.8,128.8,113.9,128.8,128.8z"/>
		
			<circle style="fill:#FFFFFF;stroke:#000000;stroke-width:3;stroke-linecap:round;stroke-miterlimit:10;" cx="101.7" cy="79" r="13.6"/>
		<path style="fill:none;stroke:#000000;stroke-width:3;stroke-linecap:round;stroke-linejoin:round;stroke-miterlimit:10;" d="
			M128.8,10.9v26.9c0,5.1-4.2,9.3-9.3,9.3h-7.7l-7.4,7.4c-0.6,0.6-1.7,0.2-1.7-0.7v-6.7H65.1v6.7c0,0.9-1.1,1.4-1.7,0.7L56,47.1H20
			l-7.4,7.4c-0.6,0.6-1.8,0.2-1.8-0.7v-6.7l0,0c-5.1,0-8.9-4.2-8.9-9.3V10.9c0-5.1,4.2-9.3,9.3-9.3h108.4
			C124.7,1.6,128.8,5.8,128.8,10.9z"/>
		<path style="fill:none;stroke:#000000;stroke-width:3;stroke-linecap:round;stroke-linejoin:round;stroke-miterlimit:10;" d="
			M88.1,19.9H15.4c-2.5,0-4.6-2.1-4.6-4.6l0,0c0-2.5,2.1-4.6,4.6-4.6h72.7c2.5,0,4.6,2.1,4.6,4.6l0,0C92.7,17.8,90.6,19.9,88.1,19.9
			z"/>
		
			<line style="fill:none;stroke:#000000;stroke-width:3;stroke-linecap:round;stroke-linejoin:round;stroke-miterlimit:10;" x1="10.7" y1="28.8" x2="74.5" y2="28.8"/>
		
			<line style="fill:none;stroke:#000000;stroke-width:3;stroke-linecap:round;stroke-linejoin:round;stroke-miterlimit:10;" x1="10.7" y1="38.1" x2="29" y2="38.1"/>
		
			<line style="fill:none;stroke:#000000;stroke-width:3;stroke-linecap:round;stroke-linejoin:round;stroke-miterlimit:10;" x1="38.4" y1="38.1" x2="92.7" y2="38.1"/>
		
			<line style="fill:none;stroke:#000000;stroke-width:3;stroke-linecap:round;stroke-linejoin:round;stroke-miterlimit:10;" x1="83.5" y1="28.8" x2="120" y2="28.8"/>
	</g>
</g>
</svg>
