<svg width="34" height="34" viewBox="0 0 34 34" fill="none" xmlns="http://www.w3.org/2000/svg">
<g clip-path="url(#clip0_229_443)">
<path d="M32.4698 18.9336H20.4781C19.6354 18.9336 18.9521 19.6178 18.9521 20.4618V32.4711C18.9521 33.3152 19.6354 33.9994 20.4781 33.9994H32.4698C33.3126 33.9994 33.9958 33.3152 33.9958 32.4711V20.4618C33.9958 19.6178 33.3126 18.9336 32.4698 18.9336Z" fill="white"/>
<path d="M6.97484 0.444152L0.444736 6.98385C-0.151199 7.58067 -0.151163 8.54828 0.444772 9.14509L6.97484 15.6848C7.57078 16.2816 8.53697 16.2816 9.1329 15.6848L15.663 9.14509C16.2589 8.54828 16.2589 7.58067 15.663 6.98385L9.1329 0.444188C8.53697 -0.152623 7.57078 -0.152659 6.97484 0.444152Z" fill="white"/>
<path d="M8.05406 33.9994C12.2083 33.9994 15.5759 30.6268 15.5759 26.4665C15.5759 22.3062 12.2083 18.9336 8.05406 18.9336C3.89986 18.9336 0.532227 22.3062 0.532227 26.4665C0.532227 30.6268 3.89986 33.9994 8.05406 33.9994Z" fill="white"/>
<path d="M26.474 15.599C30.6282 15.599 33.9958 12.2264 33.9958 8.06609C33.9958 3.90579 30.6282 0.533203 26.474 0.533203C22.3198 0.533203 18.9521 3.90579 18.9521 8.06609C18.9521 12.2264 22.3198 15.599 26.474 15.599Z" fill="white"/>
</g>
<defs>
<clipPath id="clip0_229_443">
<rect width="34" height="34" fill="white"/>
</clipPath>
</defs>
</svg>
