<svg width="94" height="94" viewBox="0 0 94 94" fill="none" xmlns="http://www.w3.org/2000/svg">
<path d="M43.1744 25.482L25.1729 43.4835C24.7835 43.8759 24.3203 44.1873 23.81 44.3998C23.2997 44.6124 22.7524 44.7218 22.1996 44.7218C21.6468 44.7218 21.0994 44.6124 20.5891 44.3998C20.0788 44.1873 19.6157 43.8759 19.2263 43.4835L1.23823 25.4955C0.845858 25.1061 0.534451 24.6429 0.321931 24.1326C0.10941 23.6223 0 23.075 0 22.5222C0 21.9694 0.10941 21.4221 0.321931 20.9118C0.534451 20.4015 0.845858 19.9383 1.23823 19.5489L19.2263 1.54739C20.0163 0.761485 21.0852 0.320312 22.1996 0.320312C23.3139 0.320312 24.3829 0.761485 25.1729 1.54739L43.1744 19.5489C43.9562 20.3383 44.3948 21.4044 44.3948 22.5154C44.3948 23.6265 43.9562 24.6926 43.1744 25.482Z" fill="#FCBB16"/>
<path d="M22.7368 93.6377C34.1851 93.6377 43.4658 84.357 43.4658 72.9087C43.4658 61.4604 34.1851 52.1797 22.7368 52.1797C11.2885 52.1797 2.00781 61.4604 2.00781 72.9087C2.00781 84.357 11.2885 93.6377 22.7368 93.6377Z" fill="#4EAAF0"/>
<path d="M93.9999 56.3955V89.442C93.9981 90.5566 93.555 91.6252 92.7675 92.414C91.98 93.2028 90.9121 93.6476 89.7975 93.6511H56.751C55.6346 93.6494 54.5643 93.2055 53.7743 92.4168C52.9842 91.628 52.5387 90.5584 52.5352 89.442V56.3955C52.5369 55.2779 52.9817 54.2067 53.7719 53.4164C54.5621 52.6262 55.6334 52.1815 56.751 52.1797H89.7975C90.9133 52.1833 91.9821 52.629 92.7698 53.4192C93.5575 54.2095 93.9999 55.2797 93.9999 56.3955V56.3955Z" fill="#F45A5D"/>
<path d="M73.2641 43.1299C84.7125 43.1299 93.9931 33.8492 93.9931 22.4009C93.9931 10.9526 84.7125 1.67188 73.2641 1.67188C61.8158 1.67188 52.5352 10.9526 52.5352 22.4009C52.5352 33.8492 61.8158 43.1299 73.2641 43.1299Z" fill="#24B265"/>
</svg>
