<?xml version="1.0" encoding="utf-8"?>
<!-- Generator: Adobe Illustrator 26.0.2, SVG Export Plug-In . SVG Version: 6.00 Build 0)  -->
<svg version="1.1" xmlns="http://www.w3.org/2000/svg" xmlns:xlink="http://www.w3.org/1999/xlink" x="0px" y="0px"
	 viewBox="0 0 140.8 140.4" style="enable-background:new 0 0 140.8 140.4;" xml:space="preserve">
<g id="show-on-hover">
	<g id="Mindmap_Over">
		<g>
			<circle style="fill:#24B265;stroke:#000000;stroke-width:3;stroke-miterlimit:10;" cx="75.4" cy="65.4" r="27.6"/>
			<line style="fill:none;stroke:#000000;stroke-width:3;stroke-miterlimit:10;" x1="47.8" y1="65.4" x2="38.9" y2="65.4"/>
			<circle style="fill:none;stroke:#000000;stroke-width:3;stroke-miterlimit:10;" cx="20.7" cy="65.4" r="18.2"/>
			<g>
				<line style="fill:none;stroke:#000000;stroke-width:3;stroke-miterlimit:10;" x1="61.6" y1="89.3" x2="57.1" y2="97"/>
			</g>
			<line style="fill:none;stroke:#000000;stroke-width:3;stroke-miterlimit:10;" x1="89.2" y1="89.3" x2="102.9" y2="113.1"/>
			<circle style="fill:none;stroke:#000000;stroke-width:3;stroke-miterlimit:10;" cx="110" cy="124.6" r="13.6"/>
			<g>
				<line style="fill:none;stroke:#000000;stroke-width:3;stroke-miterlimit:10;" x1="89.2" y1="41.5" x2="96.6" y2="28.7"/>
			</g>
			<line style="fill:none;stroke:#000000;stroke-width:3;stroke-miterlimit:10;" x1="61.6" y1="41.5" x2="57" y2="33.5"/>
			<circle style="fill:#24B265;stroke:#000000;stroke-width:3;stroke-miterlimit:10;" cx="52.6" cy="25.9" r="9"/>
			<line style="fill:none;stroke:#000000;stroke-width:3;stroke-miterlimit:10;" x1="103" y1="65.4" x2="121" y2="65.4"/>
			<circle style="stroke:#000000;stroke-width:3;stroke-miterlimit:10;" cx="130.1" cy="65.4" r="9"/>
			<path style="stroke:#000000;stroke-width:3;stroke-miterlimit:10;" d="M115.4,29.2H99.3c-3.1,0-5.7-2.5-5.7-5.7V7.4
				c0-3.1,2.5-5.7,5.7-5.7h16.1c3.1,0,5.7,2.5,5.7,5.7v16.1C121,26.7,118.5,29.2,115.4,29.2z"/>
			<path style="fill:#24B265;stroke:#000000;stroke-width:3;stroke-miterlimit:10;" d="M61.8,106.6l-3.2,5.5c-1.6,2.7-5,3.6-7.8,2.1
				l-5.5-3.2c-2.7-1.6-3.6-5-2.1-7.8l3.2-5.5c1.6-2.7,5-3.6,7.8-2.1l5.5,3.2C62.5,100.4,63.4,103.9,61.8,106.6z"/>
		</g>
	</g>
</g>
<g id="MINDMAP">
	<g id="Mindmap_base">
		<g>
			<circle style="fill:none;stroke:#000000;stroke-width:3;stroke-miterlimit:10;" cx="75.4" cy="65.4" r="27.6"/>
			<line style="fill:none;stroke:#000000;stroke-width:3;stroke-miterlimit:10;" x1="47.8" y1="65.4" x2="38.9" y2="65.4"/>
			<circle style="fill:none;stroke:#000000;stroke-width:3;stroke-miterlimit:10;" cx="20.7" cy="65.4" r="18.2"/>
			<g>
				<line style="fill:none;stroke:#000000;stroke-width:3;stroke-miterlimit:10;" x1="61.6" y1="89.3" x2="57.1" y2="97"/>
			</g>
			<line style="fill:none;stroke:#000000;stroke-width:3;stroke-miterlimit:10;" x1="89.2" y1="89.3" x2="102.9" y2="113.1"/>
			<circle style="fill:none;stroke:#000000;stroke-width:3;stroke-miterlimit:10;" cx="110" cy="124.6" r="13.6"/>
			<g>
				<line style="fill:none;stroke:#000000;stroke-width:3;stroke-miterlimit:10;" x1="89.2" y1="41.5" x2="96.6" y2="28.7"/>
			</g>
			<line style="fill:none;stroke:#000000;stroke-width:3;stroke-miterlimit:10;" x1="61.6" y1="41.5" x2="57" y2="33.5"/>
			<circle style="fill:none;stroke:#000000;stroke-width:3;stroke-miterlimit:10;" cx="52.6" cy="25.9" r="9"/>
			<line style="fill:none;stroke:#000000;stroke-width:3;stroke-miterlimit:10;" x1="103" y1="65.4" x2="121" y2="65.4"/>
			<circle style="stroke:#000000;stroke-width:3;stroke-miterlimit:10;" cx="130.1" cy="65.4" r="9"/>
			<path style="stroke:#000000;stroke-width:3;stroke-miterlimit:10;" d="M115.4,29.2H99.3c-3.1,0-5.7-2.5-5.7-5.7V7.4
				c0-3.1,2.5-5.7,5.7-5.7h16.1c3.1,0,5.7,2.5,5.7,5.7v16.1C121,26.7,118.5,29.2,115.4,29.2z"/>
			<path style="fill:none;stroke:#000000;stroke-width:3;stroke-miterlimit:10;" d="M61.8,106.6l-3.2,5.5c-1.6,2.7-5,3.6-7.8,2.1
				l-5.5-3.2c-2.7-1.6-3.6-5-2.1-7.8l3.2-5.5c1.6-2.7,5-3.6,7.8-2.1l5.5,3.2C62.5,100.4,63.4,103.9,61.8,106.6z"/>
		</g>
	</g>
</g>
</svg>
