<?xml version="1.0" encoding="utf-8"?>
<!-- Generator: Adobe Illustrator 26.0.2, SVG Export Plug-In . SVG Version: 6.00 Build 0)  -->
<svg version="1.1" xmlns="http://www.w3.org/2000/svg" xmlns:xlink="http://www.w3.org/1999/xlink" x="0px" y="0px"
	 viewBox="0 0 130.7 130.9" style="enable-background:new 0 0 130.7 130.9;" xml:space="preserve">
<g id="show-on-hover">
	<g id="Moduli_di_invito_Over">
		<g>
			<path style="fill:none;stroke:#1D1D1B;stroke-width:3;stroke-miterlimit:10;" d="M128.9,20.1v103.3c0,3.1-2.5,5.7-5.7,5.7H7.4
				c-3.1,0-5.7-2.5-5.7-5.7V20.1H128.9z"/>
			<path style="fill:#4EAAF0;stroke:#1D1D1B;stroke-width:3;stroke-miterlimit:10;" d="M128.9,7.5v12.6H1.7V7.5
				c0-3.1,2.5-5.7,5.7-5.7h115.9C126.4,1.8,128.9,4.4,128.9,7.5z"/>
			<circle style="fill:#1D1D1B;" cx="119.9" cy="10.9" r="4.6"/>
			<circle style="fill:#1D1D1B;" cx="101.7" cy="10.9" r="4.6"/>
			<circle style="fill:#1D1D1B;" cx="83.5" cy="11" r="4.6"/>
			<line style="fill:none;stroke:#1D1D1B;stroke-width:3;stroke-miterlimit:10;" x1="38.1" y1="19.9" x2="38.1" y2="129"/>
			<line style="fill:none;stroke:#1D1D1B;stroke-width:3;stroke-miterlimit:10;" x1="1.6" y1="47.1" x2="38.1" y2="47.1"/>
			<line style="fill:none;stroke:#1D1D1B;stroke-width:3;stroke-miterlimit:10;" x1="1.6" y1="74.5" x2="38.1" y2="74.5"/>
			<line style="fill:none;stroke:#1D1D1B;stroke-width:3;stroke-miterlimit:10;" x1="1.6" y1="101" x2="38.1" y2="101"/>
			<path style="fill:#4EAAF0;stroke:#1D1D1B;stroke-width:3;stroke-miterlimit:10;" d="M114.4,47H52.8c-3.1,0-5.7,2.5-5.7,5.7v61.6
				c0,3.1,2.5,5.7,5.7,5.7h61.6c3.1,0,5.7-2.5,5.7-5.7V52.6C120.1,49.5,117.5,47,114.4,47z"/>
			
				<line style="fill:none;stroke:#1D1D1B;stroke-width:3;stroke-linecap:round;stroke-linejoin:round;stroke-miterlimit:10;" x1="47.1" y1="29" x2="83.5" y2="29"/>
			
				<line style="fill:none;stroke:#1D1D1B;stroke-width:3;stroke-linecap:round;stroke-linejoin:round;stroke-miterlimit:10;" x1="47.1" y1="38" x2="65.4" y2="38"/>
			
				<line style="fill:none;stroke:#1D1D1B;stroke-width:3;stroke-linecap:round;stroke-linejoin:round;stroke-miterlimit:10;" x1="74.4" y1="38" x2="92.6" y2="38"/>
		</g>
	</g>
</g>
<g id="MODULIDIINVITO">
	<g id="Moduli_di_invito_base">
		<g>
			<path style="fill:none;stroke:#1D1D1B;stroke-width:3;stroke-miterlimit:10;" d="M128.9,20.1v103.3c0,3.1-2.5,5.7-5.7,5.7H7.4
				c-3.1,0-5.7-2.5-5.7-5.7V20.1H128.9z"/>
			<path style="fill:none;stroke:#1D1D1B;stroke-width:3;stroke-miterlimit:10;" d="M128.9,7.5v12.6H1.7V7.5c0-3.1,2.5-5.7,5.7-5.7
				h115.9C126.4,1.8,128.9,4.4,128.9,7.5z"/>
			<circle style="fill:#1D1D1B;" cx="119.9" cy="10.9" r="4.6"/>
			<circle style="fill:#1D1D1B;" cx="101.7" cy="10.9" r="4.6"/>
			<circle style="fill:#1D1D1B;" cx="83.5" cy="11" r="4.6"/>
			<line style="fill:none;stroke:#1D1D1B;stroke-width:3;stroke-miterlimit:10;" x1="38.1" y1="19.9" x2="38.1" y2="129"/>
			<line style="fill:none;stroke:#1D1D1B;stroke-width:3;stroke-miterlimit:10;" x1="1.6" y1="47.1" x2="38.1" y2="47.1"/>
			<line style="fill:none;stroke:#1D1D1B;stroke-width:3;stroke-miterlimit:10;" x1="1.6" y1="74.5" x2="38.1" y2="74.5"/>
			<line style="fill:none;stroke:#1D1D1B;stroke-width:3;stroke-miterlimit:10;" x1="1.6" y1="101" x2="38.1" y2="101"/>
			<path style="fill:none;stroke:#1D1D1B;stroke-width:3;stroke-miterlimit:10;" d="M114.4,47H52.8c-3.1,0-5.7,2.5-5.7,5.7v61.6
				c0,3.1,2.5,5.7,5.7,5.7h61.6c3.1,0,5.7-2.5,5.7-5.7V52.6C120.1,49.5,117.5,47,114.4,47z"/>
			
				<line style="fill:none;stroke:#1D1D1B;stroke-width:3;stroke-linecap:round;stroke-linejoin:round;stroke-miterlimit:10;" x1="47.1" y1="29" x2="83.5" y2="29"/>
			
				<line style="fill:none;stroke:#1D1D1B;stroke-width:3;stroke-linecap:round;stroke-linejoin:round;stroke-miterlimit:10;" x1="47.1" y1="38" x2="65.4" y2="38"/>
			
				<line style="fill:none;stroke:#1D1D1B;stroke-width:3;stroke-linecap:round;stroke-linejoin:round;stroke-miterlimit:10;" x1="74.4" y1="38" x2="92.6" y2="38"/>
		</g>
	</g>
</g>
</svg>
