<?xml version="1.0" encoding="utf-8"?>
<!-- Generator: Adobe Illustrator 26.0.2, SVG Export Plug-In . SVG Version: 6.00 Build 0)  -->
<svg version="1.1" xmlns="http://www.w3.org/2000/svg" xmlns:xlink="http://www.w3.org/1999/xlink" x="0px" y="0px"
	 viewBox="0 0 131 131" style="enable-background:new 0 0 131 131;" xml:space="preserve">
<g id="show-on-hover">
	<g id="Onlyness_Statement_Over">
		<path style="fill:none;stroke:#000000;stroke-width:3;stroke-linecap:round;stroke-miterlimit:10;" d="M123.4,129.2H7.3
			c-3.1,0-5.7-2.5-5.7-5.7V7.4c0-3.1,2.5-5.7,5.7-5.7h116.1c3.1,0,5.7,2.5,5.7,5.7v116.1C129.1,126.6,126.6,129.2,123.4,129.2z"/>
		<circle style="stroke:#000000;stroke-width:3;stroke-linecap:round;stroke-miterlimit:10;" cx="29" cy="19.9" r="8.9"/>
		<circle style="fill:#24B265;stroke:#000000;stroke-width:3;stroke-miterlimit:10;" cx="47.2" cy="92.7" r="8.9"/>
		
			<circle style="fill:none;stroke:#000000;stroke-width:3;stroke-linecap:round;stroke-miterlimit:10;" cx="74.5" cy="56.3" r="8.9"/>
		
			<line style="fill:none;stroke:#000000;stroke-width:3;stroke-linecap:round;stroke-miterlimit:10;" x1="47.2" y1="19.9" x2="110.9" y2="19.9"/>
		
			<line style="fill:none;stroke:#000000;stroke-width:3;stroke-linecap:round;stroke-miterlimit:10;" x1="19.9" y1="38.2" x2="65.4" y2="38.2"/>
		
			<line style="fill:none;stroke:#000000;stroke-width:3;stroke-linecap:round;stroke-miterlimit:10;" x1="74.5" y1="38.2" x2="92.7" y2="38.2"/>
		
			<line style="fill:none;stroke:#000000;stroke-width:3;stroke-linecap:round;stroke-miterlimit:10;" x1="20.1" y1="56.4" x2="56.3" y2="56.4"/>
		
			<line style="fill:none;stroke:#000000;stroke-width:3;stroke-linecap:round;stroke-miterlimit:10;" x1="92.7" y1="56.5" x2="110.9" y2="56.5"/>
		
			<line style="fill:none;stroke:#000000;stroke-width:3;stroke-linecap:round;stroke-miterlimit:10;" x1="19.9" y1="74.6" x2="102.3" y2="74.6"/>
		
			<line style="fill:none;stroke:#000000;stroke-width:3;stroke-linecap:round;stroke-miterlimit:10;" x1="19.9" y1="92.7" x2="29" y2="92.7"/>
		<path style="fill:#24B265;stroke:#000000;stroke-width:3;stroke-miterlimit:10;" d="M114.4,119.9H80.2c-3.1,0-5.7-2.5-5.7-5.7v-25
			c0-3.1,2.5-5.7,5.7-5.7h34.2c3.1,0,5.7,2.5,5.7,5.7v25.1C120,117.4,117.5,119.9,114.4,119.9z"/>
	</g>
</g>
<g id="ONLYNESSSTATEMENT">
	<g id="Onlyness_Statement_Base">
		<path style="fill:none;stroke:#000000;stroke-width:3;stroke-linecap:round;stroke-miterlimit:10;" d="M123.4,129.2H7.3
			c-3.1,0-5.7-2.5-5.7-5.7V7.4c0-3.1,2.5-5.7,5.7-5.7h116.1c3.1,0,5.7,2.5,5.7,5.7v116.1C129.1,126.6,126.6,129.2,123.4,129.2z"/>
		<circle style="stroke:#000000;stroke-width:3;stroke-linecap:round;stroke-miterlimit:10;" cx="29" cy="19.9" r="8.9"/>
		
			<circle style="fill:none;stroke:#000000;stroke-width:3;stroke-linecap:round;stroke-miterlimit:10;" cx="47.2" cy="92.7" r="8.9"/>
		
			<circle style="fill:none;stroke:#000000;stroke-width:3;stroke-linecap:round;stroke-miterlimit:10;" cx="74.5" cy="56.3" r="8.9"/>
		
			<line style="fill:none;stroke:#000000;stroke-width:3;stroke-linecap:round;stroke-miterlimit:10;" x1="47.2" y1="19.9" x2="110.9" y2="19.9"/>
		
			<line style="fill:none;stroke:#000000;stroke-width:3;stroke-linecap:round;stroke-miterlimit:10;" x1="19.9" y1="38.2" x2="65.4" y2="38.2"/>
		
			<line style="fill:none;stroke:#000000;stroke-width:3;stroke-linecap:round;stroke-miterlimit:10;" x1="74.5" y1="38.2" x2="92.7" y2="38.2"/>
		
			<line style="fill:none;stroke:#000000;stroke-width:3;stroke-linecap:round;stroke-miterlimit:10;" x1="20.1" y1="56.4" x2="56.3" y2="56.4"/>
		
			<line style="fill:none;stroke:#000000;stroke-width:3;stroke-linecap:round;stroke-miterlimit:10;" x1="92.7" y1="56.5" x2="110.9" y2="56.5"/>
		
			<line style="fill:none;stroke:#000000;stroke-width:3;stroke-linecap:round;stroke-miterlimit:10;" x1="19.9" y1="74.6" x2="102.3" y2="74.6"/>
		
			<line style="fill:none;stroke:#000000;stroke-width:3;stroke-linecap:round;stroke-miterlimit:10;" x1="19.9" y1="92.7" x2="29" y2="92.7"/>
		<path style="fill:none;stroke:#000000;stroke-width:3;stroke-linecap:round;stroke-miterlimit:10;" d="M114.4,119.9H80.2
			c-3.1,0-5.7-2.5-5.7-5.7v-25c0-3.1,2.5-5.7,5.7-5.7h34.2c3.1,0,5.7,2.5,5.7,5.7v25.1C120,117.4,117.5,119.9,114.4,119.9z"/>
	</g>
</g>
</svg>
