<!-- Generator: Adobe Illustrator 26.2.1, SVG Export Plug-In . SVG Version: 6.00 Build 0)  -->
<svg version="1.1" xmlns="http://www.w3.org/2000/svg" xmlns:xlink="http://www.w3.org/1999/xlink" x="0px" y="0px"
	 viewBox="0 0 131 122" xml:space="preserve">
<style type="text/css">
	.show_x002D_on_x002D_hover{fill:none;}
	.st0{clip-path:url(#SVGID_00000060744850053348171130000014443493549888990603_);}
	.st1{fill:#F45A5D;stroke:#1D1D1B;stroke-width:3;stroke-miterlimit:10;}
	.st2{fill:#1D1D1B;}
	.st3{fill:none;stroke:#1D1D1B;stroke-width:3;stroke-miterlimit:10;}
	.st4{stroke:#1D1D1B;stroke-width:3;stroke-miterlimit:10;}
	.st5{fill:none;stroke:#1D1D1B;stroke-width:3;stroke-linecap:round;stroke-linejoin:round;}
	.st6{clip-path:url(#SVGID_00000010301814304511131670000015945065488673097126_);}




</style>

<g class="show-on-hover">
	<g>
		<defs>
			<rect id="SVGID_1_" x="0.3" y="0.3" width="130.4" height="121.3"/>
		</defs>
		<clipPath id="SVGID_00000167388593194101279030000016030523904418958262_">
			<use xlink:href="#SVGID_1_"  style="overflow:visible;"/>
		</clipPath>
		<g style="clip-path:url(#SVGID_00000167388593194101279030000016030523904418958262_);">
			<path class="st1" d="M129.2,7.5v12.6H1.8V7.5c0-1.5,0.6-3,1.7-4c1.1-1.1,2.5-1.7,4-1.7h116.1c1.5,0,3,0.6,4,1.7
				C128.6,4.6,129.2,6,129.2,7.5z"/>
			<path class="st2" d="M120.1,15.4c2.5,0,4.6-2.1,4.6-4.6c0-2.5-2.1-4.6-4.6-4.6c-2.5,0-4.6,2.1-4.6,4.6
				C115.5,13.3,117.5,15.4,120.1,15.4z"/>
			<path class="st2" d="M101.8,15.4c2.5,0,4.6-2.1,4.6-4.6c0-2.5-2.1-4.6-4.6-4.6c-2.5,0-4.6,2.1-4.6,4.6
				C97.2,13.3,99.3,15.4,101.8,15.4z"/>
			<path class="st2" d="M83.6,15.4c2.5,0,4.6-2.1,4.6-4.6c0-2.5-2.1-4.6-4.6-4.6c-2.5,0-4.6,2.1-4.6,4.6
				C79,13.4,81.1,15.4,83.6,15.4z"/>
			<path class="st3" d="M123.5,1.8H7.5c-3.1,0-5.7,2.5-5.7,5.7v107c0,3.1,2.5,5.7,5.7,5.7h116.1c3.1,0,5.7-2.5,5.7-5.7V7.5
				C129.2,4.4,126.7,1.8,123.5,1.8z"/>
			<path class="st3" d="M1.8,20.1h127.5"/>
			<path class="st4" d="M41.7,29H16.5c-3.1,0-5.7,2.5-5.7,5.7v25.2c0,3.1,2.5,5.7,5.7,5.7h25.2c3.1,0,5.7-2.5,5.7-5.7V34.7
				C47.4,31.5,44.9,29,41.7,29z"/>
			<path class="st1" d="M114.4,29H70.9c-3.1,0-5.7,2.5-5.7,5.7v71.2c0,3.1,2.5,5.7,5.7,5.7h43.5c3.1,0,5.7-2.5,5.7-5.7V34.7
				C120.1,31.5,117.5,29,114.4,29z"/>
			<path class="st3" d="M41.7,75H16.5c-3.1,0-5.7,2.5-5.7,5.7v25.2c0,3.1,2.5,5.7,5.7,5.7h25.2c3.1,0,5.7-2.5,5.7-5.7V80.6
				C47.4,77.5,44.9,75,41.7,75z"/>
			<path class="st5" d="M74.6,47.3h27.3"/>
			<path class="st5" d="M74.6,65.6h18.1"/>
			<path class="st5" d="M74.6,83.8h27.3"/>
			<path class="st5" d="M74.6,74.6H111"/>
			<path class="st5" d="M101.9,65.6h9.1"/>
		</g>
	</g>
</g>
<g>
	<g>
		<g>
			<defs>
				<rect id="SVGID_00000058591347311359663160000017446360138442614678_" x="0.3" y="0.2" width="130.4" height="121.6"/>
			</defs>
			<clipPath id="SVGID_00000127019987414539696830000010982699554457164463_">
				<use xlink:href="#SVGID_00000058591347311359663160000017446360138442614678_"  style="overflow:visible;"/>
			</clipPath>
			<g style="clip-path:url(#SVGID_00000127019987414539696830000010982699554457164463_);">
				<path class="st3" d="M129.2,7.4V20H1.8V7.4c0-1.5,0.6-3,1.7-4c1.1-1.1,2.5-1.7,4-1.7h116.1c1.5,0,3,0.6,4,1.7
					C128.6,4.4,129.2,5.9,129.2,7.4L129.2,7.4z"/>
				<path class="st2" d="M120.1,15.3c2.5,0,4.6-2.1,4.6-4.6c0-2.5-2.1-4.6-4.6-4.6s-4.6,2.1-4.6,4.6
					C115.5,13.2,117.5,15.3,120.1,15.3z"/>
				<path class="st2" d="M101.8,15.3c2.5,0,4.6-2.1,4.6-4.6c0-2.5-2.1-4.6-4.6-4.6c-2.5,0-4.6,2.1-4.6,4.6
					C97.2,13.2,99.3,15.3,101.8,15.3z"/>
				<path class="st2" d="M83.6,15.4c2.5,0,4.6-2.1,4.6-4.6c0-2.5-2.1-4.6-4.6-4.6S79,8.2,79,10.8C79,13.3,81.1,15.4,83.6,15.4z"/>
				<path class="st3" d="M123.5,1.7H7.5c-3.1,0-5.7,2.5-5.7,5.7v107.2c0,3.1,2.5,5.7,5.7,5.7h116.1c3.1,0,5.7-2.5,5.7-5.7V7.4
					C129.2,4.3,126.7,1.7,123.5,1.7z"/>
				<path class="st3" d="M1.8,20h127.4"/>
				<path class="st4" d="M41.7,28.9H16.5c-3.1,0-5.7,2.5-5.7,5.7v25.3c0,3.1,2.5,5.7,5.7,5.7h25.2c3.1,0,5.7-2.5,5.7-5.7V34.6
					C47.4,31.5,44.9,28.9,41.7,28.9z"/>
				<path class="st3" d="M114.4,28.9H70.9c-3.1,0-5.7,2.5-5.7,5.7V106c0,3.1,2.5,5.7,5.7,5.7h43.5c3.1,0,5.7-2.5,5.7-5.7V34.6
					C120.1,31.5,117.5,28.9,114.4,28.9z"/>
				<path class="st3" d="M41.7,75H16.5c-3.1,0-5.7,2.5-5.7,5.7V106c0,3.1,2.5,5.7,5.7,5.7h25.2c3.1,0,5.7-2.5,5.7-5.7V80.7
					C47.4,77.6,44.9,75,41.7,75z"/>
				<path class="st5" d="M74.6,47.3h27.3"/>
				<path class="st5" d="M74.6,65.6h18.1"/>
				<path class="st5" d="M74.6,83.9h27.3"/>
				<path class="st5" d="M74.6,74.7H111"/>
				<path class="st5" d="M101.9,65.6h9.1"/>
			</g>
		</g>
	</g>
</g>
</svg>
