<?xml version="1.0" encoding="utf-8"?>
<!-- Generator: Adobe Illustrator 26.0.2, SVG Export Plug-In . SVG Version: 6.00 Build 0)  -->
<svg version="1.1" xmlns="http://www.w3.org/2000/svg" xmlns:xlink="http://www.w3.org/1999/xlink" x="0px" y="0px"
	 viewBox="0 0 103.6 130.9" style="enable-background:new 0 0 103.6 130.9;" xml:space="preserve">
<g class="show-on-hover">
	<g id="Handbook_Over">
		<g>
			<path style="fill:none;stroke:#1D1D1B;stroke-width:3;stroke-linecap:round;stroke-miterlimit:10;" d="M96.1,129.1H16.4
				c-3.1,0-5.7-2.5-5.7-5.7V7.4c0-3.1,2.5-5.7,5.7-5.7h79.8c3.1,0,5.7,2.5,5.7,5.7v116C101.8,126.6,99.3,129.1,96.1,129.1z"/>

				<line style="fill:none;stroke:#1D1D1B;stroke-width:3;stroke-linecap:round;stroke-miterlimit:10;" x1="1.6" y1="20" x2="19.8" y2="20"/>

				<line style="fill:none;stroke:#1D1D1B;stroke-width:3;stroke-linecap:round;stroke-miterlimit:10;" x1="1.6" y1="38.2" x2="19.8" y2="38.2"/>

				<line style="fill:none;stroke:#1D1D1B;stroke-width:3;stroke-linecap:round;stroke-miterlimit:10;" x1="1.6" y1="56.3" x2="19.8" y2="56.3"/>

				<line style="fill:none;stroke:#1D1D1B;stroke-width:3;stroke-linecap:round;stroke-miterlimit:10;" x1="1.6" y1="92.7" x2="19.8" y2="92.7"/>

				<line style="fill:none;stroke:#1D1D1B;stroke-width:3;stroke-linecap:round;stroke-miterlimit:10;" x1="1.6" y1="74.4" x2="19.8" y2="74.4"/>

				<line style="fill:none;stroke:#1D1D1B;stroke-width:3;stroke-linecap:round;stroke-miterlimit:10;" x1="1.6" y1="110.6" x2="19.8" y2="110.6"/>
			<path style="fill:#FCBB16;stroke:#000000;stroke-width:3;stroke-linecap:round;stroke-linejoin:round;stroke-miterlimit:10;" d="
				M52.6,56.3h34.2c3.1,0,5.7-2.5,5.7-5.7V16.4c0-3.1-2.5-5.7-5.7-5.7H52.6c-3.1,0-5.7,2.5-5.7,5.7v34.2
				C46.9,53.8,49.5,56.3,52.6,56.3z"/>

				<line style="fill:none;stroke:#1D1D1B;stroke-width:3;stroke-linecap:round;stroke-miterlimit:10;" x1="92.5" y1="83.7" x2="56.1" y2="83.7"/>

				<line style="fill:none;stroke:#1D1D1B;stroke-width:3;stroke-linecap:round;stroke-miterlimit:10;" x1="92.5" y1="74.5" x2="74.3" y2="74.5"/>

				<line style="fill:none;stroke:#1D1D1B;stroke-width:3;stroke-linecap:round;stroke-miterlimit:10;" x1="56.2" y1="74.5" x2="65.2" y2="74.5"/>
			<path style="stroke:#1D1D1B;stroke-width:3;stroke-linecap:round;stroke-miterlimit:10;" d="M70.1,120.7h17.5
				c2.7,0,4.9-2.2,4.9-4.9l0,0c0-2.7-2.2-4.9-4.9-4.9H70.1c-2.7,0-4.9,2.2-4.9,4.9l0,0C65.2,118.5,67.4,120.7,70.1,120.7z"/>
			<path style="fill:#FCBB16;stroke:#000000;stroke-width:3;stroke-linecap:round;stroke-linejoin:round;stroke-miterlimit:10;" d="
				M42,120.7h9.4c2.7,0,4.9-2.2,4.9-4.9l0,0c0-2.7-2.2-4.9-4.9-4.9H42c-2.7,0-4.9,2.2-4.9,4.9l0,0C37.1,118.5,39.3,120.7,42,120.7z"
				/>
		</g>
	</g>
</g>
<g id="HANDBOOK">
	<g id="Handbook_Base">
		<g>
			<path style="fill:none;stroke:#1D1D1B;stroke-width:3;stroke-linecap:round;stroke-miterlimit:10;" d="M96.1,129.1H16.4
				c-3.1,0-5.7-2.5-5.7-5.7V7.4c0-3.1,2.5-5.7,5.7-5.7h79.8c3.1,0,5.7,2.5,5.7,5.7v116C101.8,126.6,99.3,129.1,96.1,129.1z"/>

				<line style="fill:none;stroke:#1D1D1B;stroke-width:3;stroke-linecap:round;stroke-miterlimit:10;" x1="1.6" y1="20" x2="19.8" y2="20"/>

				<line style="fill:none;stroke:#1D1D1B;stroke-width:3;stroke-linecap:round;stroke-miterlimit:10;" x1="1.6" y1="38.2" x2="19.8" y2="38.2"/>

				<line style="fill:none;stroke:#1D1D1B;stroke-width:3;stroke-linecap:round;stroke-miterlimit:10;" x1="1.6" y1="56.3" x2="19.8" y2="56.3"/>

				<line style="fill:none;stroke:#1D1D1B;stroke-width:3;stroke-linecap:round;stroke-miterlimit:10;" x1="1.6" y1="92.7" x2="19.8" y2="92.7"/>

				<line style="fill:none;stroke:#1D1D1B;stroke-width:3;stroke-linecap:round;stroke-miterlimit:10;" x1="1.6" y1="74.4" x2="19.8" y2="74.4"/>

				<line style="fill:none;stroke:#1D1D1B;stroke-width:3;stroke-linecap:round;stroke-miterlimit:10;" x1="1.6" y1="110.6" x2="19.8" y2="110.6"/>
			<path style="fill:none;stroke:#1D1D1B;stroke-width:3;stroke-linecap:round;stroke-miterlimit:10;" d="M52.6,56.3h34.2
				c3.1,0,5.7-2.5,5.7-5.7V16.4c0-3.1-2.5-5.7-5.7-5.7H52.6c-3.1,0-5.7,2.5-5.7,5.7v34.2C46.9,53.8,49.5,56.3,52.6,56.3z"/>

				<line style="fill:none;stroke:#1D1D1B;stroke-width:3;stroke-linecap:round;stroke-miterlimit:10;" x1="92.5" y1="83.7" x2="56.1" y2="83.7"/>

				<line style="fill:none;stroke:#1D1D1B;stroke-width:3;stroke-linecap:round;stroke-miterlimit:10;" x1="92.5" y1="74.5" x2="74.3" y2="74.5"/>

				<line style="fill:none;stroke:#1D1D1B;stroke-width:3;stroke-linecap:round;stroke-miterlimit:10;" x1="56.2" y1="74.5" x2="65.2" y2="74.5"/>
			<path style="stroke:#1D1D1B;stroke-width:3;stroke-linecap:round;stroke-miterlimit:10;" d="M70.1,120.7h17.5
				c2.7,0,4.9-2.2,4.9-4.9l0,0c0-2.7-2.2-4.9-4.9-4.9H70.1c-2.7,0-4.9,2.2-4.9,4.9l0,0C65.2,118.5,67.4,120.7,70.1,120.7z"/>
			<path style="fill:none;stroke:#1D1D1B;stroke-width:3;stroke-linecap:round;stroke-miterlimit:10;" d="M42,120.7h9.4
				c2.7,0,4.9-2.2,4.9-4.9l0,0c0-2.7-2.2-4.9-4.9-4.9H42c-2.7,0-4.9,2.2-4.9,4.9l0,0C37.1,118.5,39.3,120.7,42,120.7z"/>
		</g>
	</g>
</g>
</svg>
