<?xml version="1.0" encoding="utf-8"?>
<!-- Generator: Adobe Illustrator 26.3.1, SVG Export Plug-In . SVG Version: 6.00 Build 0)  -->
<svg version="1.1" id="Livello_1" xmlns="http://www.w3.org/2000/svg" xmlns:xlink="http://www.w3.org/1999/xlink" x="0px" y="0px"
	 viewBox="0 0 149.7 105.2" style="enable-background:new 0 0 149.7 105.2;" xml:space="preserve">
<g id="TAGCLOUD">
	<g id="Tag_Cloud_Base">
		<g>
			<path style="fill:none;stroke:#000000;stroke-width:3;stroke-miterlimit:10;" d="M125,37.3C123.2,25.1,112.8,16,100,16
				c-4.9,0-9.6,1.6-13.5,3.9C80.3,9.3,68.6,2,55.4,2C35.3,2,19,18.4,19,38.4V40C8.8,45.9,2,56.9,2,69.3c0,18.5,15.1,33.5,33.5,33.5
				H114c18.5,0,33.5-15.1,33.5-33.5C147.7,54.5,138.1,42,125,37.3L125,37.3z"/>
			<g>

					<line style="fill:none;stroke:#000000;stroke-width:3;stroke-linecap:round;stroke-linejoin:round;stroke-miterlimit:10;" x1="29.4" y1="34.4" x2="47.6" y2="34.4"/>

					<line style="fill:none;stroke:#000000;stroke-width:3;stroke-linecap:round;stroke-linejoin:round;stroke-miterlimit:10;" x1="56.7" y1="34.4" x2="93.1" y2="34.4"/>

					<line style="fill:none;stroke:#000000;stroke-width:3;stroke-linecap:round;stroke-linejoin:round;stroke-miterlimit:10;" x1="29.4" y1="43.5" x2="56.7" y2="43.5"/>

					<line style="fill:none;stroke:#000000;stroke-width:3;stroke-linecap:round;stroke-linejoin:round;stroke-miterlimit:10;" x1="65.7" y1="43.5" x2="111.2" y2="43.5"/>

					<line style="fill:none;stroke:#000000;stroke-width:3;stroke-linecap:round;stroke-linejoin:round;stroke-miterlimit:10;" x1="29.4" y1="52.5" x2="74.9" y2="52.5"/>

					<line style="fill:none;stroke:#000000;stroke-width:3;stroke-linecap:round;stroke-linejoin:round;stroke-miterlimit:10;" x1="84" y1="52.5" x2="102.1" y2="52.5"/>

					<line style="fill:none;stroke:#000000;stroke-width:3;stroke-linecap:round;stroke-linejoin:round;stroke-miterlimit:10;" x1="29.4" y1="61.5" x2="47.6" y2="61.5"/>

					<line style="fill:none;stroke:#000000;stroke-width:3;stroke-linecap:round;stroke-linejoin:round;stroke-miterlimit:10;" x1="56.7" y1="61.5" x2="93" y2="61.5"/>

					<line style="fill:none;stroke:#000000;stroke-width:3;stroke-linecap:round;stroke-linejoin:round;stroke-miterlimit:10;" x1="102.1" y1="61.5" x2="129.5" y2="61.5"/>

					<line style="fill:none;stroke:#000000;stroke-width:3;stroke-linecap:round;stroke-linejoin:round;stroke-miterlimit:10;" x1="29.4" y1="70.5" x2="65.5" y2="70.5"/>

					<line style="fill:none;stroke:#000000;stroke-width:3;stroke-linecap:round;stroke-linejoin:round;stroke-miterlimit:10;" x1="74.8" y1="70.5" x2="110.9" y2="70.5"/>

					<line style="fill:none;stroke:#000000;stroke-width:3;stroke-linecap:round;stroke-linejoin:round;stroke-miterlimit:10;" x1="29.4" y1="79.9" x2="93" y2="79.9"/>
			</g>
		</g>
	</g>
</g>
<g class="show-on-hover" id="show-on-hover_00000070828793008961255040000001380009987889202831_">
	<g id="Tag_Cloud_Over" >
		<path style="fill:none;stroke:#000000;stroke-width:3;stroke-miterlimit:10;" d="M125,37.3C123.2,25.1,112.8,16,100,16
			c-4.9,0-9.6,1.6-13.5,3.9C80.3,9.3,68.6,2,55.4,2C35.3,2,19,18.4,19,38.4V40C8.8,45.9,2,56.9,2,69.3c0,18.5,15.1,33.5,33.5,33.5
			H114c18.5,0,33.5-15.1,33.5-33.5C147.7,54.5,138.1,42,125,37.3L125,37.3z"/>
		<g>

				<line style="fill:none;stroke:#24B265;stroke-width:3;stroke-linecap:round;stroke-linejoin:round;stroke-miterlimit:10;" x1="29.4" y1="34.4" x2="47.6" y2="34.4"/>

				<line style="fill:none;stroke:#000000;stroke-width:3;stroke-linecap:round;stroke-linejoin:round;stroke-miterlimit:10;" x1="56.7" y1="34.4" x2="93.1" y2="34.4"/>

				<line style="fill:none;stroke:#000000;stroke-width:3;stroke-linecap:round;stroke-linejoin:round;stroke-miterlimit:10;" x1="29.4" y1="43.5" x2="56.7" y2="43.5"/>

				<line style="fill:none;stroke:#24B265;stroke-width:3;stroke-linecap:round;stroke-linejoin:round;stroke-miterlimit:10;" x1="65.7" y1="43.5" x2="111.2" y2="43.5"/>

				<line style="fill:none;stroke:#24B265;stroke-width:3;stroke-linecap:round;stroke-linejoin:round;stroke-miterlimit:10;" x1="29.4" y1="52.5" x2="74.9" y2="52.5"/>

				<line style="fill:none;stroke:#000000;stroke-width:3;stroke-linecap:round;stroke-linejoin:round;stroke-miterlimit:10;" x1="84" y1="52.5" x2="102.1" y2="52.5"/>

				<line style="fill:none;stroke:#24B265;stroke-width:3;stroke-linecap:round;stroke-linejoin:round;stroke-miterlimit:10;" x1="29.4" y1="61.5" x2="47.6" y2="61.5"/>

				<line style="fill:none;stroke:#24B265;stroke-width:3;stroke-linecap:round;stroke-linejoin:round;stroke-miterlimit:10;" x1="56.7" y1="61.5" x2="93" y2="61.5"/>

				<line style="fill:none;stroke:#000000;stroke-width:3;stroke-linecap:round;stroke-linejoin:round;stroke-miterlimit:10;" x1="102.1" y1="61.5" x2="129.5" y2="61.5"/>

				<line style="fill:none;stroke:#000000;stroke-width:3;stroke-linecap:round;stroke-linejoin:round;stroke-miterlimit:10;" x1="29.4" y1="70.5" x2="65.5" y2="70.5"/>

				<line style="fill:none;stroke:#24B265;stroke-width:3;stroke-linecap:round;stroke-linejoin:round;stroke-miterlimit:10;" x1="74.8" y1="70.5" x2="110.9" y2="70.5"/>

				<line style="fill:none;stroke:#24B265;stroke-width:3;stroke-linecap:round;stroke-linejoin:round;stroke-miterlimit:10;" x1="29.4" y1="79.9" x2="93" y2="79.9"/>
		</g>
	</g>
</g>
</svg>
