<?xml version="1.0" encoding="utf-8"?>
<!-- Generator: Adobe Illustrator 26.0.2, SVG Export Plug-In . SVG Version: 6.00 Build 0)  -->
<svg version="1.1" xmlns="http://www.w3.org/2000/svg" xmlns:xlink="http://www.w3.org/1999/xlink" x="0px" y="0px"
	 viewBox="0 0 131 130.9" style="enable-background:new 0 0 131 130.9;" xml:space="preserve">
<g class="show-on-hover">
	<g id="Moodboard_Over">
		<path style="stroke:#000000;stroke-width:3;stroke-linecap:round;stroke-miterlimit:10;" d="M47.5,51.3v26.8
			c0,3.1-2.5,5.7-5.7,5.7H7.3c-1.5,0-2.8-0.6-3.8-1.5c-0.4-0.5-0.8-1-1.1-1.5c-0.4-0.7-0.6-1.5-0.6-2.4v-27
			C6.6,43.8,15,38.8,24.6,38.8S42.8,43.8,47.5,51.3z"/>
		<path style="fill:#24B265;stroke:#000000;stroke-width:3;stroke-linecap:round;stroke-miterlimit:10;" d="M47.5,16.4v61.7
			c0,3.1-2.5,5.7-5.7,5.7H7.3c-1.5,0-2.8-0.6-3.8-1.5c-0.5-0.4-0.8-0.9-1.1-1.5c-0.4-0.7-0.6-1.5-0.6-2.4V16.5c0-3,2.4-5.5,5.5-5.5
			H42C45.1,11,47.5,13.4,47.5,16.4z"/>
		<path style="fill:#24B265;stroke:#000000;stroke-width:3;stroke-linecap:round;stroke-miterlimit:10;" d="M123.7,29.1H89.2
			c-3.1,0-5.7-2.5-5.7-5.7V7.6c0-3.1,2.5-5.7,5.7-5.7h34.5c3.1,0,5.7,2.5,5.7,5.7v15.9C129.4,26.6,126.9,29.1,123.7,29.1z"/>
		<path style="fill:#FFFFFF;stroke:#000000;stroke-width:3;stroke-linecap:round;stroke-miterlimit:10;" d="M78.2,120.2H35
			c-3.1,0-5.7-2.5-5.7-5.7V71.3c0-3.1,2.5-5.7,5.7-5.7h43.2c3.1,0,5.7,2.5,5.7,5.7v43.2C83.9,117.7,81.3,120.2,78.2,120.2z"/>
		<path style="fill:none;stroke:#000000;stroke-width:3;stroke-linecap:round;stroke-miterlimit:10;" d="M123.7,129.3h-15.9
			c-3.1,0-5.7-2.5-5.7-5.7V62.2c0-3.1,2.5-5.7,5.7-5.7h15.9c3.1,0,5.7,2.5,5.7,5.7v61.5C129.4,126.8,126.9,129.3,123.7,129.3z"/>
		<path style="fill:#FFFFFF;stroke:#000000;stroke-width:3;stroke-linecap:round;stroke-miterlimit:10;" d="M87.4,47.5h-16
			c-3.1,0-5.7-2.5-5.7-5.7v-16c0-3.1,2.5-5.7,5.7-5.7h16c3.1,0,5.7,2.5,5.7,5.7v16C93,45,90.5,47.5,87.4,47.5z"/>

			<circle style="fill:#24B265;stroke:#000000;stroke-width:3;stroke-linecap:round;stroke-miterlimit:10;" cx="52" cy="88.3" r="9.2"/>
		<circle style="stroke:#000000;stroke-width:3;stroke-linecap:round;stroke-miterlimit:10;" cx="61.1" cy="97.4" r="9.2"/>
	</g>
</g>
<g id="MOODBOARD">
	<g id="Moodboard_base">
		<path style="stroke:#000000;stroke-width:3;stroke-linecap:round;stroke-miterlimit:10;" d="M47.5,51.3v26.8
			c0,3.1-2.5,5.7-5.7,5.7H7.3c-1.5,0-2.8-0.6-3.8-1.5c-0.4-0.5-0.8-1-1.1-1.5c-0.4-0.7-0.6-1.5-0.6-2.4v-27
			C6.6,43.8,15,38.8,24.6,38.8S42.8,43.8,47.5,51.3z"/>
		<path style="fill:none;stroke:#000000;stroke-width:3;stroke-linecap:round;stroke-miterlimit:10;" d="M47.5,16.4v61.7
			c0,3.1-2.5,5.7-5.7,5.7H7.3c-1.5,0-2.8-0.6-3.8-1.5c-0.5-0.4-0.8-0.9-1.1-1.5c-0.4-0.7-0.6-1.5-0.6-2.4V16.5c0-3,2.4-5.5,5.5-5.5
			H42C45.1,11,47.5,13.4,47.5,16.4z"/>
		<path style="fill:none;stroke:#000000;stroke-width:3;stroke-linecap:round;stroke-miterlimit:10;" d="M123.7,29.1H89.2
			c-3.1,0-5.7-2.5-5.7-5.7V7.6c0-3.1,2.5-5.7,5.7-5.7h34.5c3.1,0,5.7,2.5,5.7,5.7v15.9C129.4,26.6,126.9,29.1,123.7,29.1z"/>
		<path style="fill:#FFFFFF;stroke:#000000;stroke-width:3;stroke-linecap:round;stroke-miterlimit:10;" d="M78.2,120.2H35
			c-3.1,0-5.7-2.5-5.7-5.7V71.3c0-3.1,2.5-5.7,5.7-5.7h43.2c3.1,0,5.7,2.5,5.7,5.7v43.2C83.9,117.7,81.3,120.2,78.2,120.2z"/>
		<path style="fill:none;stroke:#000000;stroke-width:3;stroke-linecap:round;stroke-miterlimit:10;" d="M123.7,129.3h-15.9
			c-3.1,0-5.7-2.5-5.7-5.7V62.2c0-3.1,2.5-5.7,5.7-5.7h15.9c3.1,0,5.7,2.5,5.7,5.7v61.5C129.4,126.8,126.9,129.3,123.7,129.3z"/>
		<path style="fill:#FFFFFF;stroke:#000000;stroke-width:3;stroke-linecap:round;stroke-miterlimit:10;" d="M87.4,47.5h-16
			c-3.1,0-5.7-2.5-5.7-5.7v-16c0-3.1,2.5-5.7,5.7-5.7h16c3.1,0,5.7,2.5,5.7,5.7v16C93,45,90.5,47.5,87.4,47.5z"/>
		<circle style="fill:none;stroke:#000000;stroke-width:3;stroke-linecap:round;stroke-miterlimit:10;" cx="52" cy="88.3" r="9.2"/>
		<circle style="stroke:#000000;stroke-width:3;stroke-linecap:round;stroke-miterlimit:10;" cx="61.1" cy="97.4" r="9.2"/>
	</g>
</g>
</svg>
