<?xml version="1.0" encoding="utf-8"?>
<!-- Generator: Adobe Illustrator 26.0.2, SVG Export Plug-In . SVG Version: 6.00 Build 0)  -->
<svg version="1.1" xmlns="http://www.w3.org/2000/svg" xmlns:xlink="http://www.w3.org/1999/xlink" x="0px" y="0px"
	 viewBox="0 0 130.8 130.8" style="enable-background:new 0 0 130.8 130.8;" xml:space="preserve">
<g class="show-on-hover">
	<g id="Questionario_Over">
		<g>
			<path style="fill:none;stroke:#1D1D1B;stroke-width:3;stroke-miterlimit:10;" d="M128.9,20v103.3c0,3.1-2.5,5.7-5.7,5.7H7.4
				c-3.1,0-5.7-2.5-5.7-5.7V20H128.9z"/>
			<path style="fill:#4EAAF0;stroke:#1D1D1B;stroke-width:3;stroke-miterlimit:10;" d="M128.9,7.4V20H1.7V7.4c0-3.1,2.5-5.7,5.7-5.7
				h115.9C126.4,1.7,128.9,4.2,128.9,7.4z"/>
			<circle style="fill:#1D1D1B;" cx="119.9" cy="10.8" r="4.6"/>
			<circle style="fill:#1D1D1B;" cx="101.7" cy="10.8" r="4.6"/>
			<circle style="fill:#1D1D1B;" cx="83.5" cy="10.9" r="4.6"/>

				<line style="fill:none;stroke:#1D1D1B;stroke-width:3;stroke-linecap:round;stroke-miterlimit:10;" x1="19.9" y1="36.6" x2="47.1" y2="36.6"/>

				<line style="fill:none;stroke:#1D1D1B;stroke-width:3;stroke-linecap:round;stroke-miterlimit:10;" x1="57.4" y1="36.6" x2="101.7" y2="36.6"/>

				<line style="fill:none;stroke:#1D1D1B;stroke-width:3;stroke-linecap:round;stroke-miterlimit:10;" x1="19.9" y1="45.7" x2="65.3" y2="45.7"/>
			<path style="fill:#4EAAF0;stroke:#1D1D1B;stroke-width:3;stroke-linecap:round;stroke-miterlimit:10;" d="M33.2,64.4h-8.5
				c-2.7,0-4.8-2.2-4.8-4.8l0,0c0-2.7,2.2-4.8,4.8-4.8h8.5c2.7,0,4.8,2.2,4.8,4.8l0,0C38.1,62.2,35.9,64.4,33.2,64.4z"/>
			<path style="fill:#4EAAF0;stroke:#1D1D1B;stroke-width:3;stroke-linecap:round;stroke-miterlimit:10;" d="M60.6,64.4h-8.5
				c-2.7,0-4.8-2.2-4.8-4.8l0,0c0-2.7,2.2-4.8,4.8-4.8h8.5c2.7,0,4.8,2.2,4.8,4.8l0,0C65.5,62.2,63.3,64.4,60.6,64.4z"/>
			<path style="fill:#1D1E1B;stroke:#1D1D1B;stroke-width:3;stroke-linecap:round;stroke-miterlimit:10;" d="M88,64.4h-8.5
				c-2.7,0-4.8-2.2-4.8-4.8l0,0c0-2.7,2.2-4.8,4.8-4.8H88c2.7,0,4.8,2.2,4.8,4.8l0,0C92.8,62.2,90.6,64.4,88,64.4z"/>

				<line style="fill:none;stroke:#1D1D1B;stroke-width:3;stroke-linecap:round;stroke-miterlimit:10;" x1="74.4" y1="45.7" x2="92.6" y2="45.7"/>

				<line style="fill:none;stroke:#1D1D1B;stroke-width:3;stroke-linecap:round;stroke-miterlimit:10;" x1="19.9" y1="91.2" x2="83.7" y2="91.2"/>

				<line style="fill:none;stroke:#1D1D1B;stroke-width:3;stroke-linecap:round;stroke-miterlimit:10;" x1="92.6" y1="91.2" x2="110.8" y2="91.2"/>

				<line style="fill:none;stroke:#1D1D1B;stroke-width:3;stroke-linecap:round;stroke-miterlimit:10;" x1="19.9" y1="82.1" x2="38.1" y2="82.1"/>
			<path style="fill:#4EAAF0;stroke:#1D1D1B;stroke-width:3;stroke-linecap:round;stroke-miterlimit:10;" d="M33.2,109.9h-8.5
				c-2.7,0-4.8-2.2-4.8-4.8l0,0c0-2.7,2.2-4.8,4.8-4.8h8.5c2.7,0,4.8,2.2,4.8,4.8l0,0C38.1,107.7,35.9,109.9,33.2,109.9z"/>
			<path style="fill:#1D1E1B;stroke:#1D1D1B;stroke-width:3;stroke-linecap:round;stroke-miterlimit:10;" d="M60.6,109.9h-8.5
				c-2.7,0-4.8-2.2-4.8-4.8l0,0c0-2.7,2.2-4.8,4.8-4.8h8.5c2.7,0,4.8,2.2,4.8,4.8l0,0C65.5,107.7,63.3,109.9,60.6,109.9z"/>
			<path style="fill:#4EAAF0;stroke:#1D1D1B;stroke-width:3;stroke-linecap:round;stroke-miterlimit:10;" d="M88,109.9h-8.5
				c-2.7,0-4.8-2.2-4.8-4.8l0,0c0-2.7,2.2-4.8,4.8-4.8H88c2.7,0,4.8,2.2,4.8,4.8l0,0C92.8,107.7,90.6,109.9,88,109.9z"/>

				<line style="fill:none;stroke:#1D1D1B;stroke-width:3;stroke-linecap:round;stroke-miterlimit:10;" x1="47.1" y1="82.1" x2="74.4" y2="82.1"/>

				<line style="fill:none;stroke:#1D1D1B;stroke-width:3;stroke-linecap:round;stroke-miterlimit:10;" x1="83.8" y1="82.1" x2="101.7" y2="82.1"/>
		</g>
	</g>
</g>
<g id="QUESTIONARIO">
	<g id="Questionario_base">
		<g>
			<path style="fill:none;stroke:#1D1D1B;stroke-width:3;stroke-miterlimit:10;" d="M128.9,20v103.3c0,3.1-2.5,5.7-5.7,5.7H7.4
				c-3.1,0-5.7-2.5-5.7-5.7V20H128.9z"/>
			<path style="fill:none;stroke:#1D1D1B;stroke-width:3;stroke-miterlimit:10;" d="M128.9,7.4V20H1.7V7.4c0-3.1,2.5-5.7,5.7-5.7
				h115.9C126.4,1.7,128.9,4.2,128.9,7.4z"/>
			<circle style="fill:#1D1D1B;" cx="119.9" cy="10.8" r="4.6"/>
			<circle style="fill:#1D1D1B;" cx="101.7" cy="10.8" r="4.6"/>
			<circle style="fill:#1D1D1B;" cx="83.5" cy="10.9" r="4.6"/>

				<line style="fill:none;stroke:#1D1D1B;stroke-width:3;stroke-linecap:round;stroke-miterlimit:10;" x1="19.9" y1="36.6" x2="47.1" y2="36.6"/>

				<line style="fill:none;stroke:#1D1D1B;stroke-width:3;stroke-linecap:round;stroke-miterlimit:10;" x1="57.4" y1="36.6" x2="101.7" y2="36.6"/>

				<line style="fill:none;stroke:#1D1D1B;stroke-width:3;stroke-linecap:round;stroke-miterlimit:10;" x1="19.9" y1="45.7" x2="65.3" y2="45.7"/>
			<path style="fill:#FFFFFF;stroke:#1D1D1B;stroke-width:3;stroke-linecap:round;stroke-miterlimit:10;" d="M33.2,64.4h-8.5
				c-2.7,0-4.8-2.2-4.8-4.8l0,0c0-2.7,2.2-4.8,4.8-4.8h8.5c2.7,0,4.8,2.2,4.8,4.8l0,0C38.1,62.2,35.9,64.4,33.2,64.4z"/>
			<path style="fill:#FFFFFF;stroke:#1D1D1B;stroke-width:3;stroke-linecap:round;stroke-miterlimit:10;" d="M60.6,64.4h-8.5
				c-2.7,0-4.8-2.2-4.8-4.8l0,0c0-2.7,2.2-4.8,4.8-4.8h8.5c2.7,0,4.8,2.2,4.8,4.8l0,0C65.5,62.2,63.3,64.4,60.6,64.4z"/>
			<path style="fill:#1D1E1B;stroke:#1D1D1B;stroke-width:3;stroke-linecap:round;stroke-miterlimit:10;" d="M88,64.4h-8.5
				c-2.7,0-4.8-2.2-4.8-4.8l0,0c0-2.7,2.2-4.8,4.8-4.8H88c2.7,0,4.8,2.2,4.8,4.8l0,0C92.8,62.2,90.6,64.4,88,64.4z"/>

				<line style="fill:none;stroke:#1D1D1B;stroke-width:3;stroke-linecap:round;stroke-miterlimit:10;" x1="74.4" y1="45.7" x2="92.6" y2="45.7"/>

				<line style="fill:none;stroke:#1D1D1B;stroke-width:3;stroke-linecap:round;stroke-miterlimit:10;" x1="19.9" y1="91.2" x2="83.7" y2="91.2"/>

				<line style="fill:none;stroke:#1D1D1B;stroke-width:3;stroke-linecap:round;stroke-miterlimit:10;" x1="92.6" y1="91.2" x2="110.8" y2="91.2"/>

				<line style="fill:none;stroke:#1D1D1B;stroke-width:3;stroke-linecap:round;stroke-miterlimit:10;" x1="19.9" y1="82.1" x2="38.1" y2="82.1"/>
			<path style="fill:#FFFFFF;stroke:#1D1D1B;stroke-width:3;stroke-linecap:round;stroke-miterlimit:10;" d="M33.2,109.9h-8.5
				c-2.7,0-4.8-2.2-4.8-4.8l0,0c0-2.7,2.2-4.8,4.8-4.8h8.5c2.7,0,4.8,2.2,4.8,4.8l0,0C38.1,107.7,35.9,109.9,33.2,109.9z"/>
			<path style="fill:#1D1E1B;stroke:#1D1D1B;stroke-width:3;stroke-linecap:round;stroke-miterlimit:10;" d="M60.6,109.9h-8.5
				c-2.7,0-4.8-2.2-4.8-4.8l0,0c0-2.7,2.2-4.8,4.8-4.8h8.5c2.7,0,4.8,2.2,4.8,4.8l0,0C65.5,107.7,63.3,109.9,60.6,109.9z"/>
			<path style="fill:#FFFFFF;stroke:#1D1D1B;stroke-width:3;stroke-linecap:round;stroke-miterlimit:10;" d="M88,109.9h-8.5
				c-2.7,0-4.8-2.2-4.8-4.8l0,0c0-2.7,2.2-4.8,4.8-4.8H88c2.7,0,4.8,2.2,4.8,4.8l0,0C92.8,107.7,90.6,109.9,88,109.9z"/>

				<line style="fill:none;stroke:#1D1D1B;stroke-width:3;stroke-linecap:round;stroke-miterlimit:10;" x1="47.1" y1="82.1" x2="74.4" y2="82.1"/>

				<line style="fill:none;stroke:#1D1D1B;stroke-width:3;stroke-linecap:round;stroke-miterlimit:10;" x1="83.8" y1="82.1" x2="101.7" y2="82.1"/>
		</g>
	</g>
</g>
</svg>
