<?xml version="1.0" encoding="utf-8"?>
<!-- Generator: Adobe Illustrator 26.0.2, SVG Export Plug-In . SVG Version: 6.00 Build 0)  -->
<svg version="1.1" xmlns="http://www.w3.org/2000/svg" xmlns:xlink="http://www.w3.org/1999/xlink" x="0px" y="0px"
	 viewBox="0 0 149 130.6" style="enable-background:new 0 0 149 130.6;" xml:space="preserve">
<g class="show-on-hover">
	<g id="Riutrattio_cinese_Over">
		<g>
			<path style="fill:none;stroke:#1D1D1B;stroke-width:3;stroke-miterlimit:10;" d="M141.5,128.8H7.3c-3.1,0-5.7-2.5-5.7-5.7V7.2
				c0-3.1,2.5-5.7,5.7-5.7h134.2c3.1,0,5.7,2.5,5.7,5.7v115.9C147.1,126.2,144.6,128.8,141.5,128.8z"/>
			<path style="fill:none;stroke:#1D1D1B;stroke-width:3;stroke-miterlimit:10;" d="M41.4,47h-25c-3.1,0-5.7-2.5-5.7-5.7V16.2
				c0-3.1,2.5-5.7,5.7-5.7h25.1c3.1,0,5.7,2.5,5.7,5.7v25.1C47.1,44.5,44.6,47,41.4,47z"/>
			<path style="fill:none;stroke:#1D1D1B;stroke-width:3;stroke-miterlimit:10;" d="M46.9,14.8c-1.9,8.2-9.2,14.3-18,14.3
				s-16.1-6.1-18-14.3c0.6-2.4,2.9-4.2,5.5-4.2h25.1C44.1,10.6,46.3,12.4,46.9,14.8z"/>
			<path style="fill:#1D1E1B;stroke:#1D1D1B;stroke-width:3;stroke-miterlimit:10;" d="M132.4,47h-25.1c-3.1,0-5.7-2.5-5.7-5.7V16.2
				c0-3.1,2.5-5.7,5.7-5.7h25.1c3.1,0,5.7,2.5,5.7,5.7v25.1C138.1,44.5,135.5,47,132.4,47z"/>
			<path style="fill:#24B265;stroke:#1D1D1B;stroke-width:3;stroke-miterlimit:10;" d="M115.8,37.4l-4.6-4.6c-2.2-2.2-2.2-5.8,0-8
				l4.6-4.6c2.2-2.2,5.8-2.2,8,0l4.6,4.6c2.2,2.2,2.2,5.8,0,8l-4.6,4.6C121.6,39.6,118.1,39.6,115.8,37.4z"/>
			<path style="fill:none;stroke:#1D1D1B;stroke-width:3;stroke-miterlimit:10;" d="M86.9,47H61.8c-3.1,0-5.7-2.5-5.7-5.7V16.2
				c0-3.1,2.5-5.7,5.7-5.7h25.1c3.1,0,5.7,2.5,5.7,5.7v25.1C92.6,44.5,90,47,86.9,47z"/>

				<line style="fill:none;stroke:#000000;stroke-width:3;stroke-linecap:round;stroke-linejoin:round;stroke-miterlimit:10;" x1="65.5" y1="56.2" x2="83.2" y2="56.2"/>

				<line style="fill:none;stroke:#000000;stroke-width:3;stroke-linecap:round;stroke-linejoin:round;stroke-miterlimit:10;" x1="19.4" y1="56.2" x2="37.2" y2="56.2"/>

				<line style="fill:none;stroke:#000000;stroke-width:3;stroke-linecap:round;stroke-linejoin:round;stroke-miterlimit:10;" x1="111" y1="56.2" x2="128.8" y2="56.2"/>
			<path style="fill:#24B265;stroke:#1D1D1B;stroke-width:3;stroke-miterlimit:10;" d="M41.4,110.8h-25c-3.1,0-5.7-2.5-5.7-5.7v-25
				c0-3.1,2.5-5.7,5.7-5.7h25.1c3.1,0,5.7,2.5,5.7,5.7v25.1C47.1,108.3,44.6,110.8,41.4,110.8z"/>
			<path style="fill:none;stroke:#1D1D1B;stroke-width:3;stroke-miterlimit:10;" d="M132.4,110.8h-25.1c-3.1,0-5.7-2.5-5.7-5.7v-25
				c0-3.1,2.5-5.7,5.7-5.7h25.1c3.1,0,5.7,2.5,5.7,5.7v25.1C138.1,108.3,135.5,110.8,132.4,110.8z"/>
			<path style="fill:#24B265;stroke:#1D1D1B;stroke-width:3;stroke-miterlimit:10;" d="M86.9,110.8H61.8c-3.1,0-5.7-2.5-5.7-5.7v-25
				c0-3.1,2.5-5.7,5.7-5.7h25.1c3.1,0,5.7,2.5,5.7,5.7v25.1C92.6,108.3,90,110.8,86.9,110.8z"/>

				<line style="fill:none;stroke:#000000;stroke-width:3;stroke-linecap:round;stroke-linejoin:round;stroke-miterlimit:10;" x1="65.5" y1="120" x2="83.2" y2="120"/>

				<line style="fill:none;stroke:#000000;stroke-width:3;stroke-linecap:round;stroke-linejoin:round;stroke-miterlimit:10;" x1="19.4" y1="120" x2="37.2" y2="120"/>

				<line style="fill:none;stroke:#000000;stroke-width:3;stroke-linecap:round;stroke-linejoin:round;stroke-miterlimit:10;" x1="111" y1="120" x2="128.8" y2="120"/>
			<path style="fill:#FFFFFF;stroke:#1D1D1B;stroke-width:3;stroke-miterlimit:10;" d="M84.1,110.8c0-5.4-4.4-9.8-9.8-9.8
				s-9.8,4.4-9.8,9.8H84.1z"/>
			<circle style="fill:#FFFFFF;stroke:#1D1D1B;stroke-width:3;stroke-miterlimit:10;" cx="74.3" cy="92.6" r="4.6"/>
			<path style="fill:#1D1E1B;stroke:#1D1D1B;stroke-width:3;stroke-miterlimit:10;" d="M46.9,14.8c-1.9,8.2-9.2,14.3-18,14.3
				s-16.1-6.1-18-14.3c0.6-2.4,2.9-4.2,5.5-4.2h25.1C44.1,10.6,46.3,12.4,46.9,14.8z"/>
		</g>
	</g>
</g>
<g id="RITRATTOCINESE">
	<g id="Ritratto_Cinese_base">
		<g>
			<path style="fill:none;stroke:#1D1D1B;stroke-width:3;stroke-miterlimit:10;" d="M141.5,128.8H7.3c-3.1,0-5.7-2.5-5.7-5.7V7.2
				c0-3.1,2.5-5.7,5.7-5.7h134.2c3.1,0,5.7,2.5,5.7,5.7v115.9C147.1,126.2,144.6,128.8,141.5,128.8z"/>
			<path style="fill:none;stroke:#1D1D1B;stroke-width:3;stroke-miterlimit:10;" d="M41.4,47h-25c-3.1,0-5.7-2.5-5.7-5.7V16.2
				c0-3.1,2.5-5.7,5.7-5.7h25.1c3.1,0,5.7,2.5,5.7,5.7v25.1C47.1,44.5,44.6,47,41.4,47z"/>
			<path style="fill:none;stroke:#1D1D1B;stroke-width:3;stroke-miterlimit:10;" d="M46.9,14.8c-1.9,8.2-9.2,14.3-18,14.3
				s-16.1-6.1-18-14.3c0.6-2.4,2.9-4.2,5.5-4.2h25.1C44.1,10.6,46.3,12.4,46.9,14.8z"/>
			<path style="fill:#1D1E1B;stroke:#1D1D1B;stroke-width:3;stroke-miterlimit:10;" d="M132.4,47h-25.1c-3.1,0-5.7-2.5-5.7-5.7V16.2
				c0-3.1,2.5-5.7,5.7-5.7h25.1c3.1,0,5.7,2.5,5.7,5.7v25.1C138.1,44.5,135.5,47,132.4,47z"/>
			<path style="fill:#FFFFFF;stroke:#1D1D1B;stroke-width:3;stroke-miterlimit:10;" d="M115.8,37.4l-4.6-4.6c-2.2-2.2-2.2-5.8,0-8
				l4.6-4.6c2.2-2.2,5.8-2.2,8,0l4.6,4.6c2.2,2.2,2.2,5.8,0,8l-4.6,4.6C121.6,39.6,118.1,39.6,115.8,37.4z"/>
			<path style="fill:none;stroke:#1D1D1B;stroke-width:3;stroke-miterlimit:10;" d="M86.9,47H61.8c-3.1,0-5.7-2.5-5.7-5.7V16.2
				c0-3.1,2.5-5.7,5.7-5.7h25.1c3.1,0,5.7,2.5,5.7,5.7v25.1C92.6,44.5,90,47,86.9,47z"/>

				<line style="fill:none;stroke:#000000;stroke-width:3;stroke-linecap:round;stroke-linejoin:round;stroke-miterlimit:10;" x1="65.5" y1="56.2" x2="83.2" y2="56.2"/>

				<line style="fill:none;stroke:#000000;stroke-width:3;stroke-linecap:round;stroke-linejoin:round;stroke-miterlimit:10;" x1="19.4" y1="56.2" x2="37.2" y2="56.2"/>

				<line style="fill:none;stroke:#000000;stroke-width:3;stroke-linecap:round;stroke-linejoin:round;stroke-miterlimit:10;" x1="111" y1="56.2" x2="128.8" y2="56.2"/>
			<path style="fill:none;stroke:#1D1D1B;stroke-width:3;stroke-miterlimit:10;" d="M41.4,110.8h-25c-3.1,0-5.7-2.5-5.7-5.7v-25
				c0-3.1,2.5-5.7,5.7-5.7h25.1c3.1,0,5.7,2.5,5.7,5.7v25.1C47.1,108.3,44.6,110.8,41.4,110.8z"/>
			<path style="fill:none;stroke:#1D1D1B;stroke-width:3;stroke-miterlimit:10;" d="M132.4,110.8h-25.1c-3.1,0-5.7-2.5-5.7-5.7v-25
				c0-3.1,2.5-5.7,5.7-5.7h25.1c3.1,0,5.7,2.5,5.7,5.7v25.1C138.1,108.3,135.5,110.8,132.4,110.8z"/>
			<path style="fill:none;stroke:#1D1D1B;stroke-width:3;stroke-miterlimit:10;" d="M86.9,110.8H61.8c-3.1,0-5.7-2.5-5.7-5.7v-25
				c0-3.1,2.5-5.7,5.7-5.7h25.1c3.1,0,5.7,2.5,5.7,5.7v25.1C92.6,108.3,90,110.8,86.9,110.8z"/>

				<line style="fill:none;stroke:#000000;stroke-width:3;stroke-linecap:round;stroke-linejoin:round;stroke-miterlimit:10;" x1="65.5" y1="120" x2="83.2" y2="120"/>

				<line style="fill:none;stroke:#000000;stroke-width:3;stroke-linecap:round;stroke-linejoin:round;stroke-miterlimit:10;" x1="19.4" y1="120" x2="37.2" y2="120"/>

				<line style="fill:none;stroke:#000000;stroke-width:3;stroke-linecap:round;stroke-linejoin:round;stroke-miterlimit:10;" x1="111" y1="120" x2="128.8" y2="120"/>
			<path style="fill:#FFFFFF;stroke:#1D1D1B;stroke-width:3;stroke-miterlimit:10;" d="M84.1,110.8c0-5.4-4.4-9.8-9.8-9.8
				s-9.8,4.4-9.8,9.8H84.1z"/>
			<circle style="fill:#FFFFFF;stroke:#1D1D1B;stroke-width:3;stroke-miterlimit:10;" cx="74.3" cy="92.6" r="4.6"/>
			<path style="fill:#1D1E1B;stroke:#1D1D1B;stroke-width:3;stroke-miterlimit:10;" d="M46.9,14.8c-1.9,8.2-9.2,14.3-18,14.3
				s-16.1-6.1-18-14.3c0.6-2.4,2.9-4.2,5.5-4.2h25.1C44.1,10.6,46.3,12.4,46.9,14.8z"/>
		</g>
	</g>
</g>
</svg>
