<?xml version="1.0" encoding="utf-8"?>
<!-- Generator: Adobe Illustrator 26.0.2, SVG Export Plug-In . SVG Version: 6.00 Build 0)  -->
<svg version="1.1" xmlns="http://www.w3.org/2000/svg" xmlns:xlink="http://www.w3.org/1999/xlink" x="0px" y="0px"
	 viewBox="0 0 148.8 131" style="enable-background:new 0 0 148.8 131;" xml:space="preserve">
<g class="show-on-hover">
	<g id="Stakeholder_analysis_Over">
		<g>
			<circle style="fill:#4EAAF0;stroke:#1D1D1B;stroke-width:3;stroke-miterlimit:10;" cx="74.5" cy="65.5" r="27.3"/>
			<path style="fill:#FFFFFF;stroke:#000000;stroke-width:3;stroke-miterlimit:10;" d="M91.9,86.6c-4.7,3.9-10.7,6.2-17.3,6.2
				S62,90.5,57.3,86.6c2.5-7.1,9.3-12.2,17.3-12.2C82.5,74.4,89.3,79.5,91.9,86.6z"/>
			<circle style="fill:#FFFFFF;stroke:#000000;stroke-width:3;stroke-miterlimit:10;" cx="74.5" cy="56.5" r="9.7"/>

				<line style="fill:none;stroke:#000000;stroke-width:3;stroke-linecap:round;stroke-linejoin:round;stroke-miterlimit:10;" x1="1.8" y1="65.5" x2="47.2" y2="65.5"/>

				<line style="fill:none;stroke:#000000;stroke-width:3;stroke-linecap:round;stroke-linejoin:round;stroke-miterlimit:10;" x1="101.7" y1="65.5" x2="147.2" y2="65.5"/>

				<line style="fill:none;stroke:#000000;stroke-width:3;stroke-linecap:round;stroke-linejoin:round;stroke-miterlimit:10;" x1="74.5" y1="129.3" x2="74.5" y2="92.8"/>

				<line style="fill:none;stroke:#000000;stroke-width:3;stroke-linecap:round;stroke-linejoin:round;stroke-miterlimit:10;" x1="74.5" y1="38.3" x2="74.5" y2="1.9"/>
			<path style="fill:#4EAAF0;stroke:#1D1D1B;stroke-width:3;stroke-miterlimit:10;" d="M23.4,38.4h-6.9c-3.1,0-5.7-2.5-5.7-5.7v-6.9
				c0-3.1,2.5-5.7,5.7-5.7h6.9c3.1,0,5.7,2.5,5.7,5.7v6.9C29,35.8,26.5,38.4,23.4,38.4z"/>
			<path style="stroke:#000000;stroke-width:3;stroke-miterlimit:10;" d="M32.5,46.8h-6.9c-3.1,0-5.7-2.5-5.7-5.7v-6.9
				c0-3.1,2.5-5.7,5.7-5.7h6.9c3.1,0,5.7,2.5,5.7,5.7v6.9C38.2,44.2,35.6,46.8,32.5,46.8z"/>
			<path style="fill:#FFFFFF;stroke:#000000;stroke-width:3;stroke-miterlimit:10;" d="M105.2,111h-6.9c-3.1,0-5.7-2.5-5.7-5.7v-6.9
				c0-3.1,2.5-5.7,5.7-5.7h6.9c3.1,0,5.7,2.5,5.7,5.7v6.9C110.9,108.5,108.3,111,105.2,111z"/>
			<path style="fill:#4EAAF0;stroke:#1D1D1B;stroke-width:3;stroke-miterlimit:10;" d="M132.5,46.8h-16c-3.1,0-5.7-2.5-5.7-5.7v-6.9
				c0-3.1,2.5-5.7,5.7-5.7h16c3.1,0,5.7,2.5,5.7,5.7v6.9C138.2,44.2,135.7,46.8,132.5,46.8z"/>
			<circle style="fill:#4EAAF0;stroke:#1D1D1B;stroke-width:3;stroke-miterlimit:10;" cx="29" cy="101.9" r="9.1"/>
			<circle style="stroke:#000000;stroke-width:3;stroke-miterlimit:10;" cx="129.1" cy="83.6" r="9.1"/>
		</g>
	</g>
</g>
<g id="STAKEHOLDERANAL">
	<g id="Stakeholder_analysis_Base">
		<g>
			<circle style="fill:none;stroke:#000000;stroke-width:3;stroke-miterlimit:10;" cx="74.5" cy="65.5" r="27.3"/>
			<path style="fill:#FFFFFF;stroke:#000000;stroke-width:3;stroke-miterlimit:10;" d="M91.9,86.6c-4.7,3.9-10.7,6.2-17.3,6.2
				S62,90.5,57.3,86.6c2.5-7.1,9.3-12.2,17.3-12.2C82.5,74.4,89.3,79.5,91.9,86.6z"/>
			<circle style="fill:#FFFFFF;stroke:#000000;stroke-width:3;stroke-miterlimit:10;" cx="74.5" cy="56.5" r="9.7"/>

				<line style="fill:none;stroke:#000000;stroke-width:3;stroke-linecap:round;stroke-linejoin:round;stroke-miterlimit:10;" x1="1.8" y1="65.5" x2="47.2" y2="65.5"/>

				<line style="fill:none;stroke:#000000;stroke-width:3;stroke-linecap:round;stroke-linejoin:round;stroke-miterlimit:10;" x1="101.7" y1="65.5" x2="147.2" y2="65.5"/>

				<line style="fill:none;stroke:#000000;stroke-width:3;stroke-linecap:round;stroke-linejoin:round;stroke-miterlimit:10;" x1="74.5" y1="129.3" x2="74.5" y2="92.8"/>

				<line style="fill:none;stroke:#000000;stroke-width:3;stroke-linecap:round;stroke-linejoin:round;stroke-miterlimit:10;" x1="74.5" y1="38.3" x2="74.5" y2="1.9"/>
			<path style="fill:none;stroke:#000000;stroke-width:3;stroke-miterlimit:10;" d="M23.4,38.4h-6.9c-3.1,0-5.7-2.5-5.7-5.7v-6.9
				c0-3.1,2.5-5.7,5.7-5.7h6.9c3.1,0,5.7,2.5,5.7,5.7v6.9C29,35.8,26.5,38.4,23.4,38.4z"/>
			<path style="stroke:#000000;stroke-width:3;stroke-miterlimit:10;" d="M32.5,46.8h-6.9c-3.1,0-5.7-2.5-5.7-5.7v-6.9
				c0-3.1,2.5-5.7,5.7-5.7h6.9c3.1,0,5.7,2.5,5.7,5.7v6.9C38.2,44.2,35.6,46.8,32.5,46.8z"/>
			<path style="fill:#FFFFFF;stroke:#000000;stroke-width:3;stroke-miterlimit:10;" d="M105.2,111h-6.9c-3.1,0-5.7-2.5-5.7-5.7v-6.9
				c0-3.1,2.5-5.7,5.7-5.7h6.9c3.1,0,5.7,2.5,5.7,5.7v6.9C110.9,108.5,108.3,111,105.2,111z"/>
			<path style="fill:none;stroke:#000000;stroke-width:3;stroke-miterlimit:10;" d="M132.5,46.8h-16c-3.1,0-5.7-2.5-5.7-5.7v-6.9
				c0-3.1,2.5-5.7,5.7-5.7h16c3.1,0,5.7,2.5,5.7,5.7v6.9C138.2,44.2,135.7,46.8,132.5,46.8z"/>
			<circle style="fill:none;stroke:#000000;stroke-width:3;stroke-miterlimit:10;" cx="29" cy="101.9" r="9.1"/>
			<circle style="stroke:#000000;stroke-width:3;stroke-miterlimit:10;" cx="129.1" cy="83.6" r="9.1"/>
		</g>
	</g>
</g>
</svg>
