<?xml version="1.0" encoding="utf-8"?>
<!-- Generator: Adobe Illustrator 26.3.1, SVG Export Plug-In . SVG Version: 6.00 Build 0)  -->
<svg version="1.1" id="Livello_1" xmlns="http://www.w3.org/2000/svg" xmlns:xlink="http://www.w3.org/1999/xlink" x="0px" y="0px"
	 viewBox="0 0 113.1 131" style="enable-background:new 0 0 113.1 131;" xml:space="preserve">
<g class="show-on-hover">
	<g id="Definizione_Valori_Base">

			<circle style="fill:#FFFFFF;stroke:#000000;stroke-width:3;stroke-linecap:round;stroke-miterlimit:10;" cx="20" cy="20" r="18.4"/>
		<path style="fill:#24B265;stroke:#000000;stroke-width:3;stroke-linecap:round;stroke-miterlimit:10;" d="M19.6,26.4l-3.7,2
			c-0.9,0.5-2-0.3-1.9-1.4l0.7-4.2c0.1-0.4-0.1-0.8-0.4-1.1l-3-3c-0.8-0.7-0.3-2,0.7-2.2l4.2-0.6c0.4-0.1,0.8-0.3,1-0.7l1.9-3.8
			c0.5-1,1.8-1,2.3,0l1.9,3.8c0.2,0.4,0.5,0.6,1,0.7l4.2,0.6c1.1,0.2,1.5,1.4,0.7,2.2l-3,3c-0.3,0.3-0.4,0.7-0.4,1.1l0.7,4.2
			c0.2,1-0.9,1.8-1.9,1.4l-3.7-2C20.4,26.2,19.9,26.2,19.6,26.4z"/>
		<circle style="stroke:#000000;stroke-width:3;stroke-linecap:round;stroke-miterlimit:10;" cx="20" cy="65.4" r="18.4"/>
		<path style="fill:#24B265;" d="M19.6,71.9l-3.7,2c-0.9,0.5-2-0.3-1.9-1.4l0.7-4.2c0.1-0.4-0.1-0.8-0.4-1.1l-3-3
			c-0.8-0.7-0.3-2,0.7-2.2l4.2-0.6c0.4-0.1,0.8-0.3,1-0.7l1.9-3.8c0.5-1,1.8-1,2.3,0l1.9,3.8c0.2,0.4,0.5,0.6,1,0.7l4.2,0.6
			c1.1,0.2,1.5,1.4,0.7,2.2l-3,3c-0.3,0.3-0.4,0.7-0.4,1.1l0.7,4.2c0.2,1-0.9,1.8-1.9,1.4l-3.7-2C20.4,71.7,19.9,71.7,19.6,71.9z"/>

			<circle style="fill:#FFFFFF;stroke:#000000;stroke-width:3;stroke-linecap:round;stroke-miterlimit:10;" cx="20" cy="110.7" r="18.4"/>
		<path style="fill:#24B265;stroke:#000000;stroke-width:3;stroke-linecap:round;stroke-miterlimit:10;" d="M19.6,117.2l-3.7,2
			c-0.9,0.5-2-0.3-1.9-1.4l0.7-4.2c0.1-0.4-0.1-0.8-0.4-1.1l-3-3c-0.8-0.7-0.3-2,0.7-2.2l4.2-0.6c0.4-0.1,0.8-0.3,1-0.7l1.9-3.8
			c0.5-1,1.8-1,2.3,0l1.9,3.8c0.2,0.4,0.5,0.6,1,0.7l4.2,0.6c1.1,0.2,1.5,1.4,0.7,2.2l-3,3c-0.3,0.3-0.4,0.7-0.4,1.1l0.7,4.2
			c0.2,1-0.9,1.8-1.9,1.4l-3.7-2C20.4,117,19.9,117,19.6,117.2z"/>

			<line style="fill:none;stroke:#000000;stroke-width:3;stroke-linecap:round;stroke-miterlimit:10;" x1="47.2" y1="10.8" x2="101.9" y2="10.8"/>

			<line style="fill:none;stroke:#000000;stroke-width:3;stroke-linecap:round;stroke-miterlimit:10;" x1="47.2" y1="20" x2="56.4" y2="20"/>

			<line style="fill:none;stroke:#000000;stroke-width:3;stroke-linecap:round;stroke-miterlimit:10;" x1="47.2" y1="111" x2="92.7" y2="111"/>

			<line style="fill:none;stroke:#000000;stroke-width:3;stroke-linecap:round;stroke-miterlimit:10;" x1="47.2" y1="65.3" x2="74.5" y2="65.3"/>

			<line style="fill:none;stroke:#000000;stroke-width:3;stroke-linecap:round;stroke-miterlimit:10;" x1="65.4" y1="20" x2="83.6" y2="20"/>

			<line style="fill:none;stroke:#000000;stroke-width:3;stroke-linecap:round;stroke-miterlimit:10;" x1="47.2" y1="28.9" x2="111" y2="28.9"/>

			<line style="fill:none;stroke:#000000;stroke-width:3;stroke-linecap:round;stroke-miterlimit:10;" x1="47.3" y1="56.3" x2="65.4" y2="56.3"/>

			<line style="fill:none;stroke:#000000;stroke-width:3;stroke-linecap:round;stroke-miterlimit:10;" x1="74.5" y1="56.3" x2="101.9" y2="56.3"/>

			<line style="fill:none;stroke:#000000;stroke-width:3;stroke-linecap:round;stroke-miterlimit:10;" x1="47.2" y1="74.5" x2="65.4" y2="74.5"/>

			<line style="fill:none;stroke:#000000;stroke-width:3;stroke-linecap:round;stroke-miterlimit:10;" x1="74.6" y1="74.5" x2="92.7" y2="74.5"/>

			<line style="fill:none;stroke:#000000;stroke-width:3;stroke-linecap:round;stroke-miterlimit:10;" x1="47.2" y1="101.7" x2="83.6" y2="101.7"/>

			<line style="fill:none;stroke:#000000;stroke-width:3;stroke-linecap:round;stroke-miterlimit:10;" x1="92.7" y1="101.7" x2="111" y2="101.7"/>

			<line style="fill:none;stroke:#000000;stroke-width:3;stroke-linecap:round;stroke-miterlimit:10;" x1="47.2" y1="120" x2="56.4" y2="120"/>

			<line style="fill:none;stroke:#000000;stroke-width:3;stroke-linecap:round;stroke-miterlimit:10;" x1="65.4" y1="120" x2="111" y2="120"/>
	</g>
</g>
<g id="definizionevalori">
	<g id="Definizione_Valori_Over">
		<g>
			<path d="M20,0.1C9,0.1,0.1,9,0.1,20S9,39.9,20,39.9S39.9,31,39.9,20S31,0.1,20,0.1z M20,36.9c-9.3,0-16.9-7.6-16.9-16.9
				S10.7,3.1,20,3.1S36.9,10.7,36.9,20S29.3,36.9,20,36.9z"/>
		</g>
		<g>
			<path d="M31,16.9c-0.3-1-1.2-1.7-2.3-1.9l-4.1-0.6l-1.9-3.7c-0.5-1-1.4-1.6-2.5-1.6s-2,0.6-2.5,1.6l-1.9,3.7l0,0L11.7,15
				c-1.1,0.2-1.9,1-2.2,2.1c-0.3,1,0,2,0.7,2.6l3,3l-0.7,4v0.1c-0.1,1.1,0.4,2.2,1.3,2.7c0.5,0.3,1,0.5,1.5,0.5
				c0.4,0,0.9-0.1,1.3-0.3l3.6-2l0,0l3.6,1.9l0.1,0.1c1,0.4,2.2,0.2,3-0.5s1.1-1.6,0.9-2.6l-0.7-4l3-3C31,19,31.3,17.9,31,16.9z
				 M25.1,20.6c-0.4,0.4-0.8,1.1-0.8,2.2l0.7,4.1l-3.4-1.8L21.5,25c-0.4-0.2-0.9-0.3-1.3-0.3c-0.5,0-1,0.1-1.3,0.3l-3.3,1.8l0.6-3.8
				c0.2-0.9-0.1-1.8-0.8-2.5l-2.7-2.7l3.8-0.5h0.2c1.2-0.3,1.7-1,2-1.5l1.7-3.4l1.7,3.4c0.4,0.8,1.1,1.3,2.1,1.5l3.8,0.5L25.1,20.6z
				"/>
		</g>
		<g>
			<path d="M20,47C9.8,47,1.6,55.2,1.6,65.4S9.8,83.8,20,83.8s18.4-8.2,18.4-18.4S30.2,47,20,47z M29.2,64.2l-3,3
				c-0.3,0.3-0.4,0.7-0.4,1.1l0.7,4.2c0.2,1-0.9,1.8-1.9,1.4l-3.7-2c-0.5-0.2-1-0.2-1.3,0l-3.7,2c-0.9,0.5-2-0.3-1.9-1.4l0.7-4.2
				c0.1-0.4-0.1-0.8-0.4-1.1l-3-3c-0.8-0.7-0.3-2,0.7-2.2l4.2-0.6c0.4-0.1,0.8-0.3,1-0.7l1.9-3.8c0.5-1,1.8-1,2.3,0l1.9,3.8
				c0.2,0.4,0.5,0.6,1,0.7l4.2,0.6C29.6,62.2,30,63.4,29.2,64.2z"/>
			<path d="M20,45.5c-11,0-19.9,8.9-19.9,19.9S9,85.3,20,85.3s19.9-8.9,19.9-19.9S31,45.5,20,45.5z M20,82.3
				c-9.3,0-16.9-7.6-16.9-16.9S10.7,48.5,20,48.5s16.9,7.6,16.9,16.9S29.3,82.3,20,82.3z"/>
		</g>
		<g>
			<path d="M20,90.8c-11,0-19.9,8.9-19.9,19.9S9,130.6,20,130.6s19.9-8.9,19.9-19.9S31,90.8,20,90.8z M20,127.6
				c-9.3,0-16.9-7.6-16.9-16.9S10.7,93.8,20,93.8s16.9,7.6,16.9,16.9S29.3,127.6,20,127.6z"/>
		</g>
		<g>
			<path d="M31,107.7c-0.3-1-1.2-1.7-2.3-1.9l-4.1-0.6l-1.8-3.7c-0.5-1-1.4-1.6-2.5-1.6s-2,0.6-2.5,1.6l-1.9,3.7l0,0l-4.2,0.6
				c-1.1,0.2-1.9,1-2.2,2.1c-0.3,1,0,2,0.7,2.6l3,3l-0.7,4v0.1c-0.1,1.1,0.4,2.2,1.3,2.7c0.5,0.3,1,0.4,1.5,0.4
				c0.4,0,0.9-0.1,1.3-0.3l3.6-2l0,0l3.6,2l0.1,0.1c1,0.4,2.2,0.2,3-0.5s1.1-1.6,0.9-2.6l-0.7-4l3-3C31,109.8,31.3,108.7,31,107.7z
				 M25.1,111.4c-0.4,0.4-0.8,1.1-0.8,2.2l0.7,4.1l-3.4-1.8l-0.1-0.1c-0.4-0.2-0.9-0.3-1.3-0.3c-0.5,0-1,0.1-1.3,0.4l-3.3,1.8
				l0.6-3.8c0.2-0.9-0.1-1.8-0.8-2.5l-2.7-2.7l3.8-0.5h0.2c1.2-0.3,1.7-1,2-1.5l1.7-3.4l1.7,3.4c0.4,0.8,1.1,1.3,2.1,1.5l3.8,0.5
				L25.1,111.4z"/>
		</g>
		<g>
			<path d="M101.9,12.3H47.2c-0.8,0-1.5-0.7-1.5-1.5s0.7-1.5,1.5-1.5h54.7c0.8,0,1.5,0.7,1.5,1.5S102.7,12.3,101.9,12.3z"/>
		</g>
		<g>
			<path d="M56.4,21.5h-9.2c-0.8,0-1.5-0.7-1.5-1.5s0.7-1.5,1.5-1.5h9.2c0.8,0,1.5,0.7,1.5,1.5S57.2,21.5,56.4,21.5z"/>
		</g>
		<g>
			<path d="M92.7,112.5H47.2c-0.8,0-1.5-0.7-1.5-1.5s0.7-1.5,1.5-1.5h45.5c0.8,0,1.5,0.7,1.5,1.5S93.5,112.5,92.7,112.5z"/>
		</g>
		<g>
			<path d="M74.5,66.8H47.2c-0.8,0-1.5-0.7-1.5-1.5s0.7-1.5,1.5-1.5h27.3c0.8,0,1.5,0.7,1.5,1.5S75.3,66.8,74.5,66.8z"/>
		</g>
		<g>
			<path d="M83.6,21.5H65.4c-0.8,0-1.5-0.7-1.5-1.5s0.7-1.5,1.5-1.5h18.2c0.8,0,1.5,0.7,1.5,1.5S84.4,21.5,83.6,21.5z"/>
		</g>
		<g>
			<path d="M111,30.4H47.2c-0.8,0-1.5-0.7-1.5-1.5s0.7-1.5,1.5-1.5H111c0.8,0,1.5,0.7,1.5,1.5S111.8,30.4,111,30.4z"/>
		</g>
		<g>
			<path d="M65.4,57.8H47.3c-0.8,0-1.5-0.7-1.5-1.5s0.7-1.5,1.5-1.5h18.1c0.8,0,1.5,0.7,1.5,1.5S66.2,57.8,65.4,57.8z"/>
		</g>
		<g>
			<path d="M101.9,57.8H74.5c-0.8,0-1.5-0.7-1.5-1.5s0.7-1.5,1.5-1.5h27.4c0.8,0,1.5,0.7,1.5,1.5S102.7,57.8,101.9,57.8z"/>
		</g>
		<g>
			<path d="M65.4,76H47.2c-0.8,0-1.5-0.7-1.5-1.5s0.7-1.5,1.5-1.5h18.2c0.8,0,1.5,0.7,1.5,1.5S66.2,76,65.4,76z"/>
		</g>
		<g>
			<path d="M92.7,76H74.6c-0.8,0-1.5-0.7-1.5-1.5s0.7-1.5,1.5-1.5h18.1c0.8,0,1.5,0.7,1.5,1.5S93.5,76,92.7,76z"/>
		</g>
		<g>
			<path d="M83.6,103.2H47.2c-0.8,0-1.5-0.7-1.5-1.5s0.7-1.5,1.5-1.5h36.4c0.8,0,1.5,0.7,1.5,1.5S84.4,103.2,83.6,103.2z"/>
		</g>
		<g>
			<path d="M111,103.2H92.7c-0.8,0-1.5-0.7-1.5-1.5s0.7-1.5,1.5-1.5H111c0.8,0,1.5,0.7,1.5,1.5S111.8,103.2,111,103.2z"/>
		</g>
		<g>
			<path d="M56.4,121.5h-9.2c-0.8,0-1.5-0.7-1.5-1.5s0.7-1.5,1.5-1.5h9.2c0.8,0,1.5,0.7,1.5,1.5S57.2,121.5,56.4,121.5z"/>
		</g>
		<g>
			<path d="M111,121.5H65.4c-0.8,0-1.5-0.7-1.5-1.5s0.7-1.5,1.5-1.5H111c0.8,0,1.5,0.7,1.5,1.5S111.8,121.5,111,121.5z"/>
		</g>
	</g>
</g>
</svg>
