<?xml version="1.0" encoding="utf-8"?>
<!-- Generator: Adobe Illustrator 26.0.2, SVG Export Plug-In . SVG Version: 6.00 Build 0)  -->
<svg version="1.1" xmlns="http://www.w3.org/2000/svg" xmlns:xlink="http://www.w3.org/1999/xlink" x="0px" y="0px"
	 viewBox="0 0 112.8 131.3" style="enable-background:new 0 0 112.8 131.3;" xml:space="preserve">
<g id="show-on-hover">
	<g id="Role_Playing_Over">
		<g>
			<circle style="fill:#24B265;stroke:#000000;stroke-width:3;stroke-miterlimit:10;" cx="29" cy="102" r="27.3"/>
			<path style="fill:#FFFFFF;stroke:#000000;stroke-width:3;stroke-miterlimit:10;" d="M46.3,123.2c-4.7,3.9-10.7,6.2-17.3,6.2
				s-12.6-2.3-17.3-6.2C14.2,116.1,21,111,29,111C37,110.9,43.8,116,46.3,123.2z"/>
			<circle style="fill:#FFFFFF;stroke:#000000;stroke-width:3;stroke-miterlimit:10;" cx="28.9" cy="93.1" r="9.7"/>
		</g>
		<g>
			<circle style="stroke:#000000;stroke-width:3;stroke-miterlimit:10;" cx="83.5" cy="29.3" r="27.3"/>
			<path style="fill:#24B265;stroke:#000000;stroke-width:3;stroke-miterlimit:10;" d="M100.9,50.4c-4.7,3.9-10.7,6.2-17.3,6.2
				S71,54.3,66.3,50.4c2.5-7.1,9.3-12.2,17.3-12.2C91.5,38.2,98.3,43.3,100.9,50.4z"/>
			<circle style="fill:#24B265;stroke:#000000;stroke-width:3;stroke-miterlimit:10;" cx="83.5" cy="20.3" r="9.7"/>
		</g>
		<g>
			
				<polyline style="fill:none;stroke:#000000;stroke-width:3;stroke-linecap:round;stroke-linejoin:round;stroke-miterlimit:10;" points="
				13,59.4 17.8,65.8 24.3,61 			"/>
			<path style="fill:none;stroke:#000000;stroke-width:3;stroke-linecap:round;stroke-linejoin:round;stroke-miterlimit:10;" d="
				M18.2,63.8c1.3-16.7,13.2-30.5,29-34.5"/>
		</g>
		<g>
			
				<polyline style="fill:none;stroke:#000000;stroke-width:3;stroke-linecap:round;stroke-linejoin:round;stroke-miterlimit:10;" points="
				99.3,72.2 94.6,65.7 88.1,70.5 			"/>
			<path style="fill:none;stroke:#000000;stroke-width:3;stroke-linecap:round;stroke-linejoin:round;stroke-miterlimit:10;" d="
				M94.2,67.8c-1.3,16.6-13.1,30.3-28.9,34.3"/>
		</g>
	</g>
</g>
<g id="ROLEPLAYING">
	<g id="Role_Playing_Base">
		<g>
			<circle style="fill:none;stroke:#000000;stroke-width:3;stroke-miterlimit:10;" cx="29" cy="102" r="27.3"/>
			<path style="fill:#FFFFFF;stroke:#000000;stroke-width:3;stroke-miterlimit:10;" d="M46.3,123.2c-4.7,3.9-10.7,6.2-17.3,6.2
				s-12.6-2.3-17.3-6.2C14.2,116.1,21,111,29,111C37,110.9,43.8,116,46.3,123.2z"/>
			<circle style="fill:#FFFFFF;stroke:#000000;stroke-width:3;stroke-miterlimit:10;" cx="28.9" cy="93.1" r="9.7"/>
		</g>
		<g>
			<circle style="stroke:#000000;stroke-width:3;stroke-miterlimit:10;" cx="83.5" cy="29.3" r="27.3"/>
			<path style="fill:#FFFFFF;stroke:#000000;stroke-width:3;stroke-miterlimit:10;" d="M100.9,50.4c-4.7,3.9-10.7,6.2-17.3,6.2
				S71,54.3,66.3,50.4c2.5-7.1,9.3-12.2,17.3-12.2C91.5,38.2,98.3,43.3,100.9,50.4z"/>
			<circle style="fill:#FFFFFF;stroke:#000000;stroke-width:3;stroke-miterlimit:10;" cx="83.5" cy="20.3" r="9.7"/>
		</g>
		<g>
			
				<polyline style="fill:none;stroke:#000000;stroke-width:3;stroke-linecap:round;stroke-linejoin:round;stroke-miterlimit:10;" points="
				13,59.4 17.8,65.8 24.3,61 			"/>
			<path style="fill:none;stroke:#000000;stroke-width:3;stroke-linecap:round;stroke-linejoin:round;stroke-miterlimit:10;" d="
				M18.2,63.8c1.3-16.7,13.2-30.5,29-34.5"/>
		</g>
		<g>
			
				<polyline style="fill:none;stroke:#000000;stroke-width:3;stroke-linecap:round;stroke-linejoin:round;stroke-miterlimit:10;" points="
				99.3,72.2 94.6,65.7 88.1,70.5 			"/>
			<path style="fill:none;stroke:#000000;stroke-width:3;stroke-linecap:round;stroke-linejoin:round;stroke-miterlimit:10;" d="
				M94.2,67.8c-1.3,16.6-13.1,30.3-28.9,34.3"/>
		</g>
	</g>
</g>
</svg>
