<?xml version="1.0" encoding="utf-8"?>
<!-- Generator: Adobe Illustrator 26.3.1, SVG Export Plug-In . SVG Version: 6.00 Build 0)  -->
<svg version="1.1" xmlns="http://www.w3.org/2000/svg" xmlns:xlink="http://www.w3.org/1999/xlink" x="0px" y="0px"
	 viewBox="0 0 131 122" style="enable-background:new 0 0 131 122;" xml:space="preserve">
<g id="show-on-hover_00000054239082255305473520000017854864741022348462_">
	<g id="show-on-hover_00000163756100285061468840000004139451761200934530_">
		<g id="show-on-hover">
			<g id="Tavola_di_Progetto_Over_00000083068889948348550460000000555655513950950537_">
				<g id="Tavola_di_Progetto_Over">
					<g>
						<g>
							<g>
								<g>
									<g>
										<g>
											<g>
												<defs>
													<rect id="SVGID_1_" x="0.3" y="0.3" width="130.4" height="121.3"/>
												</defs>
												<clipPath id="SVGID_00000169535228100072431340000003910624798398499969_">
													<use xlink:href="#SVGID_1_"  style="overflow:visible;"/>
												</clipPath>
												<g style="clip-path:url(#SVGID_00000169535228100072431340000003910624798398499969_);">
													<path style="fill:#F45A5D;stroke:#1D1D1B;stroke-width:3;stroke-miterlimit:10;" d="M129.2,7.5v12.6H1.8V7.5
														c0-1.5,0.6-3,1.7-4c1.1-1.1,2.5-1.7,4-1.7h116.1c1.5,0,3,0.6,4,1.7C128.6,4.6,129.2,6,129.2,7.5z"/>
													<path style="fill:#1D1D1B;" d="M120.1,15.4c2.5,0,4.6-2.1,4.6-4.6s-2.1-4.6-4.6-4.6s-4.6,2.1-4.6,4.6
														S117.5,15.4,120.1,15.4z"/>
													<path style="fill:#1D1D1B;" d="M101.8,15.4c2.5,0,4.6-2.1,4.6-4.6s-2.1-4.6-4.6-4.6s-4.6,2.1-4.6,4.6
														C97.2,13.3,99.3,15.4,101.8,15.4z"/>
													<path style="fill:#1D1D1B;" d="M83.6,15.4c2.5,0,4.6-2.1,4.6-4.6s-2.1-4.6-4.6-4.6S79,8.3,79,10.8
														C79,13.4,81.1,15.4,83.6,15.4z"/>
													<path style="fill:none;stroke:#1D1D1B;stroke-width:3;stroke-miterlimit:10;" d="M123.5,1.8H7.5
														c-3.1,0-5.7,2.5-5.7,5.7v107c0,3.1,2.5,5.7,5.7,5.7h116.1c3.1,0,5.7-2.5,5.7-5.7V7.5C129.2,4.4,126.7,1.8,123.5,1.8z"
														/>
													<path style="fill:none;stroke:#1D1D1B;stroke-width:3;stroke-miterlimit:10;" d="M1.8,20.1h127.5"/>
													<path style="stroke:#1D1D1B;stroke-width:3;stroke-miterlimit:10;" d="M41.7,29H16.5c-3.1,0-5.7,2.5-5.7,5.7v25.2
														c0,3.1,2.5,5.7,5.7,5.7h25.2c3.1,0,5.7-2.5,5.7-5.7V34.7C47.4,31.5,44.9,29,41.7,29z"/>
													<path style="fill:#F45A5D;stroke:#1D1D1B;stroke-width:3;stroke-miterlimit:10;" d="M114.4,29H70.9
														c-3.1,0-5.7,2.5-5.7,5.7v71.2c0,3.1,2.5,5.7,5.7,5.7h43.5c3.1,0,5.7-2.5,5.7-5.7V34.7C120.1,31.5,117.5,29,114.4,29z"
														/>
													<path style="fill:none;stroke:#1D1D1B;stroke-width:3;stroke-miterlimit:10;" d="M41.7,75H16.5c-3.1,0-5.7,2.5-5.7,5.7
														v25.2c0,3.1,2.5,5.7,5.7,5.7h25.2c3.1,0,5.7-2.5,5.7-5.7V80.6C47.4,77.5,44.9,75,41.7,75z"/>
													<path style="fill:none;stroke:#1D1D1B;stroke-width:3;stroke-linecap:round;stroke-linejoin:round;" d="M74.6,47.3
														h27.3"/>
													<path style="fill:none;stroke:#1D1D1B;stroke-width:3;stroke-linecap:round;stroke-linejoin:round;" d="M74.6,65.6
														h18.1"/>
													<path style="fill:none;stroke:#1D1D1B;stroke-width:3;stroke-linecap:round;stroke-linejoin:round;" d="M74.6,83.8
														h27.3"/>
													<path style="fill:none;stroke:#1D1D1B;stroke-width:3;stroke-linecap:round;stroke-linejoin:round;" d="M74.6,74.6H111
														"/>
													<path style="fill:none;stroke:#1D1D1B;stroke-width:3;stroke-linecap:round;stroke-linejoin:round;" d="M101.9,65.6
														h9.1"/>
												</g>
											</g>
										</g>
									</g>
								</g>
							</g>
						</g>
					</g>
				</g>
			</g>
		</g>
	</g>
</g>
<g id="Livello_2">
	<g id="Livello_2_00000134210709956932442350000001588056802052009633_">
		<g id="TAVOLADIPROGETTO">
			<g id="Tavola_di_Progetto_base_00000015345526631424435270000005932850060173584021_">
				<g id="Tavola_di_Progetto_base">
					<g>
						<g>
							<g>
								<g>
									<g>
										<g>
											<g>
												<g>
													<defs>
														
															<rect id="SVGID_00000145036259273553252000000002884301687891465646_" x="0.3" y="0.4" width="130.4" height="121.6"/>
													</defs>
													<clipPath id="SVGID_00000097477608460082861820000006798707908170970247_">
														<use xlink:href="#SVGID_00000145036259273553252000000002884301687891465646_"  style="overflow:visible;"/>
													</clipPath>
													<g style="clip-path:url(#SVGID_00000097477608460082861820000006798707908170970247_);">
														<path style="fill:none;stroke:#1D1D1B;stroke-width:3;stroke-miterlimit:10;" d="M129.2,7.6v12.6H1.8V7.6
															c0-1.5,0.6-3,1.7-4c1.1-1.1,2.5-1.7,4-1.7h116.1c1.5,0,3,0.6,4,1.7C128.6,4.6,129.2,6.1,129.2,7.6L129.2,7.6z"/>
														<path style="fill:#1D1D1B;" d="M120.1,15.5c2.5,0,4.6-2.1,4.6-4.6s-2.1-4.6-4.6-4.6s-4.6,2.1-4.6,4.6
															S117.5,15.5,120.1,15.5z"/>
														<path style="fill:#1D1D1B;" d="M101.8,15.5c2.5,0,4.6-2.1,4.6-4.6s-2.1-4.6-4.6-4.6s-4.6,2.1-4.6,4.6
															C97.2,13.4,99.3,15.5,101.8,15.5z"/>
														<path style="fill:#1D1D1B;" d="M83.6,15.6c2.5,0,4.6-2.1,4.6-4.6s-2.1-4.6-4.6-4.6S79,8.4,79,11
															C79,13.5,81.1,15.6,83.6,15.6z"/>
														<path style="fill:none;stroke:#1D1D1B;stroke-width:3;stroke-miterlimit:10;" d="M123.5,1.9H7.5
															c-3.1,0-5.7,2.5-5.7,5.7v107.2c0,3.1,2.5,5.7,5.7,5.7h116.1c3.1,0,5.7-2.5,5.7-5.7V7.6C129.2,4.5,126.7,1.9,123.5,1.9
															z"/>
														<path style="fill:none;stroke:#1D1D1B;stroke-width:3;stroke-miterlimit:10;" d="M1.8,20.2h127.4"/>
														<path style="stroke:#1D1D1B;stroke-width:3;stroke-miterlimit:10;" d="M41.7,29.1H16.5c-3.1,0-5.7,2.5-5.7,5.7v25.3
															c0,3.1,2.5,5.7,5.7,5.7h25.2c3.1,0,5.7-2.5,5.7-5.7V34.8C47.4,31.7,44.9,29.1,41.7,29.1z"/>
														<path style="fill:none;stroke:#1D1D1B;stroke-width:3;stroke-miterlimit:10;" d="M114.4,29.1H70.9
															c-3.1,0-5.7,2.5-5.7,5.7v71.4c0,3.1,2.5,5.7,5.7,5.7h43.5c3.1,0,5.7-2.5,5.7-5.7V34.8
															C120.1,31.7,117.5,29.1,114.4,29.1z"/>
														<path style="fill:none;stroke:#1D1D1B;stroke-width:3;stroke-miterlimit:10;" d="M41.7,75.2H16.5
															c-3.1,0-5.7,2.5-5.7,5.7v25.3c0,3.1,2.5,5.7,5.7,5.7h25.2c3.1,0,5.7-2.5,5.7-5.7V80.9C47.4,77.8,44.9,75.2,41.7,75.2z
															"/>
														<path style="fill:none;stroke:#1D1D1B;stroke-width:3;stroke-linecap:round;stroke-linejoin:round;" d="M74.6,47.5
															h27.3"/>
														<path style="fill:none;stroke:#1D1D1B;stroke-width:3;stroke-linecap:round;stroke-linejoin:round;" d="M74.6,65.8
															h18.1"/>
														<path style="fill:none;stroke:#1D1D1B;stroke-width:3;stroke-linecap:round;stroke-linejoin:round;" d="M74.6,84.1
															h27.3"/>
														<path style="fill:none;stroke:#1D1D1B;stroke-width:3;stroke-linecap:round;stroke-linejoin:round;" d="M74.6,74.9
															H111"/>
														<path style="fill:none;stroke:#1D1D1B;stroke-width:3;stroke-linecap:round;stroke-linejoin:round;" d="M101.9,65.8
															h9.1"/>
													</g>
												</g>
											</g>
										</g>
									</g>
								</g>
							</g>
						</g>
					</g>
				</g>
			</g>
		</g>
	</g>
</g>
</svg>
