<svg width="48" height="48" viewBox="0 0 48 48" fill="none" xmlns="http://www.w3.org/2000/svg">
<circle cx="24" cy="24" r="24" fill="white"/>
<path d="M22.2501 18.1393L17.1424 23.247C17.032 23.3583 16.9005 23.4467 16.7558 23.507C16.611 23.5673 16.4557 23.5983 16.2988 23.5983C16.142 23.5983 15.9867 23.5673 15.8419 23.507C15.6971 23.4467 15.5657 23.3583 15.4552 23.247L10.3513 18.1431C10.24 18.0326 10.1516 17.9012 10.0913 17.7564C10.031 17.6116 10 17.4563 10 17.2995C10 17.1426 10.031 16.9873 10.0913 16.8425C10.1516 16.6977 10.24 16.5663 10.3513 16.4558L15.4552 11.3482C15.6793 11.1252 15.9826 11 16.2988 11C16.615 11 16.9183 11.1252 17.1424 11.3482L22.2501 16.4558C22.472 16.6798 22.5964 16.9823 22.5964 17.2976C22.5964 17.6128 22.472 17.9153 22.2501 18.1393Z" fill="#FCBB16"/>
<path d="M16.4548 37.476C19.7031 37.476 22.3364 34.8428 22.3364 31.5945C22.3364 28.3462 19.7031 25.7129 16.4548 25.7129C13.2065 25.7129 10.5732 28.3462 10.5732 31.5945C10.5732 34.8428 13.2065 37.476 16.4548 37.476Z" fill="#4EAAF0"/>
<path d="M36.6703 26.9091V36.2856C36.6698 36.6018 36.5441 36.905 36.3206 37.1288C36.0972 37.3526 35.7942 37.4788 35.4779 37.4798H26.1015C25.7847 37.4793 25.481 37.3534 25.2569 37.1296C25.0327 36.9058 24.9063 36.6023 24.9053 36.2856V26.9091C24.9058 26.592 25.032 26.288 25.2562 26.0638C25.4804 25.8396 25.7844 25.7134 26.1015 25.7129H35.4779C35.7945 25.7139 36.0978 25.8404 36.3213 26.0646C36.5448 26.2888 36.6703 26.5925 36.6703 26.9091V26.9091Z" fill="#F45A5D"/>
<path d="M30.7868 23.1459C34.0351 23.1459 36.6684 20.5127 36.6684 17.2644C36.6684 14.0161 34.0351 11.3828 30.7868 11.3828C27.5385 11.3828 24.9053 14.0161 24.9053 17.2644C24.9053 20.5127 27.5385 23.1459 30.7868 23.1459Z" fill="#24B265"/>
</svg>
