<svg width="8" height="12" viewBox="0 0 8 12" fill="none" xmlns="http://www.w3.org/2000/svg">
<path d="M2.57717 11.2526C3.03713 11.2524 3.47818 11.0695 3.80342 10.7443C4.12866 10.4191 4.31149 9.97802 4.31174 9.51807V7.7832H2.57717C2.1171 7.78337 1.67593 7.9662 1.35061 8.29152C1.02529 8.61683 0.842454 9.058 0.842285 9.51807C0.842538 9.97807 1.02541 10.4192 1.35072 10.7444C1.67603 11.0697 2.11716 11.2524 2.57717 11.2526Z" fill="#0ACF83"/>
<path d="M0.842285 6.04704C0.842454 5.58701 1.0253 5.14587 1.35063 4.82061C1.67595 4.49535 2.11713 4.31258 2.57717 4.3125H4.31174V7.78031H2.57717C2.11735 7.78023 1.67637 7.59764 1.35108 7.27265C1.02579 6.94767 0.842791 6.50685 0.842285 6.04704Z" fill="#A259FF"/>
<path d="M0.842285 2.58025C0.842538 2.12024 1.02541 1.67915 1.35072 1.35391C1.67603 1.02866 2.11716 0.845872 2.57717 0.845703H4.31174V4.31352H2.57717C2.11738 4.31335 1.67644 4.13073 1.35117 3.80577C1.0259 3.4808 0.842875 3.04003 0.842285 2.58025Z" fill="#F24E1E"/>
<path d="M4.31152 0.84375H6.04609C6.27406 0.84375 6.49979 0.888658 6.71039 0.975914C6.921 1.06317 7.11235 1.19107 7.27352 1.35229C7.43469 1.51351 7.56251 1.70491 7.64969 1.91554C7.73687 2.12617 7.7817 2.35192 7.78162 2.57988C7.78145 3.03994 7.59861 3.48111 7.2733 3.80643C6.94798 4.13174 6.5068 4.31457 6.04673 4.31474H4.31216L4.31152 0.84375Z" fill="#FF7262"/>
<path d="M7.78196 6.04705C7.78179 6.50708 7.59895 6.94822 7.27362 7.27348C6.94829 7.59874 6.50711 7.78151 6.04707 7.78159C5.58709 7.78142 5.14599 7.59862 4.82073 7.27337C4.49547 6.94812 4.31267 6.50702 4.3125 6.04705C4.31267 5.58707 4.49547 5.14598 4.82073 4.82072C5.14599 4.49547 5.58709 4.31267 6.04707 4.3125C6.50711 4.31258 6.94829 4.49535 7.27362 4.82061C7.59895 5.14587 7.78179 5.58701 7.78196 6.04705Z" fill="#1ABCFE"/>
</svg>
