<svg width="1728" height="778" viewBox="0 0 1728 778" fill="none" xmlns="http://www.w3.org/2000/svg">
<path d="M1271.55 38.6112L1316.45 142.984C1317.44 145.248 1317.98 147.683 1318.02 150.148C1318.07 152.612 1317.63 155.059 1316.73 157.345C1315.83 159.631 1314.48 161.711 1312.77 163.466C1311.06 165.221 1309.01 166.617 1306.75 167.571L1203.02 211.834C1200.77 212.805 1198.35 213.317 1195.9 213.343C1193.44 213.368 1191 212.906 1188.72 211.982C1186.43 211.059 1184.35 209.692 1182.59 207.962C1180.83 206.231 1179.42 204.171 1178.46 201.9L1133.48 97.5781C1131.52 93.0007 1131.45 87.8466 1133.26 83.2406C1135.08 78.6346 1138.65 74.9502 1143.18 72.9913L1246.91 28.7278C1249.16 27.7567 1251.59 27.242 1254.04 27.2132C1256.5 27.1844 1258.95 27.6422 1261.24 28.5602C1263.52 29.4782 1265.61 30.8383 1267.38 32.5629C1269.15 34.2876 1270.57 36.3431 1271.55 38.6112V38.6112Z" fill="#FCBB16"/>
<path d="M307.378 657.253L327.84 725.422C328.294 726.902 328.451 728.455 328.304 729.992C328.157 731.53 327.707 733.02 326.982 734.378C326.257 735.736 325.27 736.934 324.078 737.904C322.887 738.873 321.514 739.595 320.04 740.027L252.319 760.137C250.849 760.58 249.305 760.725 247.775 760.565C246.245 760.405 244.759 759.942 243.404 759.204C242.049 758.466 240.851 757.466 239.88 756.263C238.908 755.06 238.182 753.677 237.743 752.194L217.23 684.052C216.341 681.063 216.662 677.85 218.123 675.114C219.585 672.378 222.068 670.341 225.031 669.447L292.752 649.337C294.223 648.894 295.769 648.747 297.301 648.905C298.833 649.064 300.32 649.524 301.679 650.259C303.037 650.994 304.24 651.99 305.218 653.19C306.196 654.391 306.93 655.771 307.378 657.253V657.253Z" fill="#F45A5D"/>
<circle cx="1693.5" cy="659.5" r="99.5" fill="#24B265"/>
<circle cx="69.5" cy="305.5" r="130.5" fill="#4EAAF0"/>
</svg>
