<?xml version="1.0" encoding="utf-8"?>
<!-- Generator: Adobe Illustrator 26.3.1, SVG Export Plug-In . SVG Version: 6.00 Build 0)  -->
<svg version="1.1" id="Livello_1" xmlns="http://www.w3.org/2000/svg" xmlns:xlink="http://www.w3.org/1999/xlink" x="0px" y="0px"
	 viewBox="0 0 1728 778" style="enable-background:new 0 0 1728 778;" xml:space="preserve">
<style type="text/css">
	.st0{fill:#FCBB16;}
	.st1{fill:#F45A5D;}
	.st2{fill:#24B265;}
	.st3{fill:#4EAAF0;}
</style>
<path class="st0" d="M1271.6,38.6l44.9,104.4c1,2.3,1.5,4.7,1.6,7.2c0,2.5-0.4,4.9-1.3,7.2s-2.2,4.4-4,6.1c-1.7,1.8-3.8,3.2-6,4.1
	L1203,211.8c-2.2,1-4.7,1.5-7.1,1.5c-2.5,0-4.9-0.4-7.2-1.4c-2.3-0.9-4.4-2.3-6.1-4c-1.8-1.7-3.2-3.8-4.1-6.1l-45-104.3
	c-2-4.6-2-9.7-0.2-14.3c1.8-4.6,5.4-8.3,9.9-10.2l103.7-44.3c2.2-1,4.7-1.5,7.1-1.5c2.5,0,4.9,0.4,7.2,1.3c2.3,0.9,4.4,2.3,6.1,4
	C1269.2,34.3,1270.6,36.3,1271.6,38.6L1271.6,38.6z"/>
<path class="st1" d="M307.4,657.3l20.5,68.2c0.5,1.5,0.6,3,0.5,4.6c-0.1,1.5-0.6,3-1.3,4.4c-0.7,1.4-1.7,2.6-2.9,3.5
	c-1.2,1-2.6,1.7-4,2.1l-67.7,20.1c-1.5,0.4-3,0.6-4.5,0.4s-3-0.6-4.4-1.4c-1.4-0.7-2.6-1.7-3.5-2.9c-1-1.2-1.7-2.6-2.1-4.1
	l-20.5-68.1c-0.9-3-0.6-6.2,0.9-8.9c1.5-2.7,3.9-4.8,6.9-5.7l67.7-20.1c1.5-0.4,3-0.6,4.5-0.4c1.5,0.2,3,0.6,4.4,1.4
	c1.4,0.7,2.6,1.7,3.5,2.9C306.2,654.4,306.9,655.8,307.4,657.3L307.4,657.3z"/>
<circle class="st2" cx="1617.1" cy="583.1" r="99.5"/>
<circle class="st3" cx="69.5" cy="305.5" r="130.5"/>
</svg>
